<svg xmlns="http://www.w3.org/2000/svg" xmlns:xlink="http://www.w3.org/1999/xlink" width="1921" height="777.879" viewBox="0 0 1921 777.879">
  <defs>
    <clipPath id="clip-path">
      <rect id="Rectángulo_18894" data-name="Rectángulo 18894" width="1921" height="751" transform="translate(-1 94)" fill="#fff"/>
    </clipPath>
    <clipPath id="clip-path-2">
      <rect id="Rectángulo_18862" data-name="Rectángulo 18862" width="267.719" height="394.264" fill="none"/>
    </clipPath>
    <clipPath id="clip-path-3">
      <rect id="Rectángulo_18861" data-name="Rectángulo 18861" width="608.91" height="239.985" fill="none"/>
    </clipPath>
  </defs>
  <g id="Grupo_20096" data-name="Grupo 20096" transform="translate(1 -94)">
    <g id="Enmascarar_grupo_41" data-name="Enmascarar grupo 41" clip-path="url(#clip-path)">
      <g id="Grupo_20094" data-name="Grupo 20094">
        <rect id="Rectángulo_18893" data-name="Rectángulo 18893" width="1920" height="751" transform="translate(0 92)" fill="#ffe5de"/>
        <g id="Grupo_19963" data-name="Grupo 19963" transform="translate(0 29)">
          <g id="Elipse_383" data-name="Elipse 383" transform="translate(639 -291)" fill="none" stroke="#e0251b" stroke-width="5">
            <ellipse cx="713.5" cy="713" rx="713.5" ry="713" stroke="none"/>
            <ellipse cx="713.5" cy="713" rx="711" ry="710.5" fill="none"/>
          </g>
          <ellipse id="Elipse_384" data-name="Elipse 384" cx="695.5" cy="695" rx="695.5" ry="695" transform="translate(657 -273)" fill="#e1251b"/>
        </g>
        <g id="Grupo_19945" data-name="Grupo 19945" transform="translate(558 448.969)">
          <g id="Grupo_19944" data-name="Grupo 19944" clip-path="url(#clip-path-2)">
            <path id="Trazado_23394" data-name="Trazado 23394" d="M103.3,272.445c-2.284,7.068-4.519,14-6.485,20.3l-.264-1.026q-1.162-.068-2.343-.068a39.345,39.345,0,0,0-20.082,73.2.7.7,0,0,1-.679.7c-15.57.281-33.246,10.219-36.728,27.086H243.944c-3.531-17.114-21.679-27.093-37.411-27.093v-.691a39.346,39.346,0,0,0-20.083-73.2c-.494,0-.984.012-1.473.03-4.267-18.335-10.463-45.164-13.208-58.051a18.689,18.689,0,0,1,11.714-21.483l.207-.075.255-.092a20.611,20.611,0,0,0,13.584-19.387l-.005-35.49,76.15-87.243a20.729,20.729,0,0,0-3.084-30.154h0a20.738,20.738,0,0,0-29.876,5.164L177.24,141.723l-.554-.256,32.676-111.1a20.731,20.731,0,1,0-40.389-8.924L151.829,135.973,123.441,162.13a20.606,20.606,0,0,0-5.981,22.883c.035.093.067.187.1.279,5.4,12.834,6.3,19.125-1.776,47.326-1.02,3.559-2.2,7.471-3.475,11.6a67.539,67.539,0,0,1-44.553-76.536,14.823,14.823,0,1,0-29.124-5.537,97.31,97.31,0,0,0,64.668,110.3" transform="translate(-13.455 -1.381)" fill="#fff"/>
            <path id="Trazado_23395" data-name="Trazado 23395" d="M232.51,276.6a4.681,4.681,0,0,1-1.966-.433l-6.452-2.983a4.451,4.451,0,0,1-1.991-6.258,4.558,4.558,0,0,1,5.859-1.76l6.452,2.982a4.424,4.424,0,0,1-1.9,8.451M225.983,268a1.134,1.134,0,0,0-1.143,1.493,1.161,1.161,0,0,0,.626.71h0l6.452,2.984a1.282,1.282,0,0,0,1.641-.414,1.175,1.175,0,0,0-.523-1.658l-6.452-2.982a1.433,1.433,0,0,0-.6-.132" transform="translate(-81.155 -96.99)" fill="#e1251b"/>
            <path id="Trazado_23396" data-name="Trazado 23396" d="M226.653,300.248a16.082,16.082,0,0,1-9.335-13.807L217.243,285l-1.148.879a16.084,16.084,0,0,1-16.566,1.83l1.375-2.973a12.815,12.815,0,0,0,13.2-1.459l3.619-2.77,2.631,1.217.234,4.551a12.817,12.817,0,0,0,7.439,11Z" transform="translate(-73.102 -102.769)" fill="#e1251b"/>
            <path id="Trazado_23397" data-name="Trazado 23397" d="M206.3,290.8a16.12,16.12,0,0,1-6.775-1.5l1.375-2.973a12.815,12.815,0,0,0,13.2-1.459l1.99,2.6a16.089,16.089,0,0,1-9.79,3.326" transform="translate(-73.102 -104.37)" fill="#e1251b"/>
            <path id="Trazado_23398" data-name="Trazado 23398" d="M33.021,389.975h-.505v4.288H245.325l-.311-1.992c-1.39-8.9-6.656-16.917-14.828-22.57a45.69,45.69,0,0,0-19.224-7.493,42.23,42.23,0,0,0,10.045-11.642A41.719,41.719,0,0,0,185.323,287.9c-4.248-18.267-10.131-43.776-12.766-56.145A16.353,16.353,0,0,1,182.764,213l.451-.163a23.054,23.054,0,0,0,15.156-21.627l-.005-34.6,75.563-86.57a23.217,23.217,0,0,0,5.584-17.573,22.865,22.865,0,0,0-8.948-15.988l-.076-.058a23.12,23.12,0,0,0-33.307,5.756l-55.8,85.146L210.1,29.663A23.12,23.12,0,0,0,192.916.558a22.868,22.868,0,0,0-18.07,3.519,23.211,23.211,0,0,0-9.77,15.637l-17.02,113.7-27.736,25.556a23.051,23.051,0,0,0-6.634,25.5l.024.065c.036.1.073.2.117.307,4.966,11.8,6.27,17.323-1.87,45.745-.776,2.711-1.674,5.729-2.728,9.174a65.171,65.171,0,0,1-40.669-73.006,17.205,17.205,0,0,0-33.8-6.427A99.7,99.7,0,0,0,98.779,272.55C97,278.066,95.35,283.2,93.866,287.9c-.4-.011-.8-.017-1.194-.017a41.709,41.709,0,0,0-36.1,62.679A42.25,42.25,0,0,0,66.619,362.21a45.715,45.715,0,0,0-19.537,7.709c-7.4,5.22-12.216,12.119-14.06,20.056M221.9,329.64a37.243,37.243,0,0,1-18.129,31.78l-1.16.693v4.425h2.382c14.458,0,30.761,8.81,34.736,23.717l-34.461-.04a35.474,35.474,0,0,0-10.124-13.837,39.756,39.756,0,0,0-12.706-6.955,101.1,101.1,0,0,0,8.383-28.219,98.094,98.094,0,0,0-.611-32.378l-.019-.091c-.045-.19-1.576-6.711-3.75-16.044a37.03,37.03,0,0,1,35.46,36.95M73.81,361.42a36.959,36.959,0,0,1,18.569-68.761c-1.957,6.315-3.546,11.714-4.656,16.026-2.272,8.826-2.631,19.383-1.041,30.528A100.331,100.331,0,0,0,96.307,370.2l4.247-2.161c-9.21-18.1-12.511-41.475-8.216-58.168,2.221-8.633,6.426-21.782,11.692-38.076l.726-2.246-2.239-.746A95.078,95.078,0,0,1,39.435,161.212a12.441,12.441,0,0,1,24.443,4.647A69.921,69.921,0,0,0,110.007,245.1l2.317.785.722-2.337c1.388-4.49,2.529-8.3,3.489-11.652,8.317-29.041,7.224-35.739,1.685-48.9-.012-.029-.022-.058-.032-.087l-.039-.108a18.272,18.272,0,0,1,5.291-20.237l29.077-26.789L169.787,20.419a18.349,18.349,0,1,1,35.747,7.9L172.278,141.387l4.287,1.978,64.6-98.572A18.356,18.356,0,0,1,267.581,40.2l.029.022a18.347,18.347,0,0,1,2.728,26.689L193.6,154.828l.005,36.384a18.281,18.281,0,0,1-12.015,17.148l-.468.169A20.773,20.773,0,0,0,170,218.163a21.307,21.307,0,0,0-2.1,14.581c4.3,20.175,17.2,75.151,17.642,77.034,3.79,19.565.579,42-8.591,60.022l-1.324,2.6,2.816.774c10.2,2.8,17.442,8.531,21.59,17.031l-40.771-.047v-.186H153.3c.249-4.611,1.126-15.8,4.211-36.335l-4.711-.707c-3.181,21.178-4.043,32.427-4.276,37.042H37.934c4.05-14.421,19.924-23.177,34.019-23.433a3.09,3.09,0,0,0,3.017-3.078v-1.352Z" transform="translate(-11.913 0)" fill="#e1251b"/>
            <path id="Trazado_23399" data-name="Trazado 23399" d="M68.084,161.594l-13.717,1.18a13.653,13.653,0,0,0,2.635-1.8c2.728-2.511,4.145-5.653,3.89-8.621a7.409,7.409,0,0,0-3.475-5.679c-4.441-2.858-11.629-1.683-16.369,2.679-2.3,2.12-3.942,6.266-5.015,9.928-1.681-3.425-4-7.23-6.636-8.925-5.416-3.489-12.7-3.42-16.585.155a7.407,7.407,0,0,0-2.456,6.189c.255,2.968,2.189,5.822,5.306,7.83a13.669,13.669,0,0,0,2.9,1.324L4.85,167.032a5.31,5.31,0,0,0-4.831,5.74l.727,8.447a5.31,5.31,0,0,0,5.739,4.83l.119-.01L9.9,224.4a5.31,5.31,0,0,0,5.739,4.83l52.423-4.509a5.31,5.31,0,0,0,4.831-5.739l-3.3-38.357.12-.011a5.31,5.31,0,0,0,4.831-5.739l-.726-8.447a5.311,5.311,0,0,0-5.74-4.831" transform="translate(0 -53.166)" fill="#fff"/>
            <path id="Trazado_23400" data-name="Trazado 23400" d="M68.084,161.595l-13.716,1.179a13.616,13.616,0,0,0,2.635-1.8c2.728-2.511,4.146-5.654,3.89-8.622a7.408,7.408,0,0,0-3.476-5.678c-4.441-2.858-11.628-1.683-16.369,2.679-2.3,2.119-3.942,6.266-5.014,9.928-1.682-3.425-4.005-7.231-6.636-8.926-5.416-3.489-12.7-3.42-16.585.155a7.408,7.408,0,0,0-2.457,6.189c.255,2.968,2.189,5.822,5.307,7.83a13.609,13.609,0,0,0,2.9,1.324l-13.715,1.18a5.31,5.31,0,0,0-4.83,5.74l.726,8.447a5.31,5.31,0,0,0,5.74,4.83l.118-.01,3.3,38.357a5.31,5.31,0,0,0,5.739,4.83l52.423-4.509a5.311,5.311,0,0,0,4.831-5.739l-3.3-38.357.122-.01a5.311,5.311,0,0,0,4.831-5.739l-.727-8.447a5.31,5.31,0,0,0-5.74-4.83m-24-8.945a11.882,11.882,0,0,1,6.8-3.034,6.563,6.563,0,0,1,4.107.824,2.939,2.939,0,0,1,1.44,2.3,6.492,6.492,0,0,1-2.462,4.941c-2.1,1.931-8.949,4.275-14.4,5.8.979-4.146,2.621-9.08,4.517-10.824m-29.263,3.666a2.943,2.943,0,0,1,1.026-2.509h0a6.568,6.568,0,0,1,3.906-1.513,11.888,11.888,0,0,1,7.221,1.827c2.164,1.4,4.626,5.975,6.3,9.893-5.635-.566-12.788-1.706-15.183-3.251a6.5,6.5,0,0,1-3.27-4.448m-9.61,24.52-.726-8.447a.826.826,0,0,1,.751-.893l29.385-2.528.868,10.092L6.1,181.587a.826.826,0,0,1-.893-.751m9.158,43.177-3.3-38.357,24.8-2.133,3.37,39.179-23.981,2.062a.827.827,0,0,1-.893-.751m54.069-4.65a.827.827,0,0,1-.752.893L43.7,222.318l-3.37-39.179,24.8-2.133Zm1.653-44.107a.827.827,0,0,1-.752.893l-29.386,2.528-.868-10.092,29.386-2.528a.826.826,0,0,1,.893.752Z" transform="translate(0 -53.166)" fill="#e1251b"/>
          </g>
        </g>
      </g>
    </g>
    <g id="Grupo_20095" data-name="Grupo 20095" transform="translate(0 631.895)">
      <g id="Grupo_19942" data-name="Grupo 19942" clip-path="url(#clip-path-3)">
        <path id="Trazado_23340" data-name="Trazado 23340" d="M365.018,28.933l-14.1,3.222A14.331,14.331,0,0,0,353.4,29.9c2.471-3.008,3.49-6.483,2.792-9.533a7.781,7.781,0,0,0-4.441-5.4c-5.034-2.327-12.339-.059-16.636,5.167-2.087,2.539-3.189,7.091-3.771,11.055-2.247-3.317-5.217-6.938-8.2-8.319-6.14-2.841-13.708-1.71-17.227,2.574a7.777,7.777,0,0,0-1.655,6.794c.7,3.05,3.124,5.737,6.658,7.372a14.335,14.335,0,0,0,3.212.954L300.04,43.785a5.577,5.577,0,0,0-4.19,6.672l1.984,8.68a5.577,5.577,0,0,0,6.672,4.189l.123-.028,9.009,39.416a5.578,5.578,0,0,0,6.672,4.189L374.181,94.59a5.576,5.576,0,0,0,4.19-6.672L369.361,48.5l.124-.029a5.578,5.578,0,0,0,4.19-6.672l-1.984-8.68a5.577,5.577,0,0,0-6.672-4.19" transform="translate(-98.931 -4.702)" fill="#fff"/>
        <path id="Trazado_23341" data-name="Trazado 23341" d="M365.018,28.933l-14.1,3.222A14.349,14.349,0,0,0,353.4,29.9c2.472-3.008,3.49-6.483,2.793-9.533a7.784,7.784,0,0,0-4.441-5.4c-5.035-2.327-12.34-.059-16.636,5.167-2.087,2.539-3.189,7.091-3.771,11.055-2.247-3.317-5.217-6.938-8.2-8.318-6.141-2.842-13.708-1.71-17.228,2.573a7.781,7.781,0,0,0-1.655,6.794c.7,3.05,3.124,5.737,6.658,7.372a14.307,14.307,0,0,0,3.213.954l-14.094,3.222a5.577,5.577,0,0,0-4.19,6.672l1.984,8.679a5.577,5.577,0,0,0,6.672,4.189l.122-.028,9.01,39.416a5.577,5.577,0,0,0,6.672,4.189L374.18,94.59a5.577,5.577,0,0,0,4.19-6.672L369.36,48.5l.124-.029a5.577,5.577,0,0,0,4.19-6.672l-1.984-8.68a5.577,5.577,0,0,0-6.672-4.19M338.751,23.12a12.478,12.478,0,0,1,6.634-4.144,6.9,6.9,0,0,1,4.391.26,3.087,3.087,0,0,1,1.831,2.179c.365,1.6-.323,3.65-1.841,5.5-1.9,2.312-8.686,5.747-14.139,8.122.415-4.455,1.406-9.825,3.124-11.915m-29.9,8.069a3.091,3.091,0,0,1,.7-2.758h0a6.892,6.892,0,0,1,3.842-2.142,12.485,12.485,0,0,1,7.776.851c2.454,1.136,5.68,5.542,7.991,9.373-5.944.23-13.548.085-16.266-1.173-2.169-1-3.682-2.556-4.047-4.151m-6.429,26.9-1.984-8.68a.868.868,0,0,1,.652-1.038l30.2-6.9,2.37,10.37-30.2,6.9a.868.868,0,0,1-1.039-.651m15.805,43.577-9.01-39.416L334.7,56.425l9.2,40.26-24.642,5.633a.868.868,0,0,1-1.038-.651m55.56-12.7A.869.869,0,0,1,373.132,90L348.49,95.637l-9.2-40.26,25.487-5.826Zm-4.7-46.115a.868.868,0,0,1-.652,1.038l-30.2,6.9-2.371-10.37,30.2-6.9a.868.868,0,0,1,1.038.652Z" transform="translate(-98.93 -4.702)" fill="#e1251b"/>
        <path id="Trazado_23342" data-name="Trazado 23342" d="M498.678,25.711l-14.316-2.03a14.306,14.306,0,0,0,3.122-1.22c3.384-1.926,5.577-4.807,6.016-7.9a7.783,7.783,0,0,0-2.217-6.631c-3.87-3.973-11.5-4.467-17.384-1.123-2.857,1.626-5.513,5.482-7.474,8.976-.912-3.9-2.392-8.345-4.684-10.7-4.719-4.849-12.19-6.5-17.009-3.756a7.778,7.778,0,0,0-3.975,5.753c-.439,3.1.866,6.474,3.582,9.265A14.3,14.3,0,0,0,447,18.381l-14.314-2.03a5.577,5.577,0,0,0-6.3,4.733l-1.25,8.816a5.578,5.578,0,0,0,4.734,6.3l.124.017-5.678,40.031a5.577,5.577,0,0,0,4.734,6.3l54.711,7.76a5.578,5.578,0,0,0,6.3-4.733l5.678-40.031.126.018a5.577,5.577,0,0,0,6.3-4.733l1.25-8.815a5.577,5.577,0,0,0-4.733-6.3" transform="translate(-141.938 0)" fill="#fff"/>
        <path id="Trazado_23343" data-name="Trazado 23343" d="M498.678,25.711l-14.316-2.03a14.32,14.32,0,0,0,3.122-1.22c3.384-1.926,5.576-4.807,6.016-7.9a7.782,7.782,0,0,0-2.217-6.632c-3.87-3.973-11.5-4.466-17.383-1.122-2.857,1.625-5.513,5.482-7.474,8.976-.912-3.9-2.392-8.345-4.685-10.7-4.718-4.849-12.19-6.5-17.009-3.756a7.783,7.783,0,0,0-3.975,5.753c-.439,3.1.866,6.475,3.582,9.266A14.305,14.305,0,0,0,447,18.381l-14.314-2.03a5.577,5.577,0,0,0-6.3,4.734l-1.25,8.815a5.576,5.576,0,0,0,4.733,6.3l.124.018-5.678,40.031a5.577,5.577,0,0,0,4.733,6.3l54.712,7.76a5.577,5.577,0,0,0,6.3-4.733l5.678-40.031.126.018a5.577,5.577,0,0,0,6.3-4.733l1.25-8.816a5.578,5.578,0,0,0-4.733-6.3M476.226,10.893a12.484,12.484,0,0,1,7.677-1.5,6.894,6.894,0,0,1,4.007,1.813,3.085,3.085,0,0,1,.932,2.69c-.23,1.62-1.607,3.293-3.685,4.475-2.6,1.481-10.166,2.263-16.108,2.531,1.981-4.011,4.826-8.673,7.177-10.01M445.415,7.737a3.091,3.091,0,0,1,1.643-2.325h0a6.9,6.9,0,0,1,4.354-.626A12.486,12.486,0,0,1,458.37,8.36c1.886,1.938,3.323,7.207,4.111,11.611-5.634-1.91-12.683-4.765-14.771-6.911-1.668-1.713-2.525-3.7-2.3-5.324M429.793,30.561l1.25-8.816a.869.869,0,0,1,.981-.737l30.667,4.35L461.2,35.891l-30.668-4.35a.867.867,0,0,1-.737-.98m-.82,46.346,5.678-40.031,25.886,3.672-5.8,40.889L429.71,77.888a.868.868,0,0,1-.737-.98m56.428,8a.867.867,0,0,1-.98.736L459.4,82.1l5.8-40.89L491.08,44.88Zm12.1-44.747a.868.868,0,0,1-.98.736l-30.669-4.35,1.494-10.532,30.669,4.35a.868.868,0,0,1,.737.98Z" transform="translate(-141.938 0)" fill="#e1251b"/>
        <path id="Trazado_23344" data-name="Trazado 23344" d="M254.245,50.832H239.786a14.331,14.331,0,0,0,2.919-1.646c3.08-2.382,4.846-5.543,4.846-8.671a7.782,7.782,0,0,0-3.126-6.255c-4.389-3.39-12.016-2.807-17.369,1.33-2.6,2.01-4.689,6.2-6.14,9.936-1.451-3.735-3.54-7.926-6.14-9.936-5.353-4.138-12.982-4.722-17.368-1.33a7.781,7.781,0,0,0-3.127,6.255c0,3.128,1.767,6.289,4.847,8.671a14.331,14.331,0,0,0,2.919,1.646H187.59a5.577,5.577,0,0,0-5.571,5.571v8.9a5.577,5.577,0,0,0,5.571,5.57h.126V111.31a5.578,5.578,0,0,0,5.571,5.571h55.259a5.577,5.577,0,0,0,5.571-5.571V70.878h.128a5.577,5.577,0,0,0,5.571-5.57V56.4a5.577,5.577,0,0,0-5.571-5.571" transform="translate(-60.895 -10.725)" fill="#fff"/>
        <path id="Trazado_23345" data-name="Trazado 23345" d="M254.245,50.832H239.786a14.331,14.331,0,0,0,2.919-1.646c3.08-2.382,4.846-5.543,4.846-8.671a7.782,7.782,0,0,0-3.126-6.255c-4.389-3.39-12.016-2.808-17.369,1.33-2.6,2.01-4.689,6.2-6.14,9.936-1.451-3.735-3.54-7.926-6.14-9.936-5.353-4.138-12.982-4.722-17.368-1.33a7.781,7.781,0,0,0-3.127,6.255c0,3.128,1.767,6.288,4.847,8.671a14.331,14.331,0,0,0,2.919,1.646H187.59a5.577,5.577,0,0,0-5.571,5.571v8.9a5.577,5.577,0,0,0,5.571,5.57h.126V111.31a5.577,5.577,0,0,0,5.571,5.57h55.259a5.577,5.577,0,0,0,5.571-5.57V70.878h.128a5.577,5.577,0,0,0,5.571-5.57V56.4a5.577,5.577,0,0,0-5.571-5.571m-24.31-11.52a12.475,12.475,0,0,1,7.39-2.562,6.889,6.889,0,0,1,4.223,1.232,3.086,3.086,0,0,1,1.3,2.532c0,1.636-1.129,3.486-3.02,4.948-2.368,1.831-9.748,3.668-15.593,4.768,1.4-4.25,3.56-9.265,5.7-10.919m-30.949,1.2a3.089,3.089,0,0,1,1.3-2.532h0a6.892,6.892,0,0,1,4.223-1.232,12.482,12.482,0,0,1,7.392,2.562c2.139,1.654,4.3,6.668,5.7,10.919-5.847-1.1-13.227-2.937-15.595-4.768-1.892-1.462-3.02-3.312-3.02-4.948M186.723,65.307V56.4a.868.868,0,0,1,.867-.867h30.975V66.174H187.59a.867.867,0,0,1-.867-.866m5.7,46V70.878h26.145v41.3H193.287a.867.867,0,0,1-.867-.866m56.993,0a.868.868,0,0,1-.867.866H223.269v-41.3h26.144Zm5.7-46a.868.868,0,0,1-.867.866H223.269V55.536h30.976a.868.868,0,0,1,.867.867Z" transform="translate(-60.895 -10.725)" fill="#e1251b"/>
        <path id="Trazado_23346" data-name="Trazado 23346" d="M592.549,75.816l-14.406,1.239a14.358,14.358,0,0,0,2.768-1.891c2.865-2.637,4.353-5.937,4.085-9.054a7.782,7.782,0,0,0-3.65-5.964c-4.664-3-12.213-1.767-17.191,2.814-2.419,2.226-4.14,6.581-5.266,10.426-1.765-3.6-4.206-7.593-6.969-9.373-5.688-3.665-13.339-3.592-17.418.163a7.779,7.779,0,0,0-2.579,6.5c.268,3.117,2.3,6.114,5.572,8.224a14.357,14.357,0,0,0,3.05,1.39l-14.4,1.238a5.578,5.578,0,0,0-5.073,6.028l.763,8.871a5.576,5.576,0,0,0,6.028,5.073l.125-.011,3.465,40.283a5.577,5.577,0,0,0,6.028,5.073l55.056-4.735a5.576,5.576,0,0,0,5.073-6.027L594.14,95.8l.126-.011a5.576,5.576,0,0,0,5.073-6.027l-.763-8.871a5.577,5.577,0,0,0-6.028-5.073" transform="translate(-174.318 -19.575)" fill="#fff"/>
        <path id="Trazado_23347" data-name="Trazado 23347" d="M592.549,75.816l-14.406,1.239a14.307,14.307,0,0,0,2.768-1.89c2.865-2.637,4.353-5.938,4.085-9.054a7.78,7.78,0,0,0-3.651-5.964c-4.663-3-12.212-1.767-17.19,2.814-2.419,2.226-4.14,6.581-5.266,10.426-1.766-3.6-4.206-7.594-6.969-9.374-5.688-3.665-13.339-3.592-17.418.163a7.783,7.783,0,0,0-2.58,6.5c.268,3.117,2.3,6.115,5.573,8.224a14.284,14.284,0,0,0,3.049,1.39l-14.4,1.239a5.577,5.577,0,0,0-5.073,6.028l.763,8.871a5.576,5.576,0,0,0,6.028,5.072l.125-.011,3.465,40.283a5.577,5.577,0,0,0,6.028,5.073l55.056-4.735a5.577,5.577,0,0,0,5.073-6.028L594.14,95.8l.126-.011a5.578,5.578,0,0,0,5.074-6.028l-.764-8.871a5.578,5.578,0,0,0-6.028-5.073m-25.208-9.393a12.476,12.476,0,0,1,7.143-3.186,6.894,6.894,0,0,1,4.313.866,3.086,3.086,0,0,1,1.512,2.412c.14,1.631-.826,3.571-2.585,5.189-2.2,2.028-9.4,4.49-15.127,6.087,1.027-4.355,2.752-9.536,4.744-11.367m-30.733,3.85a3.09,3.09,0,0,1,1.079-2.635h0a6.894,6.894,0,0,1,4.1-1.589,12.483,12.483,0,0,1,7.583,1.919c2.273,1.465,4.858,6.275,6.616,10.39-5.919-.595-13.43-1.792-15.946-3.414-2.009-1.294-3.293-3.041-3.434-4.671M526.516,96.025l-.763-8.871a.868.868,0,0,1,.79-.938l30.86-2.654.912,10.6-30.86,2.654a.868.868,0,0,1-.939-.789m9.618,45.345-3.465-40.283,26.05-2.24,3.539,41.147-25.185,2.166a.867.867,0,0,1-.938-.789m56.784-4.884a.869.869,0,0,1-.79.938l-25.185,2.166-3.539-41.147L589.453,96.2Zm1.735-46.322a.868.868,0,0,1-.79.938L563,93.756l-.912-10.6L592.952,80.5a.869.869,0,0,1,.939.79Z" transform="translate(-174.318 -19.575)" fill="#e1251b"/>
        <path id="Trazado_23348" data-name="Trazado 23348" d="M692.371,68.473l-14.316-2.03a14.273,14.273,0,0,0,3.122-1.221c3.384-1.925,5.577-4.806,6.016-7.9a7.783,7.783,0,0,0-2.217-6.631c-3.87-3.973-11.5-4.468-17.384-1.123-2.857,1.626-5.513,5.483-7.474,8.977-.912-3.9-2.392-8.345-4.684-10.7-4.719-4.848-12.19-6.5-17.009-3.755a7.777,7.777,0,0,0-3.975,5.753c-.439,3.1.866,6.474,3.582,9.265a14.331,14.331,0,0,0,2.658,2.04l-14.314-2.03a5.578,5.578,0,0,0-6.3,4.734l-1.25,8.816a5.578,5.578,0,0,0,4.734,6.3l.124.017-5.678,40.031a5.578,5.578,0,0,0,4.734,6.3l54.711,7.76a5.577,5.577,0,0,0,6.3-4.733L689.43,88.3l.126.018a5.577,5.577,0,0,0,6.3-4.733l1.25-8.815a5.577,5.577,0,0,0-4.733-6.3" transform="translate(-206.738 -14.306)" fill="#fff"/>
        <path id="Trazado_23349" data-name="Trazado 23349" d="M692.372,68.472l-14.315-2.03a14.32,14.32,0,0,0,3.122-1.22c3.384-1.926,5.576-4.807,6.016-7.9a7.781,7.781,0,0,0-2.217-6.632c-3.87-3.973-11.5-4.466-17.383-1.122-2.857,1.625-5.513,5.482-7.474,8.976-.912-3.9-2.392-8.345-4.685-10.7-4.718-4.849-12.19-6.5-17.009-3.756a7.783,7.783,0,0,0-3.975,5.753c-.439,3.1.866,6.475,3.582,9.266a14.3,14.3,0,0,0,2.659,2.04l-14.314-2.03a5.577,5.577,0,0,0-6.3,4.734l-1.25,8.815a5.576,5.576,0,0,0,4.733,6.3l.124.018-5.678,40.031a5.577,5.577,0,0,0,4.733,6.3l54.712,7.76a5.577,5.577,0,0,0,6.3-4.733L689.431,88.3l.126.018a5.577,5.577,0,0,0,6.3-4.733l1.25-8.816a5.578,5.578,0,0,0-4.734-6.3M669.92,53.654a12.484,12.484,0,0,1,7.677-1.5,6.894,6.894,0,0,1,4.007,1.813,3.085,3.085,0,0,1,.932,2.69c-.23,1.62-1.607,3.293-3.685,4.475-2.6,1.481-10.166,2.263-16.108,2.531,1.981-4.011,4.826-8.673,7.178-10.01M639.109,50.5a3.091,3.091,0,0,1,1.643-2.325h0a6.9,6.9,0,0,1,4.354-.626,12.484,12.484,0,0,1,6.959,3.575c1.886,1.938,3.323,7.207,4.111,11.611-5.634-1.91-12.683-4.765-14.771-6.911-1.668-1.713-2.525-3.7-2.3-5.324M623.487,73.322l1.25-8.816a.868.868,0,0,1,.98-.737l30.667,4.35-1.493,10.532L624.224,74.3a.867.867,0,0,1-.737-.98m-.82,46.346,5.678-40.031,25.886,3.672-5.8,40.889L623.4,120.649a.868.868,0,0,1-.737-.98m56.428,8a.868.868,0,0,1-.98.736l-25.026-3.549,5.8-40.89,25.885,3.672Zm12.1-44.747a.868.868,0,0,1-.98.736l-30.669-4.35,1.494-10.532,30.669,4.35a.868.868,0,0,1,.737.98Z" transform="translate(-206.739 -14.306)" fill="#e1251b"/>
        <path id="Trazado_23350" data-name="Trazado 23350" d="M346.529,140.918H332.07a14.331,14.331,0,0,0,2.919-1.646c3.08-2.382,4.846-5.543,4.846-8.671a7.782,7.782,0,0,0-3.126-6.255c-4.389-3.39-12.016-2.808-17.369,1.33-2.6,2.01-4.689,6.2-6.14,9.936-1.451-3.735-3.54-7.926-6.14-9.936-5.353-4.138-12.982-4.722-17.368-1.33a7.781,7.781,0,0,0-3.127,6.255c0,3.128,1.767,6.289,4.847,8.671a14.331,14.331,0,0,0,2.919,1.646H279.874a5.577,5.577,0,0,0-5.571,5.571v8.9a5.577,5.577,0,0,0,5.571,5.57H280V201.4a5.578,5.578,0,0,0,5.571,5.571H340.83A5.578,5.578,0,0,0,346.4,201.4V160.964h.127a5.577,5.577,0,0,0,5.571-5.57v-8.9a5.577,5.577,0,0,0-5.571-5.571" transform="translate(-91.769 -40.863)" fill="#fff"/>
        <path id="Trazado_23351" data-name="Trazado 23351" d="M346.529,140.918H332.07a14.331,14.331,0,0,0,2.919-1.646c3.08-2.382,4.846-5.543,4.846-8.671a7.782,7.782,0,0,0-3.126-6.255c-4.389-3.39-12.016-2.808-17.369,1.33-2.6,2.01-4.689,6.2-6.14,9.936-1.451-3.735-3.54-7.926-6.14-9.936-5.353-4.138-12.982-4.722-17.368-1.33a7.781,7.781,0,0,0-3.127,6.255c0,3.128,1.767,6.289,4.847,8.671a14.331,14.331,0,0,0,2.919,1.646H279.874a5.577,5.577,0,0,0-5.571,5.571v8.9a5.577,5.577,0,0,0,5.571,5.57H280V201.4a5.577,5.577,0,0,0,5.571,5.57H340.83a5.577,5.577,0,0,0,5.571-5.57V160.964h.128a5.577,5.577,0,0,0,5.571-5.57v-8.9a5.577,5.577,0,0,0-5.571-5.571m-24.31-11.52a12.473,12.473,0,0,1,7.39-2.562,6.893,6.893,0,0,1,4.223,1.232,3.088,3.088,0,0,1,1.3,2.533c0,1.636-1.129,3.487-3.02,4.948-2.368,1.831-9.748,3.668-15.593,4.768,1.4-4.25,3.56-9.265,5.7-10.919m-30.949,1.2a3.091,3.091,0,0,1,1.3-2.533,6.892,6.892,0,0,1,4.223-1.232,12.479,12.479,0,0,1,7.391,2.562c2.14,1.654,4.3,6.668,5.7,10.919-5.846-1.1-13.226-2.937-15.594-4.768-1.892-1.461-3.02-3.312-3.02-4.948m-12.262,24.792v-8.9a.868.868,0,0,1,.867-.867h30.975V156.26H279.874a.867.867,0,0,1-.867-.866m5.7,46V160.964h26.145v41.3H285.571a.867.867,0,0,1-.867-.866m56.993,0a.868.868,0,0,1-.867.866H315.553v-41.3H341.7Zm5.7-46a.868.868,0,0,1-.867.866H315.553V145.622h30.976a.868.868,0,0,1,.867.867Z" transform="translate(-91.769 -40.863)" fill="#e1251b"/>
        <path id="Trazado_23352" data-name="Trazado 23352" d="M444.525,140.937l-14.089-3.249a14.376,14.376,0,0,0,3.215-.948c3.536-1.629,5.968-4.311,6.671-7.36a7.778,7.778,0,0,0-1.64-6.8c-3.514-4.29-11.078-5.436-17.224-2.608-2.985,1.375-5.962,4.989-8.216,8.3-.575-3.966-1.668-8.52-3.75-11.063-4.285-5.236-11.588-7.519-16.624-5.2a7.778,7.778,0,0,0-4.454,5.391c-.7,3.048.308,6.525,2.775,9.539a14.311,14.311,0,0,0,2.474,2.26l-14.087-3.249a5.577,5.577,0,0,0-6.68,4.176l-2,8.676a5.578,5.578,0,0,0,4.177,6.68l.122.028-9.087,39.4a5.577,5.577,0,0,0,4.176,6.68l53.845,12.42a5.577,5.577,0,0,0,6.68-4.176l9.087-39.4.125.029a5.578,5.578,0,0,0,6.68-4.176l2-8.676a5.577,5.577,0,0,0-4.176-6.68" transform="translate(-122.434 -37.172)" fill="#fff"/>
        <path id="Trazado_23353" data-name="Trazado 23353" d="M444.525,140.936l-14.089-3.25a14.307,14.307,0,0,0,3.215-.948c3.537-1.628,5.968-4.311,6.671-7.359a7.781,7.781,0,0,0-1.64-6.8c-3.515-4.289-11.078-5.436-17.223-2.608-2.986,1.375-5.963,4.99-8.216,8.3-.575-3.965-1.668-8.519-3.75-11.062-4.286-5.236-11.589-7.519-16.625-5.2a7.78,7.78,0,0,0-4.453,5.391c-.7,3.048.308,6.525,2.775,9.539a14.311,14.311,0,0,0,2.474,2.261l-14.087-3.249a5.577,5.577,0,0,0-6.68,4.176l-2,8.676a5.577,5.577,0,0,0,4.177,6.68l.122.029-9.087,39.4a5.577,5.577,0,0,0,4.176,6.68l53.845,12.42a5.577,5.577,0,0,0,6.68-4.176l9.087-39.4.124.029a5.577,5.577,0,0,0,6.68-4.176l2-8.676a5.576,5.576,0,0,0-4.176-6.68m-21.1-16.689a12.473,12.473,0,0,1,7.776-.836,6.894,6.894,0,0,1,3.838,2.15,3.088,3.088,0,0,1,.7,2.76c-.368,1.594-1.884,3.144-4.055,4.143-2.719,1.252-10.323,1.383-16.266,1.141,2.317-3.828,5.551-8.228,8.009-9.358M393,118.463a3.091,3.091,0,0,1,1.836-2.175h0a6.9,6.9,0,0,1,4.391-.251,12.482,12.482,0,0,1,6.627,4.158c1.713,2.093,2.694,7.465,3.1,11.921-5.449-2.386-12.228-5.834-14.124-8.15-1.515-1.85-2.2-3.906-1.831-5.5m-17.52,21.4,2-8.676a.867.867,0,0,1,1.039-.65L408.7,137.5l-2.391,10.365L376.128,140.9a.867.867,0,0,1-.65-1.039m-4.789,46.105,9.087-39.4,25.476,5.876-9.282,40.242L371.34,187.01a.868.868,0,0,1-.65-1.039m55.535,12.81a.868.868,0,0,1-1.039.649l-24.631-5.682,9.282-40.242,25.475,5.876Zm15.892-43.545a.868.868,0,0,1-1.039.649l-30.183-6.962,2.391-10.366,30.183,6.963a.867.867,0,0,1,.65,1.039Z" transform="translate(-122.434 -37.172)" fill="#e1251b"/>
        <path id="Trazado_23354" data-name="Trazado 23354" d="M521.139,135.141l-14.406,1.239a14.359,14.359,0,0,0,2.768-1.891c2.865-2.637,4.353-5.937,4.085-9.054a7.781,7.781,0,0,0-3.65-5.964c-4.664-3-12.213-1.767-17.191,2.814-2.419,2.226-4.14,6.581-5.266,10.426-1.765-3.6-4.206-7.593-6.969-9.373-5.688-3.665-13.339-3.592-17.418.163a7.779,7.779,0,0,0-2.579,6.5c.268,3.117,2.3,6.114,5.572,8.224a14.354,14.354,0,0,0,3.05,1.39l-14.4,1.238a5.577,5.577,0,0,0-5.073,6.028l.763,8.871a5.576,5.576,0,0,0,6.028,5.073l.125-.011,3.465,40.283a5.577,5.577,0,0,0,6.028,5.073l55.056-4.735a5.577,5.577,0,0,0,5.073-6.028l-3.464-40.283.126-.011a5.576,5.576,0,0,0,5.073-6.027l-.763-8.871a5.577,5.577,0,0,0-6.028-5.073" transform="translate(-150.427 -39.422)" fill="#fff"/>
        <path id="Trazado_23355" data-name="Trazado 23355" d="M521.14,135.141l-14.406,1.239a14.329,14.329,0,0,0,2.768-1.89c2.864-2.637,4.353-5.938,4.085-9.054a7.78,7.78,0,0,0-3.651-5.964c-4.663-3-12.212-1.767-17.191,2.814-2.418,2.226-4.14,6.581-5.266,10.426-1.765-3.6-4.206-7.594-6.969-9.374-5.688-3.665-13.339-3.592-17.418.164a7.779,7.779,0,0,0-2.58,6.5c.268,3.116,2.3,6.114,5.573,8.223a14.285,14.285,0,0,0,3.049,1.39l-14.4,1.239a5.577,5.577,0,0,0-5.073,6.028l.763,8.872a5.577,5.577,0,0,0,6.028,5.072l.125-.011,3.465,40.283a5.577,5.577,0,0,0,6.028,5.073l55.056-4.735a5.577,5.577,0,0,0,5.073-6.028l-3.465-40.283.127-.011a5.577,5.577,0,0,0,5.073-6.028l-.763-8.871a5.578,5.578,0,0,0-6.028-5.073m-25.208-9.393a12.476,12.476,0,0,1,7.143-3.186,6.9,6.9,0,0,1,4.313.866,3.086,3.086,0,0,1,1.512,2.412c.14,1.631-.826,3.571-2.585,5.189-2.2,2.028-9.4,4.49-15.128,6.087,1.028-4.355,2.753-9.536,4.745-11.367M465.2,129.6a3.09,3.09,0,0,1,1.079-2.635h0a6.9,6.9,0,0,1,4.1-1.589,12.485,12.485,0,0,1,7.583,1.919c2.273,1.465,4.858,6.275,6.616,10.39-5.919-.595-13.43-1.792-15.946-3.414-2.01-1.294-3.293-3.041-3.434-4.671M455.107,155.35l-.763-8.871a.868.868,0,0,1,.789-.938l30.861-2.654.912,10.6-30.861,2.654a.869.869,0,0,1-.938-.789m9.618,45.345-3.465-40.283,26.049-2.24,3.539,41.147-25.185,2.166a.868.868,0,0,1-.938-.789m56.783-4.884a.869.869,0,0,1-.79.938l-25.184,2.166L492,157.768l26.048-2.241Zm1.735-46.322a.868.868,0,0,1-.79.938l-30.861,2.654-.912-10.6,30.861-2.654a.868.868,0,0,1,.938.79Z" transform="translate(-150.428 -39.422)" fill="#e1251b"/>
        <path id="Trazado_23356" data-name="Trazado 23356" d="M620.961,127.8l-14.316-2.03a14.337,14.337,0,0,0,3.122-1.22c3.384-1.926,5.577-4.807,6.016-7.9a7.783,7.783,0,0,0-2.217-6.631c-3.87-3.973-11.5-4.467-17.384-1.123-2.857,1.626-5.513,5.482-7.474,8.976-.912-3.9-2.392-8.345-4.684-10.7-4.719-4.849-12.19-6.5-17.009-3.756a7.778,7.778,0,0,0-3.975,5.753c-.439,3.1.866,6.475,3.582,9.266a14.3,14.3,0,0,0,2.658,2.04l-14.314-2.03a5.577,5.577,0,0,0-6.3,4.733l-1.25,8.816a5.578,5.578,0,0,0,4.734,6.3l.124.017L546.6,178.334a5.577,5.577,0,0,0,4.734,6.3l54.711,7.76a5.577,5.577,0,0,0,6.3-4.733l5.678-40.031.126.018a5.577,5.577,0,0,0,6.3-4.733l1.25-8.815a5.577,5.577,0,0,0-4.733-6.3" transform="translate(-182.848 -34.153)" fill="#fff"/>
        <path id="Trazado_23357" data-name="Trazado 23357" d="M620.962,127.8l-14.315-2.03a14.321,14.321,0,0,0,3.122-1.22c3.384-1.926,5.576-4.807,6.016-7.9a7.782,7.782,0,0,0-2.217-6.632c-3.87-3.973-11.5-4.466-17.383-1.122-2.857,1.625-5.513,5.481-7.474,8.976-.912-3.9-2.392-8.345-4.684-10.7-4.719-4.849-12.19-6.5-17.01-3.756a7.782,7.782,0,0,0-3.975,5.753c-.439,3.1.866,6.475,3.582,9.266a14.334,14.334,0,0,0,2.659,2.04l-14.314-2.03a5.577,5.577,0,0,0-6.3,4.733l-1.25,8.816a5.576,5.576,0,0,0,4.733,6.3l.124.018L546.6,178.333a5.578,5.578,0,0,0,4.733,6.3l54.712,7.76a5.577,5.577,0,0,0,6.3-4.733l5.678-40.031.126.018a5.577,5.577,0,0,0,6.3-4.733l1.25-8.816a5.578,5.578,0,0,0-4.734-6.3M598.51,112.979a12.484,12.484,0,0,1,7.677-1.5,6.9,6.9,0,0,1,4.008,1.813,3.087,3.087,0,0,1,.931,2.69c-.23,1.62-1.607,3.293-3.685,4.475-2.6,1.481-10.166,2.263-16.108,2.531,1.981-4.012,4.826-8.673,7.177-10.01M567.7,109.823a3.091,3.091,0,0,1,1.643-2.325h0a6.9,6.9,0,0,1,4.354-.626,12.483,12.483,0,0,1,6.959,3.575c1.886,1.938,3.323,7.207,4.111,11.611-5.634-1.91-12.683-4.765-14.771-6.911-1.668-1.713-2.525-3.7-2.3-5.324m-15.621,22.824,1.25-8.816a.868.868,0,0,1,.98-.737l30.667,4.35-1.493,10.532-30.668-4.35a.867.867,0,0,1-.737-.98m-.82,46.346,5.678-40.031,25.886,3.672-5.8,40.889-25.027-3.549a.868.868,0,0,1-.737-.98m56.428,8a.868.868,0,0,1-.979.736l-25.027-3.549,5.8-40.89,25.885,3.672Zm12.1-44.747a.868.868,0,0,1-.98.736l-30.668-4.35,1.493-10.532,30.669,4.35a.868.868,0,0,1,.737.98Z" transform="translate(-182.848 -34.153)" fill="#e1251b"/>
        <path id="Trazado_23358" data-name="Trazado 23358" d="M180.417,131.093l-14.316-2.03a14.339,14.339,0,0,0,3.122-1.22c3.384-1.926,5.577-4.807,6.016-7.9a7.783,7.783,0,0,0-2.217-6.631c-3.87-3.973-11.5-4.467-17.384-1.123-2.857,1.626-5.513,5.482-7.474,8.976-.912-3.9-2.392-8.345-4.684-10.7-4.719-4.849-12.19-6.5-17.009-3.756a7.778,7.778,0,0,0-3.975,5.753c-.439,3.1.866,6.474,3.582,9.265a14.3,14.3,0,0,0,2.658,2.04l-14.314-2.03a5.577,5.577,0,0,0-6.3,4.733l-1.25,8.816a5.578,5.578,0,0,0,4.734,6.3l.124.017-5.678,40.031a5.577,5.577,0,0,0,4.734,6.3l54.711,7.76a5.577,5.577,0,0,0,6.3-4.733l5.678-40.031.126.018a5.577,5.577,0,0,0,6.3-4.733l1.25-8.815a5.577,5.577,0,0,0-4.733-6.3" transform="translate(-35.462 -35.256)" fill="#fff"/>
        <path id="Trazado_23359" data-name="Trazado 23359" d="M180.418,131.093l-14.315-2.03a14.319,14.319,0,0,0,3.122-1.22c3.384-1.926,5.576-4.807,6.016-7.9a7.782,7.782,0,0,0-2.217-6.632c-3.87-3.973-11.5-4.466-17.383-1.122-2.857,1.625-5.513,5.482-7.474,8.976-.912-3.9-2.392-8.345-4.685-10.7-4.719-4.849-12.19-6.5-17.009-3.756a7.783,7.783,0,0,0-3.975,5.753c-.439,3.1.866,6.475,3.582,9.266a14.336,14.336,0,0,0,2.659,2.04l-14.314-2.03a5.577,5.577,0,0,0-6.3,4.734l-1.25,8.815a5.576,5.576,0,0,0,4.733,6.3l.124.018-5.678,40.031a5.576,5.576,0,0,0,4.733,6.3l54.712,7.76a5.577,5.577,0,0,0,6.3-4.733l5.678-40.031.126.018a5.577,5.577,0,0,0,6.3-4.733l1.25-8.816a5.578,5.578,0,0,0-4.734-6.3m-22.452-14.819a12.484,12.484,0,0,1,7.677-1.5,6.894,6.894,0,0,1,4.007,1.813,3.085,3.085,0,0,1,.932,2.69c-.23,1.62-1.607,3.293-3.685,4.475-2.6,1.481-10.166,2.263-16.108,2.531,1.981-4.011,4.826-8.673,7.178-10.01m-30.812-3.156a3.091,3.091,0,0,1,1.643-2.325h0a6.9,6.9,0,0,1,4.354-.626,12.486,12.486,0,0,1,6.959,3.575c1.886,1.938,3.323,7.207,4.11,11.611-5.634-1.91-12.683-4.765-14.77-6.911-1.668-1.713-2.525-3.7-2.3-5.324m-15.621,22.824,1.25-8.816a.869.869,0,0,1,.981-.737l30.667,4.35-1.493,10.532-30.668-4.35a.867.867,0,0,1-.737-.98m-.82,46.346,5.678-40.031,25.886,3.672-5.8,40.889L111.45,183.27a.868.868,0,0,1-.737-.98m56.428,8a.868.868,0,0,1-.98.736l-25.026-3.549,5.8-40.89,25.885,3.672Zm12.1-44.747a.868.868,0,0,1-.98.736l-30.669-4.35,1.494-10.532,30.669,4.35a.868.868,0,0,1,.737.98Z" transform="translate(-35.463 -35.256)" fill="#e1251b"/>
        <path id="Trazado_23360" data-name="Trazado 23360" d="M684.833,165.9l-14.406,1.239a14.359,14.359,0,0,0,2.768-1.891c2.865-2.637,4.353-5.937,4.085-9.054a7.78,7.78,0,0,0-3.651-5.964c-4.663-3-12.212-1.767-17.19,2.814-2.419,2.226-4.14,6.581-5.266,10.426-1.765-3.6-4.206-7.593-6.969-9.373-5.688-3.665-13.339-3.592-17.418.163a7.779,7.779,0,0,0-2.579,6.5c.268,3.117,2.3,6.114,5.572,8.224a14.359,14.359,0,0,0,3.05,1.39l-14.4,1.238a5.577,5.577,0,0,0-5.073,6.028l.763,8.871a5.576,5.576,0,0,0,6.028,5.073l.125-.011,3.465,40.283a5.577,5.577,0,0,0,6.028,5.073l55.056-4.735a5.577,5.577,0,0,0,5.073-6.028l-3.464-40.283.126-.011a5.576,5.576,0,0,0,5.073-6.027l-.763-8.871a5.577,5.577,0,0,0-6.028-5.073" transform="translate(-205.192 -49.714)" fill="#fff"/>
        <path id="Trazado_23361" data-name="Trazado 23361" d="M684.833,165.9l-14.406,1.238a14.3,14.3,0,0,0,2.767-1.89c2.865-2.637,4.354-5.938,4.086-9.054a7.78,7.78,0,0,0-3.651-5.964c-4.663-3-12.212-1.767-17.191,2.814-2.418,2.226-4.14,6.581-5.266,10.426-1.765-3.6-4.206-7.594-6.969-9.374-5.688-3.665-13.339-3.592-17.418.163a7.781,7.781,0,0,0-2.58,6.5c.268,3.117,2.3,6.115,5.573,8.224a14.285,14.285,0,0,0,3.049,1.39l-14.4,1.239a5.577,5.577,0,0,0-5.073,6.028l.763,8.871a5.577,5.577,0,0,0,6.028,5.072l.125-.011,3.465,40.283a5.577,5.577,0,0,0,6.028,5.073l55.056-4.735a5.577,5.577,0,0,0,5.073-6.028l-3.465-40.283.127-.011a5.577,5.577,0,0,0,5.073-6.028l-.763-8.871a5.577,5.577,0,0,0-6.028-5.073m-25.208-9.394a12.476,12.476,0,0,1,7.143-3.186,6.9,6.9,0,0,1,4.313.866,3.088,3.088,0,0,1,1.512,2.412c.14,1.631-.826,3.571-2.585,5.189-2.2,2.028-9.4,4.49-15.128,6.087,1.028-4.355,2.753-9.536,4.745-11.367m-30.733,3.85a3.09,3.09,0,0,1,1.079-2.635h0a6.9,6.9,0,0,1,4.1-1.589,12.485,12.485,0,0,1,7.583,1.919c2.273,1.465,4.858,6.276,6.616,10.39-5.919-.595-13.43-1.792-15.946-3.414-2.01-1.294-3.293-3.041-3.434-4.671M618.8,186.111l-.763-8.871a.868.868,0,0,1,.789-.938l30.861-2.654.912,10.6L619.738,186.9a.868.868,0,0,1-.938-.789m9.618,45.345-3.465-40.283L651,188.932l3.539,41.147-25.185,2.166a.868.868,0,0,1-.938-.789m56.783-4.884a.868.868,0,0,1-.79.938l-25.184,2.166-3.539-41.147,26.048-2.241Zm1.735-46.322a.868.868,0,0,1-.79.938l-30.861,2.654-.912-10.6,30.861-2.654a.868.868,0,0,1,.938.79Z" transform="translate(-205.192 -49.713)" fill="#e1251b"/>
        <path id="Trazado_23362" data-name="Trazado 23362" d="M784.655,158.559l-14.316-2.03a14.339,14.339,0,0,0,3.122-1.22c3.384-1.926,5.577-4.807,6.016-7.9a7.782,7.782,0,0,0-2.217-6.631c-3.87-3.973-11.5-4.467-17.383-1.123-2.857,1.626-5.513,5.482-7.474,8.976-.912-3.9-2.392-8.345-4.684-10.7-4.719-4.849-12.19-6.5-17.009-3.756a7.778,7.778,0,0,0-3.975,5.753c-.439,3.1.866,6.474,3.582,9.265a14.3,14.3,0,0,0,2.658,2.04l-14.314-2.03a5.577,5.577,0,0,0-6.3,4.733l-1.25,8.816a5.578,5.578,0,0,0,4.733,6.3l.125.017-5.678,40.031a5.577,5.577,0,0,0,4.734,6.3l54.711,7.76a5.578,5.578,0,0,0,6.3-4.733l5.678-40.031.126.018a5.577,5.577,0,0,0,6.3-4.733l1.25-8.815a5.577,5.577,0,0,0-4.733-6.3" transform="translate(-237.612 -44.445)" fill="#fff"/>
        <path id="Trazado_23363" data-name="Trazado 23363" d="M784.655,158.558l-14.316-2.03a14.32,14.32,0,0,0,3.122-1.22c3.384-1.926,5.576-4.807,6.016-7.9a7.78,7.78,0,0,0-2.217-6.632c-3.87-3.973-11.5-4.466-17.383-1.122-2.857,1.625-5.513,5.482-7.474,8.976-.912-3.9-2.392-8.345-4.684-10.7-4.719-4.849-12.19-6.5-17.01-3.756a7.78,7.78,0,0,0-3.974,5.753c-.44,3.1.866,6.475,3.581,9.266a14.333,14.333,0,0,0,2.659,2.04l-14.314-2.03a5.577,5.577,0,0,0-6.3,4.734l-1.25,8.815a5.577,5.577,0,0,0,4.733,6.3l.124.018-5.678,40.031a5.577,5.577,0,0,0,4.733,6.3l54.712,7.76a5.577,5.577,0,0,0,6.3-4.733l5.678-40.031.126.018a5.577,5.577,0,0,0,6.3-4.733l1.25-8.816a5.578,5.578,0,0,0-4.733-6.3M762.2,143.74a12.484,12.484,0,0,1,7.677-1.5,6.9,6.9,0,0,1,4.008,1.813,3.089,3.089,0,0,1,.932,2.69c-.23,1.62-1.608,3.293-3.686,4.476-2.6,1.48-10.166,2.262-16.108,2.53,1.981-4.012,4.826-8.673,7.177-10.01m-30.811-3.156a3.091,3.091,0,0,1,1.643-2.325h0a6.9,6.9,0,0,1,4.354-.626,12.484,12.484,0,0,1,6.959,3.575c1.886,1.938,3.323,7.207,4.111,11.611-5.634-1.91-12.683-4.765-14.771-6.911-1.668-1.713-2.525-3.7-2.3-5.324M715.77,163.408l1.25-8.816a.868.868,0,0,1,.98-.737l30.668,4.35-1.494,10.532-30.668-4.35a.867.867,0,0,1-.737-.98m-.82,46.346,5.678-40.031,25.886,3.672-5.8,40.889-25.027-3.549a.868.868,0,0,1-.737-.98m56.428,8a.868.868,0,0,1-.979.736l-25.027-3.549,5.8-40.89,25.885,3.672Zm12.1-44.747a.868.868,0,0,1-.98.736L751.832,169.4l1.493-10.533,30.669,4.35a.868.868,0,0,1,.737.98Z" transform="translate(-237.612 -44.444)" fill="#e1251b"/>
        <path id="Trazado_23364" data-name="Trazado 23364" d="M260.616,158.559l-14.316-2.03a14.339,14.339,0,0,0,3.122-1.22c3.384-1.926,5.577-4.807,6.016-7.9a7.783,7.783,0,0,0-2.217-6.631c-3.87-3.973-11.5-4.467-17.384-1.123-2.857,1.626-5.513,5.482-7.474,8.976-.912-3.9-2.392-8.345-4.684-10.7-4.719-4.849-12.19-6.5-17.009-3.756a7.778,7.778,0,0,0-3.975,5.753c-.439,3.1.866,6.474,3.582,9.265a14.3,14.3,0,0,0,2.658,2.04l-14.314-2.03a5.577,5.577,0,0,0-6.3,4.733l-1.25,8.816a5.578,5.578,0,0,0,4.734,6.3l.124.017-5.678,40.031a5.577,5.577,0,0,0,4.734,6.3l54.711,7.76a5.578,5.578,0,0,0,6.3-4.733l5.678-40.031.126.018a5.577,5.577,0,0,0,6.3-4.733l1.25-8.815a5.577,5.577,0,0,0-4.733-6.3" transform="translate(-62.293 -44.445)" fill="#fff"/>
        <path id="Trazado_23365" data-name="Trazado 23365" d="M260.617,158.558l-14.315-2.03a14.319,14.319,0,0,0,3.122-1.22c3.384-1.926,5.576-4.807,6.016-7.9a7.782,7.782,0,0,0-2.217-6.632c-3.87-3.973-11.5-4.466-17.383-1.122-2.857,1.625-5.513,5.482-7.474,8.976-.912-3.9-2.392-8.345-4.685-10.7-4.718-4.849-12.19-6.5-17.009-3.756a7.78,7.78,0,0,0-3.974,5.753c-.44,3.1.866,6.475,3.581,9.266a14.333,14.333,0,0,0,2.659,2.04l-14.314-2.03a5.577,5.577,0,0,0-6.3,4.734l-1.25,8.815a5.577,5.577,0,0,0,4.733,6.3l.124.018-5.678,40.031a5.576,5.576,0,0,0,4.733,6.3l54.712,7.76a5.577,5.577,0,0,0,6.3-4.733l5.678-40.031.126.018a5.577,5.577,0,0,0,6.3-4.733l1.25-8.816a5.578,5.578,0,0,0-4.734-6.3M238.165,143.74a12.484,12.484,0,0,1,7.677-1.5,6.9,6.9,0,0,1,4.008,1.813,3.087,3.087,0,0,1,.931,2.69c-.23,1.62-1.607,3.293-3.685,4.476-2.6,1.48-10.166,2.262-16.108,2.53,1.981-4.012,4.826-8.673,7.178-10.01m-30.812-3.156A3.091,3.091,0,0,1,209,138.259h0a6.9,6.9,0,0,1,4.354-.626,12.486,12.486,0,0,1,6.959,3.575c1.886,1.938,3.323,7.207,4.111,11.611-5.634-1.91-12.683-4.765-14.771-6.911-1.668-1.713-2.525-3.7-2.3-5.324m-15.621,22.824,1.25-8.816a.869.869,0,0,1,.981-.737l30.667,4.35-1.493,10.532-30.668-4.35a.867.867,0,0,1-.737-.98m-.82,46.346,5.678-40.031,25.886,3.672-5.8,40.889-25.027-3.549a.868.868,0,0,1-.737-.98m56.428,8a.868.868,0,0,1-.98.736l-25.026-3.549,5.8-40.89,25.885,3.672Zm12.1-44.747a.868.868,0,0,1-.98.736L227.794,169.4l1.494-10.533,30.669,4.35a.868.868,0,0,1,.737.98Z" transform="translate(-62.294 -44.444)" fill="#e1251b"/>
        <path id="Trazado_23366" data-name="Trazado 23366" d="M94.245,149.832H79.786a14.331,14.331,0,0,0,2.919-1.646c3.08-2.382,4.846-5.543,4.846-8.671a7.782,7.782,0,0,0-3.126-6.255c-4.389-3.39-12.016-2.808-17.369,1.33-2.6,2.01-4.689,6.2-6.14,9.936-1.451-3.735-3.54-7.926-6.14-9.936-5.353-4.138-12.982-4.722-17.368-1.33a7.781,7.781,0,0,0-3.127,6.255c0,3.128,1.767,6.289,4.847,8.671a14.331,14.331,0,0,0,2.919,1.646H27.59a5.577,5.577,0,0,0-5.571,5.571v8.9a5.577,5.577,0,0,0,5.571,5.57h.126V210.31a5.578,5.578,0,0,0,5.571,5.571H88.546a5.577,5.577,0,0,0,5.57-5.571V169.878h.128a5.577,5.577,0,0,0,5.571-5.57v-8.9a5.577,5.577,0,0,0-5.571-5.571" transform="translate(-7.367 -43.845)" fill="#fff"/>
        <path id="Trazado_23367" data-name="Trazado 23367" d="M94.245,149.832H79.786a14.331,14.331,0,0,0,2.919-1.646c3.08-2.382,4.846-5.543,4.846-8.671a7.782,7.782,0,0,0-3.126-6.255c-4.389-3.39-12.016-2.808-17.369,1.33-2.6,2.01-4.689,6.2-6.14,9.936-1.451-3.735-3.54-7.926-6.14-9.936-5.353-4.138-12.982-4.722-17.368-1.33a7.781,7.781,0,0,0-3.127,6.255c0,3.128,1.767,6.289,4.848,8.671a14.306,14.306,0,0,0,2.919,1.646H27.59a5.577,5.577,0,0,0-5.571,5.571v8.9a5.577,5.577,0,0,0,5.571,5.57h.126V210.31a5.577,5.577,0,0,0,5.571,5.57H88.546a5.577,5.577,0,0,0,5.57-5.57V169.878h.128a5.577,5.577,0,0,0,5.571-5.57v-8.9a5.577,5.577,0,0,0-5.571-5.571m-24.31-11.52a12.475,12.475,0,0,1,7.39-2.562,6.888,6.888,0,0,1,4.222,1.232,3.086,3.086,0,0,1,1.3,2.532c0,1.636-1.129,3.487-3.02,4.948-2.368,1.831-9.748,3.668-15.593,4.768,1.4-4.25,3.56-9.265,5.7-10.919m-30.949,1.2a3.089,3.089,0,0,1,1.3-2.532h0a6.892,6.892,0,0,1,4.223-1.232,12.481,12.481,0,0,1,7.392,2.562c2.139,1.654,4.3,6.668,5.7,10.919-5.847-1.1-13.227-2.937-15.595-4.768-1.892-1.461-3.02-3.312-3.02-4.948M26.723,164.307v-8.9a.868.868,0,0,1,.867-.867H58.565v10.637H27.59a.867.867,0,0,1-.867-.866m5.7,46V169.878H58.565v41.3H33.287a.867.867,0,0,1-.867-.866m56.993,0a.868.868,0,0,1-.867.866H63.269v-41.3H89.413Zm5.7-46a.868.868,0,0,1-.867.866H63.269V154.536H94.245a.868.868,0,0,1,.867.867Z" transform="translate(-7.367 -43.845)" fill="#e1251b"/>
        <path id="Trazado_23368" data-name="Trazado 23368" d="M316.242,188.85,302.153,185.6a14.376,14.376,0,0,0,3.215-.948c3.536-1.629,5.968-4.311,6.671-7.36a7.78,7.78,0,0,0-1.64-6.8c-3.515-4.29-11.078-5.436-17.224-2.608-2.985,1.375-5.962,4.989-8.216,8.3-.574-3.966-1.668-8.52-3.75-11.063-4.285-5.236-11.589-7.519-16.624-5.2a7.778,7.778,0,0,0-4.453,5.391c-.7,3.048.308,6.525,2.775,9.539a14.31,14.31,0,0,0,2.474,2.26l-14.088-3.249a5.577,5.577,0,0,0-6.68,4.176l-2,8.676a5.578,5.578,0,0,0,4.177,6.68l.122.028-9.087,39.4a5.576,5.576,0,0,0,4.176,6.68l53.845,12.42a5.577,5.577,0,0,0,6.68-4.176l9.087-39.4.124.029a5.577,5.577,0,0,0,6.68-4.176l2-8.676a5.577,5.577,0,0,0-4.176-6.68" transform="translate(-79.517 -53.202)" fill="#fff"/>
        <path id="Trazado_23369" data-name="Trazado 23369" d="M316.242,188.85l-14.089-3.25a14.307,14.307,0,0,0,3.215-.948c3.537-1.628,5.968-4.311,6.671-7.359a7.782,7.782,0,0,0-1.64-6.8c-3.515-4.289-11.078-5.436-17.223-2.608-2.986,1.375-5.963,4.99-8.216,8.3-.575-3.965-1.668-8.519-3.75-11.062-4.285-5.236-11.588-7.519-16.624-5.2a7.78,7.78,0,0,0-4.453,5.391c-.7,3.048.308,6.525,2.775,9.539a14.313,14.313,0,0,0,2.474,2.261l-14.088-3.249a5.576,5.576,0,0,0-6.68,4.176l-2,8.676a5.576,5.576,0,0,0,4.176,6.68l.122.029-9.087,39.4a5.577,5.577,0,0,0,4.176,6.68l53.845,12.42a5.577,5.577,0,0,0,6.68-4.176l9.087-39.4.124.029a5.577,5.577,0,0,0,6.68-4.176l2-8.676a5.576,5.576,0,0,0-4.176-6.68m-21.1-16.689a12.474,12.474,0,0,1,7.777-.836,6.894,6.894,0,0,1,3.838,2.15,3.088,3.088,0,0,1,.7,2.76c-.368,1.594-1.884,3.144-4.055,4.143-2.719,1.252-10.323,1.383-16.266,1.141,2.317-3.828,5.551-8.228,8.009-9.358m-30.428-5.785a3.092,3.092,0,0,1,1.836-2.175h0a6.9,6.9,0,0,1,4.392-.251,12.485,12.485,0,0,1,6.627,4.158c1.713,2.093,2.694,7.465,3.1,11.921-5.449-2.386-12.228-5.834-14.124-8.15-1.515-1.85-2.2-3.906-1.831-5.5m-17.52,21.4,2-8.676a.867.867,0,0,1,1.039-.65l30.183,6.962-2.391,10.365-30.182-6.962a.867.867,0,0,1-.65-1.039m-4.789,46.105,9.087-39.4,25.476,5.877L267.688,240.6l-24.631-5.681a.868.868,0,0,1-.65-1.039m55.535,12.81a.868.868,0,0,1-1.039.649l-24.631-5.682,9.282-40.242,25.475,5.876Zm15.892-43.545a.868.868,0,0,1-1.039.649l-30.183-6.962L285,186.471l30.183,6.963a.868.868,0,0,1,.649,1.039Z" transform="translate(-79.517 -53.202)" fill="#e1251b"/>
        <path id="Trazado_23370" data-name="Trazado 23370" d="M868.856,206.055l-14.406,1.239a14.342,14.342,0,0,0,2.768-1.891c2.865-2.637,4.353-5.937,4.085-9.054a7.781,7.781,0,0,0-3.65-5.964c-4.664-3-12.213-1.767-17.191,2.814-2.419,2.226-4.14,6.581-5.266,10.426-1.765-3.6-4.206-7.593-6.969-9.373-5.688-3.665-13.339-3.592-17.418.163a7.779,7.779,0,0,0-2.579,6.5c.268,3.117,2.3,6.114,5.572,8.224a14.358,14.358,0,0,0,3.05,1.39l-14.4,1.238a5.577,5.577,0,0,0-5.073,6.028l.763,8.871a5.576,5.576,0,0,0,6.028,5.073l.125-.011,3.465,40.283a5.577,5.577,0,0,0,6.028,5.073l55.056-4.735a5.577,5.577,0,0,0,5.073-6.028l-3.464-40.283.126-.011A5.576,5.576,0,0,0,875.647,220l-.763-8.871a5.577,5.577,0,0,0-6.028-5.073" transform="translate(-266.757 -63.147)" fill="#fff"/>
        <path id="Trazado_23371" data-name="Trazado 23371" d="M868.856,206.055l-14.406,1.239a14.333,14.333,0,0,0,2.768-1.89c2.864-2.637,4.353-5.938,4.085-9.054a7.78,7.78,0,0,0-3.651-5.964c-4.663-3-12.212-1.767-17.191,2.814-2.418,2.226-4.14,6.581-5.266,10.426-1.766-3.6-4.206-7.594-6.969-9.374-5.688-3.665-13.339-3.592-17.418.163a7.783,7.783,0,0,0-2.58,6.5c.268,3.117,2.3,6.115,5.573,8.224a14.285,14.285,0,0,0,3.049,1.39l-14.4,1.239a5.577,5.577,0,0,0-5.073,6.028l.763,8.871a5.577,5.577,0,0,0,6.028,5.072l.125-.011,3.465,40.283a5.577,5.577,0,0,0,6.028,5.073l55.056-4.735a5.577,5.577,0,0,0,5.073-6.028l-3.465-40.283.127-.011A5.577,5.577,0,0,0,875.647,220l-.763-8.871a5.577,5.577,0,0,0-6.028-5.073m-25.208-9.393a12.48,12.48,0,0,1,7.144-3.186,6.9,6.9,0,0,1,4.313.866,3.086,3.086,0,0,1,1.512,2.412c.14,1.631-.826,3.571-2.585,5.189-2.2,2.028-9.4,4.49-15.128,6.087,1.028-4.355,2.753-9.536,4.744-11.367m-30.732,3.85a3.09,3.09,0,0,1,1.079-2.635h0a6.894,6.894,0,0,1,4.1-1.589,12.485,12.485,0,0,1,7.583,1.919c2.273,1.465,4.859,6.275,6.616,10.39-5.919-.595-13.43-1.792-15.946-3.414-2.01-1.294-3.293-3.041-3.434-4.671m-10.092,25.751-.763-8.871a.868.868,0,0,1,.789-.938L833.71,213.8l.912,10.6-30.861,2.654a.869.869,0,0,1-.938-.789m9.618,45.345-3.465-40.283,26.049-2.24,3.539,41.147L813.379,272.4a.868.868,0,0,1-.938-.789m56.783-4.884a.868.868,0,0,1-.79.938l-25.184,2.166-3.539-41.147,26.048-2.241ZM870.96,220.4a.868.868,0,0,1-.79.938L839.309,224l-.912-10.6,30.861-2.654a.868.868,0,0,1,.938.79Z" transform="translate(-266.757 -63.147)" fill="#e1251b"/>
        <path id="Trazado_23372" data-name="Trazado 23372" d="M606.678,196.711l-14.316-2.03a14.307,14.307,0,0,0,3.122-1.22c3.384-1.925,5.577-4.807,6.016-7.9a7.783,7.783,0,0,0-2.217-6.631c-3.87-3.973-11.5-4.467-17.384-1.123-2.857,1.626-5.513,5.482-7.474,8.976-.912-3.9-2.392-8.345-4.684-10.7-4.719-4.849-12.19-6.5-17.009-3.756a7.778,7.778,0,0,0-3.975,5.753c-.439,3.1.866,6.474,3.582,9.265a14.3,14.3,0,0,0,2.658,2.04l-14.314-2.03a5.577,5.577,0,0,0-6.3,4.733l-1.25,8.816a5.578,5.578,0,0,0,4.734,6.3l.124.017-5.678,40.031a5.577,5.577,0,0,0,4.734,6.3l54.711,7.76a5.578,5.578,0,0,0,6.3-4.733l5.678-40.031.126.018a5.577,5.577,0,0,0,6.3-4.733l1.25-8.815a5.577,5.577,0,0,0-4.733-6.3" transform="translate(-178.07 -57.208)" fill="#fff"/>
        <path id="Trazado_23373" data-name="Trazado 23373" d="M606.678,196.711l-14.316-2.03a14.321,14.321,0,0,0,3.122-1.22c3.384-1.926,5.576-4.807,6.016-7.9a7.782,7.782,0,0,0-2.217-6.632c-3.87-3.973-11.5-4.466-17.383-1.122-2.857,1.625-5.513,5.482-7.474,8.976-.912-3.9-2.392-8.345-4.685-10.7-4.718-4.849-12.19-6.5-17.009-3.756a7.782,7.782,0,0,0-3.975,5.753c-.439,3.1.866,6.475,3.582,9.266a14.334,14.334,0,0,0,2.659,2.04l-14.314-2.03a5.577,5.577,0,0,0-6.3,4.734l-1.25,8.815a5.577,5.577,0,0,0,4.733,6.3l.124.018-5.678,40.031a5.577,5.577,0,0,0,4.733,6.3l54.712,7.76a5.577,5.577,0,0,0,6.3-4.733l5.678-40.031.126.018a5.577,5.577,0,0,0,6.3-4.733l1.25-8.816a5.578,5.578,0,0,0-4.733-6.3m-22.452-14.819a12.484,12.484,0,0,1,7.677-1.5,6.894,6.894,0,0,1,4.007,1.813,3.085,3.085,0,0,1,.932,2.69c-.23,1.62-1.607,3.293-3.685,4.476-2.6,1.48-10.166,2.262-16.109,2.53,1.981-4.011,4.826-8.673,7.178-10.01m-30.812-3.156a3.091,3.091,0,0,1,1.643-2.325h0a6.9,6.9,0,0,1,4.354-.626,12.486,12.486,0,0,1,6.959,3.575c1.886,1.938,3.323,7.207,4.111,11.611-5.634-1.91-12.683-4.765-14.771-6.911-1.668-1.713-2.525-3.7-2.3-5.324m-15.621,22.824,1.25-8.816a.868.868,0,0,1,.98-.737l30.667,4.35L569.2,206.891l-30.668-4.35a.867.867,0,0,1-.737-.98m-.82,46.346,5.678-40.031,25.886,3.672-5.8,40.889-25.027-3.549a.868.868,0,0,1-.737-.98m56.428,8a.867.867,0,0,1-.98.736L567.4,253.1l5.8-40.89,25.885,3.672Zm12.1-44.747a.868.868,0,0,1-.98.736l-30.668-4.349,1.493-10.532,30.669,4.349a.868.868,0,0,1,.737.98Z" transform="translate(-178.07 -57.208)" fill="#e1251b"/>
        <path id="Trazado_23374" data-name="Trazado 23374" d="M486.549,167.816l-14.406,1.239a14.36,14.36,0,0,0,2.768-1.891c2.865-2.637,4.353-5.937,4.085-9.054a7.781,7.781,0,0,0-3.65-5.964c-4.664-3-12.213-1.767-17.191,2.814-2.419,2.226-4.14,6.581-5.266,10.427-1.765-3.6-4.206-7.594-6.969-9.374-5.688-3.665-13.339-3.592-17.418.163a7.779,7.779,0,0,0-2.579,6.5c.268,3.117,2.3,6.114,5.572,8.224a14.358,14.358,0,0,0,3.05,1.39l-14.4,1.238a5.577,5.577,0,0,0-5.073,6.028l.763,8.871a5.576,5.576,0,0,0,6.028,5.073l.125-.011,3.465,40.283a5.577,5.577,0,0,0,6.028,5.073l55.056-4.735a5.576,5.576,0,0,0,5.073-6.027L488.14,187.8l.126-.011a5.576,5.576,0,0,0,5.073-6.027l-.763-8.871a5.577,5.577,0,0,0-6.028-5.073" transform="translate(-138.855 -50.354)" fill="#fff"/>
        <path id="Trazado_23375" data-name="Trazado 23375" d="M486.549,167.816l-14.406,1.239a14.3,14.3,0,0,0,2.767-1.89c2.865-2.637,4.354-5.938,4.086-9.054a7.781,7.781,0,0,0-3.651-5.964c-4.663-3-12.212-1.767-17.191,2.814-2.418,2.226-4.14,6.581-5.266,10.426-1.766-3.6-4.206-7.594-6.969-9.374-5.688-3.665-13.339-3.592-17.418.163a7.781,7.781,0,0,0-2.58,6.5c.268,3.117,2.3,6.115,5.573,8.224a14.285,14.285,0,0,0,3.049,1.39l-14.4,1.239a5.578,5.578,0,0,0-5.073,6.028l.763,8.871a5.577,5.577,0,0,0,6.028,5.072l.125-.011,3.465,40.283a5.577,5.577,0,0,0,6.028,5.073l55.056-4.735a5.577,5.577,0,0,0,5.073-6.028L488.14,187.8l.126-.011a5.578,5.578,0,0,0,5.074-6.028l-.764-8.871a5.578,5.578,0,0,0-6.028-5.073m-25.208-9.393a12.477,12.477,0,0,1,7.143-3.186,6.9,6.9,0,0,1,4.313.866,3.088,3.088,0,0,1,1.512,2.412c.14,1.631-.826,3.571-2.585,5.189-2.2,2.028-9.4,4.49-15.128,6.087,1.028-4.355,2.753-9.536,4.745-11.367m-30.733,3.85a3.09,3.09,0,0,1,1.079-2.635h0a6.894,6.894,0,0,1,4.1-1.589,12.484,12.484,0,0,1,7.583,1.919c2.273,1.465,4.858,6.276,6.615,10.39-5.918-.595-13.429-1.792-15.945-3.414-2.01-1.294-3.293-3.041-3.434-4.671m-10.092,25.751-.763-8.871a.868.868,0,0,1,.789-.938l30.861-2.654.912,10.6-30.861,2.654a.868.868,0,0,1-.938-.789m9.618,45.345-3.465-40.283,26.049-2.24,3.539,41.147-25.186,2.166a.868.868,0,0,1-.938-.789m56.784-4.884a.869.869,0,0,1-.79.938l-25.185,2.166L457.4,190.443l26.048-2.241Zm1.735-46.322a.868.868,0,0,1-.79.938L457,185.756l-.912-10.6,30.861-2.654a.869.869,0,0,1,.939.79Z" transform="translate(-138.855 -50.354)" fill="#e1251b"/>
        <path id="Trazado_23376" data-name="Trazado 23376" d="M783.371,208.472l-14.316-2.03a14.306,14.306,0,0,0,3.122-1.22c3.384-1.925,5.577-4.807,6.016-7.9a7.783,7.783,0,0,0-2.217-6.631c-3.87-3.973-11.5-4.467-17.384-1.123-2.857,1.626-5.513,5.482-7.474,8.976-.912-3.9-2.392-8.345-4.684-10.7-4.719-4.849-12.19-6.5-17.009-3.756a7.778,7.778,0,0,0-3.975,5.753c-.439,3.1.866,6.474,3.582,9.265a14.3,14.3,0,0,0,2.658,2.04l-14.314-2.03a5.577,5.577,0,0,0-6.3,4.733l-1.25,8.816a5.578,5.578,0,0,0,4.734,6.3l.124.017-5.678,40.031a5.577,5.577,0,0,0,4.734,6.3l54.711,7.76a5.578,5.578,0,0,0,6.3-4.733L780.43,228.3l.126.018a5.577,5.577,0,0,0,6.3-4.733l1.25-8.815a5.577,5.577,0,0,0-4.733-6.3" transform="translate(-237.183 -61.143)" fill="#fff"/>
        <path id="Trazado_23377" data-name="Trazado 23377" d="M783.372,208.472l-14.315-2.03a14.319,14.319,0,0,0,3.122-1.22c3.384-1.926,5.576-4.807,6.016-7.9a7.781,7.781,0,0,0-2.217-6.632c-3.87-3.973-11.5-4.466-17.384-1.122-2.857,1.625-5.513,5.482-7.474,8.976-.912-3.9-2.392-8.345-4.685-10.7-4.718-4.849-12.19-6.5-17.009-3.756a7.783,7.783,0,0,0-3.975,5.753c-.439,3.1.866,6.475,3.582,9.266a14.332,14.332,0,0,0,2.659,2.04l-14.314-2.03a5.577,5.577,0,0,0-6.3,4.734l-1.25,8.815a5.576,5.576,0,0,0,4.733,6.3l.124.018-5.678,40.031a5.576,5.576,0,0,0,4.733,6.3l54.712,7.76a5.577,5.577,0,0,0,6.3-4.733l5.678-40.031.126.018a5.577,5.577,0,0,0,6.3-4.733l1.25-8.816a5.578,5.578,0,0,0-4.734-6.3M760.92,193.654a12.484,12.484,0,0,1,7.677-1.5,6.894,6.894,0,0,1,4.007,1.813,3.085,3.085,0,0,1,.932,2.69c-.23,1.62-1.607,3.293-3.685,4.476-2.6,1.48-10.166,2.262-16.109,2.53,1.981-4.011,4.826-8.673,7.177-10.01M730.109,190.5a3.091,3.091,0,0,1,1.643-2.325h0a6.9,6.9,0,0,1,4.354-.626,12.483,12.483,0,0,1,6.959,3.575c1.886,1.938,3.323,7.207,4.111,11.611-5.634-1.91-12.683-4.765-14.771-6.911-1.668-1.713-2.525-3.7-2.3-5.324m-15.621,22.824,1.25-8.816a.868.868,0,0,1,.98-.737l30.667,4.35-1.493,10.532-30.668-4.35a.867.867,0,0,1-.737-.98m-.82,46.346,5.678-40.031,25.886,3.672-5.8,40.889L714.4,260.649a.868.868,0,0,1-.737-.98m56.428,8a.868.868,0,0,1-.98.736l-25.026-3.549,5.8-40.89,25.885,3.672Zm12.1-44.747a.868.868,0,0,1-.98.736l-30.669-4.349,1.494-10.532,30.669,4.349a.868.868,0,0,1,.737.98Z" transform="translate(-237.183 -61.143)" fill="#e1251b"/>
        <path id="Trazado_23378" data-name="Trazado 23378" d="M240.529,232.918H226.07a14.332,14.332,0,0,0,2.919-1.646c3.08-2.382,4.846-5.543,4.846-8.671a7.782,7.782,0,0,0-3.126-6.255c-4.389-3.39-12.016-2.807-17.369,1.33-2.6,2.01-4.689,6.2-6.14,9.936-1.451-3.734-3.54-7.926-6.14-9.936-5.353-4.138-12.982-4.722-17.368-1.33a7.781,7.781,0,0,0-3.127,6.255c0,3.128,1.767,6.289,4.847,8.671a14.332,14.332,0,0,0,2.919,1.646H173.874a5.577,5.577,0,0,0-5.571,5.571v8.9a5.577,5.577,0,0,0,5.571,5.57H174V293.4a5.578,5.578,0,0,0,5.571,5.57H234.83a5.578,5.578,0,0,0,5.572-5.57V252.964h.127a5.577,5.577,0,0,0,5.571-5.57v-8.9a5.577,5.577,0,0,0-5.571-5.571" transform="translate(-56.306 -71.642)" fill="#fff"/>
        <path id="Trazado_23379" data-name="Trazado 23379" d="M240.529,232.918H226.07a14.332,14.332,0,0,0,2.919-1.646c3.08-2.382,4.846-5.543,4.846-8.671a7.782,7.782,0,0,0-3.126-6.255c-4.389-3.39-12.016-2.808-17.369,1.33-2.6,2.01-4.689,6.2-6.14,9.936-1.451-3.735-3.54-7.926-6.14-9.936-5.353-4.138-12.982-4.722-17.368-1.33a7.781,7.781,0,0,0-3.127,6.255c0,3.128,1.767,6.288,4.847,8.671a14.332,14.332,0,0,0,2.919,1.646H173.874a5.577,5.577,0,0,0-5.571,5.571v8.9a5.577,5.577,0,0,0,5.571,5.57H174V293.4a5.577,5.577,0,0,0,5.571,5.57H234.83a5.577,5.577,0,0,0,5.571-5.57V252.964h.128a5.577,5.577,0,0,0,5.571-5.57v-8.9a5.577,5.577,0,0,0-5.571-5.571m-24.31-11.52a12.473,12.473,0,0,1,7.39-2.562,6.893,6.893,0,0,1,4.223,1.232,3.088,3.088,0,0,1,1.3,2.533c0,1.636-1.129,3.487-3.02,4.948-2.368,1.831-9.748,3.668-15.593,4.768,1.4-4.25,3.56-9.265,5.7-10.919m-30.949,1.2a3.091,3.091,0,0,1,1.3-2.533,6.892,6.892,0,0,1,4.223-1.232,12.479,12.479,0,0,1,7.391,2.562c2.14,1.654,4.3,6.668,5.7,10.919-5.846-1.1-13.226-2.937-15.594-4.768-1.892-1.461-3.02-3.312-3.02-4.948m-12.262,24.792v-8.9a.868.868,0,0,1,.867-.867h30.975V248.26H173.874a.867.867,0,0,1-.867-.866m5.7,46V252.964h26.145v41.3H179.571a.867.867,0,0,1-.867-.866m56.993,0a.868.868,0,0,1-.867.866H209.553v-41.3H235.7Zm5.7-46a.868.868,0,0,1-.867.866H209.553V237.622h30.976a.868.868,0,0,1,.867.867Z" transform="translate(-56.306 -71.642)" fill="#e1251b"/>
        <path id="Trazado_23380" data-name="Trazado 23380" d="M338.525,232.937l-14.089-3.249a14.34,14.34,0,0,0,3.215-.948c3.536-1.629,5.968-4.311,6.671-7.36a7.778,7.778,0,0,0-1.64-6.8c-3.514-4.29-11.078-5.436-17.224-2.608-2.985,1.375-5.962,4.99-8.216,8.3-.575-3.966-1.668-8.519-3.75-11.063-4.285-5.236-11.588-7.519-16.624-5.2a7.778,7.778,0,0,0-4.454,5.391c-.7,3.048.308,6.525,2.775,9.539a14.311,14.311,0,0,0,2.474,2.26l-14.087-3.249a5.577,5.577,0,0,0-6.68,4.176l-2,8.676a5.578,5.578,0,0,0,4.177,6.68l.122.028-9.087,39.4a5.578,5.578,0,0,0,4.176,6.68l53.845,12.419a5.577,5.577,0,0,0,6.68-4.176l9.087-39.4.125.029a5.578,5.578,0,0,0,6.68-4.176l2-8.676a5.577,5.577,0,0,0-4.176-6.68" transform="translate(-86.972 -67.951)" fill="#fff"/>
        <path id="Trazado_23381" data-name="Trazado 23381" d="M338.525,232.936l-14.089-3.249a14.306,14.306,0,0,0,3.215-.948c3.537-1.628,5.968-4.311,6.671-7.359a7.781,7.781,0,0,0-1.64-6.8c-3.515-4.289-11.078-5.436-17.223-2.608-2.986,1.375-5.963,4.99-8.216,8.3-.575-3.965-1.668-8.519-3.75-11.062-4.286-5.236-11.589-7.519-16.625-5.2a7.78,7.78,0,0,0-4.453,5.391c-.7,3.048.308,6.525,2.775,9.538a14.311,14.311,0,0,0,2.474,2.261l-14.087-3.249a5.577,5.577,0,0,0-6.68,4.176l-2,8.676a5.577,5.577,0,0,0,4.177,6.68l.122.029-9.087,39.4a5.577,5.577,0,0,0,4.176,6.68l53.845,12.42a5.577,5.577,0,0,0,6.68-4.176l9.087-39.4.124.029a5.577,5.577,0,0,0,6.68-4.176l2-8.676a5.577,5.577,0,0,0-4.176-6.681m-21.1-16.688a12.473,12.473,0,0,1,7.776-.836,6.894,6.894,0,0,1,3.838,2.15,3.088,3.088,0,0,1,.7,2.76c-.368,1.594-1.884,3.144-4.055,4.143-2.719,1.252-10.323,1.383-16.266,1.141,2.317-3.828,5.551-8.228,8.009-9.358M287,210.463a3.092,3.092,0,0,1,1.836-2.175h0a6.9,6.9,0,0,1,4.391-.251,12.482,12.482,0,0,1,6.627,4.158c1.713,2.093,2.694,7.465,3.1,11.921-5.449-2.386-12.228-5.834-14.124-8.15-1.515-1.85-2.2-3.906-1.831-5.5m-17.52,21.4,2-8.675a.867.867,0,0,1,1.039-.65L302.7,229.5l-2.391,10.365L270.128,232.9a.867.867,0,0,1-.65-1.039m-4.789,46.106,9.087-39.4,25.476,5.876-9.282,40.242L265.34,279.01a.868.868,0,0,1-.65-1.039m55.535,12.81a.868.868,0,0,1-1.039.649l-24.631-5.682,9.282-40.242,25.475,5.876Zm15.892-43.545a.868.868,0,0,1-1.039.649l-30.183-6.962,2.391-10.366,30.183,6.963a.867.867,0,0,1,.65,1.039Z" transform="translate(-86.971 -67.951)" fill="#e1251b"/>
        <path id="Trazado_23382" data-name="Trazado 23382" d="M415.139,227.141l-14.406,1.239a14.36,14.36,0,0,0,2.768-1.891c2.865-2.637,4.353-5.937,4.085-9.054a7.78,7.78,0,0,0-3.651-5.964c-4.663-3-12.212-1.767-17.19,2.814-2.419,2.226-4.14,6.581-5.266,10.426-1.765-3.6-4.206-7.593-6.969-9.373-5.688-3.665-13.339-3.592-17.418.163a7.779,7.779,0,0,0-2.579,6.5c.268,3.117,2.3,6.114,5.572,8.224a14.353,14.353,0,0,0,3.05,1.39l-14.4,1.238a5.577,5.577,0,0,0-5.073,6.028l.763,8.871a5.576,5.576,0,0,0,6.028,5.073l.125-.011,3.465,40.283a5.577,5.577,0,0,0,6.028,5.073l55.056-4.735a5.577,5.577,0,0,0,5.073-6.028l-3.464-40.283.126-.011a5.576,5.576,0,0,0,5.073-6.027l-.763-8.871a5.577,5.577,0,0,0-6.028-5.073" transform="translate(-114.965 -70.201)" fill="#fff"/>
        <path id="Trazado_23383" data-name="Trazado 23383" d="M415.14,227.141l-14.406,1.239a14.3,14.3,0,0,0,2.767-1.89c2.865-2.637,4.354-5.938,4.086-9.054a7.78,7.78,0,0,0-3.651-5.964c-4.663-3-12.212-1.767-17.191,2.814-2.418,2.226-4.14,6.581-5.266,10.426-1.765-3.6-4.206-7.594-6.969-9.374-5.688-3.665-13.339-3.592-17.418.164a7.779,7.779,0,0,0-2.58,6.5c.268,3.116,2.3,6.114,5.573,8.223a14.284,14.284,0,0,0,3.049,1.39l-14.4,1.239a5.577,5.577,0,0,0-5.073,6.028l.763,8.872a5.577,5.577,0,0,0,6.028,5.072l.125-.011,3.465,40.283a5.577,5.577,0,0,0,6.028,5.073l55.056-4.735a5.577,5.577,0,0,0,5.073-6.028l-3.465-40.284.127-.011a5.577,5.577,0,0,0,5.073-6.028l-.763-8.871a5.577,5.577,0,0,0-6.028-5.073m-25.208-9.393a12.476,12.476,0,0,1,7.143-3.186,6.9,6.9,0,0,1,4.313.866,3.088,3.088,0,0,1,1.512,2.412c.14,1.631-.826,3.571-2.585,5.189-2.2,2.028-9.4,4.49-15.128,6.087,1.028-4.355,2.754-9.536,4.745-11.367M359.2,221.6a3.09,3.09,0,0,1,1.079-2.635h0a6.9,6.9,0,0,1,4.1-1.589,12.485,12.485,0,0,1,7.583,1.919c2.273,1.465,4.858,6.275,6.616,10.39-5.919-.595-13.43-1.792-15.946-3.414-2.01-1.294-3.293-3.041-3.434-4.671M349.107,247.35l-.763-8.871a.868.868,0,0,1,.789-.938l30.861-2.654.912,10.6-30.861,2.654a.868.868,0,0,1-.938-.789m9.618,45.345-3.465-40.283,26.049-2.24,3.539,41.147-25.185,2.166a.868.868,0,0,1-.938-.789m56.783-4.884a.868.868,0,0,1-.79.938l-25.184,2.166L386,249.768l26.048-2.241Zm1.736-46.322a.868.868,0,0,1-.79.938l-30.861,2.654-.912-10.6,30.861-2.654a.868.868,0,0,1,.938.79Z" transform="translate(-114.965 -70.201)" fill="#e1251b"/>
        <path id="Trazado_23384" data-name="Trazado 23384" d="M514.961,219.8l-14.316-2.03a14.3,14.3,0,0,0,3.122-1.22c3.384-1.926,5.577-4.807,6.016-7.9a7.783,7.783,0,0,0-2.217-6.631c-3.87-3.973-11.5-4.467-17.384-1.123-2.857,1.626-5.513,5.482-7.474,8.976-.912-3.9-2.392-8.345-4.684-10.7-4.719-4.849-12.19-6.5-17.009-3.756a7.778,7.778,0,0,0-3.975,5.753c-.439,3.1.866,6.474,3.582,9.265a14.3,14.3,0,0,0,2.658,2.04l-14.314-2.03a5.577,5.577,0,0,0-6.3,4.733l-1.25,8.816a5.578,5.578,0,0,0,4.734,6.3l.124.017L440.6,270.334a5.577,5.577,0,0,0,4.734,6.3l54.711,7.76a5.577,5.577,0,0,0,6.3-4.733l5.678-40.031.126.018a5.577,5.577,0,0,0,6.3-4.733l1.25-8.815a5.577,5.577,0,0,0-4.733-6.3" transform="translate(-147.385 -64.932)" fill="#fff"/>
        <path id="Trazado_23385" data-name="Trazado 23385" d="M514.962,219.8l-14.315-2.03a14.321,14.321,0,0,0,3.122-1.22c3.384-1.926,5.576-4.807,6.016-7.9a7.782,7.782,0,0,0-2.217-6.632c-3.87-3.973-11.5-4.466-17.383-1.122-2.857,1.625-5.513,5.481-7.474,8.976-.912-3.9-2.392-8.345-4.685-10.7-4.719-4.849-12.19-6.5-17.009-3.756a7.783,7.783,0,0,0-3.975,5.753c-.439,3.1.866,6.475,3.582,9.266a14.335,14.335,0,0,0,2.659,2.04l-14.314-2.03a5.577,5.577,0,0,0-6.3,4.733l-1.25,8.816a5.576,5.576,0,0,0,4.733,6.3l.124.018L440.6,270.333a5.577,5.577,0,0,0,4.733,6.3l54.712,7.76a5.577,5.577,0,0,0,6.3-4.733l5.678-40.031.126.018a5.577,5.577,0,0,0,6.3-4.733l1.25-8.816a5.578,5.578,0,0,0-4.734-6.3M492.51,204.979a12.484,12.484,0,0,1,7.677-1.5,6.9,6.9,0,0,1,4.008,1.813,3.086,3.086,0,0,1,.931,2.69c-.23,1.62-1.607,3.293-3.685,4.475-2.6,1.481-10.166,2.263-16.108,2.531,1.981-4.012,4.826-8.673,7.177-10.01M461.7,201.823a3.091,3.091,0,0,1,1.643-2.325h0a6.9,6.9,0,0,1,4.354-.626,12.483,12.483,0,0,1,6.959,3.575c1.886,1.938,3.323,7.207,4.111,11.611-5.634-1.91-12.683-4.765-14.771-6.911-1.668-1.713-2.525-3.7-2.3-5.324m-15.621,22.824,1.25-8.816a.868.868,0,0,1,.98-.737l30.667,4.35-1.493,10.532-30.668-4.35a.867.867,0,0,1-.737-.98m-.82,46.346,5.678-40.031,25.886,3.672-5.8,40.889-25.027-3.549a.868.868,0,0,1-.737-.98m56.428,8a.868.868,0,0,1-.979.736l-25.027-3.549,5.8-40.89,25.885,3.671Zm12.1-44.747a.868.868,0,0,1-.98.736l-30.668-4.35,1.493-10.532,30.669,4.35a.868.868,0,0,1,.737.98Z" transform="translate(-147.386 -64.932)" fill="#e1251b"/>
        <path id="Trazado_23386" data-name="Trazado 23386" d="M74.417,223.093,60.1,221.063a14.339,14.339,0,0,0,3.122-1.22c3.384-1.926,5.577-4.807,6.016-7.9a7.783,7.783,0,0,0-2.217-6.631c-3.87-3.973-11.5-4.467-17.384-1.123-2.857,1.626-5.513,5.482-7.474,8.976-.912-3.9-2.392-8.345-4.684-10.7-4.719-4.849-12.19-6.5-17.009-3.756a7.778,7.778,0,0,0-3.975,5.753c-.439,3.1.866,6.474,3.582,9.265a14.3,14.3,0,0,0,2.658,2.04l-14.314-2.03a5.577,5.577,0,0,0-6.3,4.733l-1.25,8.816a5.578,5.578,0,0,0,4.734,6.3l.124.017L.055,273.629a5.577,5.577,0,0,0,4.734,6.3l54.711,7.76a5.577,5.577,0,0,0,6.3-4.733l5.678-40.031.126.018a5.577,5.577,0,0,0,6.3-4.733l1.25-8.815a5.577,5.577,0,0,0-4.733-6.3" transform="translate(0 -66.035)" fill="#fff"/>
        <path id="Trazado_23387" data-name="Trazado 23387" d="M74.418,223.093,60.1,221.063a14.319,14.319,0,0,0,3.122-1.22c3.384-1.926,5.576-4.807,6.016-7.9a7.782,7.782,0,0,0-2.217-6.632c-3.87-3.973-11.5-4.466-17.383-1.122-2.857,1.625-5.513,5.482-7.474,8.976-.912-3.9-2.392-8.345-4.685-10.7-4.719-4.849-12.19-6.5-17.009-3.756a7.78,7.78,0,0,0-3.974,5.753c-.44,3.1.866,6.475,3.581,9.266a14.335,14.335,0,0,0,2.659,2.04l-14.314-2.03a5.577,5.577,0,0,0-6.3,4.734l-1.25,8.815a5.576,5.576,0,0,0,4.733,6.3l.124.018L.056,273.629a5.576,5.576,0,0,0,4.733,6.3l54.712,7.76a5.577,5.577,0,0,0,6.3-4.733l5.678-40.031.126.018a5.577,5.577,0,0,0,6.3-4.733l1.25-8.816a5.578,5.578,0,0,0-4.734-6.3M51.966,208.275a12.484,12.484,0,0,1,7.677-1.5,6.9,6.9,0,0,1,4.008,1.813,3.087,3.087,0,0,1,.931,2.69c-.23,1.62-1.607,3.293-3.685,4.475-2.6,1.481-10.166,2.263-16.108,2.531,1.981-4.011,4.826-8.673,7.178-10.01m-30.812-3.156a3.091,3.091,0,0,1,1.643-2.325h0a6.9,6.9,0,0,1,4.354-.626,12.486,12.486,0,0,1,6.959,3.575c1.886,1.938,3.323,7.207,4.11,11.611-5.633-1.91-12.683-4.765-14.77-6.911-1.668-1.713-2.525-3.7-2.3-5.324M5.533,227.943l1.25-8.816a.869.869,0,0,1,.981-.737l30.667,4.35-1.493,10.532L6.27,228.923a.867.867,0,0,1-.737-.98m-.82,46.346,5.678-40.031,25.886,3.672-5.8,40.889L5.45,275.27a.868.868,0,0,1-.737-.98m56.428,8a.868.868,0,0,1-.98.736L35.135,279.48l5.8-40.89,25.885,3.672Zm12.1-44.747a.868.868,0,0,1-.98.736l-30.669-4.35L43.088,223.4l30.669,4.35a.868.868,0,0,1,.737.98Z" transform="translate(0 -66.035)" fill="#e1251b"/>
        <path id="Trazado_23388" data-name="Trazado 23388" d="M591.833,243.9l-14.406,1.239a14.355,14.355,0,0,0,2.768-1.891c2.865-2.637,4.353-5.937,4.085-9.054a7.78,7.78,0,0,0-3.651-5.964c-4.663-3-12.212-1.767-17.19,2.814-2.419,2.226-4.14,6.581-5.266,10.426-1.765-3.6-4.206-7.593-6.969-9.373-5.688-3.665-13.339-3.592-17.418.163a7.779,7.779,0,0,0-2.579,6.5c.268,3.117,2.3,6.114,5.572,8.224a14.358,14.358,0,0,0,3.05,1.39l-14.4,1.238a5.577,5.577,0,0,0-5.073,6.028l.763,8.871a5.576,5.576,0,0,0,6.028,5.073l.125-.011,3.465,40.283a5.577,5.577,0,0,0,6.028,5.073l55.056-4.735a5.577,5.577,0,0,0,5.073-6.028l-3.464-40.283.126-.011a5.576,5.576,0,0,0,5.073-6.027l-.763-8.871a5.577,5.577,0,0,0-6.028-5.073" transform="translate(-174.078 -75.809)" fill="#fff"/>
        <path id="Trazado_23389" data-name="Trazado 23389" d="M591.833,243.9l-14.406,1.238a14.3,14.3,0,0,0,2.767-1.89c2.865-2.637,4.354-5.938,4.086-9.054a7.781,7.781,0,0,0-3.651-5.964c-4.663-3-12.212-1.767-17.191,2.814-2.418,2.226-4.14,6.581-5.266,10.426-1.765-3.6-4.206-7.594-6.969-9.374-5.688-3.665-13.339-3.592-17.418.164a7.78,7.78,0,0,0-2.58,6.5c.268,3.116,2.3,6.114,5.573,8.223a14.285,14.285,0,0,0,3.049,1.39l-14.4,1.239a5.577,5.577,0,0,0-5.073,6.028l.763,8.871a5.578,5.578,0,0,0,6.028,5.073l.125-.011,3.465,40.283a5.576,5.576,0,0,0,6.028,5.073l55.056-4.735a5.577,5.577,0,0,0,5.073-6.028l-3.465-40.284.127-.011a5.578,5.578,0,0,0,5.073-6.028l-.763-8.871a5.577,5.577,0,0,0-6.028-5.073m-25.208-9.394a12.476,12.476,0,0,1,7.143-3.186,6.9,6.9,0,0,1,4.313.866,3.088,3.088,0,0,1,1.512,2.412c.14,1.631-.826,3.571-2.585,5.189-2.2,2.028-9.4,4.49-15.128,6.087,1.028-4.355,2.753-9.536,4.745-11.367m-30.733,3.85a3.09,3.09,0,0,1,1.079-2.635h0a6.9,6.9,0,0,1,4.1-1.589,12.485,12.485,0,0,1,7.583,1.919c2.273,1.465,4.858,6.276,6.616,10.39-5.919-.595-13.43-1.792-15.946-3.414-2.01-1.294-3.293-3.041-3.434-4.671M525.8,264.111l-.763-8.871a.868.868,0,0,1,.789-.938l30.861-2.654.912,10.6L526.738,264.9a.869.869,0,0,1-.938-.789m9.618,45.345-3.465-40.283L558,266.932l3.539,41.147-25.185,2.166a.867.867,0,0,1-.938-.789m56.783-4.884a.869.869,0,0,1-.79.938l-25.184,2.166-3.539-41.147,26.048-2.241Zm1.735-46.322a.868.868,0,0,1-.79.938l-30.861,2.654-.912-10.6,30.861-2.654a.868.868,0,0,1,.938.79Z" transform="translate(-174.078 -75.809)" fill="#e1251b"/>
        <path id="Trazado_23390" data-name="Trazado 23390" d="M700.655,238.559l-14.316-2.03a14.339,14.339,0,0,0,3.122-1.22c3.384-1.926,5.577-4.807,6.016-7.9a7.782,7.782,0,0,0-2.217-6.631c-3.87-3.973-11.5-4.467-17.383-1.123-2.857,1.626-5.513,5.482-7.474,8.976-.912-3.9-2.392-8.345-4.684-10.7-4.719-4.849-12.19-6.5-17.009-3.756a7.778,7.778,0,0,0-3.975,5.753c-.439,3.1.866,6.474,3.582,9.265a14.3,14.3,0,0,0,2.658,2.04l-14.314-2.03a5.577,5.577,0,0,0-6.3,4.733l-1.25,8.816a5.578,5.578,0,0,0,4.733,6.3l.125.017-5.678,40.031a5.577,5.577,0,0,0,4.734,6.3l54.711,7.76a5.578,5.578,0,0,0,6.3-4.733l5.678-40.031.126.018a5.577,5.577,0,0,0,6.3-4.733l1.25-8.815a5.577,5.577,0,0,0-4.733-6.3" transform="translate(-209.51 -71.209)" fill="#fff"/>
        <path id="Trazado_23391" data-name="Trazado 23391" d="M700.655,238.558l-14.316-2.03a14.32,14.32,0,0,0,3.122-1.22c3.384-1.926,5.576-4.807,6.016-7.9a7.78,7.78,0,0,0-2.217-6.632c-3.87-3.973-11.5-4.466-17.383-1.122-2.857,1.625-5.513,5.482-7.474,8.976-.912-3.9-2.392-8.345-4.684-10.7-4.719-4.849-12.19-6.5-17.009-3.756a7.78,7.78,0,0,0-3.974,5.753c-.44,3.1.866,6.475,3.581,9.266a14.337,14.337,0,0,0,2.659,2.04l-14.314-2.03a5.577,5.577,0,0,0-6.3,4.734l-1.25,8.815a5.577,5.577,0,0,0,4.733,6.3l.125.018-5.678,40.031a5.577,5.577,0,0,0,4.733,6.3l54.712,7.76a5.577,5.577,0,0,0,6.3-4.733l5.678-40.031.126.018a5.577,5.577,0,0,0,6.3-4.733l1.25-8.816a5.578,5.578,0,0,0-4.733-6.3M678.2,223.74a12.484,12.484,0,0,1,7.677-1.5,6.9,6.9,0,0,1,4.008,1.813,3.089,3.089,0,0,1,.932,2.69c-.23,1.62-1.608,3.293-3.686,4.475-2.6,1.481-10.166,2.263-16.108,2.531,1.981-4.012,4.826-8.673,7.177-10.01m-30.811-3.156a3.091,3.091,0,0,1,1.643-2.325h0a6.9,6.9,0,0,1,4.354-.626,12.483,12.483,0,0,1,6.959,3.575c1.886,1.938,3.323,7.207,4.111,11.611-5.634-1.91-12.683-4.765-14.771-6.911-1.668-1.713-2.525-3.7-2.3-5.324M631.77,243.408l1.25-8.816a.868.868,0,0,1,.98-.737l30.668,4.35-1.494,10.532-30.668-4.35a.867.867,0,0,1-.737-.98m-.82,46.346,5.678-40.031,25.886,3.672-5.8,40.889-25.027-3.549a.868.868,0,0,1-.737-.98m56.428,8a.868.868,0,0,1-.98.736l-25.027-3.549,5.8-40.89,25.885,3.672Zm12.1-44.747a.868.868,0,0,1-.98.736l-30.668-4.35,1.493-10.532,30.669,4.35a.868.868,0,0,1,.737.98Z" transform="translate(-209.51 -71.209)" fill="#e1251b"/>
        <path id="Trazado_23392" data-name="Trazado 23392" d="M154.616,250.559l-14.316-2.03a14.339,14.339,0,0,0,3.122-1.22c3.384-1.926,5.577-4.807,6.016-7.9a7.783,7.783,0,0,0-2.217-6.631c-3.87-3.973-11.5-4.467-17.384-1.123-2.857,1.626-5.513,5.482-7.474,8.976-.912-3.9-2.392-8.345-4.684-10.7-4.719-4.849-12.19-6.5-17.009-3.756a7.778,7.778,0,0,0-3.975,5.753c-.439,3.1.866,6.474,3.582,9.265a14.3,14.3,0,0,0,2.658,2.04L88.623,241.2a5.577,5.577,0,0,0-6.3,4.733l-1.25,8.816a5.578,5.578,0,0,0,4.734,6.3l.124.017-5.678,40.031a5.577,5.577,0,0,0,4.734,6.3l54.711,7.76a5.578,5.578,0,0,0,6.3-4.733l5.678-40.031.126.018a5.577,5.577,0,0,0,6.3-4.733l1.25-8.815a5.577,5.577,0,0,0-4.733-6.3" transform="translate(-26.831 -75.224)" fill="#fff"/>
        <path id="Trazado_23393" data-name="Trazado 23393" d="M154.617,250.558l-14.315-2.03a14.319,14.319,0,0,0,3.122-1.22c3.384-1.926,5.576-4.807,6.016-7.9a7.78,7.78,0,0,0-2.217-6.632c-3.87-3.973-11.5-4.466-17.383-1.122-2.857,1.625-5.513,5.482-7.474,8.976-.912-3.9-2.392-8.345-4.685-10.7-4.718-4.849-12.19-6.5-17.009-3.756a7.78,7.78,0,0,0-3.974,5.753c-.44,3.1.866,6.475,3.581,9.266a14.334,14.334,0,0,0,2.659,2.04L88.623,241.2a5.577,5.577,0,0,0-6.3,4.734l-1.25,8.815a5.577,5.577,0,0,0,4.733,6.3l.124.018-5.678,40.031a5.576,5.576,0,0,0,4.733,6.3l54.712,7.76a5.577,5.577,0,0,0,6.3-4.733l5.678-40.031.126.018a5.577,5.577,0,0,0,6.3-4.733l1.25-8.816a5.578,5.578,0,0,0-4.734-6.3M132.165,235.74a12.484,12.484,0,0,1,7.677-1.5,6.9,6.9,0,0,1,4.008,1.813,3.087,3.087,0,0,1,.931,2.69c-.23,1.62-1.607,3.293-3.685,4.475-2.6,1.481-10.166,2.263-16.108,2.531,1.98-4.012,4.826-8.673,7.178-10.01m-30.812-3.156A3.091,3.091,0,0,1,103,230.259h0a6.9,6.9,0,0,1,4.354-.626,12.486,12.486,0,0,1,6.959,3.575c1.886,1.938,3.323,7.207,4.111,11.611-5.634-1.91-12.683-4.765-14.771-6.911-1.668-1.713-2.525-3.7-2.3-5.324M85.732,255.408l1.25-8.816a.868.868,0,0,1,.98-.737l30.667,4.35-1.493,10.532-30.668-4.35a.867.867,0,0,1-.737-.98m-.82,46.346,5.678-40.031,25.886,3.672-5.8,40.889-25.027-3.549a.868.868,0,0,1-.737-.98m56.428,8a.868.868,0,0,1-.98.736l-25.026-3.549,5.8-40.89,25.885,3.672Zm12.1-44.747a.868.868,0,0,1-.98.736l-30.669-4.35,1.494-10.532,30.669,4.35a.868.868,0,0,1,.737.98Z" transform="translate(-26.831 -75.223)" fill="#e1251b"/>
      </g>
    </g>
  </g>
</svg>
