<svg
    xmlns="http://www.w3.org/2000/svg"
    className="h-full"
    viewBox="1480 0 70 800"
    preserveAspectRatio="xMaxYMax meet"
>
    <g id="login">
        <g id="Grupo_19933">
            <path id="Trazado_23228" data-name="Trazado 23228"
                d="M1498.95,18.44c0,13.177,3.6,18.674,9.04,27,6.462,9.879,14.505,22.173,14.505,45.322,0,23.853-9.74,36.521-17.566,46.7-6.4,8.317-10.621,13.813-10.621,26.285,0,12.389,4.188,17.738,10.529,25.833,7.867,10.046,17.658,22.547,17.658,46.482,0,23.852-9.74,36.519-17.566,46.7-6.4,8.317-10.621,13.81-10.621,26.282h61.474V18.44Z"
                transform="translate(-7.728 -118.145)" fill="#691c32" />
            <path id="Trazado_23229" data-name="Trazado 23229"
                d="M1490.065,309.04h-2.3c0-18.554,7.285-28.028,14.331-37.192,7.125-9.265,13.856-18.018,13.856-35.788s-6.728-26.355-13.849-35.449c-7.049-9-14.338-18.309-14.338-36.867s7.286-28.03,14.331-37.193c7.125-9.266,13.856-18.019,13.856-35.79,0-17.82-5.627-26.423-11.585-35.53-5.88-8.989-11.96-18.284-11.96-36.789h2.3c0,17.819,5.627,26.422,11.585,35.529,5.88,8.99,11.96,18.284,11.96,36.79,0,18.553-7.286,28.028-14.331,37.192-7.125,9.266-13.856,18.019-13.856,35.791s6.727,26.354,13.849,35.447c7.049,9,14.338,18.309,14.338,36.868s-7.286,28.028-14.333,37.192c-7.124,9.265-13.855,18.018-13.855,35.788"
                transform="translate(-9.803 -118.144)" fill="#691c32" />
            <path id="Trazado_23230" data-name="Trazado 23230"
                d="M1498.95,529.614c0-13.177,3.6-18.674,9.04-27,6.462-9.879,14.505-22.173,14.505-45.323,0-23.852-9.74-36.519-17.566-46.7-6.4-8.317-10.621-13.813-10.621-26.285,0-12.389,4.188-17.738,10.529-25.833,7.867-10.046,17.658-22.547,17.658-46.482,0-23.852-9.74-36.519-17.566-46.7-6.4-8.316-10.621-13.811-10.621-26.282h61.474v290.6Z"
                transform="translate(-7.728 -48.305)" fill="#691c32" />
            <path id="Trazado_23231" data-name="Trazado 23231"
                d="M1494.707,529.614h-2.3c0-18.506,6.08-27.8,11.96-36.789,5.958-9.108,11.583-17.71,11.583-35.53,0-17.772-6.729-26.523-13.854-35.79-7.047-9.164-14.331-18.639-14.331-37.193s7.289-27.866,14.338-36.867c7.121-9.094,13.849-17.684,13.849-35.449s-6.73-26.523-13.856-35.79c-7.047-9.162-14.331-18.638-14.331-37.191h2.3c0,17.771,6.731,26.522,13.855,35.788,7.046,9.164,14.333,18.638,14.333,37.192s-7.289,27.866-14.338,36.867c-7.123,9.094-13.849,17.684-13.849,35.449s6.731,26.523,13.855,35.791c7.046,9.162,14.333,18.638,14.333,37.192,0,18.507-6.08,27.8-11.96,36.789-5.958,9.108-11.585,17.71-11.585,35.53"
                transform="translate(-9.803 -48.305)" fill="#691c32" />
            <path id="Trazado_23232" data-name="Trazado_23232"
                d="M1498.95,459.709c0,13.177,3.6,18.674,9.04,27,6.462,9.879,14.505,22.173,14.505,45.322,0,23.853-9.74,36.521-17.566,46.7-6.4,8.317-10.621,13.811-10.621,26.285,0,12.388,4.188,17.736,10.529,25.833,7.867,10.045,17.658,22.547,17.658,46.482,0,23.852-9.74,36.519-17.566,46.7-6.4,8.316-10.621,13.81-10.621,26.282h61.474v-290.6Z"
                transform="translate(-7.728 21.571)" fill="#691c32" />
            <path id="Trazado_23233" data-name="Trazado_23233"
                d="M1490.065,750.308h-2.3c0-18.554,7.285-28.028,14.331-37.192,7.125-9.265,13.856-18.018,13.856-35.788s-6.728-26.355-13.849-35.449c-7.049-9-14.338-18.308-14.338-36.867s7.286-28.03,14.331-37.193c7.125-9.266,13.856-18.019,13.856-35.79,0-17.821-5.627-26.423-11.585-35.53-5.88-8.989-11.96-18.284-11.96-36.789h2.3c0,17.819,5.627,26.422,11.585,35.529,5.88,8.99,11.96,18.284,11.96,36.79,0,18.553-7.286,28.028-14.331,37.192-7.125,9.266-13.856,18.019-13.856,35.791s6.727,26.355,13.849,35.448c7.049,9,14.338,18.309,14.338,36.868s-7.286,28.028-14.333,37.192c-7.124,9.265-13.855,18.018-13.855,35.788"
                transform="translate(-9.803 21.571)" fill="#691c32" />
            <path id="Trazado_23234" data-name="Trazado_23234"
                d="M1498.95,970.883c0-13.177,3.6-18.674,9.04-27,6.462-9.879,14.505-22.173,14.505-45.323,0-23.852-9.74-36.519-17.566-46.7-6.4-8.317-10.621-13.813-10.621-26.285,0-12.39,4.188-17.738,10.529-25.833,7.867-10.046,17.658-22.547,17.658-46.482,0-23.852-9.74-36.519-17.566-46.7-6.4-8.317-10.621-13.81-10.621-26.283h61.474v290.6Z"
                transform="translate(-7.728 91.412)" fill="#691c32" />
            <path id="Trazado_23235" data-name="Trazado_23235"
                d="M1494.707,970.883h-2.3c0-18.506,6.08-27.8,11.96-36.789,5.958-9.108,11.583-17.71,11.583-35.53,0-17.772-6.729-26.523-13.854-35.79-7.047-9.164-14.331-18.639-14.331-37.193s7.289-27.866,14.338-36.867c7.121-9.094,13.849-17.683,13.849-35.449s-6.73-26.523-13.856-35.79c-7.047-9.162-14.331-18.638-14.331-37.191h2.3c0,17.771,6.731,26.522,13.855,35.789,7.046,9.164,14.333,18.638,14.333,37.192s-7.289,27.866-14.338,36.867c-7.123,9.094-13.849,17.684-13.849,35.449s6.731,26.523,13.855,35.791c7.046,9.162,14.333,18.638,14.333,37.192,0,18.505-6.08,27.8-11.96,36.789-5.958,9.107-11.585,17.71-11.585,35.53"
                transform="translate(-9.803 91.412)" fill="#691c32" />
        </g>
    </g>
</svg>