<svg xmlns="http://www.w3.org/2000/svg" width="390.958" height="90.223" viewBox="0 0 390.958 90.223">
  <g id="Grupo_20035" data-name="Grupo 20035" transform="translate(-385.213 -1086.051)">
    <g id="Grupo_19940" data-name="Grupo 19940" transform="translate(776.172 1086.051) rotate(90)">
      <path id="Trazado_23228" data-name="Trazado 23228" d="M1.563,0c0,4.437,1.211,6.288,3.044,9.091,2.176,3.327,4.885,7.467,4.885,15.262,0,8.033-3.28,12.3-5.915,15.726C1.423,42.88,0,44.731,0,48.931,0,53.1,1.41,54.9,3.546,57.63c2.649,3.383,5.946,7.593,5.946,15.653,0,8.032-3.28,12.3-5.915,15.726C1.423,91.81,0,93.66,0,97.86H20.7V0Z" transform="translate(2.902 195.301)" fill="#691c32"/>
      <path id="Trazado_23229" data-name="Trazado 23229" d="M.775,97.86H0c0-6.248,2.453-9.439,4.826-12.524,2.4-3.12,4.666-6.068,4.666-12.052S7.226,64.408,4.828,61.346C2.455,58.315,0,55.18,0,48.931s2.454-9.439,4.826-12.525c2.4-3.12,4.666-6.068,4.666-12.052,0-6-1.9-8.9-3.9-11.965C3.611,9.362,1.563,6.232,1.563,0h.774c0,6,1.9,8.9,3.9,11.964,1.98,3.027,4.027,6.157,4.027,12.389,0,6.248-2.454,9.439-4.826,12.524C3.041,40,.775,42.946.775,48.931S3.04,57.806,5.438,60.868c2.374,3.031,4.828,6.166,4.828,12.415S7.813,82.722,5.44,85.808C3.041,88.928.775,91.875.775,97.86" transform="translate(0 195.301)" fill="#691c32"/>
      <path id="Trazado_23230" data-name="Trazado 23230" d="M1.563,97.86c0-4.437,1.211-6.288,3.044-9.091C6.784,85.442,9.492,81.3,9.492,73.506c0-8.032-3.28-12.3-5.915-15.726C1.423,54.979,0,53.129,0,48.929c0-4.172,1.41-5.973,3.546-8.7,2.649-3.383,5.946-7.593,5.946-15.653,0-8.032-3.28-12.3-5.915-15.726C1.423,6.05,0,4.2,0,0H20.7V97.86Z" transform="translate(2.902 293.099)" fill="#691c32"/>
      <path id="Trazado_23231" data-name="Trazado 23231" d="M2.338,97.86H1.563c0-6.232,2.047-9.362,4.028-12.389,2.006-3.067,3.9-5.964,3.9-11.965,0-5.985-2.266-8.932-4.665-12.052C2.453,58.368,0,55.177,0,48.929s2.455-9.384,4.828-12.415c2.4-3.062,4.664-5.955,4.664-11.937S7.226,15.645,4.826,12.524C2.453,9.439,0,6.248,0,0H.775c0,5.984,2.267,8.931,4.666,12.052,2.373,3.086,4.826,6.276,4.826,12.524S7.812,33.96,5.438,36.991C3.04,40.054.775,42.946.775,48.929S3.041,57.861,5.44,60.981c2.373,3.085,4.826,6.276,4.826,12.524,0,6.232-2.047,9.362-4.027,12.389-2.006,3.067-3.9,5.964-3.9,11.965" transform="translate(0 293.099)" fill="#691c32"/>
      <path id="Trazado_23338" data-name="Trazado 23338" d="M1.563,0c0,4.437,1.211,6.288,3.044,9.091,2.176,3.327,4.885,7.467,4.885,15.262,0,8.033-3.28,12.3-5.915,15.726C1.423,42.88,0,44.73,0,48.931,0,53.1,1.41,54.9,3.546,57.63c2.649,3.383,5.946,7.593,5.946,15.653,0,8.032-3.28,12.3-5.915,15.726C1.423,91.809,0,93.66,0,97.86H20.7V0Z" transform="translate(2.902 0)" fill="#691c32"/>
      <path id="Trazado_23334" data-name="Trazado 23334" d="M.775,97.86H0c0-6.248,2.453-9.439,4.826-12.524,2.4-3.12,4.666-6.068,4.666-12.052S7.226,64.408,4.828,61.346C2.455,58.315,0,55.181,0,48.931s2.454-9.439,4.826-12.525c2.4-3.12,4.666-6.068,4.666-12.052,0-6-1.9-8.9-3.9-11.965C3.611,9.362,1.563,6.232,1.563,0h.774c0,6,1.9,8.9,3.9,11.964,1.98,3.027,4.027,6.157,4.027,12.389,0,6.248-2.454,9.439-4.826,12.524C3.041,40,.775,42.946.775,48.931S3.04,57.806,5.438,60.868c2.374,3.031,4.828,6.166,4.828,12.415S7.813,82.722,5.44,85.808C3.041,88.928.775,91.875.775,97.86" transform="translate(0 0)" fill="#691c32"/>
      <path id="Trazado_23339" data-name="Trazado 23339" d="M1.563,97.86c0-4.437,1.211-6.288,3.044-9.091C6.784,85.442,9.492,81.3,9.492,73.506c0-8.032-3.28-12.3-5.915-15.726C1.423,54.98,0,53.129,0,48.929c0-4.172,1.41-5.973,3.546-8.7,2.649-3.383,5.946-7.593,5.946-15.653,0-8.032-3.28-12.3-5.915-15.726C1.423,6.05,0,4.2,0,0H20.7V97.86Z" transform="translate(2.902 97.799)" fill="#691c32"/>
      <path id="Trazado_23335" data-name="Trazado 23335" d="M2.338,97.86H1.563c0-6.232,2.047-9.362,4.028-12.389,2.006-3.067,3.9-5.964,3.9-11.965,0-5.985-2.266-8.932-4.665-12.052C2.453,58.368,0,55.177,0,48.929s2.455-9.384,4.828-12.415c2.4-3.062,4.664-5.955,4.664-11.937S7.226,15.645,4.826,12.524C2.453,9.439,0,6.248,0,0H.775c0,5.984,2.267,8.931,4.666,12.052,2.373,3.086,4.826,6.276,4.826,12.525S7.812,33.96,5.438,36.991C3.04,40.054.775,42.946.775,48.929S3.041,57.861,5.44,60.981c2.373,3.085,4.826,6.276,4.826,12.525,0,6.232-2.047,9.362-4.027,12.389-2.006,3.067-3.9,5.964-3.9,11.965" transform="translate(0 97.799)" fill="#691c32"/>
      <rect id="Rectángulo_18859" data-name="Rectángulo 18859" width="390.957" height="69.58" transform="translate(20.642 390.958) rotate(-90)" fill="#691f32"/>
    </g>
  </g>
</svg>
