<?xml version="1.0" encoding="UTF-8" standalone="no"?>
<svg
   width="1923.266"
   height="95.758003"
   viewBox="0 0 1923.266 95.758029"
   version="1.1"
   id="svg1"
   sodipodi:docname="footer2.svg"
   inkscape:version="1.4 (86a8ad7, 2024-10-11)"
   xmlns:inkscape="http://www.inkscape.org/namespaces/inkscape"
   xmlns:sodipodi="http://sodipodi.sourceforge.net/DTD/sodipodi-0.dtd"
   xmlns="http://www.w3.org/2000/svg"
   xmlns:svg="http://www.w3.org/2000/svg">
  <defs
     id="defs1" />
  <sodipodi:namedview
     id="namedview1"
     pagecolor="#505050"
     bordercolor="#eeeeee"
     borderopacity="1"
     inkscape:showpageshadow="0"
     inkscape:pageopacity="0"
     inkscape:pagecheckerboard="false"
     inkscape:deskcolor="#505050"
     inkscape:zoom="0.92343015"
     inkscape:cx="961.63202"
     inkscape:cy="64.433677"
     inkscape:window-width="1920"
     inkscape:window-height="1009"
     inkscape:window-x="1912"
     inkscape:window-y="370"
     inkscape:window-maximized="1"
     inkscape:current-layer="svg1" />
  <g
     id="Grupo_19940"
     data-name="Grupo 19940"
     transform="rotate(90,1117.2615,-360.7005)">
    <path
       id="Trazado_23228"
       data-name="Trazado 23228"
       d="m 1498.151,18.44 c 0,10.91 2.977,15.461 7.484,22.351 5.35,8.179 12.009,18.358 12.009,37.524 0,19.749 -8.064,30.237 -14.544,38.664 -5.3,6.886 -8.794,11.436 -8.794,21.763 0,10.258 3.468,14.686 8.718,21.389 6.513,8.317 14.62,18.668 14.62,38.485 0,19.748 -8.064,30.236 -14.544,38.663 -5.3,6.886 -8.794,11.434 -8.794,21.76 h 50.9 V 18.44 Z"
       transform="translate(-9.211,-223.952)"
       fill="#691c32" />
    <path
       id="Trazado_23336"
       data-name="Trazado 23336"
       d="m 1498.151,18.44 c 0,10.91 2.977,15.461 7.484,22.351 5.35,8.179 12.009,18.358 12.009,37.524 0,19.749 -8.064,30.237 -14.544,38.664 -5.3,6.886 -8.794,11.436 -8.794,21.763 0,10.258 3.468,14.686 8.718,21.389 6.513,8.317 14.62,18.668 14.62,38.485 0,19.748 -8.064,30.236 -14.544,38.663 -5.3,6.886 -8.794,11.434 -8.794,21.76 h 50.9 V 18.44 Z"
       transform="translate(-9.211,-1185.145)"
       fill="#691c32" />
    <path
       id="Trazado_23229"
       data-name="Trazado 23229"
       d="m 1489.669,259.04 h -1.9 c 0,-15.362 6.031,-23.206 11.866,-30.793 5.9,-7.671 11.472,-14.918 11.472,-29.631 0,-14.713 -5.57,-21.82 -11.466,-29.35 -5.836,-7.453 -11.871,-15.159 -11.871,-30.524 0,-15.365 6.032,-23.207 11.866,-30.794 5.9,-7.672 11.472,-14.919 11.472,-29.632 0,-14.754 -4.659,-21.877 -9.592,-29.417 -4.868,-7.442 -9.9,-15.138 -9.9,-30.459 h 1.9 c 0,14.753 4.659,21.876 9.592,29.416 4.868,7.443 9.9,15.138 9.9,30.46 0,15.36 -6.033,23.206 -11.865,30.793 -5.9,7.672 -11.472,14.919 -11.472,29.633 0,14.714 5.569,21.819 11.467,29.349 5.836,7.453 11.871,15.159 11.871,30.525 0,15.366 -6.033,23.206 -11.867,30.793 -5.9,7.671 -11.471,14.918 -11.471,29.631"
       transform="translate(-9.803,-223.952)"
       fill="#691c32" />
    <path
       id="Trazado_23332"
       data-name="Trazado 23332"
       d="m 1489.669,259.04 h -1.9 c 0,-15.362 6.031,-23.206 11.866,-30.793 5.9,-7.671 11.472,-14.918 11.472,-29.631 0,-14.713 -5.57,-21.82 -11.466,-29.35 -5.836,-7.453 -11.871,-15.159 -11.871,-30.524 0,-15.365 6.032,-23.207 11.866,-30.794 5.9,-7.672 11.472,-14.919 11.472,-29.632 0,-14.754 -4.659,-21.877 -9.592,-29.417 -4.868,-7.442 -9.9,-15.138 -9.9,-30.459 h 1.9 c 0,14.753 4.659,21.876 9.592,29.416 4.868,7.443 9.9,15.138 9.9,30.46 0,15.36 -6.033,23.206 -11.865,30.793 -5.9,7.672 -11.472,14.919 -11.472,29.633 0,14.714 5.569,21.819 11.467,29.349 5.836,7.453 11.871,15.159 11.871,30.525 0,15.366 -6.033,23.206 -11.867,30.793 -5.9,7.671 -11.471,14.918 -11.471,29.631"
       transform="translate(-9.803,-1185.145)"
       fill="#691c32" />
    <path
       id="Trazado_23230"
       data-name="Trazado 23230"
       d="m 1498.151,479.615 c 0,-10.91 2.977,-15.461 7.484,-22.351 5.35,-8.179 12.009,-18.358 12.009,-37.525 0,-19.748 -8.064,-30.236 -14.544,-38.663 -5.3,-6.886 -8.794,-11.436 -8.794,-21.763 0,-10.258 3.468,-14.686 8.718,-21.389 6.513,-8.317 14.62,-18.668 14.62,-38.485 0,-19.748 -8.064,-30.236 -14.544,-38.663 -5.3,-6.885 -8.794,-11.435 -8.794,-21.76 h 50.9 v 240.6 z"
       transform="translate(-9.211,-204.081)"
       fill="#691c32" />
    <path
       id="Trazado_23337"
       data-name="Trazado 23337"
       d="m 1498.151,479.615 c 0,-10.91 2.977,-15.461 7.484,-22.351 5.35,-8.179 12.009,-18.358 12.009,-37.525 0,-19.748 -8.064,-30.236 -14.544,-38.663 -5.3,-6.886 -8.794,-11.436 -8.794,-21.763 0,-10.258 3.468,-14.686 8.718,-21.389 6.513,-8.317 14.62,-18.668 14.62,-38.485 0,-19.748 -8.064,-30.236 -14.544,-38.663 -5.3,-6.885 -8.794,-11.435 -8.794,-21.76 h 50.9 v 240.6 z"
       transform="translate(-9.211,-1165.273)"
       fill="#691c32" />
    <path
       id="Trazado_23231"
       data-name="Trazado 23231"
       d="m 1493.513,479.615 h -1.9 c 0,-15.322 5.034,-23.017 9.9,-30.459 4.932,-7.541 9.59,-14.663 9.59,-29.417 0,-14.714 -5.571,-21.96 -11.471,-29.632 -5.834,-7.587 -11.866,-15.432 -11.866,-30.794 0,-15.362 6.035,-23.072 11.871,-30.524 5.9,-7.529 11.466,-14.641 11.466,-29.35 0,-14.709 -5.573,-21.96 -11.472,-29.632 -5.834,-7.586 -11.866,-15.431 -11.866,-30.792 h 1.9 c 0,14.713 5.573,21.959 11.471,29.631 5.834,7.587 11.867,15.431 11.867,30.793 0,15.362 -6.035,23.072 -11.871,30.524 -5.9,7.529 -11.467,14.641 -11.467,29.35 0,14.709 5.573,21.96 11.471,29.633 5.834,7.586 11.867,15.431 11.867,30.793 0,15.322 -5.034,23.017 -9.9,30.459 -4.933,7.541 -9.592,14.663 -9.592,29.417"
       transform="translate(-9.803,-204.081)"
       fill="#691c32" />
    <path
       id="Trazado_23333"
       data-name="Trazado 23333"
       d="m 1493.513,479.615 h -1.9 c 0,-15.322 5.034,-23.017 9.9,-30.459 4.932,-7.541 9.59,-14.663 9.59,-29.417 0,-14.714 -5.571,-21.96 -11.471,-29.632 -5.834,-7.587 -11.866,-15.432 -11.866,-30.794 0,-15.362 6.035,-23.072 11.871,-30.524 5.9,-7.529 11.466,-14.641 11.466,-29.35 0,-14.709 -5.573,-21.96 -11.472,-29.632 -5.834,-7.586 -11.866,-15.431 -11.866,-30.792 h 1.9 c 0,14.713 5.573,21.959 11.471,29.631 5.834,7.587 11.867,15.431 11.867,30.793 0,15.362 -6.035,23.072 -11.871,30.524 -5.9,7.529 -11.467,14.641 -11.467,29.35 0,14.709 5.573,21.96 11.471,29.633 5.834,7.586 11.867,15.431 11.867,30.793 0,15.322 -5.034,23.017 -9.9,30.459 -4.933,7.541 -9.592,14.663 -9.592,29.417"
       transform="translate(-9.803,-1165.273)"
       fill="#691c32" />
    <path
       id="Trazado_23232"
       data-name="Trazado 23232"
       d="m 1498.151,459.709 c 0,10.91 2.977,15.461 7.484,22.351 5.35,8.179 12.009,18.358 12.009,37.524 0,19.749 -8.064,30.237 -14.544,38.664 -5.3,6.886 -8.794,11.435 -8.794,21.763 0,10.257 3.468,14.685 8.718,21.389 6.513,8.316 14.62,18.668 14.62,38.485 0,19.748 -8.064,30.236 -14.544,38.663 -5.3,6.885 -8.794,11.434 -8.794,21.76 h 50.9 v -240.6 z"
       transform="translate(-9.211,-184.198)"
       fill="#691c32" />
    <path
       id="Trazado_23338"
       data-name="Trazado 23338"
       d="m 1498.151,459.709 c 0,10.91 2.977,15.461 7.484,22.351 5.35,8.179 12.009,18.358 12.009,37.524 0,19.749 -8.064,30.237 -14.544,38.664 -5.3,6.886 -8.794,11.435 -8.794,21.763 0,10.257 3.468,14.685 8.718,21.389 6.513,8.316 14.62,18.668 14.62,38.485 0,19.748 -8.064,30.236 -14.544,38.663 -5.3,6.885 -8.794,11.434 -8.794,21.76 h 50.9 v -240.6 z"
       transform="translate(-9.211,-1145.391)"
       fill="#691c32" />
    <path
       id="Trazado_23233"
       data-name="Trazado 23233"
       d="m 1489.669,700.309 h -1.9 c 0,-15.362 6.031,-23.206 11.866,-30.793 5.9,-7.671 11.472,-14.918 11.472,-29.631 0,-14.713 -5.57,-21.82 -11.466,-29.35 -5.836,-7.452 -11.871,-15.158 -11.871,-30.524 0,-15.366 6.032,-23.207 11.866,-30.794 5.9,-7.672 11.472,-14.919 11.472,-29.632 0,-14.755 -4.659,-21.877 -9.592,-29.417 -4.868,-7.442 -9.9,-15.138 -9.9,-30.459 h 1.9 c 0,14.753 4.659,21.876 9.592,29.416 4.868,7.443 9.9,15.138 9.9,30.461 0,15.36 -6.033,23.206 -11.865,30.793 -5.9,7.672 -11.472,14.919 -11.472,29.633 0,14.714 5.569,21.82 11.467,29.349 5.836,7.453 11.871,15.159 11.871,30.525 0,15.366 -6.033,23.206 -11.867,30.793 -5.9,7.671 -11.471,14.918 -11.471,29.631"
       transform="translate(-9.803,-184.198)"
       fill="#691c32" />
    <path
       id="Trazado_23334"
       data-name="Trazado 23334"
       d="m 1489.669,700.309 h -1.9 c 0,-15.362 6.031,-23.206 11.866,-30.793 5.9,-7.671 11.472,-14.918 11.472,-29.631 0,-14.713 -5.57,-21.82 -11.466,-29.35 -5.836,-7.452 -11.871,-15.158 -11.871,-30.524 0,-15.366 6.032,-23.207 11.866,-30.794 5.9,-7.672 11.472,-14.919 11.472,-29.632 0,-14.755 -4.659,-21.877 -9.592,-29.417 -4.868,-7.442 -9.9,-15.138 -9.9,-30.459 h 1.9 c 0,14.753 4.659,21.876 9.592,29.416 4.868,7.443 9.9,15.138 9.9,30.461 0,15.36 -6.033,23.206 -11.865,30.793 -5.9,7.672 -11.472,14.919 -11.472,29.633 0,14.714 5.569,21.82 11.467,29.349 5.836,7.453 11.871,15.159 11.871,30.525 0,15.366 -6.033,23.206 -11.867,30.793 -5.9,7.671 -11.471,14.918 -11.471,29.631"
       transform="translate(-9.803,-1145.391)"
       fill="#691c32" />
    <path
       id="Trazado_23234"
       data-name="Trazado 23234"
       d="m 1498.151,920.884 c 0,-10.91 2.977,-15.461 7.484,-22.351 5.35,-8.179 12.009,-18.358 12.009,-37.525 0,-19.748 -8.064,-30.236 -14.544,-38.663 -5.3,-6.886 -8.794,-11.436 -8.794,-21.762 0,-10.258 3.468,-14.686 8.718,-21.389 6.513,-8.318 14.62,-18.668 14.62,-38.485 0,-19.748 -8.064,-30.236 -14.544,-38.663 -5.3,-6.886 -8.794,-11.434 -8.794,-21.76 h 50.9 v 240.6 z"
       transform="translate(-9.211,-164.325)"
       fill="#691c32" />
    <path
       id="Trazado_23339"
       data-name="Trazado 23339"
       d="m 1498.151,920.884 c 0,-10.91 2.977,-15.461 7.484,-22.351 5.35,-8.179 12.009,-18.358 12.009,-37.525 0,-19.748 -8.064,-30.236 -14.544,-38.663 -5.3,-6.886 -8.794,-11.436 -8.794,-21.762 0,-10.258 3.468,-14.686 8.718,-21.389 6.513,-8.318 14.62,-18.668 14.62,-38.485 0,-19.748 -8.064,-30.236 -14.544,-38.663 -5.3,-6.886 -8.794,-11.434 -8.794,-21.76 h 50.9 v 240.6 z"
       transform="translate(-9.211,-1125.517)"
       fill="#691c32" />
    <path
       id="Trazado_23235"
       data-name="Trazado 23235"
       d="m 1493.513,920.884 h -1.9 c 0,-15.322 5.034,-23.017 9.9,-30.459 4.932,-7.541 9.59,-14.663 9.59,-29.417 0,-14.714 -5.571,-21.96 -11.471,-29.632 -5.834,-7.587 -11.866,-15.432 -11.866,-30.794 0,-15.362 6.035,-23.072 11.871,-30.524 5.9,-7.529 11.466,-14.641 11.466,-29.349 0,-14.708 -5.573,-21.96 -11.472,-29.632 -5.834,-7.586 -11.866,-15.431 -11.866,-30.792 h 1.9 c 0,14.713 5.573,21.959 11.471,29.631 5.834,7.587 11.867,15.431 11.867,30.793 0,15.362 -6.035,23.072 -11.871,30.524 -5.9,7.529 -11.467,14.641 -11.467,29.35 0,14.709 5.573,21.96 11.471,29.633 5.834,7.586 11.867,15.431 11.867,30.793 0,15.321 -5.034,23.017 -9.9,30.459 -4.933,7.54 -9.592,14.663 -9.592,29.417"
       transform="translate(-9.803,-164.325)"
       fill="#691c32" />
    <path
       id="Trazado_23335"
       data-name="Trazado 23335"
       d="m 1493.513,920.884 h -1.9 c 0,-15.322 5.034,-23.017 9.9,-30.459 4.932,-7.541 9.59,-14.663 9.59,-29.417 0,-14.714 -5.571,-21.96 -11.471,-29.632 -5.834,-7.587 -11.866,-15.432 -11.866,-30.794 0,-15.362 6.035,-23.072 11.871,-30.524 5.9,-7.529 11.466,-14.641 11.466,-29.349 0,-14.708 -5.573,-21.96 -11.472,-29.632 -5.834,-7.586 -11.866,-15.431 -11.866,-30.792 h 1.9 c 0,14.713 5.573,21.959 11.471,29.631 5.834,7.587 11.867,15.431 11.867,30.793 0,15.362 -6.035,23.072 -11.871,30.524 -5.9,7.529 -11.467,14.641 -11.467,29.35 0,14.709 5.573,21.96 11.471,29.633 5.834,7.586 11.867,15.431 11.867,30.793 0,15.321 -5.034,23.017 -9.9,30.459 -4.933,7.54 -9.592,14.663 -9.592,29.417"
       transform="translate(-9.803,-1125.517)"
       fill="#691c32" />
    <rect
       id="Rectángulo_18859"
       data-name="Rectángulo 18859"
       width="1920"
       height="75"
       transform="rotate(-90,1144.1395,-387.5805)"
       fill="#691f32"
       x="0"
       y="0" />
  </g>
</svg>
