<svg id="Grupo_20038" data-name="Grupo 20038" xmlns="http://www.w3.org/2000/svg" xmlns:xlink="http://www.w3.org/1999/xlink" width="286.938" height="122.408" viewBox="0 0 286.938 122.408">
  <defs>
    <clipPath id="clip-path">
      <rect id="Rectángulo_18872" data-name="Rectángulo 18872" width="286.938" height="122.409" fill="none"/>
    </clipPath>
  </defs>
  <g id="Grupo_19968" data-name="Grupo 19968" clip-path="url(#clip-path)">
    <path id="Trazado_23419" data-name="Trazado 23419" d="M328.37,50.788l-6.642,1.518a6.751,6.751,0,0,0,1.168-1.063,5.328,5.328,0,0,0,1.316-4.492,3.667,3.667,0,0,0-2.093-2.545c-2.372-1.1-5.815-.028-7.84,2.435a11.509,11.509,0,0,0-1.777,5.209,11.511,11.511,0,0,0-3.864-3.92c-2.893-1.339-6.459-.806-8.118,1.213a3.665,3.665,0,0,0-.78,3.2,5.327,5.327,0,0,0,3.137,3.474,6.754,6.754,0,0,0,1.514.45l-6.641,1.518a2.628,2.628,0,0,0-1.974,3.144l.935,4.09A2.628,2.628,0,0,0,299.855,67l.058-.013,4.246,18.574a2.628,2.628,0,0,0,3.144,1.974l25.385-5.8a2.628,2.628,0,0,0,1.974-3.144L330.416,60.01l.058-.013a2.628,2.628,0,0,0,1.975-3.144l-.935-4.09a2.628,2.628,0,0,0-3.144-1.974" transform="translate(-202.981 -30.049)" fill="#fff"/>
    <path id="Trazado_23420" data-name="Trazado 23420" d="M328.369,50.788l-6.642,1.518a6.76,6.76,0,0,0,1.168-1.063,5.329,5.329,0,0,0,1.316-4.492,3.668,3.668,0,0,0-2.093-2.545c-2.373-1.1-5.815-.028-7.839,2.435a11.508,11.508,0,0,0-1.777,5.209,11.507,11.507,0,0,0-3.864-3.92c-2.894-1.339-6.46-.806-8.118,1.213a3.667,3.667,0,0,0-.78,3.2,5.329,5.329,0,0,0,3.137,3.474,6.741,6.741,0,0,0,1.514.45l-6.642,1.518a2.628,2.628,0,0,0-1.974,3.144l.935,4.09A2.628,2.628,0,0,0,299.854,67l.058-.013,4.246,18.574a2.628,2.628,0,0,0,3.144,1.974l25.385-5.8a2.628,2.628,0,0,0,1.974-3.144L330.416,60.01l.059-.013a2.628,2.628,0,0,0,1.974-3.144l-.935-4.09a2.628,2.628,0,0,0-3.144-1.974m-12.378-2.739a5.88,5.88,0,0,1,3.126-1.953,3.249,3.249,0,0,1,2.069.123,1.455,1.455,0,0,1,.863,1.027,3.214,3.214,0,0,1-.868,2.59c-.9,1.09-4.093,2.708-6.663,3.828.2-2.1.663-4.63,1.472-5.615m-14.091,3.8a1.457,1.457,0,0,1,.331-1.3h0a3.248,3.248,0,0,1,1.811-1.009,5.883,5.883,0,0,1,3.665.4c1.156.535,2.677,2.611,3.765,4.417-2.8.108-6.385.04-7.665-.553a3.215,3.215,0,0,1-1.907-1.956m-3.03,12.676-.935-4.09a.409.409,0,0,1,.307-.489L312.473,56.7l1.117,4.887L299.36,64.835a.409.409,0,0,1-.49-.307m7.448,20.535-4.246-18.574,12.011-2.745,4.336,18.972L306.808,85.37a.409.409,0,0,1-.489-.307M332.5,79.078a.41.41,0,0,1-.307.489l-11.612,2.654L316.245,63.25l12.01-2.745Zm-2.213-21.731a.409.409,0,0,1-.307.489l-14.23,3.253L314.633,56.2l14.23-3.253a.409.409,0,0,1,.489.307Z" transform="translate(-202.98 -30.049)" fill="#e1251b"/>
    <path id="Trazado_23421" data-name="Trazado 23421" d="M444.022,14.725l-8.2-1.163a8.2,8.2,0,0,0,1.787-.7,6.474,6.474,0,0,0,3.445-4.527,4.457,4.457,0,0,0-1.269-3.8c-2.216-2.275-6.587-2.558-9.955-.643-1.636.931-3.157,3.139-4.28,5.14-.522-2.234-1.369-4.779-2.682-6.128-2.7-2.777-6.981-3.721-9.74-2.151a4.455,4.455,0,0,0-2.276,3.295A6.474,6.474,0,0,0,412.9,9.359a8.2,8.2,0,0,0,1.523,1.168l-8.2-1.163a3.194,3.194,0,0,0-3.607,2.711l-.716,5.048a3.194,3.194,0,0,0,2.711,3.606l.071.01-3.251,22.925a3.194,3.194,0,0,0,2.711,3.606l31.331,4.444A3.194,3.194,0,0,0,439.086,49l3.252-22.925.072.01a3.194,3.194,0,0,0,3.607-2.711l.716-5.048a3.194,3.194,0,0,0-2.711-3.607" transform="translate(-275.533 0)" fill="#fff"/>
    <path id="Trazado_23422" data-name="Trazado 23422" d="M444.021,14.724l-8.2-1.163a8.2,8.2,0,0,0,1.788-.7,6.475,6.475,0,0,0,3.445-4.527,4.457,4.457,0,0,0-1.269-3.8c-2.216-2.275-6.587-2.558-9.955-.643-1.636.931-3.157,3.139-4.28,5.141-.522-2.235-1.37-4.779-2.683-6.128-2.7-2.777-6.981-3.721-9.74-2.151a4.455,4.455,0,0,0-2.276,3.295A6.475,6.475,0,0,0,412.9,9.358a8.2,8.2,0,0,0,1.523,1.168l-8.2-1.163a3.2,3.2,0,0,0-3.607,2.711l-.716,5.048a3.194,3.194,0,0,0,2.711,3.606l.071.01-3.251,22.925a3.193,3.193,0,0,0,2.711,3.606l31.331,4.444A3.194,3.194,0,0,0,439.086,49l3.252-22.925.072.01a3.194,3.194,0,0,0,3.606-2.711l.716-5.048a3.194,3.194,0,0,0-2.711-3.607M431.165,6.237a7.145,7.145,0,0,1,4.4-.858,3.949,3.949,0,0,1,2.3,1.038,1.767,1.767,0,0,1,.533,1.54,3.9,3.9,0,0,1-2.11,2.563c-1.49.848-5.823,1.3-9.225,1.449,1.134-2.3,2.764-4.967,4.11-5.733M413.52,4.43a1.769,1.769,0,0,1,.941-1.331h0a3.948,3.948,0,0,1,2.493-.359,7.148,7.148,0,0,1,3.985,2.047c1.08,1.11,1.9,4.127,2.354,6.649-3.226-1.094-7.263-2.729-8.459-3.957A3.906,3.906,0,0,1,413.52,4.43M404.574,17.5l.716-5.049a.5.5,0,0,1,.561-.422l17.562,2.491-.855,6.031L405,18.062a.5.5,0,0,1-.422-.561M404.1,44.042l3.252-22.924,14.824,2.1-3.321,23.416L404.526,44.6a.5.5,0,0,1-.422-.561m32.315,4.584a.5.5,0,0,1-.561.421l-14.332-2.033L424.847,23.6l14.824,2.1ZM443.349,23a.5.5,0,0,1-.561.421l-17.563-2.491.855-6.031,17.563,2.491a.5.5,0,0,1,.422.561Z" transform="translate(-275.533 0)" fill="#e1251b"/>
    <path id="Trazado_23423" data-name="Trazado 23423" d="M216.054,70.627h-6.813a6.754,6.754,0,0,0,1.376-.776,5.327,5.327,0,0,0,2.284-4.086,3.667,3.667,0,0,0-1.473-2.947c-2.068-1.6-5.662-1.323-8.185.627a11.509,11.509,0,0,0-2.893,4.682,11.5,11.5,0,0,0-2.893-4.682c-2.522-1.95-6.118-2.225-8.184-.627a3.667,3.667,0,0,0-1.474,2.947,5.328,5.328,0,0,0,2.284,4.086,6.754,6.754,0,0,0,1.376.776h-6.813a2.628,2.628,0,0,0-2.625,2.625v4.2a2.628,2.628,0,0,0,2.625,2.625h.059V99.126a2.628,2.628,0,0,0,2.625,2.625h26.04a2.628,2.628,0,0,0,2.625-2.625V80.073h.06a2.628,2.628,0,0,0,2.625-2.625v-4.2a2.628,2.628,0,0,0-2.625-2.625" transform="translate(-124.942 -42.407)" fill="#fff"/>
    <path id="Trazado_23424" data-name="Trazado 23424" d="M216.054,70.627h-6.813a6.754,6.754,0,0,0,1.376-.776,5.328,5.328,0,0,0,2.284-4.086,3.667,3.667,0,0,0-1.473-2.947c-2.068-1.6-5.662-1.323-8.185.627a11.506,11.506,0,0,0-2.893,4.682,11.5,11.5,0,0,0-2.893-4.682c-2.522-1.95-6.118-2.225-8.184-.627a3.667,3.667,0,0,0-1.474,2.947,5.328,5.328,0,0,0,2.284,4.086,6.754,6.754,0,0,0,1.376.776h-6.813a2.628,2.628,0,0,0-2.625,2.625v4.2a2.628,2.628,0,0,0,2.625,2.625h.059V99.126a2.628,2.628,0,0,0,2.625,2.625h26.04a2.628,2.628,0,0,0,2.625-2.625V80.073h.06a2.628,2.628,0,0,0,2.625-2.625v-4.2a2.628,2.628,0,0,0-2.625-2.625M204.6,65.2a5.879,5.879,0,0,1,3.482-1.207,3.246,3.246,0,0,1,1.99.581,1.454,1.454,0,0,1,.613,1.193A3.213,3.213,0,0,1,209.26,68.1c-1.116.863-4.594,1.728-7.348,2.247.659-2,1.678-4.366,2.686-5.145m-14.584.567a1.455,1.455,0,0,1,.612-1.193h0a3.248,3.248,0,0,1,1.99-.58A5.882,5.882,0,0,1,196.1,65.2c1.008.78,2.027,3.142,2.686,5.145-2.755-.518-6.233-1.384-7.349-2.247a3.213,3.213,0,0,1-1.423-2.332m-5.778,11.683v-4.2a.409.409,0,0,1,.409-.409h14.6v5.013h-14.6a.409.409,0,0,1-.409-.408m2.685,21.678V80.073h12.32V99.534H187.329a.409.409,0,0,1-.409-.408m26.857,0a.409.409,0,0,1-.409.408H201.457V80.073h12.32Zm2.685-21.678a.409.409,0,0,1-.409.408h-14.6V72.844h14.6a.409.409,0,0,1,.409.409Z" transform="translate(-124.942 -42.407)" fill="#e1251b"/>
    <path id="Trazado_23425" data-name="Trazado 23425" d="M554.74,96.388l-6.788.584a6.764,6.764,0,0,0,1.3-.891,5.327,5.327,0,0,0,1.925-4.267,3.667,3.667,0,0,0-1.72-2.81c-2.2-1.414-5.755-.833-8.1,1.326a11.506,11.506,0,0,0-2.482,4.913,11.5,11.5,0,0,0-3.284-4.417c-2.68-1.727-6.286-1.693-8.208.077a3.666,3.666,0,0,0-1.215,3.063,5.328,5.328,0,0,0,2.626,3.875,6.766,6.766,0,0,0,1.437.655l-6.788.584a2.628,2.628,0,0,0-2.391,2.841l.36,4.18a2.628,2.628,0,0,0,2.84,2.39l.059-.005,1.633,18.983a2.628,2.628,0,0,0,2.84,2.39l25.944-2.231a2.628,2.628,0,0,0,2.391-2.84L555.49,105.8l.06-.005a2.628,2.628,0,0,0,2.391-2.84l-.359-4.18a2.628,2.628,0,0,0-2.841-2.391" transform="translate(-357.656 -60.565)" fill="#fff"/>
    <path id="Trazado_23426" data-name="Trazado 23426" d="M554.741,96.389l-6.788.584a6.743,6.743,0,0,0,1.3-.891,5.328,5.328,0,0,0,1.925-4.267,3.666,3.666,0,0,0-1.72-2.81c-2.2-1.415-5.755-.833-8.1,1.326a11.509,11.509,0,0,0-2.482,4.913,11.5,11.5,0,0,0-3.284-4.417c-2.68-1.727-6.286-1.693-8.208.077a3.667,3.667,0,0,0-1.216,3.063,5.328,5.328,0,0,0,2.626,3.875,6.73,6.73,0,0,0,1.437.655l-6.787.584a2.628,2.628,0,0,0-2.39,2.841l.359,4.18a2.628,2.628,0,0,0,2.84,2.39l.059-.005,1.633,18.983a2.628,2.628,0,0,0,2.84,2.39l25.944-2.231a2.628,2.628,0,0,0,2.391-2.84l-1.633-18.983.06-.005a2.629,2.629,0,0,0,2.391-2.84l-.36-4.18a2.628,2.628,0,0,0-2.84-2.391m-11.879-4.426a5.879,5.879,0,0,1,3.366-1.5,3.249,3.249,0,0,1,2.033.408,1.454,1.454,0,0,1,.712,1.136,3.212,3.212,0,0,1-1.218,2.445c-1.038.955-4.428,2.116-7.128,2.868.484-2.052,1.3-4.494,2.235-5.357M528.38,93.777a1.456,1.456,0,0,1,.508-1.241h0a3.249,3.249,0,0,1,1.933-.749,5.882,5.882,0,0,1,3.574.9c1.071.691,2.289,2.957,3.118,4.9-2.789-.28-6.329-.844-7.514-1.609a3.215,3.215,0,0,1-1.618-2.2m-4.756,12.135-.359-4.18a.409.409,0,0,1,.372-.442l14.542-1.251.43,4.994-14.542,1.251a.409.409,0,0,1-.443-.372m4.532,21.368L526.524,108.3l12.275-1.056,1.668,19.39L528.6,127.651a.409.409,0,0,1-.442-.372m26.758-2.3a.409.409,0,0,1-.372.442l-11.868,1.021-1.668-19.39L553.282,106Zm.818-21.828a.409.409,0,0,1-.372.442l-14.543,1.251-.43-4.994L554.931,98.6a.41.41,0,0,1,.442.372Z" transform="translate(-357.657 -60.565)" fill="#e1251b"/>
    <path id="Trazado_23427" data-name="Trazado 23427" d="M653.022,84.6l-6.746-.956a6.741,6.741,0,0,0,1.471-.575,5.326,5.326,0,0,0,2.835-3.725,3.666,3.666,0,0,0-1.045-3.125c-1.824-1.872-5.421-2.105-8.192-.529a11.509,11.509,0,0,0-3.522,4.23,11.508,11.508,0,0,0-2.207-5.043c-2.224-2.285-5.745-3.062-8.015-1.77a3.664,3.664,0,0,0-1.873,2.711,5.328,5.328,0,0,0,1.688,4.366,6.754,6.754,0,0,0,1.253.961l-6.745-.957a2.629,2.629,0,0,0-2.968,2.23l-.589,4.155a2.629,2.629,0,0,0,2.231,2.968l.059.008-2.676,18.864a2.629,2.629,0,0,0,2.231,2.968l25.782,3.657a2.628,2.628,0,0,0,2.968-2.23l2.675-18.864.06.008a2.628,2.628,0,0,0,2.968-2.23l.589-4.154a2.628,2.628,0,0,0-2.23-2.968" transform="translate(-424.176 -49.755)" fill="#fff"/>
    <path id="Trazado_23428" data-name="Trazado 23428" d="M653.022,84.6l-6.746-.957a6.75,6.75,0,0,0,1.471-.575,5.328,5.328,0,0,0,2.835-3.725,3.667,3.667,0,0,0-1.045-3.125c-1.823-1.872-5.421-2.1-8.192-.529a11.506,11.506,0,0,0-3.522,4.23,11.508,11.508,0,0,0-2.208-5.042c-2.223-2.285-5.744-3.062-8.015-1.77a3.667,3.667,0,0,0-1.873,2.711,5.328,5.328,0,0,0,1.688,4.366,6.742,6.742,0,0,0,1.253.961l-6.745-.957a2.628,2.628,0,0,0-2.968,2.231l-.589,4.154a2.628,2.628,0,0,0,2.23,2.968l.059.008-2.676,18.864a2.628,2.628,0,0,0,2.23,2.968l25.782,3.657a2.628,2.628,0,0,0,2.968-2.23l2.676-18.864.059.008a2.628,2.628,0,0,0,2.968-2.23l.589-4.154a2.629,2.629,0,0,0-2.231-2.968m-10.58-6.983a5.882,5.882,0,0,1,3.618-.706,3.249,3.249,0,0,1,1.888.855,1.454,1.454,0,0,1,.439,1.267,3.212,3.212,0,0,1-1.737,2.109c-1.226.7-4.791,1.066-7.591,1.193.934-1.89,2.274-4.087,3.382-4.717M627.923,76.13a1.456,1.456,0,0,1,.774-1.1h0a3.251,3.251,0,0,1,2.052-.3,5.883,5.883,0,0,1,3.279,1.685c.889.913,1.566,3.4,1.937,5.472-2.655-.9-5.977-2.246-6.961-3.257a3.214,3.214,0,0,1-1.082-2.509m-7.361,10.755.589-4.154a.409.409,0,0,1,.462-.347l14.451,2.05-.7,4.963-14.452-2.05a.409.409,0,0,1-.347-.462m-.386,21.84,2.676-18.864,12.2,1.73-2.733,19.268-11.794-1.673a.409.409,0,0,1-.347-.462m26.591,3.772a.409.409,0,0,1-.462.347l-11.793-1.673L637.244,91.9l12.2,1.73Zm5.7-21.086a.409.409,0,0,1-.462.347l-14.452-2.05.7-4.963,14.452,2.05a.409.409,0,0,1,.347.462Z" transform="translate(-424.176 -49.754)" fill="#e1251b"/>
    <path id="Trazado_23429" data-name="Trazado 23429" d="M308.338,160.713h-6.813a6.754,6.754,0,0,0,1.376-.776,5.327,5.327,0,0,0,2.284-4.086,3.667,3.667,0,0,0-1.473-2.947c-2.068-1.6-5.662-1.323-8.185.627a11.509,11.509,0,0,0-2.893,4.682,11.5,11.5,0,0,0-2.893-4.682c-2.522-1.95-6.118-2.225-8.184-.627a3.666,3.666,0,0,0-1.473,2.947,5.328,5.328,0,0,0,2.284,4.086,6.754,6.754,0,0,0,1.376.776h-6.813a2.628,2.628,0,0,0-2.625,2.625v4.2a2.628,2.628,0,0,0,2.625,2.625h.059v19.053a2.628,2.628,0,0,0,2.625,2.625h26.04a2.628,2.628,0,0,0,2.626-2.625V170.159h.06a2.628,2.628,0,0,0,2.625-2.625v-4.2a2.628,2.628,0,0,0-2.625-2.625" transform="translate(-188.287 -104.244)" fill="#fff"/>
    <path id="Trazado_23430" data-name="Trazado 23430" d="M308.338,160.713h-6.813a6.754,6.754,0,0,0,1.376-.776,5.327,5.327,0,0,0,2.284-4.086,3.667,3.667,0,0,0-1.473-2.947c-2.068-1.6-5.662-1.323-8.185.627a11.505,11.505,0,0,0-2.893,4.682,11.505,11.505,0,0,0-2.893-4.682c-2.522-1.95-6.118-2.225-8.184-.627a3.666,3.666,0,0,0-1.473,2.947,5.328,5.328,0,0,0,2.284,4.086,6.754,6.754,0,0,0,1.376.776h-6.813a2.628,2.628,0,0,0-2.625,2.625v4.2a2.628,2.628,0,0,0,2.625,2.625h.059v19.053a2.628,2.628,0,0,0,2.625,2.625h26.04a2.628,2.628,0,0,0,2.625-2.625V170.159h.06a2.628,2.628,0,0,0,2.625-2.625v-4.2a2.628,2.628,0,0,0-2.625-2.625m-11.456-5.428a5.878,5.878,0,0,1,3.482-1.207,3.248,3.248,0,0,1,1.99.58,1.455,1.455,0,0,1,.613,1.193,3.212,3.212,0,0,1-1.423,2.332c-1.116.863-4.594,1.728-7.348,2.247.659-2,1.678-4.366,2.686-5.145m-14.584.567a1.456,1.456,0,0,1,.612-1.193,3.248,3.248,0,0,1,1.99-.58,5.88,5.88,0,0,1,3.483,1.207c1.008.78,2.028,3.142,2.686,5.145-2.755-.518-6.233-1.384-7.348-2.247a3.212,3.212,0,0,1-1.423-2.332m-5.778,11.683v-4.2a.409.409,0,0,1,.409-.409h14.6v5.013h-14.6a.409.409,0,0,1-.409-.408m2.685,21.678V170.159h12.32V189.62H279.613a.409.409,0,0,1-.409-.408m26.857,0a.409.409,0,0,1-.409.408H293.741V170.159h12.32Zm2.686-21.678a.409.409,0,0,1-.409.408h-14.6V162.93h14.6a.409.409,0,0,1,.409.409Z" transform="translate(-188.287 -104.244)" fill="#e1251b"/>
    <path id="Trazado_23431" data-name="Trazado 23431" d="M402.984,154.888l-6.639-1.531a6.774,6.774,0,0,0,1.515-.447A5.328,5.328,0,0,0,401,149.442a3.665,3.665,0,0,0-.773-3.2c-1.656-2.022-5.22-2.562-8.116-1.229a11.506,11.506,0,0,0-3.871,3.913,11.508,11.508,0,0,0-1.767-5.213c-2.019-2.467-5.461-3.543-7.834-2.45a3.665,3.665,0,0,0-2.1,2.541,5.328,5.328,0,0,0,1.308,4.495,6.743,6.743,0,0,0,1.166,1.065l-6.638-1.531a2.628,2.628,0,0,0-3.148,1.968l-.944,4.088a2.628,2.628,0,0,0,1.968,3.148l.058.013-4.282,18.565A2.628,2.628,0,0,0,368,178.759l25.374,5.853a2.628,2.628,0,0,0,3.148-1.968l4.282-18.565.059.014a2.629,2.629,0,0,0,3.148-1.968l.943-4.088a2.628,2.628,0,0,0-1.968-3.148" transform="translate(-251.204 -96.67)" fill="#fff"/>
    <path id="Trazado_23432" data-name="Trazado 23432" d="M402.984,154.888l-6.639-1.532a6.741,6.741,0,0,0,1.515-.447A5.326,5.326,0,0,0,401,149.442a3.667,3.667,0,0,0-.773-3.2c-1.656-2.021-5.22-2.562-8.116-1.229a11.507,11.507,0,0,0-3.872,3.913,11.512,11.512,0,0,0-1.767-5.213c-2.02-2.467-5.461-3.543-7.834-2.45a3.666,3.666,0,0,0-2.1,2.541,5.328,5.328,0,0,0,1.308,4.495,6.745,6.745,0,0,0,1.166,1.065l-6.638-1.531a2.628,2.628,0,0,0-3.148,1.968l-.943,4.088a2.628,2.628,0,0,0,1.968,3.148l.058.013-4.282,18.565A2.628,2.628,0,0,0,368,178.759l25.374,5.853a2.628,2.628,0,0,0,3.148-1.968l4.282-18.565.059.013a2.628,2.628,0,0,0,3.148-1.968l.943-4.088a2.628,2.628,0,0,0-1.968-3.148m-9.942-7.864a5.877,5.877,0,0,1,3.664-.394,3.249,3.249,0,0,1,1.809,1.013,1.455,1.455,0,0,1,.329,1.3,3.214,3.214,0,0,1-1.911,1.952c-1.281.59-4.865.652-7.665.538,1.092-1.8,2.616-3.877,3.774-4.41M378.7,144.3a1.457,1.457,0,0,1,.865-1.025h0a3.249,3.249,0,0,1,2.069-.118,5.882,5.882,0,0,1,3.123,1.959c.807.986,1.269,3.518,1.461,5.617-2.568-1.125-5.762-2.749-6.656-3.841a3.215,3.215,0,0,1-.863-2.592m-8.256,10.085.943-4.088a.409.409,0,0,1,.49-.306l14.223,3.281-1.127,4.884-14.223-3.281a.408.408,0,0,1-.306-.489m-2.257,21.726,4.282-18.565,12.005,2.769L380.1,179.276,368.5,176.6a.409.409,0,0,1-.306-.49m26.17,6.036a.409.409,0,0,1-.49.306l-11.607-2.677,4.374-18.963,12,2.769Zm7.489-20.52a.409.409,0,0,1-.49.306l-14.223-3.281,1.127-4.885,14.223,3.281a.409.409,0,0,1,.306.49Z" transform="translate(-251.204 -96.67)" fill="#e1251b"/>
    <path id="Trazado_23433" data-name="Trazado 23433" d="M483.33,155.713l-6.788.584a6.766,6.766,0,0,0,1.3-.891,5.327,5.327,0,0,0,1.925-4.267,3.667,3.667,0,0,0-1.72-2.81c-2.2-1.414-5.755-.833-8.1,1.326a11.506,11.506,0,0,0-2.482,4.913,11.5,11.5,0,0,0-3.284-4.417c-2.68-1.727-6.286-1.693-8.208.077a3.666,3.666,0,0,0-1.215,3.063,5.328,5.328,0,0,0,2.626,3.875,6.763,6.763,0,0,0,1.437.655l-6.788.584a2.628,2.628,0,0,0-2.391,2.841l.36,4.18a2.628,2.628,0,0,0,2.84,2.39l.059-.005,1.633,18.983a2.628,2.628,0,0,0,2.84,2.39l25.944-2.231a2.628,2.628,0,0,0,2.391-2.84L484.08,165.13l.06-.005a2.628,2.628,0,0,0,2.391-2.84l-.359-4.18a2.628,2.628,0,0,0-2.841-2.391" transform="translate(-308.639 -101.287)" fill="#fff"/>
    <path id="Trazado_23434" data-name="Trazado 23434" d="M483.331,155.714l-6.788.584a6.755,6.755,0,0,0,1.3-.891,5.329,5.329,0,0,0,1.925-4.267,3.666,3.666,0,0,0-1.72-2.81c-2.2-1.415-5.755-.833-8.1,1.326a11.509,11.509,0,0,0-2.481,4.913,11.507,11.507,0,0,0-3.284-4.417c-2.68-1.727-6.286-1.693-8.208.077a3.666,3.666,0,0,0-1.216,3.063,5.328,5.328,0,0,0,2.626,3.875,6.73,6.73,0,0,0,1.437.655l-6.788.584a2.628,2.628,0,0,0-2.39,2.84l.359,4.181a2.628,2.628,0,0,0,2.841,2.39l.059-.005,1.633,18.983a2.628,2.628,0,0,0,2.84,2.39l25.944-2.231a2.628,2.628,0,0,0,2.391-2.84l-1.633-18.983.06-.005a2.628,2.628,0,0,0,2.391-2.84l-.36-4.18a2.628,2.628,0,0,0-2.84-2.391m-11.879-4.426a5.879,5.879,0,0,1,3.366-1.5,3.249,3.249,0,0,1,2.033.408,1.454,1.454,0,0,1,.712,1.136,3.212,3.212,0,0,1-1.218,2.445c-1.038.955-4.428,2.116-7.129,2.868.484-2.052,1.3-4.494,2.236-5.357M456.97,153.1a1.456,1.456,0,0,1,.508-1.241h0a3.249,3.249,0,0,1,1.933-.749,5.883,5.883,0,0,1,3.573.9c1.071.691,2.289,2.957,3.118,4.9-2.789-.28-6.329-.844-7.514-1.609a3.214,3.214,0,0,1-1.618-2.2m-4.756,12.135-.359-4.18a.409.409,0,0,1,.372-.442l14.543-1.251.43,4.994-14.543,1.251a.409.409,0,0,1-.442-.372m4.533,21.368-1.633-18.983,12.275-1.056,1.668,19.39-11.868,1.021a.409.409,0,0,1-.442-.372m26.758-2.3a.409.409,0,0,1-.372.442l-11.867,1.021-1.668-19.39,12.274-1.056Zm.818-21.828a.409.409,0,0,1-.372.442l-14.543,1.251-.43-4.994,14.543-1.251a.409.409,0,0,1,.442.372Z" transform="translate(-308.64 -101.287)" fill="#e1251b"/>
    <path id="Trazado_23435" data-name="Trazado 23435" d="M581.612,143.926l-6.746-.957a6.757,6.757,0,0,0,1.471-.575,5.327,5.327,0,0,0,2.835-3.725,3.668,3.668,0,0,0-1.044-3.125c-1.824-1.872-5.421-2.105-8.192-.529a11.508,11.508,0,0,0-3.522,4.23,11.507,11.507,0,0,0-2.207-5.042c-2.224-2.285-5.745-3.062-8.015-1.77a3.665,3.665,0,0,0-1.873,2.711,5.328,5.328,0,0,0,1.688,4.366,6.737,6.737,0,0,0,1.253.961l-6.745-.957a2.628,2.628,0,0,0-2.968,2.23l-.589,4.154a2.628,2.628,0,0,0,2.231,2.968l.059.008L546.57,167.74a2.628,2.628,0,0,0,2.231,2.968l25.782,3.657a2.628,2.628,0,0,0,2.968-2.23l2.675-18.864.06.008a2.628,2.628,0,0,0,2.968-2.23l.589-4.154a2.628,2.628,0,0,0-2.231-2.968" transform="translate(-375.158 -90.477)" fill="#fff"/>
    <path id="Trazado_23436" data-name="Trazado 23436" d="M581.612,143.925l-6.746-.957a6.748,6.748,0,0,0,1.471-.575,5.328,5.328,0,0,0,2.835-3.725,3.667,3.667,0,0,0-1.045-3.125c-1.823-1.872-5.421-2.1-8.192-.529a11.5,11.5,0,0,0-3.522,4.23,11.511,11.511,0,0,0-2.207-5.042c-2.224-2.285-5.745-3.062-8.015-1.77a3.667,3.667,0,0,0-1.873,2.711,5.328,5.328,0,0,0,1.688,4.366,6.756,6.756,0,0,0,1.253.961l-6.745-.957a2.628,2.628,0,0,0-2.968,2.23l-.589,4.154a2.628,2.628,0,0,0,2.23,2.968l.059.008-2.675,18.864a2.628,2.628,0,0,0,2.231,2.968l25.782,3.657a2.628,2.628,0,0,0,2.968-2.23l2.676-18.864.059.008a2.628,2.628,0,0,0,2.968-2.23l.589-4.154a2.629,2.629,0,0,0-2.231-2.968m-10.58-6.983a5.883,5.883,0,0,1,3.618-.706,3.251,3.251,0,0,1,1.889.854,1.454,1.454,0,0,1,.439,1.268,3.213,3.213,0,0,1-1.737,2.109c-1.226.7-4.791,1.066-7.591,1.193.934-1.891,2.274-4.087,3.382-4.717m-14.519-1.487a1.457,1.457,0,0,1,.774-1.1h0a3.251,3.251,0,0,1,2.052-.3,5.882,5.882,0,0,1,3.279,1.685c.889.913,1.566,3.4,1.937,5.472-2.655-.9-5.977-2.246-6.961-3.257a3.214,3.214,0,0,1-1.082-2.509m-7.361,10.755.589-4.154a.409.409,0,0,1,.462-.347l14.451,2.05-.7,4.963-14.452-2.05a.409.409,0,0,1-.347-.462m-.386,21.84,2.675-18.864,12.2,1.73-2.733,19.268-11.794-1.673a.409.409,0,0,1-.347-.462m26.591,3.772a.409.409,0,0,1-.462.347L563.1,170.5l2.733-19.269,12.2,1.73Zm5.7-21.086a.409.409,0,0,1-.462.347l-14.452-2.05.7-4.963,14.452,2.05a.409.409,0,0,1,.347.462Z" transform="translate(-375.159 -90.476)" fill="#e1251b"/>
    <path id="Trazado_23437" data-name="Trazado 23437" d="M141.068,147.221l-6.746-.957a6.756,6.756,0,0,0,1.471-.575,5.327,5.327,0,0,0,2.835-3.725,3.668,3.668,0,0,0-1.045-3.125c-1.824-1.872-5.421-2.105-8.192-.529a11.508,11.508,0,0,0-3.522,4.23,11.507,11.507,0,0,0-2.207-5.042c-2.224-2.285-5.744-3.062-8.015-1.77a3.665,3.665,0,0,0-1.873,2.711,5.328,5.328,0,0,0,1.688,4.366,6.738,6.738,0,0,0,1.253.961l-6.745-.957A2.628,2.628,0,0,0,107,145.04l-.589,4.154a2.628,2.628,0,0,0,2.231,2.968l.059.008-2.676,18.864A2.628,2.628,0,0,0,108.256,174l25.782,3.657a2.628,2.628,0,0,0,2.968-2.23l2.675-18.864.06.008a2.628,2.628,0,0,0,2.968-2.23l.589-4.154a2.628,2.628,0,0,0-2.23-2.968" transform="translate(-72.76 -92.739)" fill="#fff"/>
    <path id="Trazado_23438" data-name="Trazado 23438" d="M141.068,147.221l-6.746-.957a6.747,6.747,0,0,0,1.471-.575,5.328,5.328,0,0,0,2.835-3.725,3.667,3.667,0,0,0-1.045-3.125c-1.823-1.872-5.421-2.1-8.192-.529a11.507,11.507,0,0,0-3.522,4.23,11.507,11.507,0,0,0-2.208-5.042c-2.224-2.285-5.744-3.062-8.015-1.77a3.667,3.667,0,0,0-1.873,2.711,5.328,5.328,0,0,0,1.688,4.366,6.755,6.755,0,0,0,1.253.961l-6.745-.957A2.628,2.628,0,0,0,107,145.041l-.589,4.154a2.628,2.628,0,0,0,2.23,2.968l.059.008-2.675,18.864a2.628,2.628,0,0,0,2.23,2.967l25.782,3.657a2.628,2.628,0,0,0,2.968-2.23l2.676-18.864.059.008a2.628,2.628,0,0,0,2.968-2.23l.589-4.154a2.629,2.629,0,0,0-2.231-2.968m-10.58-6.983a5.883,5.883,0,0,1,3.618-.707,3.249,3.249,0,0,1,1.888.855,1.454,1.454,0,0,1,.439,1.267,3.213,3.213,0,0,1-1.737,2.109c-1.226.7-4.791,1.066-7.591,1.193.934-1.89,2.274-4.087,3.382-4.717m-14.519-1.487a1.457,1.457,0,0,1,.774-1.1h0a3.251,3.251,0,0,1,2.052-.3,5.884,5.884,0,0,1,3.279,1.685c.889.913,1.566,3.4,1.937,5.472-2.655-.9-5.977-2.246-6.96-3.257a3.214,3.214,0,0,1-1.082-2.509m-7.361,10.755.589-4.154a.409.409,0,0,1,.462-.347l14.451,2.05-.7,4.963-14.452-2.05a.409.409,0,0,1-.347-.462m-.386,21.84,2.675-18.864,12.2,1.73-2.733,19.268-11.794-1.673a.409.409,0,0,1-.347-.462m26.591,3.772a.409.409,0,0,1-.462.347l-11.793-1.673,2.733-19.269,12.2,1.73Zm5.7-21.086a.409.409,0,0,1-.462.347l-14.452-2.05.7-4.963,14.452,2.05a.409.409,0,0,1,.347.462Z" transform="translate(-72.761 -92.739)" fill="#e1251b"/>
    <path id="Trazado_23439" data-name="Trazado 23439" d="M647.024,186.475l-6.788.584a6.767,6.767,0,0,0,1.3-.891,5.327,5.327,0,0,0,1.925-4.267,3.666,3.666,0,0,0-1.72-2.81c-2.2-1.414-5.755-.833-8.1,1.326a11.506,11.506,0,0,0-2.482,4.913,11.5,11.5,0,0,0-3.284-4.417c-2.68-1.727-6.286-1.693-8.208.077a3.666,3.666,0,0,0-1.215,3.063,5.328,5.328,0,0,0,2.626,3.875,6.768,6.768,0,0,0,1.437.655l-6.788.584a2.628,2.628,0,0,0-2.391,2.841l.36,4.18a2.628,2.628,0,0,0,2.84,2.39l.059-.005,1.633,18.983a2.628,2.628,0,0,0,2.84,2.39l25.944-2.231a2.628,2.628,0,0,0,2.391-2.84l-1.633-18.983.06-.005a2.628,2.628,0,0,0,2.391-2.84l-.359-4.18a2.628,2.628,0,0,0-2.841-2.391" transform="translate(-421.002 -122.402)" fill="#fff"/>
    <path id="Trazado_23440" data-name="Trazado 23440" d="M647.024,186.475l-6.788.584a6.738,6.738,0,0,0,1.3-.891,5.328,5.328,0,0,0,1.925-4.267,3.666,3.666,0,0,0-1.72-2.81c-2.2-1.415-5.755-.833-8.1,1.326a11.51,11.51,0,0,0-2.481,4.913,11.506,11.506,0,0,0-3.284-4.417c-2.68-1.727-6.286-1.693-8.208.077a3.666,3.666,0,0,0-1.216,3.063,5.328,5.328,0,0,0,2.626,3.875,6.732,6.732,0,0,0,1.437.655l-6.788.584a2.628,2.628,0,0,0-2.39,2.841l.359,4.18a2.628,2.628,0,0,0,2.841,2.39l.059-.005,1.633,18.983a2.628,2.628,0,0,0,2.84,2.39l25.944-2.231a2.628,2.628,0,0,0,2.391-2.84l-1.633-18.983.06-.005a2.628,2.628,0,0,0,2.391-2.84l-.36-4.18a2.628,2.628,0,0,0-2.84-2.39m-11.879-4.427a5.879,5.879,0,0,1,3.366-1.5,3.249,3.249,0,0,1,2.033.408,1.455,1.455,0,0,1,.712,1.136,3.212,3.212,0,0,1-1.218,2.445c-1.038.955-4.428,2.116-7.129,2.868.484-2.052,1.3-4.494,2.236-5.357m-14.482,1.814a1.456,1.456,0,0,1,.508-1.241h0a3.25,3.25,0,0,1,1.933-.749,5.883,5.883,0,0,1,3.574.9c1.071.691,2.289,2.957,3.118,4.9-2.789-.28-6.329-.844-7.514-1.609a3.214,3.214,0,0,1-1.618-2.2M615.907,196l-.359-4.18a.409.409,0,0,1,.372-.442l14.543-1.251.43,4.994-14.543,1.251a.409.409,0,0,1-.442-.372m4.533,21.368-1.633-18.983,12.275-1.056,1.668,19.39-11.868,1.021a.409.409,0,0,1-.442-.372m26.758-2.3a.409.409,0,0,1-.372.442l-11.867,1.021-1.668-19.39,12.274-1.056Zm.818-21.828a.409.409,0,0,1-.372.442L633.1,194.928l-.43-4.994,14.543-1.251a.409.409,0,0,1,.442.372Z" transform="translate(-421.002 -122.402)" fill="#e1251b"/>
    <path id="Trazado_23441" data-name="Trazado 23441" d="M745.305,174.687l-6.746-.957a6.755,6.755,0,0,0,1.471-.575,5.327,5.327,0,0,0,2.835-3.725,3.667,3.667,0,0,0-1.045-3.125c-1.823-1.872-5.42-2.105-8.192-.529a11.507,11.507,0,0,0-3.522,4.23,11.507,11.507,0,0,0-2.207-5.042c-2.224-2.285-5.745-3.062-8.015-1.77a3.665,3.665,0,0,0-1.873,2.711,5.328,5.328,0,0,0,1.688,4.366,6.739,6.739,0,0,0,1.253.961l-6.745-.957a2.628,2.628,0,0,0-2.968,2.23l-.589,4.154a2.628,2.628,0,0,0,2.23,2.968l.059.008L710.264,198.5a2.628,2.628,0,0,0,2.231,2.968l25.782,3.657a2.629,2.629,0,0,0,2.968-2.23l2.676-18.864.06.008a2.628,2.628,0,0,0,2.968-2.23l.589-4.154a2.628,2.628,0,0,0-2.231-2.968" transform="translate(-487.521 -111.592)" fill="#fff"/>
    <path id="Trazado_23442" data-name="Trazado 23442" d="M745.305,174.686l-6.746-.957a6.745,6.745,0,0,0,1.471-.575,5.328,5.328,0,0,0,2.835-3.725,3.666,3.666,0,0,0-1.045-3.125c-1.823-1.872-5.421-2.1-8.192-.529a11.506,11.506,0,0,0-3.522,4.23,11.511,11.511,0,0,0-2.207-5.042c-2.224-2.285-5.745-3.062-8.015-1.77a3.666,3.666,0,0,0-1.873,2.711,5.327,5.327,0,0,0,1.688,4.366,6.757,6.757,0,0,0,1.253.961l-6.745-.957a2.628,2.628,0,0,0-2.968,2.231l-.589,4.154a2.628,2.628,0,0,0,2.23,2.968l.059.008L710.264,198.5a2.628,2.628,0,0,0,2.231,2.967l25.782,3.657a2.628,2.628,0,0,0,2.968-2.23l2.676-18.864.059.008a2.628,2.628,0,0,0,2.968-2.23l.589-4.154a2.629,2.629,0,0,0-2.231-2.968m-10.58-6.983a5.883,5.883,0,0,1,3.618-.706,3.25,3.25,0,0,1,1.889.854,1.456,1.456,0,0,1,.439,1.267,3.215,3.215,0,0,1-1.737,2.109c-1.226.7-4.791,1.066-7.591,1.192.934-1.891,2.274-4.087,3.382-4.717m-14.519-1.487a1.457,1.457,0,0,1,.774-1.1h0a3.251,3.251,0,0,1,2.052-.3,5.883,5.883,0,0,1,3.279,1.685c.889.913,1.566,3.4,1.937,5.472-2.655-.9-5.977-2.246-6.961-3.257a3.213,3.213,0,0,1-1.082-2.509m-7.361,10.755.589-4.154a.409.409,0,0,1,.462-.347l14.452,2.05-.7,4.963-14.452-2.05a.409.409,0,0,1-.347-.462m-.386,21.84,2.675-18.864,12.2,1.73L724.6,200.946l-11.794-1.673a.409.409,0,0,1-.347-.462m26.591,3.772a.409.409,0,0,1-.462.347l-11.793-1.673,2.733-19.269,12.2,1.73Zm5.7-21.086a.409.409,0,0,1-.462.347l-14.452-2.05.7-4.963,14.452,2.05a.409.409,0,0,1,.347.462Z" transform="translate(-487.521 -111.591)" fill="#e1251b"/>
    <path id="Trazado_23443" data-name="Trazado 23443" d="M221.267,174.687l-6.746-.957a6.757,6.757,0,0,0,1.471-.575,5.327,5.327,0,0,0,2.835-3.725,3.668,3.668,0,0,0-1.045-3.125c-1.824-1.872-5.421-2.105-8.192-.529a11.508,11.508,0,0,0-3.522,4.23,11.507,11.507,0,0,0-2.207-5.042c-2.224-2.285-5.744-3.062-8.015-1.77a3.665,3.665,0,0,0-1.873,2.711,5.328,5.328,0,0,0,1.688,4.366,6.739,6.739,0,0,0,1.253.961l-6.745-.957a2.628,2.628,0,0,0-2.968,2.23l-.589,4.154a2.628,2.628,0,0,0,2.231,2.968l.059.008L186.225,198.5a2.628,2.628,0,0,0,2.231,2.968l25.782,3.657a2.628,2.628,0,0,0,2.968-2.23l2.675-18.864.06.008a2.628,2.628,0,0,0,2.968-2.23l.589-4.154a2.628,2.628,0,0,0-2.23-2.968" transform="translate(-127.81 -111.592)" fill="#fff"/>
    <path id="Trazado_23444" data-name="Trazado 23444" d="M221.267,174.686l-6.746-.957a6.748,6.748,0,0,0,1.471-.575,5.328,5.328,0,0,0,2.835-3.725,3.667,3.667,0,0,0-1.045-3.125c-1.823-1.872-5.421-2.1-8.192-.529a11.507,11.507,0,0,0-3.522,4.23,11.507,11.507,0,0,0-2.208-5.042c-2.223-2.285-5.744-3.062-8.015-1.77a3.666,3.666,0,0,0-1.873,2.711,5.327,5.327,0,0,0,1.688,4.366,6.755,6.755,0,0,0,1.253.961l-6.745-.957a2.628,2.628,0,0,0-2.968,2.231l-.589,4.154a2.628,2.628,0,0,0,2.23,2.968l.059.008L186.226,198.5a2.628,2.628,0,0,0,2.23,2.967l25.782,3.657a2.628,2.628,0,0,0,2.968-2.23l2.676-18.864.059.008a2.628,2.628,0,0,0,2.968-2.23l.589-4.154a2.629,2.629,0,0,0-2.231-2.968m-10.58-6.983a5.883,5.883,0,0,1,3.618-.706,3.25,3.25,0,0,1,1.889.854,1.455,1.455,0,0,1,.439,1.267,3.214,3.214,0,0,1-1.737,2.109c-1.226.7-4.791,1.066-7.591,1.192.934-1.891,2.274-4.087,3.382-4.717m-14.519-1.487a1.457,1.457,0,0,1,.774-1.1h0a3.251,3.251,0,0,1,2.052-.3,5.884,5.884,0,0,1,3.279,1.685c.889.913,1.566,3.4,1.937,5.472-2.655-.9-5.977-2.246-6.961-3.257a3.214,3.214,0,0,1-1.082-2.509m-7.361,10.755.589-4.154a.409.409,0,0,1,.462-.347l14.451,2.05-.7,4.963-14.452-2.05a.409.409,0,0,1-.347-.462m-.386,21.84,2.675-18.864,12.2,1.73-2.733,19.268-11.794-1.673a.409.409,0,0,1-.347-.462m26.591,3.772a.409.409,0,0,1-.462.347l-11.793-1.673,2.733-19.269,12.2,1.73Zm5.7-21.086a.409.409,0,0,1-.462.347l-14.452-2.05.7-4.963,14.452,2.05a.409.409,0,0,1,.347.462Z" transform="translate(-127.811 -111.591)" fill="#e1251b"/>
    <path id="Trazado_23445" data-name="Trazado 23445" d="M56.054,169.627H49.241a6.753,6.753,0,0,0,1.376-.776,5.327,5.327,0,0,0,2.284-4.086,3.667,3.667,0,0,0-1.473-2.947c-2.068-1.6-5.662-1.323-8.185.627a11.509,11.509,0,0,0-2.893,4.682,11.5,11.5,0,0,0-2.893-4.682c-2.522-1.95-6.118-2.225-8.184-.627a3.666,3.666,0,0,0-1.474,2.947,5.328,5.328,0,0,0,2.284,4.086,6.753,6.753,0,0,0,1.376.776H24.644a2.628,2.628,0,0,0-2.625,2.625v4.2a2.628,2.628,0,0,0,2.625,2.625H24.7v19.053a2.628,2.628,0,0,0,2.625,2.625h26.04a2.628,2.628,0,0,0,2.625-2.625V179.073h.06a2.628,2.628,0,0,0,2.625-2.625v-4.2a2.628,2.628,0,0,0-2.625-2.625" transform="translate(-15.114 -110.362)" fill="#fff"/>
    <path id="Trazado_23446" data-name="Trazado 23446" d="M56.054,169.627H49.241a6.753,6.753,0,0,0,1.376-.776,5.327,5.327,0,0,0,2.284-4.086,3.667,3.667,0,0,0-1.473-2.947c-2.068-1.6-5.662-1.323-8.185.627a11.509,11.509,0,0,0-2.893,4.682,11.5,11.5,0,0,0-2.893-4.682c-2.522-1.95-6.118-2.225-8.184-.627a3.666,3.666,0,0,0-1.474,2.947,5.327,5.327,0,0,0,2.284,4.086,6.742,6.742,0,0,0,1.375.776H24.644a2.628,2.628,0,0,0-2.625,2.625v4.2a2.628,2.628,0,0,0,2.625,2.625H24.7v19.053a2.628,2.628,0,0,0,2.625,2.625h26.04a2.628,2.628,0,0,0,2.625-2.625V179.073h.06a2.628,2.628,0,0,0,2.625-2.625v-4.2a2.628,2.628,0,0,0-2.625-2.625M44.6,164.2a5.879,5.879,0,0,1,3.483-1.207,3.246,3.246,0,0,1,1.99.581,1.454,1.454,0,0,1,.613,1.193A3.212,3.212,0,0,1,49.26,167.1c-1.116.863-4.594,1.728-7.348,2.247.659-2,1.678-4.366,2.686-5.145m-14.584.567a1.455,1.455,0,0,1,.612-1.193h0a3.248,3.248,0,0,1,1.99-.58A5.881,5.881,0,0,1,36.1,164.2c1.008.78,2.027,3.142,2.686,5.145-2.755-.518-6.233-1.384-7.349-2.247a3.212,3.212,0,0,1-1.423-2.332m-5.778,11.683v-4.2a.409.409,0,0,1,.409-.409h14.6v5.013h-14.6a.409.409,0,0,1-.409-.408m2.685,21.678V179.073H39.24v19.461H27.329a.409.409,0,0,1-.409-.408m26.857,0a.409.409,0,0,1-.409.408H41.457V179.073h12.32Zm2.685-21.678a.409.409,0,0,1-.409.408h-14.6v-5.013h14.6a.409.409,0,0,1,.409.409Z" transform="translate(-15.114 -110.362)" fill="#e1251b"/>
    <path id="Trazado_23447" data-name="Trazado 23447" d="M274.7,202.8l-6.639-1.531a6.775,6.775,0,0,0,1.515-.447,5.329,5.329,0,0,0,3.144-3.468,3.666,3.666,0,0,0-.773-3.2c-1.656-2.022-5.22-2.562-8.116-1.229a11.509,11.509,0,0,0-3.872,3.913,11.5,11.5,0,0,0-1.767-5.213c-2.019-2.467-5.461-3.543-7.834-2.45a3.666,3.666,0,0,0-2.1,2.541,5.327,5.327,0,0,0,1.308,4.495,6.744,6.744,0,0,0,1.166,1.065l-6.638-1.531a2.628,2.628,0,0,0-3.148,1.968L240,201.8a2.628,2.628,0,0,0,1.968,3.148l.058.013-4.282,18.565a2.628,2.628,0,0,0,1.968,3.148l25.374,5.853a2.628,2.628,0,0,0,3.148-1.968l4.282-18.565.059.013a2.628,2.628,0,0,0,3.148-1.968l.943-4.088A2.628,2.628,0,0,0,274.7,202.8" transform="translate(-163.148 -129.559)" fill="#fff"/>
    <path id="Trazado_23448" data-name="Trazado 23448" d="M274.7,202.8l-6.639-1.532a6.741,6.741,0,0,0,1.515-.447,5.326,5.326,0,0,0,3.144-3.468,3.667,3.667,0,0,0-.773-3.2c-1.656-2.021-5.22-2.562-8.116-1.229a11.507,11.507,0,0,0-3.872,3.913,11.508,11.508,0,0,0-1.767-5.213c-2.019-2.467-5.461-3.543-7.834-2.45a3.666,3.666,0,0,0-2.1,2.541,5.328,5.328,0,0,0,1.308,4.495,6.745,6.745,0,0,0,1.166,1.065l-6.638-1.531a2.628,2.628,0,0,0-3.148,1.968L240,201.8a2.628,2.628,0,0,0,1.968,3.148l.058.013-4.282,18.565a2.628,2.628,0,0,0,1.968,3.148l25.374,5.853a2.628,2.628,0,0,0,3.148-1.968l4.282-18.566.059.013a2.628,2.628,0,0,0,3.148-1.968l.943-4.088A2.628,2.628,0,0,0,274.7,202.8m-9.942-7.864a5.878,5.878,0,0,1,3.665-.394,3.249,3.249,0,0,1,1.808,1.013,1.455,1.455,0,0,1,.329,1.3,3.214,3.214,0,0,1-1.911,1.952c-1.281.59-4.865.652-7.665.538,1.092-1.8,2.616-3.877,3.774-4.41m-14.339-2.726a1.457,1.457,0,0,1,.865-1.025h0a3.25,3.25,0,0,1,2.07-.118,5.883,5.883,0,0,1,3.123,1.959c.807.986,1.269,3.518,1.461,5.617-2.568-1.124-5.762-2.749-6.656-3.841a3.215,3.215,0,0,1-.863-2.592M242.164,202.3l.943-4.088a.409.409,0,0,1,.49-.306l14.223,3.281-1.127,4.884-14.223-3.281a.408.408,0,0,1-.306-.489m-2.257,21.726,4.282-18.565,12.005,2.769L251.82,227.19l-11.607-2.677a.409.409,0,0,1-.306-.49m26.17,6.036a.409.409,0,0,1-.49.306l-11.607-2.677,4.374-18.963,12,2.769Zm7.489-20.52a.409.409,0,0,1-.49.306l-14.223-3.281,1.127-4.885,14.223,3.281a.409.409,0,0,1,.306.49Z" transform="translate(-163.148 -129.559)" fill="#e1251b"/>
    <path id="Trazado_23449" data-name="Trazado 23449" d="M831.047,226.627l-6.788.584a6.757,6.757,0,0,0,1.3-.891,5.327,5.327,0,0,0,1.925-4.267,3.666,3.666,0,0,0-1.72-2.81c-2.2-1.414-5.755-.833-8.1,1.326a11.507,11.507,0,0,0-2.482,4.913,11.5,11.5,0,0,0-3.284-4.417c-2.68-1.727-6.286-1.693-8.208.077a3.666,3.666,0,0,0-1.215,3.063,5.328,5.328,0,0,0,2.626,3.875,6.765,6.765,0,0,0,1.437.655l-6.788.584a2.628,2.628,0,0,0-2.391,2.841l.36,4.18a2.628,2.628,0,0,0,2.84,2.39l.059-.005,1.633,18.983a2.628,2.628,0,0,0,2.84,2.39l25.944-2.231a2.628,2.628,0,0,0,2.391-2.84L831.8,236.044l.06-.005a2.628,2.628,0,0,0,2.391-2.84l-.359-4.18a2.628,2.628,0,0,0-2.841-2.391" transform="translate(-547.319 -149.964)" fill="#fff"/>
    <path id="Trazado_23450" data-name="Trazado 23450" d="M831.047,226.628l-6.788.584a6.753,6.753,0,0,0,1.3-.891,5.329,5.329,0,0,0,1.925-4.267,3.666,3.666,0,0,0-1.72-2.81c-2.2-1.415-5.755-.833-8.1,1.326a11.51,11.51,0,0,0-2.481,4.913,11.509,11.509,0,0,0-3.284-4.417c-2.68-1.727-6.286-1.693-8.208.077a3.668,3.668,0,0,0-1.216,3.063,5.328,5.328,0,0,0,2.626,3.875,6.733,6.733,0,0,0,1.437.655l-6.788.584a2.628,2.628,0,0,0-2.391,2.841l.359,4.18a2.628,2.628,0,0,0,2.841,2.39l.059-.005,1.633,18.983a2.628,2.628,0,0,0,2.84,2.39l25.944-2.231a2.628,2.628,0,0,0,2.391-2.84L831.8,236.044l.06-.005a2.628,2.628,0,0,0,2.391-2.84l-.36-4.18a2.628,2.628,0,0,0-2.84-2.391M819.168,222.2a5.881,5.881,0,0,1,3.366-1.5,3.249,3.249,0,0,1,2.033.408,1.454,1.454,0,0,1,.713,1.136,3.212,3.212,0,0,1-1.218,2.445c-1.038.956-4.428,2.116-7.129,2.868.484-2.052,1.3-4.494,2.236-5.357m-14.482,1.814a1.456,1.456,0,0,1,.508-1.241h0a3.248,3.248,0,0,1,1.933-.749,5.883,5.883,0,0,1,3.574.9c1.071.69,2.289,2.957,3.118,4.9-2.789-.28-6.329-.844-7.514-1.609a3.214,3.214,0,0,1-1.618-2.2M799.93,236.15l-.359-4.18a.409.409,0,0,1,.372-.442l14.543-1.251.43,4.994-14.543,1.251a.409.409,0,0,1-.442-.372m4.532,21.368-1.633-18.983,12.275-1.056,1.668,19.39L804.9,257.89a.409.409,0,0,1-.442-.372m26.758-2.3a.409.409,0,0,1-.372.442l-11.867,1.021-1.668-19.39,12.275-1.056Zm.818-21.828a.409.409,0,0,1-.372.442l-14.543,1.251-.43-4.994,14.543-1.251a.409.409,0,0,1,.442.372Z" transform="translate(-547.319 -149.964)" fill="#e1251b"/>
    <path id="Trazado_23451" data-name="Trazado 23451" d="M567.329,212.839l-6.746-.957a6.742,6.742,0,0,0,1.471-.575,5.326,5.326,0,0,0,2.835-3.725,3.668,3.668,0,0,0-1.045-3.125c-1.824-1.872-5.42-2.105-8.192-.529a11.509,11.509,0,0,0-3.522,4.23,11.507,11.507,0,0,0-2.207-5.042c-2.224-2.285-5.744-3.062-8.015-1.77a3.665,3.665,0,0,0-1.873,2.711,5.327,5.327,0,0,0,1.688,4.366,6.74,6.74,0,0,0,1.253.961l-6.745-.957a2.628,2.628,0,0,0-2.968,2.23l-.589,4.154a2.628,2.628,0,0,0,2.231,2.968l.059.008-2.676,18.864a2.628,2.628,0,0,0,2.231,2.968l25.782,3.657a2.628,2.628,0,0,0,2.968-2.23l2.675-18.864.06.008a2.628,2.628,0,0,0,2.968-2.23l.589-4.154a2.628,2.628,0,0,0-2.23-2.968" transform="translate(-365.354 -137.78)" fill="#fff"/>
    <path id="Trazado_23452" data-name="Trazado 23452" d="M567.328,212.839l-6.746-.957a6.747,6.747,0,0,0,1.471-.575,5.328,5.328,0,0,0,2.835-3.725,3.667,3.667,0,0,0-1.045-3.125c-1.823-1.872-5.421-2.1-8.192-.529a11.506,11.506,0,0,0-3.522,4.23,11.507,11.507,0,0,0-2.208-5.043c-2.223-2.285-5.744-3.062-8.015-1.77a3.667,3.667,0,0,0-1.873,2.711,5.328,5.328,0,0,0,1.688,4.366,6.755,6.755,0,0,0,1.253.961l-6.745-.957a2.628,2.628,0,0,0-2.968,2.231l-.589,4.154a2.628,2.628,0,0,0,2.231,2.968l.059.008-2.675,18.864a2.628,2.628,0,0,0,2.23,2.968l25.782,3.657a2.628,2.628,0,0,0,2.968-2.23l2.676-18.864.059.008a2.628,2.628,0,0,0,2.968-2.23l.589-4.154a2.629,2.629,0,0,0-2.231-2.968m-10.58-6.983a5.883,5.883,0,0,1,3.618-.706,3.249,3.249,0,0,1,1.888.854,1.454,1.454,0,0,1,.439,1.268,3.214,3.214,0,0,1-1.737,2.109c-1.226.7-4.791,1.066-7.591,1.192.934-1.89,2.274-4.087,3.382-4.717m-14.519-1.487a1.457,1.457,0,0,1,.774-1.1h0a3.251,3.251,0,0,1,2.052-.3,5.884,5.884,0,0,1,3.279,1.685c.889.913,1.566,3.4,1.937,5.472-2.655-.9-5.977-2.246-6.961-3.257a3.214,3.214,0,0,1-1.082-2.509m-7.361,10.755.589-4.154a.409.409,0,0,1,.462-.347l14.451,2.05-.7,4.963-14.452-2.05a.409.409,0,0,1-.347-.462m-.386,21.84,2.675-18.864,12.2,1.73L546.622,239.1l-11.794-1.673a.409.409,0,0,1-.347-.462m26.591,3.772a.409.409,0,0,1-.462.347l-11.793-1.673,2.733-19.269,12.2,1.73Zm5.7-21.086a.409.409,0,0,1-.462.347l-14.452-2.05.7-4.963,14.452,2.05a.409.409,0,0,1,.347.462Z" transform="translate(-365.354 -137.78)" fill="#e1251b"/>
    <path id="Trazado_23453" data-name="Trazado 23453" d="M448.74,188.388l-6.788.584a6.767,6.767,0,0,0,1.3-.891,5.327,5.327,0,0,0,1.925-4.267,3.666,3.666,0,0,0-1.72-2.81c-2.2-1.414-5.755-.833-8.1,1.326a11.505,11.505,0,0,0-2.482,4.913,11.5,11.5,0,0,0-3.284-4.417c-2.68-1.727-6.286-1.693-8.208.077a3.666,3.666,0,0,0-1.215,3.063,5.328,5.328,0,0,0,2.626,3.875,6.765,6.765,0,0,0,1.437.655l-6.788.584a2.628,2.628,0,0,0-2.391,2.841l.36,4.18a2.628,2.628,0,0,0,2.84,2.39l.059-.005,1.633,18.983a2.628,2.628,0,0,0,2.84,2.39l25.944-2.231a2.628,2.628,0,0,0,2.391-2.84L449.49,197.8l.06-.005a2.628,2.628,0,0,0,2.391-2.84l-.359-4.18a2.628,2.628,0,0,0-2.841-2.391" transform="translate(-284.896 -123.716)" fill="#fff"/>
    <path id="Trazado_23454" data-name="Trazado 23454" d="M448.74,188.389l-6.788.584a6.74,6.74,0,0,0,1.3-.891,5.327,5.327,0,0,0,1.925-4.267,3.666,3.666,0,0,0-1.72-2.81c-2.2-1.415-5.755-.833-8.1,1.326a11.509,11.509,0,0,0-2.481,4.913,11.51,11.51,0,0,0-3.284-4.417c-2.68-1.727-6.286-1.693-8.208.077a3.667,3.667,0,0,0-1.216,3.063,5.328,5.328,0,0,0,2.626,3.875,6.73,6.73,0,0,0,1.437.655l-6.787.584a2.628,2.628,0,0,0-2.391,2.841l.359,4.18a2.628,2.628,0,0,0,2.841,2.39l.059-.005,1.633,18.983a2.628,2.628,0,0,0,2.84,2.39l25.944-2.231a2.628,2.628,0,0,0,2.391-2.84l-1.633-18.983.06-.005a2.629,2.629,0,0,0,2.391-2.84l-.36-4.18a2.628,2.628,0,0,0-2.84-2.391m-11.879-4.426a5.879,5.879,0,0,1,3.366-1.5,3.249,3.249,0,0,1,2.033.408,1.455,1.455,0,0,1,.712,1.136,3.212,3.212,0,0,1-1.218,2.445c-1.038.955-4.428,2.116-7.129,2.868.484-2.052,1.3-4.494,2.236-5.357m-14.482,1.814a1.456,1.456,0,0,1,.508-1.241h0a3.249,3.249,0,0,1,1.933-.749,5.883,5.883,0,0,1,3.574.9c1.071.691,2.289,2.957,3.117,4.9-2.789-.28-6.328-.844-7.514-1.609a3.214,3.214,0,0,1-1.618-2.2m-4.756,12.135-.359-4.18a.409.409,0,0,1,.372-.442l14.543-1.251.43,4.994-14.543,1.251a.409.409,0,0,1-.442-.372m4.533,21.368L420.523,200.3l12.275-1.055,1.668,19.39L422.6,219.651a.409.409,0,0,1-.442-.372m26.758-2.3a.409.409,0,0,1-.372.442l-11.868,1.021-1.668-19.39L447.281,198Zm.818-21.828a.409.409,0,0,1-.372.442l-14.543,1.251-.43-4.994L448.93,190.6a.41.41,0,0,1,.442.372Z" transform="translate(-284.896 -123.716)" fill="#e1251b"/>
    <path id="Trazado_23455" data-name="Trazado 23455" d="M744.022,224.6l-6.746-.957a6.742,6.742,0,0,0,1.471-.575,5.326,5.326,0,0,0,2.835-3.725,3.667,3.667,0,0,0-1.045-3.125c-1.824-1.872-5.42-2.105-8.192-.529a11.508,11.508,0,0,0-3.522,4.23,11.507,11.507,0,0,0-2.207-5.042c-2.224-2.285-5.745-3.062-8.015-1.77a3.665,3.665,0,0,0-1.873,2.711,5.328,5.328,0,0,0,1.688,4.366,6.74,6.74,0,0,0,1.253.961l-6.745-.957a2.628,2.628,0,0,0-2.968,2.23l-.589,4.154a2.628,2.628,0,0,0,2.231,2.968l.059.008-2.676,18.864a2.628,2.628,0,0,0,2.231,2.968l25.782,3.657a2.628,2.628,0,0,0,2.968-2.23l2.675-18.864.06.008a2.628,2.628,0,0,0,2.968-2.23l.589-4.154a2.628,2.628,0,0,0-2.23-2.968" transform="translate(-486.64 -145.853)" fill="#fff"/>
    <path id="Trazado_23456" data-name="Trazado 23456" d="M744.022,224.6l-6.746-.957a6.749,6.749,0,0,0,1.471-.575,5.328,5.328,0,0,0,2.835-3.725,3.667,3.667,0,0,0-1.045-3.125c-1.823-1.872-5.421-2.1-8.192-.529a11.505,11.505,0,0,0-3.522,4.23,11.506,11.506,0,0,0-2.208-5.043c-2.223-2.285-5.744-3.062-8.015-1.77a3.667,3.667,0,0,0-1.873,2.711,5.328,5.328,0,0,0,1.688,4.366,6.759,6.759,0,0,0,1.253.961l-6.745-.957a2.628,2.628,0,0,0-2.968,2.231l-.589,4.154a2.628,2.628,0,0,0,2.23,2.968l.059.008-2.676,18.864a2.628,2.628,0,0,0,2.23,2.967l25.782,3.657a2.628,2.628,0,0,0,2.968-2.23l2.676-18.864.059.008a2.628,2.628,0,0,0,2.968-2.23l.589-4.154a2.629,2.629,0,0,0-2.231-2.968m-10.58-6.983a5.882,5.882,0,0,1,3.618-.706,3.249,3.249,0,0,1,1.888.854,1.454,1.454,0,0,1,.439,1.267,3.214,3.214,0,0,1-1.737,2.109c-1.226.7-4.791,1.066-7.591,1.192.933-1.89,2.274-4.087,3.382-4.717m-14.519-1.487a1.457,1.457,0,0,1,.774-1.1h0a3.251,3.251,0,0,1,2.052-.3,5.883,5.883,0,0,1,3.279,1.685c.889.913,1.566,3.4,1.937,5.472-2.655-.9-5.977-2.246-6.961-3.257a3.214,3.214,0,0,1-1.082-2.509m-7.361,10.755.589-4.154a.409.409,0,0,1,.462-.347l14.451,2.05-.7,4.963-14.452-2.05a.409.409,0,0,1-.347-.462m-.386,21.84,2.675-18.864,12.2,1.73-2.733,19.268-11.794-1.673a.409.409,0,0,1-.347-.462m26.591,3.772a.409.409,0,0,1-.462.347l-11.793-1.673,2.733-19.269,12.2,1.73Zm5.7-21.086a.409.409,0,0,1-.462.347l-14.452-2.05.7-4.963,14.452,2.05a.409.409,0,0,1,.347.462Z" transform="translate(-486.641 -145.853)" fill="#e1251b"/>
    <path id="Trazado_23457" data-name="Trazado 23457" d="M202.338,252.713h-6.813a6.752,6.752,0,0,0,1.376-.776,5.327,5.327,0,0,0,2.284-4.086,3.667,3.667,0,0,0-1.473-2.947c-2.068-1.6-5.662-1.323-8.185.627a11.508,11.508,0,0,0-2.893,4.682,11.5,11.5,0,0,0-2.893-4.682c-2.522-1.95-6.118-2.225-8.184-.627a3.666,3.666,0,0,0-1.474,2.947,5.328,5.328,0,0,0,2.284,4.086,6.753,6.753,0,0,0,1.376.776h-6.813a2.628,2.628,0,0,0-2.625,2.625v4.2a2.628,2.628,0,0,0,2.625,2.625h.059v19.053a2.628,2.628,0,0,0,2.625,2.625h26.04a2.628,2.628,0,0,0,2.626-2.625V262.159h.06a2.628,2.628,0,0,0,2.625-2.625v-4.2a2.628,2.628,0,0,0-2.625-2.625" transform="translate(-115.527 -167.394)" fill="#fff"/>
    <path id="Trazado_23458" data-name="Trazado 23458" d="M202.338,252.713h-6.813a6.752,6.752,0,0,0,1.376-.776,5.328,5.328,0,0,0,2.284-4.086,3.667,3.667,0,0,0-1.473-2.947c-2.068-1.6-5.662-1.323-8.185.627a11.505,11.505,0,0,0-2.893,4.682,11.506,11.506,0,0,0-2.893-4.682c-2.522-1.95-6.118-2.225-8.184-.627a3.666,3.666,0,0,0-1.474,2.947,5.328,5.328,0,0,0,2.284,4.086,6.753,6.753,0,0,0,1.376.776h-6.813a2.628,2.628,0,0,0-2.625,2.625v4.2a2.628,2.628,0,0,0,2.625,2.625h.059v19.053a2.628,2.628,0,0,0,2.625,2.625h26.04a2.628,2.628,0,0,0,2.625-2.625V262.159h.06a2.628,2.628,0,0,0,2.625-2.625v-4.2a2.628,2.628,0,0,0-2.625-2.625m-11.456-5.428a5.878,5.878,0,0,1,3.482-1.207,3.248,3.248,0,0,1,1.99.58,1.455,1.455,0,0,1,.613,1.193,3.212,3.212,0,0,1-1.423,2.332c-1.116.863-4.594,1.728-7.348,2.247.659-2,1.678-4.366,2.686-5.145m-14.584.567a1.456,1.456,0,0,1,.612-1.193,3.248,3.248,0,0,1,1.99-.58,5.88,5.88,0,0,1,3.483,1.207c1.008.78,2.028,3.142,2.686,5.145-2.755-.518-6.233-1.384-7.348-2.247a3.212,3.212,0,0,1-1.423-2.332m-5.778,11.683v-4.2a.409.409,0,0,1,.409-.409h14.6v5.013h-14.6a.409.409,0,0,1-.409-.408m2.685,21.678V262.159h12.32V281.62H173.613a.409.409,0,0,1-.409-.408m26.857,0a.409.409,0,0,1-.409.408H187.741V262.159h12.32Zm2.686-21.678a.409.409,0,0,1-.409.408h-14.6V254.93h14.6a.409.409,0,0,1,.409.409Z" transform="translate(-115.527 -167.394)" fill="#e1251b"/>
    <path id="Trazado_23459" data-name="Trazado 23459" d="M296.984,246.888l-6.639-1.531a6.758,6.758,0,0,0,1.515-.447A5.328,5.328,0,0,0,295,241.442a3.665,3.665,0,0,0-.773-3.2c-1.656-2.022-5.22-2.562-8.116-1.229a11.509,11.509,0,0,0-3.871,3.913,11.509,11.509,0,0,0-1.767-5.213c-2.019-2.467-5.461-3.543-7.834-2.45a3.665,3.665,0,0,0-2.1,2.541,5.328,5.328,0,0,0,1.308,4.495,6.744,6.744,0,0,0,1.166,1.065l-6.638-1.531a2.628,2.628,0,0,0-3.148,1.968l-.944,4.088a2.628,2.628,0,0,0,1.968,3.148l.058.013-4.282,18.566A2.628,2.628,0,0,0,262,270.76l25.374,5.852a2.628,2.628,0,0,0,3.148-1.968l4.282-18.565.059.013a2.629,2.629,0,0,0,3.148-1.968l.943-4.088a2.628,2.628,0,0,0-1.968-3.148" transform="translate(-178.444 -159.821)" fill="#fff"/>
    <path id="Trazado_23460" data-name="Trazado 23460" d="M296.984,246.887l-6.639-1.531a6.74,6.74,0,0,0,1.515-.447A5.326,5.326,0,0,0,295,241.442a3.667,3.667,0,0,0-.773-3.2c-1.656-2.021-5.22-2.562-8.116-1.229a11.507,11.507,0,0,0-3.872,3.913,11.512,11.512,0,0,0-1.767-5.213c-2.02-2.467-5.461-3.543-7.834-2.45a3.666,3.666,0,0,0-2.1,2.541,5.328,5.328,0,0,0,1.308,4.495,6.745,6.745,0,0,0,1.166,1.065l-6.638-1.531a2.628,2.628,0,0,0-3.148,1.968l-.943,4.088a2.628,2.628,0,0,0,1.968,3.148l.058.013-4.282,18.565A2.628,2.628,0,0,0,262,270.759l25.374,5.853a2.628,2.628,0,0,0,3.148-1.968l4.282-18.565.059.013a2.628,2.628,0,0,0,3.148-1.968l.943-4.088a2.628,2.628,0,0,0-1.968-3.148m-9.942-7.864a5.878,5.878,0,0,1,3.664-.394,3.248,3.248,0,0,1,1.809,1.013,1.455,1.455,0,0,1,.329,1.3,3.214,3.214,0,0,1-1.911,1.952c-1.281.59-4.865.652-7.665.538,1.092-1.8,2.616-3.877,3.774-4.41M272.7,236.3a1.457,1.457,0,0,1,.865-1.025h0a3.249,3.249,0,0,1,2.069-.118,5.882,5.882,0,0,1,3.123,1.959c.807.986,1.269,3.518,1.461,5.617-2.568-1.125-5.762-2.749-6.656-3.841a3.215,3.215,0,0,1-.863-2.592m-8.256,10.085.943-4.088a.409.409,0,0,1,.49-.306l14.223,3.281-1.127,4.884-14.223-3.281a.409.409,0,0,1-.306-.49m-2.257,21.727,4.282-18.565,12.005,2.769L274.1,271.276,262.5,268.6a.409.409,0,0,1-.306-.49m26.17,6.036a.409.409,0,0,1-.49.306l-11.607-2.677,4.374-18.963,12,2.769Zm7.489-20.52a.409.409,0,0,1-.49.306l-14.223-3.281,1.127-4.885,14.223,3.281a.409.409,0,0,1,.306.49Z" transform="translate(-178.444 -159.821)" fill="#e1251b"/>
    <path id="Trazado_23461" data-name="Trazado 23461" d="M377.33,247.713l-6.788.584a6.766,6.766,0,0,0,1.3-.891,5.327,5.327,0,0,0,1.925-4.267,3.666,3.666,0,0,0-1.72-2.81c-2.2-1.414-5.755-.833-8.1,1.326a11.506,11.506,0,0,0-2.482,4.913,11.5,11.5,0,0,0-3.284-4.417c-2.68-1.727-6.286-1.693-8.208.077a3.666,3.666,0,0,0-1.215,3.063,5.328,5.328,0,0,0,2.626,3.875,6.765,6.765,0,0,0,1.437.655l-6.788.584a2.628,2.628,0,0,0-2.391,2.841l.36,4.18a2.628,2.628,0,0,0,2.84,2.39l.059-.005,1.633,18.983a2.628,2.628,0,0,0,2.84,2.39l25.944-2.231a2.628,2.628,0,0,0,2.391-2.84L378.08,257.13l.06-.005a2.628,2.628,0,0,0,2.391-2.84l-.359-4.18a2.628,2.628,0,0,0-2.841-2.391" transform="translate(-235.879 -164.438)" fill="#fff"/>
    <path id="Trazado_23462" data-name="Trazado 23462" d="M377.331,247.714l-6.788.584a6.739,6.739,0,0,0,1.3-.891,5.328,5.328,0,0,0,1.925-4.267,3.666,3.666,0,0,0-1.72-2.81c-2.2-1.415-5.755-.833-8.1,1.326a11.509,11.509,0,0,0-2.481,4.913,11.507,11.507,0,0,0-3.284-4.417c-2.68-1.727-6.286-1.693-8.208.077a3.666,3.666,0,0,0-1.216,3.063,5.328,5.328,0,0,0,2.626,3.875,6.731,6.731,0,0,0,1.437.655l-6.788.584a2.628,2.628,0,0,0-2.39,2.84l.359,4.181a2.628,2.628,0,0,0,2.841,2.39l.059-.005,1.633,18.983a2.628,2.628,0,0,0,2.84,2.39l25.944-2.231a2.628,2.628,0,0,0,2.391-2.84l-1.633-18.983.06-.005a2.628,2.628,0,0,0,2.391-2.84l-.36-4.18a2.628,2.628,0,0,0-2.84-2.391m-11.879-4.426a5.879,5.879,0,0,1,3.366-1.5,3.249,3.249,0,0,1,2.033.408,1.455,1.455,0,0,1,.712,1.136,3.212,3.212,0,0,1-1.218,2.445c-1.038.955-4.428,2.116-7.129,2.868.484-2.052,1.3-4.494,2.236-5.357M350.97,245.1a1.456,1.456,0,0,1,.508-1.241h0a3.249,3.249,0,0,1,1.933-.749,5.883,5.883,0,0,1,3.574.9c1.071.691,2.289,2.957,3.118,4.9-2.789-.28-6.329-.844-7.514-1.609a3.214,3.214,0,0,1-1.618-2.2m-4.756,12.135-.359-4.18a.409.409,0,0,1,.372-.442l14.543-1.251.43,4.994-14.543,1.251a.409.409,0,0,1-.442-.372m4.533,21.368-1.633-18.983,12.275-1.056,1.668,19.39-11.868,1.021a.409.409,0,0,1-.442-.372m26.758-2.3a.409.409,0,0,1-.372.442l-11.867,1.021-1.668-19.39,12.274-1.056Zm.818-21.828a.409.409,0,0,1-.372.442l-14.543,1.251-.43-4.994,14.543-1.251a.409.409,0,0,1,.442.372Z" transform="translate(-235.879 -164.438)" fill="#e1251b"/>
    <path id="Trazado_23463" data-name="Trazado 23463" d="M475.612,235.926l-6.746-.957a6.742,6.742,0,0,0,1.471-.575,5.327,5.327,0,0,0,2.835-3.725,3.668,3.668,0,0,0-1.045-3.125c-1.824-1.872-5.421-2.105-8.192-.529a11.508,11.508,0,0,0-3.522,4.23,11.507,11.507,0,0,0-2.207-5.042c-2.224-2.285-5.744-3.062-8.015-1.77a3.665,3.665,0,0,0-1.873,2.711,5.327,5.327,0,0,0,1.688,4.366,6.739,6.739,0,0,0,1.253.961l-6.745-.957a2.628,2.628,0,0,0-2.968,2.23l-.589,4.154a2.628,2.628,0,0,0,2.231,2.968l.059.008L440.57,259.74a2.628,2.628,0,0,0,2.231,2.968l25.782,3.657a2.628,2.628,0,0,0,2.968-2.23l2.675-18.864.06.008a2.628,2.628,0,0,0,2.968-2.23l.589-4.154a2.628,2.628,0,0,0-2.23-2.968" transform="translate(-302.398 -153.627)" fill="#fff"/>
    <path id="Trazado_23464" data-name="Trazado 23464" d="M475.612,235.925l-6.746-.957a6.748,6.748,0,0,0,1.471-.575,5.328,5.328,0,0,0,2.835-3.725,3.667,3.667,0,0,0-1.045-3.125c-1.823-1.872-5.421-2.1-8.192-.529a11.5,11.5,0,0,0-3.522,4.23,11.507,11.507,0,0,0-2.208-5.042c-2.224-2.285-5.744-3.062-8.015-1.77a3.667,3.667,0,0,0-1.873,2.711,5.328,5.328,0,0,0,1.688,4.366,6.757,6.757,0,0,0,1.253.961l-6.745-.957a2.628,2.628,0,0,0-2.968,2.23l-.589,4.154a2.628,2.628,0,0,0,2.23,2.968l.059.008-2.675,18.864a2.628,2.628,0,0,0,2.23,2.968l25.782,3.657a2.628,2.628,0,0,0,2.968-2.23l2.676-18.864.059.008a2.628,2.628,0,0,0,2.968-2.23l.589-4.154a2.629,2.629,0,0,0-2.231-2.968m-10.58-6.983a5.883,5.883,0,0,1,3.618-.706,3.251,3.251,0,0,1,1.889.854,1.455,1.455,0,0,1,.439,1.268,3.213,3.213,0,0,1-1.737,2.109c-1.226.7-4.791,1.066-7.591,1.193.934-1.891,2.274-4.087,3.382-4.717m-14.519-1.487a1.457,1.457,0,0,1,.774-1.1h0a3.251,3.251,0,0,1,2.052-.3,5.883,5.883,0,0,1,3.279,1.685c.889.913,1.566,3.4,1.937,5.472-2.655-.9-5.977-2.246-6.961-3.257a3.213,3.213,0,0,1-1.082-2.509m-7.361,10.755.589-4.154a.409.409,0,0,1,.462-.347l14.451,2.05-.7,4.963-14.452-2.05a.409.409,0,0,1-.347-.462m-.386,21.84,2.675-18.864,12.2,1.73-2.733,19.268-11.794-1.673a.409.409,0,0,1-.347-.462m26.591,3.772a.409.409,0,0,1-.462.347L457.1,262.5l2.733-19.269,12.2,1.73Zm5.7-21.086a.409.409,0,0,1-.462.347l-14.452-2.05.7-4.963,14.452,2.05a.409.409,0,0,1,.347.462Z" transform="translate(-302.399 -153.627)" fill="#e1251b"/>
    <path id="Trazado_23465" data-name="Trazado 23465" d="M35.068,239.221l-6.746-.957a6.757,6.757,0,0,0,1.471-.575,5.327,5.327,0,0,0,2.835-3.725,3.668,3.668,0,0,0-1.045-3.125c-1.824-1.872-5.421-2.105-8.192-.529a11.508,11.508,0,0,0-3.522,4.23,11.507,11.507,0,0,0-2.207-5.042c-2.224-2.285-5.744-3.062-8.015-1.77a3.665,3.665,0,0,0-1.873,2.711,5.328,5.328,0,0,0,1.688,4.366,6.739,6.739,0,0,0,1.253.961l-6.745-.957A2.628,2.628,0,0,0,1,237.04l-.589,4.154a2.628,2.628,0,0,0,2.231,2.968l.059.008L.026,263.035A2.628,2.628,0,0,0,2.256,266l25.782,3.657a2.628,2.628,0,0,0,2.968-2.23l2.675-18.864.06.008a2.628,2.628,0,0,0,2.968-2.23l.589-4.154a2.628,2.628,0,0,0-2.23-2.968" transform="translate(0 -155.889)" fill="#fff"/>
    <path id="Trazado_23466" data-name="Trazado 23466" d="M35.068,239.221l-6.746-.957a6.748,6.748,0,0,0,1.471-.575,5.328,5.328,0,0,0,2.835-3.725,3.667,3.667,0,0,0-1.045-3.125c-1.823-1.872-5.421-2.1-8.192-.529a11.507,11.507,0,0,0-3.522,4.23,11.507,11.507,0,0,0-2.208-5.042c-2.224-2.285-5.744-3.062-8.015-1.77a3.666,3.666,0,0,0-1.873,2.711,5.327,5.327,0,0,0,1.688,4.366,6.756,6.756,0,0,0,1.253.961L3.97,234.81A2.628,2.628,0,0,0,1,237.041l-.589,4.154a2.628,2.628,0,0,0,2.23,2.968l.059.008L.027,263.035A2.628,2.628,0,0,0,2.257,266l25.782,3.657a2.628,2.628,0,0,0,2.968-2.23l2.676-18.864.059.008a2.628,2.628,0,0,0,2.968-2.23l.589-4.154a2.629,2.629,0,0,0-2.231-2.968m-10.58-6.983a5.883,5.883,0,0,1,3.618-.706,3.25,3.25,0,0,1,1.889.855,1.454,1.454,0,0,1,.439,1.267,3.213,3.213,0,0,1-1.737,2.109c-1.226.7-4.791,1.066-7.591,1.193.934-1.89,2.274-4.087,3.382-4.717M9.969,230.751a1.457,1.457,0,0,1,.774-1.1h0a3.251,3.251,0,0,1,2.052-.3,5.884,5.884,0,0,1,3.279,1.685c.889.913,1.566,3.4,1.937,5.472-2.654-.9-5.977-2.246-6.96-3.257a3.214,3.214,0,0,1-1.082-2.509M2.608,241.506l.589-4.154A.409.409,0,0,1,3.659,237l14.451,2.05-.7,4.963-14.452-2.05a.409.409,0,0,1-.347-.462m-.386,21.84L4.9,244.482l12.2,1.73-2.733,19.268L2.568,263.808a.409.409,0,0,1-.347-.462m26.591,3.772a.409.409,0,0,1-.462.347l-11.793-1.673,2.733-19.269,12.2,1.73Zm5.7-21.086a.409.409,0,0,1-.462.347L19.6,244.329l.7-4.963,14.452,2.05a.409.409,0,0,1,.347.462Z" transform="translate(0 -155.889)" fill="#e1251b"/>
    <path id="Trazado_23467" data-name="Trazado 23467" d="M554.024,264.475l-6.788.584a6.768,6.768,0,0,0,1.3-.891,5.327,5.327,0,0,0,1.925-4.267,3.666,3.666,0,0,0-1.72-2.81c-2.2-1.414-5.755-.833-8.1,1.326a11.506,11.506,0,0,0-2.482,4.913,11.5,11.5,0,0,0-3.284-4.417c-2.68-1.727-6.286-1.693-8.208.077a3.666,3.666,0,0,0-1.215,3.063,5.328,5.328,0,0,0,2.626,3.875,6.766,6.766,0,0,0,1.437.655l-6.788.584a2.628,2.628,0,0,0-2.391,2.841l.36,4.18a2.628,2.628,0,0,0,2.84,2.39l.059-.005,1.633,18.983a2.628,2.628,0,0,0,2.84,2.39l25.944-2.231a2.628,2.628,0,0,0,2.391-2.84l-1.633-18.983.06-.005a2.628,2.628,0,0,0,2.391-2.84l-.359-4.18a2.628,2.628,0,0,0-2.841-2.391" transform="translate(-357.165 -175.943)" fill="#fff"/>
    <path id="Trazado_23468" data-name="Trazado 23468" d="M554.024,264.475l-6.788.584a6.74,6.74,0,0,0,1.3-.891,5.328,5.328,0,0,0,1.925-4.267,3.667,3.667,0,0,0-1.72-2.81c-2.2-1.415-5.755-.833-8.1,1.326a11.509,11.509,0,0,0-2.481,4.913,11.506,11.506,0,0,0-3.284-4.417c-2.68-1.727-6.286-1.693-8.208.077a3.666,3.666,0,0,0-1.216,3.063,5.328,5.328,0,0,0,2.626,3.875,6.731,6.731,0,0,0,1.437.655l-6.788.584a2.628,2.628,0,0,0-2.39,2.841l.359,4.18a2.629,2.629,0,0,0,2.841,2.39l.059-.005,1.633,18.983a2.628,2.628,0,0,0,2.84,2.39l25.944-2.231a2.628,2.628,0,0,0,2.391-2.84l-1.633-18.983.06-.005a2.628,2.628,0,0,0,2.391-2.84l-.36-4.18a2.628,2.628,0,0,0-2.84-2.39m-11.879-4.427a5.879,5.879,0,0,1,3.366-1.5,3.249,3.249,0,0,1,2.033.408,1.455,1.455,0,0,1,.712,1.136,3.212,3.212,0,0,1-1.218,2.445c-1.038.956-4.428,2.116-7.129,2.868.484-2.052,1.3-4.494,2.236-5.357m-14.482,1.814a1.456,1.456,0,0,1,.508-1.241h0a3.25,3.25,0,0,1,1.933-.749,5.883,5.883,0,0,1,3.574.9c1.071.69,2.289,2.957,3.118,4.9-2.789-.28-6.329-.844-7.514-1.609a3.214,3.214,0,0,1-1.618-2.2M522.908,274l-.359-4.18a.409.409,0,0,1,.372-.442l14.543-1.251.43,4.994-14.543,1.251a.409.409,0,0,1-.442-.372m4.532,21.368-1.633-18.983,12.275-1.056,1.668,19.39-11.868,1.021a.408.408,0,0,1-.442-.372m26.758-2.3a.409.409,0,0,1-.372.442l-11.867,1.021-1.668-19.39,12.274-1.056Zm.818-21.828a.409.409,0,0,1-.372.442L540.1,272.928l-.43-4.994,14.543-1.251a.409.409,0,0,1,.442.372Z" transform="translate(-357.165 -175.943)" fill="#e1251b"/>
    <path id="Trazado_23469" data-name="Trazado 23469" d="M661.306,254.687l-6.746-.957a6.756,6.756,0,0,0,1.471-.575,5.327,5.327,0,0,0,2.835-3.725,3.667,3.667,0,0,0-1.045-3.125c-1.823-1.872-5.42-2.105-8.192-.529a11.507,11.507,0,0,0-3.522,4.23,11.506,11.506,0,0,0-2.207-5.042c-2.224-2.285-5.745-3.062-8.015-1.77a3.665,3.665,0,0,0-1.873,2.711,5.328,5.328,0,0,0,1.688,4.366,6.738,6.738,0,0,0,1.253.961l-6.745-.957a2.628,2.628,0,0,0-2.968,2.23l-.589,4.154a2.628,2.628,0,0,0,2.23,2.968l.059.008L626.264,278.5a2.628,2.628,0,0,0,2.231,2.968l25.782,3.657a2.629,2.629,0,0,0,2.968-2.23l2.675-18.864.06.008a2.628,2.628,0,0,0,2.968-2.23l.589-4.154a2.628,2.628,0,0,0-2.23-2.968" transform="translate(-429.862 -166.505)" fill="#fff"/>
    <path id="Trazado_23470" data-name="Trazado 23470" d="M661.306,254.686l-6.746-.957a6.748,6.748,0,0,0,1.471-.575,5.328,5.328,0,0,0,2.835-3.725,3.666,3.666,0,0,0-1.045-3.125c-1.823-1.872-5.421-2.1-8.192-.529a11.507,11.507,0,0,0-3.522,4.23,11.511,11.511,0,0,0-2.207-5.042c-2.224-2.285-5.745-3.062-8.015-1.77a3.666,3.666,0,0,0-1.873,2.711,5.327,5.327,0,0,0,1.688,4.366,6.756,6.756,0,0,0,1.253.961l-6.745-.957a2.628,2.628,0,0,0-2.968,2.231l-.589,4.154a2.628,2.628,0,0,0,2.23,2.968l.059.008L626.264,278.5a2.628,2.628,0,0,0,2.231,2.967l25.782,3.657a2.628,2.628,0,0,0,2.968-2.231l2.676-18.864.059.008a2.628,2.628,0,0,0,2.968-2.23l.589-4.154a2.629,2.629,0,0,0-2.23-2.968m-10.58-6.983a5.883,5.883,0,0,1,3.618-.706,3.25,3.25,0,0,1,1.889.855,1.456,1.456,0,0,1,.439,1.267,3.214,3.214,0,0,1-1.737,2.109c-1.226.7-4.791,1.066-7.591,1.193.934-1.891,2.274-4.087,3.382-4.717m-14.519-1.487a1.457,1.457,0,0,1,.774-1.1h0a3.251,3.251,0,0,1,2.052-.3,5.883,5.883,0,0,1,3.279,1.685c.889.913,1.566,3.4,1.937,5.472-2.655-.9-5.977-2.246-6.961-3.257a3.214,3.214,0,0,1-1.082-2.509m-7.361,10.755.589-4.154a.409.409,0,0,1,.462-.347l14.452,2.05-.7,4.963-14.452-2.05a.409.409,0,0,1-.347-.462m-.386,21.84,2.675-18.864,12.2,1.73L640.6,280.946l-11.794-1.673a.409.409,0,0,1-.347-.462m26.591,3.772a.409.409,0,0,1-.462.347l-11.793-1.673,2.733-19.269,12.2,1.73Zm5.7-21.086a.409.409,0,0,1-.462.347l-14.452-2.05.7-4.963,14.452,2.05a.409.409,0,0,1,.347.462Z" transform="translate(-429.862 -166.505)" fill="#e1251b"/>
    <path id="Trazado_23471" data-name="Trazado 23471" d="M115.267,266.687l-6.746-.957a6.756,6.756,0,0,0,1.471-.575,5.327,5.327,0,0,0,2.835-3.725,3.668,3.668,0,0,0-1.045-3.125c-1.824-1.872-5.421-2.105-8.192-.529a11.508,11.508,0,0,0-3.522,4.23,11.507,11.507,0,0,0-2.207-5.042c-2.224-2.285-5.744-3.062-8.015-1.77a3.665,3.665,0,0,0-1.873,2.711,5.328,5.328,0,0,0,1.688,4.366,6.738,6.738,0,0,0,1.253.961l-6.745-.957a2.628,2.628,0,0,0-2.968,2.23l-.589,4.154a2.628,2.628,0,0,0,2.231,2.968l.059.008L80.225,290.5a2.628,2.628,0,0,0,2.231,2.968l25.782,3.657a2.628,2.628,0,0,0,2.968-2.23l2.675-18.864.06.008a2.628,2.628,0,0,0,2.968-2.23l.589-4.154a2.628,2.628,0,0,0-2.23-2.968" transform="translate(-55.05 -174.742)" fill="#fff"/>
    <path id="Trazado_23472" data-name="Trazado 23472" d="M115.267,266.686l-6.746-.957a6.747,6.747,0,0,0,1.471-.575,5.328,5.328,0,0,0,2.835-3.725,3.666,3.666,0,0,0-1.045-3.125c-1.823-1.872-5.421-2.1-8.192-.529a11.507,11.507,0,0,0-3.522,4.23,11.507,11.507,0,0,0-2.208-5.042c-2.223-2.285-5.744-3.062-8.015-1.77a3.666,3.666,0,0,0-1.873,2.711,5.327,5.327,0,0,0,1.688,4.366,6.754,6.754,0,0,0,1.253.961l-6.745-.957a2.628,2.628,0,0,0-2.968,2.231l-.589,4.154a2.628,2.628,0,0,0,2.23,2.968l.059.008L80.226,290.5a2.628,2.628,0,0,0,2.23,2.967l25.782,3.657a2.628,2.628,0,0,0,2.968-2.23l2.676-18.864.059.008a2.628,2.628,0,0,0,2.968-2.23l.589-4.154a2.629,2.629,0,0,0-2.231-2.968m-10.58-6.983a5.883,5.883,0,0,1,3.618-.706,3.25,3.25,0,0,1,1.889.854,1.454,1.454,0,0,1,.439,1.267,3.213,3.213,0,0,1-1.737,2.109c-1.226.7-4.791,1.066-7.591,1.193.933-1.891,2.274-4.087,3.382-4.717m-14.519-1.487a1.457,1.457,0,0,1,.774-1.1h0a3.251,3.251,0,0,1,2.052-.3,5.884,5.884,0,0,1,3.279,1.685c.889.913,1.566,3.4,1.937,5.472-2.655-.9-5.977-2.246-6.961-3.257a3.213,3.213,0,0,1-1.082-2.509m-7.361,10.755.589-4.154a.409.409,0,0,1,.462-.347l14.451,2.05-.7,4.963-14.452-2.05a.409.409,0,0,1-.347-.462m-.386,21.84L85.1,271.947l12.2,1.73-2.733,19.268-11.794-1.673a.409.409,0,0,1-.347-.462m26.591,3.772a.409.409,0,0,1-.462.347l-11.793-1.673,2.733-19.269,12.2,1.73Zm5.7-21.086a.409.409,0,0,1-.462.347L99.8,271.794l.7-4.963,14.452,2.05a.409.409,0,0,1,.347.462Z" transform="translate(-55.05 -174.742)" fill="#e1251b"/>
  </g>
</svg>
