<svg xmlns="http://www.w3.org/2000/svg" xmlns:xlink="http://www.w3.org/1999/xlink" width="38.098" height="40.965" viewBox="0 0 38.098 40.965">
  <defs>
    <clipPath id="clip-path">
      <rect id="Rectángulo_18826" data-name="Rectángulo 18826" width="34.912" height="38.066" fill="none"/>
    </clipPath>
  </defs>
  <g id="Grupo_19886" data-name="Grupo 19886" transform="matrix(0.996, -0.087, 0.087, 0.996, 0, 3.043)">
    <g id="Grupo_19885" data-name="Grupo 19885" transform="translate(0 0)" clip-path="url(#clip-path)">
      <path id="Trazado_23218" data-name="Trazado 23218" d="M32.412,8.425H25.923a6.407,6.407,0,0,0,1.31-.739A5.073,5.073,0,0,0,29.408,3.8a3.492,3.492,0,0,0-1.4-2.807c-1.97-1.521-5.392-1.26-7.795.6a10.963,10.963,0,0,0-2.755,4.459A10.971,10.971,0,0,0,14.7,1.585C12.3-.272,8.874-.533,6.906.989A3.491,3.491,0,0,0,5.5,3.8,5.073,5.073,0,0,0,7.678,7.686a6.425,6.425,0,0,0,1.31.739H2.5a2.5,2.5,0,0,0-2.5,2.5v4a2.5,2.5,0,0,0,2.5,2.5h.056V35.566a2.5,2.5,0,0,0,2.5,2.5h24.8a2.5,2.5,0,0,0,2.5-2.5V17.421h.057a2.5,2.5,0,0,0,2.5-2.5v-4a2.5,2.5,0,0,0-2.5-2.5M21.5,3.256a5.6,5.6,0,0,1,3.317-1.15,3.1,3.1,0,0,1,1.895.553A1.386,1.386,0,0,1,27.3,3.8a3.059,3.059,0,0,1-1.356,2.221c-1.062.822-4.374,1.646-7,2.14.627-1.907,1.6-4.158,2.558-4.9M7.614,3.8A1.388,1.388,0,0,1,8.2,2.659a3.093,3.093,0,0,1,1.895-.553,5.6,5.6,0,0,1,3.317,1.15c.96.742,1.931,2.993,2.558,4.9-2.623-.494-5.935-1.318-7-2.14A3.059,3.059,0,0,1,7.614,3.8m-5.5,11.126v-4a.389.389,0,0,1,.389-.389H16.4V15.31H2.5a.389.389,0,0,1-.389-.389M4.668,35.566V17.421H16.4V35.954H5.057a.389.389,0,0,1-.389-.389m25.576,0a.389.389,0,0,1-.389.389H18.512V17.421H30.244ZM32.8,14.921a.389.389,0,0,1-.389.389h-13.9V10.536h13.9a.39.39,0,0,1,.389.389Z" transform="translate(0 0)" fill="#fff"/>
    </g>
  </g>
</svg>
