<svg xmlns="http://www.w3.org/2000/svg" xmlns:xlink="http://www.w3.org/1999/xlink" width="1460" height="1081" viewBox="0 0 1920 1162">
  <defs>
    <clipPath id="clip-path">
      <rect id="Rectángulo_18857" data-name="Rectángulo 18857" width="298.974" height="98.356" fill="none"/>
    </clipPath>
    <clipPath id="clip-login">
      <rect width="1920" height="1162"/>
    </clipPath>
  </defs>
  <g id="login" clip-path="url(#clip-login)">
    <rect width="1920" height="1162" fill="#ffe5de"/>
    <g id="Grupo_19932" data-name="Grupo 19932" transform="translate(379 193.729)">
      <g id="Grupo_19931" data-name="Grupo 19931">
        <g id="Grupo_19933" data-name="Grupo 19933">
          <g id="Grupo_19934" data-name="Grupo 19934" transform="translate(-13 -160.705)">
            <path id="Trazado_23236" data-name="Trazado 23236" d="M417.007,598.016l-25.68-5.923a26.2,26.2,0,0,0,5.86-1.728c6.446-2.969,10.878-7.859,12.16-13.415a14.181,14.181,0,0,0-2.99-12.389c-6.407-7.82-20.192-9.908-31.394-4.753-5.441,2.506-10.868,9.093-14.976,15.134-1.047-7.229-3.04-15.529-6.835-20.165-7.811-9.543-21.123-13.7-30.3-9.477a14.179,14.179,0,0,0-8.116,9.827c-1.282,5.556.562,11.893,5.058,17.386a26.088,26.088,0,0,0,4.51,4.119l-25.678-5.923a10.168,10.168,0,0,0-12.178,7.612L282.8,594.136a10.166,10.166,0,0,0,7.614,12.177l.223.051-16.564,71.812a10.165,10.165,0,0,0,7.612,12.177l98.145,22.637a10.165,10.165,0,0,0,12.177-7.611l16.564-71.81.226.052a10.167,10.167,0,0,0,12.178-7.612l3.647-15.814a10.165,10.165,0,0,0-7.612-12.177" transform="translate(-368.789 63.957)" fill="#fff"/>
            <path id="Trazado_23237" data-name="Trazado 23237" d="M417.006,598.016l-25.68-5.923a26.081,26.081,0,0,0,5.86-1.728c6.447-2.968,10.879-7.859,12.16-13.414a14.183,14.183,0,0,0-2.99-12.39c-6.407-7.819-20.192-9.908-31.393-4.753-5.442,2.506-10.869,9.094-14.976,15.134-1.048-7.228-3.041-15.528-6.836-20.164-7.811-9.543-21.122-13.7-30.3-9.478a14.18,14.18,0,0,0-8.117,9.827c-1.281,5.556.562,11.894,5.058,17.386a26.09,26.09,0,0,0,4.51,4.12l-25.678-5.923a10.164,10.164,0,0,0-12.177,7.612L282.8,594.137a10.165,10.165,0,0,0,7.614,12.175l.223.052-16.564,71.81a10.166,10.166,0,0,0,7.612,12.177l98.145,22.638A10.165,10.165,0,0,0,392,705.378l16.564-71.812.227.052a10.165,10.165,0,0,0,12.177-7.611l3.647-15.814a10.166,10.166,0,0,0-7.612-12.178M378.549,567.6a22.734,22.734,0,0,1,14.174-1.523,12.565,12.565,0,0,1,7,3.919,5.629,5.629,0,0,1,1.271,5.03c-.671,2.906-3.434,5.73-7.392,7.552-4.956,2.281-18.816,2.52-29.649,2.08,4.223-6.977,10.118-15,14.6-17.057m-55.462-10.544a5.635,5.635,0,0,1,3.347-3.965h0a12.572,12.572,0,0,1,8.005-.457,22.756,22.756,0,0,1,12.078,7.578c3.122,3.815,4.91,13.607,5.652,21.728-9.933-4.35-22.289-10.634-25.745-14.856-2.761-3.372-4.007-7.121-3.338-10.027m-31.934,39.009L294.8,580.25a1.58,1.58,0,0,1,1.895-1.185l55.015,12.69-4.358,18.893-55.014-12.69a1.58,1.58,0,0,1-1.185-1.895M282.424,680.1l16.564-71.812L345.424,619,328.5,692.352,283.61,682a1.582,1.582,0,0,1-1.185-1.895M383.65,703.451a1.583,1.583,0,0,1-1.895,1.184l-44.9-10.356,16.919-73.35,46.435,10.71Zm28.967-79.371a1.582,1.582,0,0,1-1.895,1.184l-55.016-12.69,4.358-18.894,55.015,12.691a1.581,1.581,0,0,1,1.185,1.895Z" transform="translate(-368.789 63.957)" fill="#e1251b"/>
            <path id="Trazado_23238" data-name="Trazado 23238" d="M704.033,617.492l-26.094-3.7a26.072,26.072,0,0,0,5.69-2.224c6.169-3.51,10.166-8.761,10.966-14.407a14.186,14.186,0,0,0-4.04-12.087c-7.054-7.241-20.967-8.142-31.687-2.046-5.207,2.963-10.049,9.992-13.624,16.361-1.663-7.111-4.359-15.21-8.538-19.5-8.6-8.839-22.22-11.844-31-6.846a14.177,14.177,0,0,0-7.245,10.487c-.8,5.645,1.579,11.8,6.529,16.888a26.067,26.067,0,0,0,4.846,3.719l-26.09-3.7a10.166,10.166,0,0,0-11.48,8.628l-2.279,16.069a10.167,10.167,0,0,0,8.629,11.479l.227.031L568.491,709.6a10.166,10.166,0,0,0,8.629,11.479l99.723,14.145a10.167,10.167,0,0,0,11.48-8.628l10.349-72.966.23.033a10.165,10.165,0,0,0,11.479-8.628l2.279-16.068a10.165,10.165,0,0,0-8.628-11.48" transform="translate(-306.064 69.701)" fill="#fff"/>
            <path id="Trazado_23239" data-name="Trazado 23239" d="M704.033,617.492l-26.093-3.7a26.1,26.1,0,0,0,5.69-2.223c6.168-3.51,10.164-8.762,10.965-14.407a14.184,14.184,0,0,0-4.04-12.088c-7.053-7.241-20.967-8.141-31.685-2.045-5.207,2.962-10.049,9.992-13.624,16.36-1.663-7.111-4.361-15.21-8.539-19.5-8.6-8.839-22.218-11.844-31-6.846a14.185,14.185,0,0,0-7.245,10.487c-.8,5.646,1.579,11.8,6.529,16.889a26.076,26.076,0,0,0,4.847,3.718l-26.091-3.7a10.165,10.165,0,0,0-11.479,8.629l-2.279,16.068a10.164,10.164,0,0,0,8.628,11.479l.227.033-10.349,72.966a10.166,10.166,0,0,0,8.628,11.479l99.725,14.144a10.166,10.166,0,0,0,11.479-8.628l10.35-72.966.229.033a10.165,10.165,0,0,0,11.48-8.626l2.279-16.069a10.167,10.167,0,0,0-8.629-11.48M663.11,590.482a22.756,22.756,0,0,1,13.994-2.733,12.567,12.567,0,0,1,7.3,3.305,5.624,5.624,0,0,1,1.7,4.9c-.418,2.953-2.929,6-6.717,8.157-4.743,2.7-18.53,4.124-29.361,4.613,3.611-7.312,8.8-15.808,13.083-18.245m-56.161-5.752a5.634,5.634,0,0,1,2.995-4.238h0a12.576,12.576,0,0,1,7.936-1.141,22.758,22.758,0,0,1,12.684,6.516C634,589.4,636.621,599,638.056,607.03c-10.267-3.482-23.117-8.686-26.922-12.6-3.04-3.122-4.6-6.75-4.185-9.7m-28.474,41.6,2.278-16.069a1.583,1.583,0,0,1,1.788-1.343l55.9,7.929-2.722,19.2-55.9-7.929a1.581,1.581,0,0,1-1.343-1.785m-1.494,84.477,10.349-72.966,47.183,6.693-10.571,74.53-45.618-6.47a1.582,1.582,0,0,1-1.343-1.787M679.834,725.4a1.582,1.582,0,0,1-1.787,1.341l-45.616-6.47L643,645.739l47.182,6.693Zm22.06-81.561a1.582,1.582,0,0,1-1.787,1.342l-55.9-7.929,2.723-19.2,55.9,7.929a1.583,1.583,0,0,1,1.343,1.787Z" transform="translate(-306.064 69.701)" fill="#e1251b"/>
            <path id="Trazado_23240" data-name="Trazado 23240" d="M453.658,632.345c-4.373,13.529-8.651,26.8-12.414,38.857l-.5-1.963q-2.225-.131-4.484-.131a75.318,75.318,0,0,0-38.444,140.115,1.33,1.33,0,0,1-1.3,1.334c-29.805.539-63.642,19.562-70.306,51.85H722.879c-6.76-32.76-41.5-51.862-71.614-51.862v-1.322a75.318,75.318,0,0,0-38.444-140.115c-.945,0-1.884.023-2.82.058-8.168-35.1-20.029-86.456-25.284-111.125a35.775,35.775,0,0,1,22.423-41.124l.4-.144.489-.176a39.455,39.455,0,0,0,26-37.112l-.01-67.937L779.792,244.542a39.681,39.681,0,0,0-5.9-57.722h0A39.7,39.7,0,0,0,716.7,196.7L595.19,382.108l-1.061-.49,62.551-212.665a39.685,39.685,0,1,0-77.315-17.083L546.547,371.1,492.2,421.172a39.445,39.445,0,0,0-11.449,43.8c.067.178.126.358.2.534,10.343,24.568,12.06,36.611-3.4,90.594-1.952,6.813-4.206,14.3-6.652,22.214a129.29,129.29,0,0,1-85.286-146.511,28.375,28.375,0,0,0-55.751-10.6c-17.574,92.446,36.878,182.146,123.792,211.138" transform="translate(-357.632 -26.67)" fill="#fff"/>
            <path id="Trazado_23241" data-name="Trazado 23241" d="M532.048,401.706a8.957,8.957,0,0,1-3.764-.828l-12.351-5.711a8.52,8.52,0,0,1-3.811-11.979,8.725,8.725,0,0,1,11.215-3.368l12.351,5.709a8.468,8.468,0,0,1-3.64,16.177m-12.494-16.449a2.171,2.171,0,0,0-2.188,2.859,2.22,2.22,0,0,0,1.2,1.358l12.35,5.712a2.455,2.455,0,0,0,3.141-.793,2.25,2.25,0,0,0-1-3.173l-12.35-5.709a2.743,2.743,0,0,0-1.152-.254" transform="translate(-318.286 28.896)" fill="#e1251b"/>
            <path id="Trazado_23242" data-name="Trazado 23242" d="M540.933,432.559a30.785,30.785,0,0,1-17.87-26.43l-.143-2.764-2.2,1.682a30.787,30.787,0,0,1-31.712,3.5l2.632-5.691a24.531,24.531,0,0,0,25.269-2.791l6.927-5.3,5.037,2.329.448,8.713a24.532,24.532,0,0,0,14.24,21.061Z" transform="translate(-322.966 32.255)" fill="#e1251b"/>
            <path id="Trazado_23243" data-name="Trazado 23243" d="M501.981,410.483a30.859,30.859,0,0,1-12.97-2.862l2.632-5.691a24.531,24.531,0,0,0,25.269-2.792l3.81,4.98a30.805,30.805,0,0,1-18.741,6.365" transform="translate(-322.966 33.186)" fill="#e1251b"/>
            <path id="Trazado_23244" data-name="Trazado 23244" d="M322.966,860.776H322v8.209H729.371l-.6-3.813c-2.66-17.04-12.742-32.384-28.384-43.206a87.474,87.474,0,0,0-36.8-14.343,80.833,80.833,0,0,0,19.227-22.286,79.859,79.859,0,0,0-68.307-119.965c-8.133-34.968-19.393-83.8-24.438-107.477A31.305,31.305,0,0,1,609.611,522l.864-.312a44.132,44.132,0,0,0,29.011-41.4l-.008-66.227L784.123,248.343a44.438,44.438,0,0,0,10.69-33.639,43.767,43.767,0,0,0-17.129-30.6l-.146-.11a44.256,44.256,0,0,0-63.758,11.018L606.962,358l54.987-186.955a44.247,44.247,0,0,0-67.495-48.979A44.422,44.422,0,0,0,575.752,152L543.171,369.64l-53.095,48.921a44.127,44.127,0,0,0-12.7,48.811l.046.124c.069.192.139.382.224.587,9.507,22.581,12,33.16-3.581,87.569-1.486,5.189-3.2,10.967-5.222,17.562A124.752,124.752,0,0,1,390.994,433.46a32.936,32.936,0,0,0-64.712-12.3A190.852,190.852,0,0,0,448.844,635.993c-3.411,10.559-6.566,20.38-9.405,29.392-.762-.021-1.526-.033-2.288-.033a79.84,79.84,0,0,0-69.1,119.984,80.874,80.874,0,0,0,19.23,22.289,87.5,87.5,0,0,0-37.4,14.758c-14.163,9.992-23.385,23.2-26.915,38.393m361.559-115.5a71.291,71.291,0,0,1-34.7,60.835l-2.221,1.327v8.47h4.559c27.675,0,58.884,16.865,66.493,45.4l-65.966-.076a67.922,67.922,0,0,0-19.381-26.488,76.076,76.076,0,0,0-24.322-13.314,193.46,193.46,0,0,0,16.047-54.018,187.811,187.811,0,0,0-1.169-61.981l-.038-.173c-.086-.364-3.017-12.846-7.178-30.713a70.883,70.883,0,0,1,67.878,70.732M401.046,806.112a70.75,70.75,0,0,1,35.546-131.626c-3.746,12.089-6.789,22.424-8.911,30.679-4.35,16.9-5.039,37.1-1.994,58.438a192.092,192.092,0,0,0,18.423,59.32l8.129-4.136c-17.63-34.646-23.949-79.393-15.727-111.349,4.251-16.525,12.3-41.7,22.382-72.887l1.389-4.3L456,628.822c-85.726-28.6-137.641-117.14-120.756-205.96a23.815,23.815,0,0,1,46.792,8.9,133.843,133.843,0,0,0,88.3,151.68l4.434,1.5,1.384-4.474c2.656-8.595,4.842-15.891,6.678-22.3,15.922-55.592,13.829-68.414,3.226-93.6-.023-.056-.04-.112-.061-.167l-.076-.207a34.975,34.975,0,0,1,10.13-38.737l55.66-51.281,33.056-220.82a35.124,35.124,0,1,1,68.43,15.119L589.54,384.912l8.207,3.787L721.408,200.005a35.138,35.138,0,0,1,50.567-8.791l.055.042a35.12,35.12,0,0,1,5.223,51.09l-146.9,168.3.01,69.648a34.991,34.991,0,0,1-23,32.826l-.9.323a39.77,39.77,0,0,0-21.3,18.445,40.8,40.8,0,0,0-4.021,27.912c8.225,38.621,32.926,143.858,33.773,147.463,7.255,37.452,1.109,80.4-16.447,114.9l-2.534,4.983,5.389,1.482c19.527,5.368,33.388,16.331,41.328,32.6l-78.045-.09v-.357H553.205c.477-8.826,2.154-30.237,8.061-69.553l-9.019-1.355c-6.09,40.54-7.737,62.074-8.185,70.908H332.37c7.753-27.606,38.139-44.368,65.121-44.855a5.917,5.917,0,0,0,5.777-5.892v-2.588Z" transform="translate(-358.528 -27.473)" fill="#e1251b"/>
            <path id="Trazado_23245" data-name="Trazado 23245" d="M372.8,657.907H346.442a26.121,26.121,0,0,0,5.321-3c5.615-4.341,8.834-10.1,8.834-15.8a14.184,14.184,0,0,0-5.7-11.4c-8-6.179-21.9-5.116-31.659,2.425-4.74,3.664-8.546,11.3-11.192,18.111-2.644-6.808-6.452-14.447-11.192-18.111-9.757-7.543-23.663-8.607-31.657-2.425a14.182,14.182,0,0,0-5.7,11.4c0,5.7,3.22,11.463,8.835,15.8a26.122,26.122,0,0,0,5.321,3H251.3a10.166,10.166,0,0,0-10.155,10.155v16.229A10.166,10.166,0,0,0,251.3,694.444h.229v73.7A10.167,10.167,0,0,0,261.688,778.3H362.409a10.166,10.166,0,0,0,10.155-10.155v-73.7h.233a10.165,10.165,0,0,0,10.155-10.153V668.062A10.165,10.165,0,0,0,372.8,657.907" transform="translate(-375.744 80.998)" fill="#fff"/>
            <path id="Trazado_23246" data-name="Trazado 23246" d="M372.8,657.907H346.442a26.121,26.121,0,0,0,5.321-3c5.615-4.342,8.834-10.1,8.834-15.8a14.184,14.184,0,0,0-5.7-11.4c-8-6.18-21.9-5.117-31.659,2.425-4.74,3.664-8.546,11.3-11.192,18.111-2.644-6.808-6.452-14.447-11.192-18.111-9.757-7.543-23.663-8.607-31.657-2.425a14.182,14.182,0,0,0-5.7,11.4c0,5.7,3.22,11.462,8.835,15.8a26.122,26.122,0,0,0,5.321,3H251.3a10.166,10.166,0,0,0-10.155,10.155v16.229A10.166,10.166,0,0,0,251.3,694.444h.229v73.7a10.166,10.166,0,0,0,10.155,10.153H362.409a10.165,10.165,0,0,0,10.155-10.153v-73.7h.233a10.165,10.165,0,0,0,10.155-10.153V668.062A10.165,10.165,0,0,0,372.8,657.907m-44.311-21a22.739,22.739,0,0,1,13.47-4.67,12.556,12.556,0,0,1,7.7,2.246,5.624,5.624,0,0,1,2.37,4.615c0,2.983-2.058,6.354-5.505,9.019-4.317,3.338-17.768,6.686-28.423,8.691,2.547-7.747,6.489-16.888,10.391-19.9M272.074,639.1a5.63,5.63,0,0,1,2.369-4.615h0a12.563,12.563,0,0,1,7.7-2.245,22.752,22.752,0,0,1,13.473,4.67c3.9,3.015,7.842,12.155,10.391,19.9-10.657-2-24.109-5.353-28.425-8.691-3.448-2.665-5.505-6.037-5.505-9.019m-22.351,45.189V668.062a1.581,1.581,0,0,1,1.58-1.58h56.458V685.87H251.3a1.581,1.581,0,0,1-1.58-1.579m10.384,83.85v-73.7h47.655V769.72H261.688a1.581,1.581,0,0,1-1.58-1.579m103.883,0a1.582,1.582,0,0,1-1.58,1.579H316.336V694.444H363.99Zm10.388-83.85a1.582,1.582,0,0,1-1.58,1.579H316.336V666.481H372.8a1.582,1.582,0,0,1,1.58,1.58Z" transform="translate(-375.744 80.998)" fill="#e1251b"/>
            <path id="Trazado_23247" data-name="Trazado 23247" d="M710.507,681.682l-26.257,2.258a26.1,26.1,0,0,0,5.045-3.446c5.222-4.807,7.935-10.822,7.446-16.5a14.184,14.184,0,0,0-6.653-10.87c-8.5-5.47-22.261-3.221-31.335,5.128-4.409,4.057-7.547,11.995-9.6,19-3.219-6.556-7.667-13.841-12.7-17.085-10.367-6.68-24.313-6.547-31.747.3a14.177,14.177,0,0,0-4.7,11.847c.489,5.681,4.191,11.144,10.157,14.989a26.17,26.17,0,0,0,5.559,2.534l-26.255,2.257a10.166,10.166,0,0,0-9.247,10.988l1.391,16.17a10.164,10.164,0,0,0,10.987,9.246l.228-.019,6.316,73.425a10.166,10.166,0,0,0,10.988,9.246l100.35-8.631a10.164,10.164,0,0,0,9.247-10.985L713.407,718.1l.23-.021a10.164,10.164,0,0,0,9.247-10.985l-1.39-16.17a10.166,10.166,0,0,0-10.988-9.247" transform="translate(-303.555 86.631)" fill="#fff"/>
            <path id="Trazado_23248" data-name="Trazado 23248" d="M710.507,681.682l-26.257,2.258a26.122,26.122,0,0,0,5.045-3.445c5.22-4.807,7.935-10.823,7.446-16.5a14.181,14.181,0,0,0-6.654-10.87c-8.5-5.472-22.26-3.222-31.335,5.128-4.408,4.057-7.546,11.995-9.6,19-3.218-6.556-7.667-13.842-12.7-17.087-10.367-6.68-24.313-6.547-31.748.3a14.181,14.181,0,0,0-4.7,11.847c.488,5.681,4.191,11.146,10.157,14.989a26.034,26.034,0,0,0,5.558,2.534l-26.255,2.258a10.166,10.166,0,0,0-9.246,10.988l1.39,16.169a10.165,10.165,0,0,0,10.988,9.245l.228-.019,6.316,73.426a10.165,10.165,0,0,0,10.987,9.246l100.352-8.631a10.166,10.166,0,0,0,9.247-10.987L713.406,718.1l.232-.019a10.165,10.165,0,0,0,9.247-10.987l-1.391-16.17a10.166,10.166,0,0,0-10.987-9.247M664.56,664.56a22.742,22.742,0,0,1,13.021-5.808,12.566,12.566,0,0,1,7.861,1.578,5.625,5.625,0,0,1,2.756,4.4c.256,2.973-1.505,6.509-4.712,9.458-4.014,3.7-17.129,8.184-27.573,11.095,1.874-7.937,5.019-17.381,8.648-20.719m-56.018,7.018a5.632,5.632,0,0,1,1.966-4.8h0a12.566,12.566,0,0,1,7.476-2.9,22.757,22.757,0,0,1,13.823,3.5c4.143,2.671,8.856,11.438,12.059,18.939-10.789-1.084-24.479-3.266-29.065-6.222-3.663-2.359-6-5.543-6.259-8.515m-18.4,46.938-1.39-16.17a1.582,1.582,0,0,1,1.438-1.71l56.251-4.838,1.662,19.318-56.251,4.837a1.582,1.582,0,0,1-1.71-1.437m17.532,82.651-6.316-73.426,47.48-4.083,6.45,75-45.906,3.948a1.58,1.58,0,0,1-1.709-1.439m103.5-8.9a1.583,1.583,0,0,1-1.44,1.709l-45.9,3.948-6.45-75,47.478-4.084Zm3.163-84.432a1.581,1.581,0,0,1-1.44,1.709l-56.252,4.838-1.662-19.318,56.253-4.838a1.582,1.582,0,0,1,1.709,1.44Z" transform="translate(-303.555 86.631)" fill="#e1251b"/>
            <path id="Trazado_23249" data-name="Trazado 23249" d="M812.727,681.253l-26.094-3.7a26.074,26.074,0,0,0,5.69-2.225c6.169-3.51,10.166-8.761,10.966-14.407a14.186,14.186,0,0,0-4.04-12.087c-7.054-7.241-20.967-8.142-31.687-2.046-5.207,2.964-10.049,9.992-13.624,16.361-1.663-7.111-4.359-15.21-8.538-19.5-8.6-8.839-22.22-11.844-31-6.846a14.177,14.177,0,0,0-7.245,10.487c-.8,5.645,1.579,11.8,6.529,16.888a26.06,26.06,0,0,0,4.846,3.719l-26.09-3.7a10.167,10.167,0,0,0-11.48,8.628l-2.279,16.07a10.166,10.166,0,0,0,8.629,11.478l.227.032-10.35,72.966a10.166,10.166,0,0,0,8.629,11.479l99.723,14.145a10.166,10.166,0,0,0,11.48-8.628L807.366,717.4l.23.033a10.165,10.165,0,0,0,11.479-8.628l2.279-16.068a10.165,10.165,0,0,0-8.628-11.48" transform="translate(-282.92 83.277)" fill="#fff"/>
            <path id="Trazado_23250" data-name="Trazado 23250" d="M812.727,681.253l-26.094-3.7a26.1,26.1,0,0,0,5.69-2.223c6.168-3.51,10.164-8.762,10.965-14.407a14.184,14.184,0,0,0-4.04-12.088c-7.053-7.241-20.967-8.141-31.685-2.045-5.207,2.962-10.049,9.992-13.624,16.36-1.663-7.111-4.361-15.21-8.538-19.5-8.6-8.839-22.22-11.844-31-6.846a14.186,14.186,0,0,0-7.245,10.487c-.8,5.646,1.579,11.8,6.529,16.889a26.073,26.073,0,0,0,4.847,3.718l-26.091-3.7a10.165,10.165,0,0,0-11.479,8.629l-2.279,16.068a10.165,10.165,0,0,0,8.628,11.479l.227.033-10.349,72.966a10.166,10.166,0,0,0,8.628,11.479l99.725,14.144a10.165,10.165,0,0,0,11.479-8.628l10.35-72.966.229.033a10.166,10.166,0,0,0,11.48-8.626l2.279-16.069a10.167,10.167,0,0,0-8.628-11.48M771.8,654.243A22.754,22.754,0,0,1,785.8,651.51a12.573,12.573,0,0,1,7.305,3.305,5.626,5.626,0,0,1,1.7,4.9c-.418,2.953-2.929,6-6.717,8.157-4.743,2.7-18.53,4.124-29.361,4.613,3.611-7.312,8.8-15.808,13.083-18.245m-56.161-5.752a5.634,5.634,0,0,1,2.995-4.238h0a12.576,12.576,0,0,1,7.936-1.141,22.754,22.754,0,0,1,12.684,6.516c3.438,3.533,6.057,13.136,7.494,21.164-10.269-3.482-23.118-8.686-26.923-12.6-3.04-3.122-4.6-6.75-4.185-9.7m-28.474,41.6,2.279-16.069a1.582,1.582,0,0,1,1.787-1.343l55.9,7.929-2.722,19.2-55.9-7.929a1.58,1.58,0,0,1-1.343-1.785m-1.494,84.477L696.023,701.6l47.183,6.693-10.571,74.53-45.618-6.47a1.582,1.582,0,0,1-1.343-1.787m102.853,14.589a1.581,1.581,0,0,1-1.787,1.341l-45.616-6.47L751.7,709.5l47.182,6.693Zm22.06-81.561a1.582,1.582,0,0,1-1.787,1.341l-55.9-7.929,2.722-19.2,55.9,7.929a1.582,1.582,0,0,1,1.343,1.787Z" transform="translate(-282.92 83.277)" fill="#e1251b"/>
            <path id="Trazado_23251" data-name="Trazado 23251" d="M465.081,747.993H438.726a26.152,26.152,0,0,0,5.321-3c5.615-4.341,8.833-10.1,8.833-15.8a14.183,14.183,0,0,0-5.7-11.4c-8-6.179-21.9-5.117-31.659,2.425-4.739,3.664-8.546,11.3-11.193,18.111-2.643-6.808-6.45-14.447-11.191-18.111-9.757-7.543-23.663-8.607-31.657-2.425a14.183,14.183,0,0,0-5.7,11.4c0,5.7,3.221,11.463,8.837,15.8a26.076,26.076,0,0,0,5.32,3H343.588a10.167,10.167,0,0,0-10.156,10.155v16.229a10.167,10.167,0,0,0,10.156,10.153h.229v73.7a10.167,10.167,0,0,0,10.155,10.155H454.695a10.167,10.167,0,0,0,10.155-10.155v-73.7h.232a10.165,10.165,0,0,0,10.155-10.153V758.148a10.165,10.165,0,0,0-10.155-10.155" transform="translate(-356.094 100.18)" fill="#fff"/>
            <path id="Trazado_23252" data-name="Trazado 23252" d="M465.081,747.993H438.726a26.12,26.12,0,0,0,5.321-3c5.615-4.341,8.834-10.1,8.834-15.8a14.184,14.184,0,0,0-5.7-11.4c-8-6.179-21.9-5.117-31.659,2.425-4.74,3.664-8.546,11.3-11.192,18.111-2.645-6.808-6.452-14.447-11.192-18.111-9.757-7.543-23.663-8.607-31.657-2.425a14.182,14.182,0,0,0-5.7,11.4c0,5.7,3.22,11.463,8.835,15.8a26.12,26.12,0,0,0,5.321,3H343.588a10.166,10.166,0,0,0-10.155,10.155v16.229a10.165,10.165,0,0,0,10.155,10.153h.229v73.7a10.166,10.166,0,0,0,10.155,10.153H454.693a10.165,10.165,0,0,0,10.155-10.153v-73.7h.233a10.165,10.165,0,0,0,10.155-10.153V758.148a10.165,10.165,0,0,0-10.155-10.155M420.77,727a22.739,22.739,0,0,1,13.471-4.67,12.563,12.563,0,0,1,7.7,2.245,5.628,5.628,0,0,1,2.37,4.616c0,2.983-2.057,6.356-5.505,9.019-4.317,3.338-17.768,6.686-28.423,8.691,2.547-7.747,6.489-16.888,10.391-19.9m-56.412,2.192a5.634,5.634,0,0,1,2.369-4.616,12.564,12.564,0,0,1,7.7-2.245A22.745,22.745,0,0,1,387.9,727c3.9,3.015,7.843,12.155,10.392,19.9-10.657-2.005-24.109-5.353-28.425-8.691-3.448-2.664-5.505-6.037-5.505-9.019m-22.351,45.189V758.148a1.581,1.581,0,0,1,1.58-1.58h56.458v19.389H343.588a1.581,1.581,0,0,1-1.58-1.579m10.384,83.85v-73.7h47.655v75.276H353.972a1.581,1.581,0,0,1-1.58-1.579m103.883,0a1.582,1.582,0,0,1-1.58,1.579H408.62V784.53h47.654Zm10.388-83.85a1.582,1.582,0,0,1-1.58,1.579H408.62V756.567h56.461a1.582,1.582,0,0,1,1.58,1.58Z" transform="translate(-356.094 100.18)" fill="#e1251b"/>
            <path id="Trazado_23253" data-name="Trazado 23253" d="M568.29,757.1l-25.68-5.923a26.222,26.222,0,0,0,5.86-1.728c6.446-2.969,10.878-7.859,12.16-13.415a14.182,14.182,0,0,0-2.99-12.389c-6.407-7.82-20.192-9.908-31.394-4.753-5.441,2.506-10.868,9.093-14.975,15.134-1.048-7.229-3.041-15.529-6.836-20.165-7.811-9.543-21.123-13.7-30.3-9.477a14.178,14.178,0,0,0-8.117,9.827c-1.282,5.556.562,11.893,5.058,17.386a26.086,26.086,0,0,0,4.51,4.119L449.906,729.8a10.167,10.167,0,0,0-12.178,7.612l-3.647,15.814a10.166,10.166,0,0,0,7.614,12.177l.223.051-16.564,71.812a10.163,10.163,0,0,0,7.612,12.175l98.145,22.638a10.165,10.165,0,0,0,12.177-7.611l16.564-71.812.227.053a10.167,10.167,0,0,0,12.177-7.612L575.9,769.28A10.166,10.166,0,0,0,568.29,757.1" transform="translate(-336.577 97.831)" fill="#fff"/>
            <path id="Trazado_23254" data-name="Trazado 23254" d="M568.29,757.1l-25.68-5.924a26.076,26.076,0,0,0,5.86-1.728c6.447-2.968,10.879-7.857,12.16-13.414a14.183,14.183,0,0,0-2.99-12.39c-6.407-7.819-20.192-9.908-31.393-4.753-5.442,2.506-10.869,9.094-14.976,15.134-1.048-7.228-3.041-15.528-6.835-20.164-7.812-9.543-21.123-13.7-30.3-9.478a14.18,14.18,0,0,0-8.117,9.827c-1.281,5.556.562,11.894,5.058,17.386a26.089,26.089,0,0,0,4.51,4.12L449.906,729.8a10.165,10.165,0,0,0-12.177,7.612l-3.647,15.814a10.164,10.164,0,0,0,7.612,12.175l.223.052-16.564,71.81a10.167,10.167,0,0,0,7.612,12.177l98.145,22.638a10.165,10.165,0,0,0,12.177-7.611l16.564-71.812.227.052a10.165,10.165,0,0,0,12.177-7.611L575.9,769.28A10.164,10.164,0,0,0,568.29,757.1m-38.457-30.419a22.735,22.735,0,0,1,14.174-1.523,12.566,12.566,0,0,1,7,3.919,5.629,5.629,0,0,1,1.271,5.03c-.671,2.906-3.434,5.73-7.392,7.552-4.956,2.283-18.816,2.52-29.649,2.08,4.223-6.977,10.118-15,14.6-17.058M474.371,716.14a5.635,5.635,0,0,1,3.346-3.965h0a12.567,12.567,0,0,1,8-.457,22.751,22.751,0,0,1,12.078,7.578c3.122,3.815,4.91,13.607,5.652,21.728-9.933-4.35-22.289-10.634-25.744-14.856-2.761-3.372-4.007-7.12-3.338-10.027m-31.934,39.01,3.647-15.814a1.581,1.581,0,0,1,1.9-1.185l55.014,12.69-4.358,18.893-55.014-12.69a1.58,1.58,0,0,1-1.185-1.893m-8.728,84.038,16.564-71.81,46.436,10.71-16.919,73.35-44.9-10.355a1.583,1.583,0,0,1-1.185-1.895m101.225,23.349a1.583,1.583,0,0,1-1.895,1.184l-44.9-10.356,16.919-73.349,46.435,10.71Zm28.967-79.37a1.582,1.582,0,0,1-1.895,1.184l-55.016-12.69,4.358-18.894,55.016,12.691a1.581,1.581,0,0,1,1.184,1.895Z" transform="translate(-336.576 97.831)" fill="#e1251b"/>
            <path id="Trazado_23255" data-name="Trazado 23255" d="M639.1,741.007l-26.258,2.258a26.171,26.171,0,0,0,5.045-3.446c5.222-4.807,7.935-10.822,7.446-16.5a14.181,14.181,0,0,0-6.654-10.87c-8.5-5.47-22.26-3.22-31.334,5.128-4.409,4.057-7.547,11.995-9.6,19-3.218-6.556-7.666-13.841-12.7-17.085-10.367-6.68-24.313-6.547-31.748.3a14.18,14.18,0,0,0-4.7,11.847c.489,5.681,4.191,11.144,10.157,14.989a26.168,26.168,0,0,0,5.559,2.534l-26.255,2.257a10.166,10.166,0,0,0-9.247,10.988l1.391,16.17a10.164,10.164,0,0,0,10.987,9.246l.228-.019,6.316,73.425a10.165,10.165,0,0,0,10.987,9.246l100.352-8.631a10.165,10.165,0,0,0,9.247-10.987L642,777.43l.231-.021a10.164,10.164,0,0,0,9.247-10.986l-1.39-16.17a10.166,10.166,0,0,0-10.988-9.247" transform="translate(-318.76 99.263)" fill="#fff"/>
            <path id="Trazado_23256" data-name="Trazado 23256" d="M639.1,741.007l-26.258,2.258a26.071,26.071,0,0,0,5.043-3.445c5.222-4.807,7.936-10.823,7.447-16.5a14.182,14.182,0,0,0-6.654-10.87c-8.5-5.471-22.26-3.221-31.335,5.128-4.408,4.057-7.546,11.995-9.6,19-3.218-6.556-7.667-13.842-12.7-17.086-10.367-6.68-24.313-6.547-31.748.3a14.179,14.179,0,0,0-4.7,11.847c.489,5.68,4.192,11.144,10.158,14.988a26.032,26.032,0,0,0,5.558,2.534l-26.255,2.258a10.165,10.165,0,0,0-9.246,10.987l1.39,16.171a10.165,10.165,0,0,0,10.988,9.245l.228-.019,6.316,73.426a10.165,10.165,0,0,0,10.987,9.246l100.352-8.631a10.166,10.166,0,0,0,9.247-10.987L642,777.43l.232-.019a10.166,10.166,0,0,0,9.247-10.987l-1.391-16.17a10.166,10.166,0,0,0-10.987-9.247M593.15,723.885a22.741,22.741,0,0,1,13.02-5.808,12.568,12.568,0,0,1,7.862,1.578,5.628,5.628,0,0,1,2.756,4.4c.256,2.973-1.505,6.509-4.712,9.458-4.015,3.7-17.129,8.184-27.574,11.095,1.874-7.937,5.018-17.381,8.648-20.719M537.132,730.9a5.632,5.632,0,0,1,1.966-4.8h0a12.569,12.569,0,0,1,7.477-2.9,22.756,22.756,0,0,1,13.823,3.5c4.143,2.671,8.856,11.438,12.059,18.939-10.789-1.084-24.479-3.266-29.065-6.222-3.663-2.359-6-5.543-6.259-8.515m-18.4,46.938-1.39-16.17a1.582,1.582,0,0,1,1.439-1.71l56.251-4.838,1.662,19.318-56.251,4.838a1.583,1.583,0,0,1-1.71-1.439m17.532,82.651-6.316-73.426,47.48-4.083,6.45,75-45.906,3.948a1.581,1.581,0,0,1-1.709-1.438m103.5-8.9a1.583,1.583,0,0,1-1.44,1.709l-45.9,3.948-6.45-75,47.478-4.084Zm3.163-84.432a1.581,1.581,0,0,1-1.44,1.709l-56.252,4.838-1.662-19.318,56.252-4.838a1.582,1.582,0,0,1,1.71,1.44Z" transform="translate(-318.76 99.263)" fill="#e1251b"/>
            <path id="Trazado_23257" data-name="Trazado 23257" d="M741.317,740.579l-26.094-3.7a26.136,26.136,0,0,0,5.69-2.225c6.169-3.51,10.166-8.761,10.966-14.407a14.187,14.187,0,0,0-4.04-12.087c-7.054-7.242-20.967-8.142-31.687-2.046-5.207,2.963-10.049,9.992-13.624,16.361-1.663-7.112-4.359-15.21-8.538-19.5-8.6-8.839-22.22-11.844-31-6.846a14.177,14.177,0,0,0-7.245,10.486c-.8,5.646,1.579,11.8,6.529,16.889a26.064,26.064,0,0,0,4.846,3.719l-26.09-3.7a10.165,10.165,0,0,0-11.48,8.628l-2.279,16.069a10.167,10.167,0,0,0,8.629,11.479l.227.031-10.35,72.966a10.166,10.166,0,0,0,8.629,11.479l99.724,14.144a10.165,10.165,0,0,0,11.48-8.626l10.349-72.966.23.033a10.165,10.165,0,0,0,11.479-8.628l2.279-16.068a10.165,10.165,0,0,0-8.628-11.48" transform="translate(-298.126 95.91)" fill="#fff"/>
            <path id="Trazado_23258" data-name="Trazado 23258" d="M741.317,740.578l-26.094-3.7a26.1,26.1,0,0,0,5.69-2.223c6.168-3.51,10.164-8.762,10.965-14.407a14.181,14.181,0,0,0-4.04-12.088c-7.053-7.241-20.967-8.141-31.685-2.045-5.207,2.962-10.049,9.991-13.624,16.36-1.663-7.111-4.36-15.21-8.538-19.5-8.6-8.839-22.22-11.844-31-6.846a14.181,14.181,0,0,0-7.244,10.487c-.8,5.646,1.578,11.8,6.528,16.889a26.13,26.13,0,0,0,4.847,3.718l-26.091-3.7a10.166,10.166,0,0,0-11.479,8.628l-2.279,16.069a10.165,10.165,0,0,0,8.628,11.479l.227.033-10.349,72.966a10.167,10.167,0,0,0,8.628,11.479l99.725,14.144a10.165,10.165,0,0,0,11.479-8.628l10.35-72.966.229.033a10.166,10.166,0,0,0,11.48-8.626l2.279-16.069a10.167,10.167,0,0,0-8.628-11.48m-40.924-27.011a22.755,22.755,0,0,1,13.994-2.733,12.573,12.573,0,0,1,7.305,3.305,5.626,5.626,0,0,1,1.7,4.9c-.418,2.953-2.929,6-6.717,8.157-4.743,2.7-18.53,4.124-29.361,4.613,3.611-7.313,8.8-15.808,13.083-18.245m-56.161-5.752a5.634,5.634,0,0,1,2.995-4.238h0a12.576,12.576,0,0,1,7.936-1.141,22.755,22.755,0,0,1,12.684,6.516c3.437,3.533,6.057,13.136,7.493,21.164-10.269-3.482-23.118-8.686-26.923-12.6-3.04-3.122-4.6-6.75-4.185-9.7m-28.474,41.6,2.279-16.069a1.582,1.582,0,0,1,1.787-1.343l55.9,7.929L673,759.133,617.1,751.2a1.581,1.581,0,0,1-1.343-1.785M614.264,833.9l10.349-72.966,47.183,6.693-10.571,74.53-45.618-6.47a1.582,1.582,0,0,1-1.343-1.787m102.853,14.589a1.581,1.581,0,0,1-1.785,1.341l-45.617-6.47,10.571-74.531,47.182,6.693Zm22.06-81.561a1.582,1.582,0,0,1-1.787,1.342l-55.9-7.929,2.722-19.2,55.9,7.929a1.583,1.583,0,0,1,1.343,1.787Z" transform="translate(-298.126 95.909)" fill="#e1251b"/>
            <path id="Trazado_23259" data-name="Trazado 23259" d="M300.773,743.874l-26.094-3.7a26.131,26.131,0,0,0,5.69-2.225c6.169-3.51,10.166-8.761,10.966-14.407a14.186,14.186,0,0,0-4.04-12.087c-7.054-7.242-20.967-8.142-31.687-2.046-5.207,2.963-10.049,9.992-13.624,16.361-1.663-7.111-4.359-15.21-8.538-19.5-8.6-8.839-22.22-11.844-31-6.846a14.177,14.177,0,0,0-7.245,10.487c-.8,5.645,1.579,11.8,6.529,16.888a26.061,26.061,0,0,0,4.846,3.719l-26.09-3.7A10.166,10.166,0,0,0,169,735.441l-2.279,16.069a10.167,10.167,0,0,0,8.629,11.479l.227.032-10.35,72.966a10.166,10.166,0,0,0,8.629,11.479l99.723,14.144a10.165,10.165,0,0,0,11.48-8.626l10.349-72.966.23.033a10.165,10.165,0,0,0,11.479-8.628l2.279-16.068a10.165,10.165,0,0,0-8.628-11.48" transform="translate(-391.93 96.611)" fill="#fff"/>
            <path id="Trazado_23260" data-name="Trazado 23260" d="M300.773,743.874l-26.094-3.7a26.1,26.1,0,0,0,5.69-2.223c6.168-3.51,10.164-8.762,10.965-14.407a14.18,14.18,0,0,0-4.04-12.088c-7.053-7.241-20.967-8.141-31.685-2.045-5.207,2.962-10.049,9.992-13.624,16.36-1.663-7.111-4.36-15.21-8.538-19.5-8.6-8.839-22.22-11.844-31-6.846a14.181,14.181,0,0,0-7.244,10.487c-.8,5.645,1.578,11.8,6.528,16.889a26.125,26.125,0,0,0,4.847,3.718l-26.091-3.7A10.166,10.166,0,0,0,169,735.442l-2.279,16.068a10.165,10.165,0,0,0,8.628,11.479l.227.033-10.349,72.966a10.164,10.164,0,0,0,8.628,11.478l99.725,14.145a10.165,10.165,0,0,0,11.479-8.628l10.35-72.966.229.033a10.166,10.166,0,0,0,11.48-8.626l2.279-16.069a10.167,10.167,0,0,0-8.628-11.48m-40.924-27.011a22.755,22.755,0,0,1,13.994-2.733,12.574,12.574,0,0,1,7.305,3.305,5.626,5.626,0,0,1,1.7,4.9c-.418,2.953-2.929,6-6.717,8.157-4.743,2.7-18.53,4.124-29.361,4.613,3.611-7.311,8.8-15.808,13.083-18.245m-56.161-5.752a5.634,5.634,0,0,1,2.995-4.238h0a12.575,12.575,0,0,1,7.936-1.141,22.759,22.759,0,0,1,12.684,6.516c3.437,3.533,6.057,13.136,7.493,21.164-10.269-3.482-23.118-8.686-26.923-12.6-3.04-3.122-4.6-6.75-4.185-9.7m-28.474,41.6,2.279-16.069a1.582,1.582,0,0,1,1.787-1.343l55.9,7.929-2.722,19.2-55.9-7.929a1.58,1.58,0,0,1-1.343-1.785m-1.494,84.477,10.349-72.966,47.183,6.693-10.571,74.53-45.618-6.47a1.582,1.582,0,0,1-1.343-1.787M276.573,851.78a1.582,1.582,0,0,1-1.787,1.342l-45.616-6.47,10.571-74.531,47.182,6.693Zm22.06-81.561a1.582,1.582,0,0,1-1.787,1.341l-55.9-7.929,2.722-19.2,55.9,7.929a1.583,1.583,0,0,1,1.343,1.787Z" transform="translate(-391.93 96.611)" fill="#e1251b"/>
            <path id="Trazado_23261" data-name="Trazado 23261" d="M802.79,771.769l-26.257,2.259a26.183,26.183,0,0,0,5.045-3.446c5.222-4.807,7.935-10.822,7.446-16.5a14.18,14.18,0,0,0-6.654-10.87c-8.5-5.47-22.26-3.222-31.333,5.128-4.409,4.057-7.547,11.995-9.6,19-3.218-6.556-7.666-13.841-12.7-17.085-10.367-6.68-24.313-6.547-31.748.3a14.18,14.18,0,0,0-4.7,11.847c.488,5.681,4.191,11.144,10.157,14.989A26.173,26.173,0,0,0,708,779.922l-26.255,2.257a10.166,10.166,0,0,0-9.247,10.988l1.391,16.17a10.164,10.164,0,0,0,10.987,9.246l.228-.019,6.316,73.425a10.165,10.165,0,0,0,10.987,9.246L802.757,892.6A10.165,10.165,0,0,0,812,881.616l-6.315-73.425.23-.021a10.164,10.164,0,0,0,9.247-10.986l-1.39-16.169a10.166,10.166,0,0,0-10.988-9.247" transform="translate(-283.905 105.813)" fill="#fff"/>
            <path id="Trazado_23262" data-name="Trazado 23262" d="M802.791,771.769l-26.258,2.257a26.116,26.116,0,0,0,5.045-3.445c5.221-4.807,7.935-10.823,7.446-16.5a14.181,14.181,0,0,0-6.654-10.87c-8.5-5.472-22.26-3.222-31.335,5.128-4.408,4.057-7.546,11.995-9.6,19-3.218-6.556-7.667-13.842-12.7-17.087-10.367-6.68-24.313-6.547-31.748.3a14.181,14.181,0,0,0-4.7,11.847c.488,5.681,4.191,11.146,10.157,14.989A26.038,26.038,0,0,0,708,779.921l-26.255,2.258a10.166,10.166,0,0,0-9.246,10.988l1.39,16.17a10.166,10.166,0,0,0,10.988,9.245l.228-.019,6.316,73.426a10.165,10.165,0,0,0,10.987,9.246L802.758,892.6a10.165,10.165,0,0,0,9.247-10.987l-6.316-73.426.232-.019a10.165,10.165,0,0,0,9.247-10.987l-1.391-16.17a10.165,10.165,0,0,0-10.987-9.246m-45.947-17.123a22.741,22.741,0,0,1,13.021-5.807,12.565,12.565,0,0,1,7.861,1.578,5.625,5.625,0,0,1,2.756,4.4c.256,2.973-1.505,6.509-4.712,9.458-4.015,3.7-17.129,8.184-27.573,11.095,1.874-7.937,5.019-17.381,8.648-20.719m-56.018,7.018a5.632,5.632,0,0,1,1.966-4.8h0a12.57,12.57,0,0,1,7.476-2.9,22.756,22.756,0,0,1,13.823,3.5c4.143,2.671,8.856,11.439,12.059,18.939-10.789-1.084-24.479-3.266-29.065-6.222-3.663-2.359-6-5.543-6.259-8.515M682.43,808.6l-1.39-16.17a1.582,1.582,0,0,1,1.438-1.71l56.251-4.838,1.662,19.318-56.251,4.837a1.582,1.582,0,0,1-1.71-1.437m17.532,82.651-6.316-73.426,47.48-4.083,6.45,75-45.9,3.948a1.582,1.582,0,0,1-1.71-1.439m103.5-8.9a1.583,1.583,0,0,1-1.44,1.709l-45.9,3.948-6.45-75,47.478-4.084Zm3.163-84.432a1.582,1.582,0,0,1-1.44,1.709l-56.252,4.838-1.662-19.318,56.252-4.838a1.583,1.583,0,0,1,1.71,1.44Z" transform="translate(-283.905 105.813)" fill="#e1251b"/>
            <path id="Trazado_23263" data-name="Trazado 23263" d="M905.01,771.34l-26.094-3.7a26.136,26.136,0,0,0,5.69-2.224c6.169-3.51,10.166-8.761,10.966-14.407a14.186,14.186,0,0,0-4.04-12.087c-7.054-7.242-20.967-8.142-31.687-2.046-5.207,2.963-10.049,9.992-13.624,16.361-1.663-7.112-4.359-15.21-8.538-19.5-8.6-8.839-22.22-11.844-31-6.846a14.177,14.177,0,0,0-7.245,10.487c-.8,5.645,1.579,11.8,6.529,16.888a26.066,26.066,0,0,0,4.846,3.719l-26.09-3.7a10.166,10.166,0,0,0-11.48,8.628l-2.279,16.069a10.166,10.166,0,0,0,8.629,11.479l.227.032-10.35,72.966a10.166,10.166,0,0,0,8.629,11.479l99.723,14.145a10.167,10.167,0,0,0,11.48-8.628l10.349-72.966.23.033a10.165,10.165,0,0,0,11.479-8.628l2.279-16.068a10.165,10.165,0,0,0-8.628-11.48" transform="translate(-263.27 102.46)" fill="#fff"/>
            <path id="Trazado_23264" data-name="Trazado 23264" d="M905.011,771.339l-26.094-3.7a26.094,26.094,0,0,0,5.69-2.223c6.168-3.51,10.164-8.762,10.965-14.407a14.184,14.184,0,0,0-4.04-12.088c-7.053-7.241-20.967-8.141-31.685-2.045-5.207,2.962-10.049,9.992-13.624,16.36-1.663-7.111-4.361-15.21-8.538-19.5-8.6-8.839-22.22-11.844-31-6.846a14.185,14.185,0,0,0-7.245,10.487c-.8,5.645,1.579,11.8,6.529,16.889a26.122,26.122,0,0,0,4.847,3.718l-26.091-3.7a10.165,10.165,0,0,0-11.479,8.629l-2.279,16.068a10.165,10.165,0,0,0,8.628,11.479l.227.033-10.349,72.966a10.165,10.165,0,0,0,8.628,11.478l99.725,14.145a10.165,10.165,0,0,0,11.479-8.628l10.35-72.966.229.033a10.165,10.165,0,0,0,11.48-8.626l2.279-16.069a10.167,10.167,0,0,0-8.628-11.48m-40.924-27.011a22.754,22.754,0,0,1,13.994-2.733,12.572,12.572,0,0,1,7.305,3.305,5.626,5.626,0,0,1,1.7,4.9c-.418,2.953-2.929,6-6.717,8.158-4.743,2.7-18.53,4.123-29.361,4.612,3.611-7.313,8.8-15.808,13.083-18.245m-56.161-5.752a5.635,5.635,0,0,1,2.995-4.238h0a12.575,12.575,0,0,1,7.936-1.141,22.754,22.754,0,0,1,12.684,6.516c3.438,3.533,6.057,13.136,7.494,21.165-10.269-3.482-23.118-8.686-26.923-12.6-3.04-3.122-4.6-6.75-4.185-9.7m-28.474,41.6,2.279-16.069a1.581,1.581,0,0,1,1.787-1.343l55.9,7.929-2.722,19.2-55.9-7.929a1.581,1.581,0,0,1-1.343-1.785m-1.494,84.477,10.349-72.966,47.183,6.693-10.571,74.53-45.618-6.47a1.582,1.582,0,0,1-1.343-1.787m102.853,14.589a1.582,1.582,0,0,1-1.785,1.342l-45.617-6.47,10.571-74.531,47.182,6.693Zm22.06-81.561a1.582,1.582,0,0,1-1.787,1.342l-55.9-7.928,2.722-19.2,55.9,7.929a1.582,1.582,0,0,1,1.343,1.786Z" transform="translate(-263.27 102.459)" fill="#e1251b"/>
            <path id="Trazado_23265" data-name="Trazado 23265" d="M380.972,771.34l-26.094-3.7a26.134,26.134,0,0,0,5.69-2.224c6.169-3.51,10.166-8.761,10.966-14.407a14.186,14.186,0,0,0-4.04-12.087c-7.054-7.242-20.967-8.142-31.687-2.046-5.207,2.963-10.049,9.992-13.624,16.361-1.663-7.112-4.359-15.21-8.538-19.5-8.6-8.839-22.22-11.844-31-6.846a14.177,14.177,0,0,0-7.245,10.487c-.8,5.645,1.579,11.8,6.529,16.888a26.067,26.067,0,0,0,4.846,3.719l-26.09-3.7a10.166,10.166,0,0,0-11.48,8.628l-2.279,16.069a10.167,10.167,0,0,0,8.629,11.479l.227.032-10.35,72.966a10.166,10.166,0,0,0,8.629,11.479l99.723,14.145a10.167,10.167,0,0,0,11.48-8.628l10.349-72.966.23.033a10.165,10.165,0,0,0,11.479-8.628l2.279-16.068a10.165,10.165,0,0,0-8.628-11.48" transform="translate(-374.854 102.46)" fill="#fff"/>
            <path id="Trazado_23266" data-name="Trazado 23266" d="M380.971,771.339l-26.093-3.7a26.094,26.094,0,0,0,5.69-2.223c6.168-3.51,10.164-8.762,10.965-14.407a14.184,14.184,0,0,0-4.04-12.088c-7.053-7.241-20.967-8.141-31.685-2.045-5.207,2.962-10.049,9.992-13.624,16.36-1.663-7.111-4.361-15.21-8.539-19.5-8.6-8.839-22.218-11.844-31-6.846a14.186,14.186,0,0,0-7.245,10.487c-.8,5.645,1.579,11.8,6.529,16.889a26.121,26.121,0,0,0,4.847,3.718l-26.091-3.7a10.165,10.165,0,0,0-11.479,8.629l-2.279,16.068a10.164,10.164,0,0,0,8.628,11.479l.227.033L245.43,863.453a10.164,10.164,0,0,0,8.628,11.478l99.725,14.145a10.166,10.166,0,0,0,11.479-8.628l10.35-72.966.229.033a10.166,10.166,0,0,0,11.48-8.626L389.6,782.82a10.167,10.167,0,0,0-8.629-11.48m-40.923-27.011a22.754,22.754,0,0,1,13.994-2.733,12.572,12.572,0,0,1,7.306,3.305,5.626,5.626,0,0,1,1.7,4.9c-.418,2.953-2.929,6-6.717,8.158-4.743,2.7-18.53,4.123-29.361,4.612,3.61-7.313,8.8-15.808,13.083-18.245m-56.161-5.752a5.634,5.634,0,0,1,2.995-4.238h0a12.575,12.575,0,0,1,7.936-1.141,22.758,22.758,0,0,1,12.684,6.516c3.437,3.533,6.057,13.136,7.492,21.165-10.267-3.482-23.117-8.686-26.922-12.6-3.04-3.122-4.6-6.75-4.185-9.7m-28.474,41.6,2.278-16.069a1.583,1.583,0,0,1,1.788-1.343l55.9,7.929-2.722,19.2-55.9-7.929a1.581,1.581,0,0,1-1.343-1.785m-1.494,84.477,10.349-72.966,47.183,6.693-10.571,74.53-45.618-6.47a1.582,1.582,0,0,1-1.343-1.787m102.853,14.589a1.583,1.583,0,0,1-1.787,1.342l-45.616-6.47,10.571-74.531,47.182,6.693Zm22.06-81.561a1.582,1.582,0,0,1-1.787,1.342l-55.9-7.928,2.723-19.2,55.9,7.929a1.582,1.582,0,0,1,1.343,1.786Z" transform="translate(-374.854 102.459)" fill="#e1251b"/>
            <path id="Trazado_23267" data-name="Trazado 23267" d="M212.8,756.907H186.442a26.12,26.12,0,0,0,5.321-3c5.615-4.341,8.834-10.1,8.834-15.8a14.184,14.184,0,0,0-5.7-11.4c-8-6.179-21.9-5.117-31.659,2.425-4.74,3.664-8.546,11.3-11.192,18.112-2.644-6.808-6.452-14.447-11.192-18.112-9.757-7.543-23.663-8.607-31.657-2.425a14.182,14.182,0,0,0-5.7,11.4c0,5.7,3.22,11.463,8.835,15.8a26.12,26.12,0,0,0,5.321,3H91.3a10.166,10.166,0,0,0-10.155,10.155v16.229A10.166,10.166,0,0,0,91.3,793.444h.229v73.7A10.167,10.167,0,0,0,101.688,877.3H202.409a10.166,10.166,0,0,0,10.155-10.155v-73.7h.233a10.165,10.165,0,0,0,10.155-10.153V767.062A10.165,10.165,0,0,0,212.8,756.907" transform="translate(-409.812 102.078)" fill="#fff"/>
            <path id="Trazado_23268" data-name="Trazado 23268" d="M212.8,756.907H186.442a26.12,26.12,0,0,0,5.321-3c5.615-4.341,8.834-10.1,8.834-15.8a14.184,14.184,0,0,0-5.7-11.4c-8-6.179-21.9-5.117-31.659,2.425-4.74,3.664-8.546,11.3-11.192,18.112-2.644-6.808-6.452-14.447-11.192-18.112-9.757-7.543-23.663-8.607-31.657-2.425a14.182,14.182,0,0,0-5.7,11.4c0,5.7,3.22,11.463,8.836,15.8a26.075,26.075,0,0,0,5.32,3H91.3a10.166,10.166,0,0,0-10.155,10.155v16.229A10.166,10.166,0,0,0,91.3,793.444h.229v73.7a10.166,10.166,0,0,0,10.155,10.153H202.409a10.165,10.165,0,0,0,10.155-10.153v-73.7h.233a10.165,10.165,0,0,0,10.155-10.153V767.062A10.165,10.165,0,0,0,212.8,756.907m-44.311-21a22.738,22.738,0,0,1,13.47-4.67,12.556,12.556,0,0,1,7.7,2.246,5.624,5.624,0,0,1,2.37,4.615c0,2.983-2.057,6.356-5.505,9.019-4.317,3.338-17.768,6.686-28.423,8.691,2.547-7.747,6.489-16.888,10.391-19.9M112.074,738.1a5.629,5.629,0,0,1,2.369-4.615h0a12.563,12.563,0,0,1,7.7-2.245,22.749,22.749,0,0,1,13.473,4.67c3.9,3.015,7.842,12.155,10.391,19.9-10.657-2-24.109-5.353-28.425-8.691-3.448-2.664-5.505-6.037-5.505-9.019M89.723,783.291V767.062a1.581,1.581,0,0,1,1.58-1.58h56.458V784.87H91.3a1.581,1.581,0,0,1-1.58-1.579m10.384,83.85v-73.7h47.655V868.72H101.688a1.581,1.581,0,0,1-1.58-1.579m103.883,0a1.582,1.582,0,0,1-1.58,1.579H156.336V793.444H203.99Zm10.388-83.85a1.582,1.582,0,0,1-1.58,1.579H156.336V765.481H212.8a1.582,1.582,0,0,1,1.58,1.58Z" transform="translate(-409.812 102.078)" fill="#e1251b"/>
            <path id="Trazado_23269" data-name="Trazado 23269" d="M440.007,805.016l-25.68-5.923a26.2,26.2,0,0,0,5.86-1.728c6.446-2.969,10.878-7.859,12.16-13.415a14.182,14.182,0,0,0-2.99-12.389c-6.407-7.82-20.192-9.908-31.394-4.753-5.441,2.506-10.868,9.093-14.976,15.134-1.047-7.229-3.04-15.529-6.835-20.165-7.811-9.543-21.123-13.7-30.3-9.477a14.179,14.179,0,0,0-8.116,9.827c-1.282,5.556.562,11.893,5.058,17.386a26.087,26.087,0,0,0,4.51,4.119l-25.678-5.923a10.168,10.168,0,0,0-12.178,7.612L305.8,801.136a10.166,10.166,0,0,0,7.614,12.177l.223.051-16.564,71.812a10.163,10.163,0,0,0,7.612,12.175l98.145,22.638a10.165,10.165,0,0,0,12.177-7.611l16.564-71.812.226.052a10.166,10.166,0,0,0,12.178-7.611l3.647-15.814a10.165,10.165,0,0,0-7.612-12.177" transform="translate(-363.892 108.033)" fill="#fff"/>
            <path id="Trazado_23270" data-name="Trazado 23270" d="M440.006,805.017l-25.68-5.924a26.078,26.078,0,0,0,5.86-1.728c6.447-2.968,10.879-7.857,12.16-13.414a14.184,14.184,0,0,0-2.99-12.39c-6.407-7.819-20.192-9.908-31.393-4.753-5.442,2.506-10.869,9.095-14.976,15.134-1.048-7.228-3.041-15.528-6.836-20.164-7.811-9.543-21.122-13.7-30.3-9.478a14.18,14.18,0,0,0-8.117,9.827c-1.281,5.556.562,11.894,5.058,17.386a26.089,26.089,0,0,0,4.51,4.12l-25.678-5.923a10.164,10.164,0,0,0-12.177,7.612L305.8,801.137a10.165,10.165,0,0,0,7.614,12.175l.223.052-16.564,71.81a10.166,10.166,0,0,0,7.612,12.177l98.145,22.638A10.165,10.165,0,0,0,415,912.378l16.564-71.812.227.052a10.165,10.165,0,0,0,12.177-7.611l3.647-15.814a10.164,10.164,0,0,0-7.612-12.177M401.549,774.6a22.735,22.735,0,0,1,14.174-1.523,12.565,12.565,0,0,1,7,3.919,5.629,5.629,0,0,1,1.271,5.03c-.671,2.906-3.434,5.73-7.392,7.552-4.956,2.283-18.816,2.521-29.649,2.08,4.223-6.977,10.118-15,14.6-17.057m-55.462-10.544a5.635,5.635,0,0,1,3.346-3.965h0a12.572,12.572,0,0,1,8.005-.457,22.756,22.756,0,0,1,12.078,7.578c3.122,3.815,4.91,13.607,5.652,21.728-9.933-4.348-22.289-10.634-25.744-14.856-2.761-3.372-4.008-7.12-3.338-10.027m-31.934,39.01L317.8,787.25a1.58,1.58,0,0,1,1.895-1.185l55.015,12.69-4.358,18.893-55.014-12.69a1.58,1.58,0,0,1-1.185-1.893M305.425,887.1l16.564-71.812L368.424,826l-16.919,73.349L306.61,889a1.582,1.582,0,0,1-1.185-1.895M406.65,910.451a1.583,1.583,0,0,1-1.895,1.184l-44.9-10.356,16.919-73.349,46.435,10.71Zm28.967-79.37a1.582,1.582,0,0,1-1.895,1.184l-55.016-12.69,4.358-18.894,55.015,12.691a1.581,1.581,0,0,1,1.185,1.895Z" transform="translate(-363.892 108.033)" fill="#e1251b"/>
            <path id="Trazado_23271" data-name="Trazado 23271" d="M986.813,811.921l-26.258,2.258a26.137,26.137,0,0,0,5.045-3.446c5.222-4.807,7.935-10.822,7.446-16.5a14.183,14.183,0,0,0-6.653-10.87c-8.5-5.47-22.261-3.221-31.335,5.128-4.409,4.057-7.547,11.995-9.6,19-3.219-6.556-7.667-13.841-12.7-17.085-10.367-6.68-24.313-6.547-31.748.3a14.179,14.179,0,0,0-4.7,11.847c.489,5.681,4.191,11.144,10.157,14.989a26.169,26.169,0,0,0,5.559,2.534l-26.255,2.257a10.166,10.166,0,0,0-9.247,10.988l1.391,16.17a10.164,10.164,0,0,0,10.987,9.246l.228-.019,6.316,73.425a10.166,10.166,0,0,0,10.988,9.246l100.351-8.631a10.165,10.165,0,0,0,9.247-10.987l-6.315-73.425.231-.021a10.164,10.164,0,0,0,9.247-10.985l-1.39-16.17a10.166,10.166,0,0,0-10.988-9.247" transform="translate(-244.721 114.363)" fill="#fff"/>
            <path id="Trazado_23272" data-name="Trazado 23272" d="M986.814,811.921l-26.257,2.258a26.073,26.073,0,0,0,5.043-3.445c5.222-4.807,7.936-10.823,7.447-16.5a14.182,14.182,0,0,0-6.654-10.87c-8.5-5.471-22.26-3.221-31.335,5.128-4.408,4.057-7.546,11.995-9.6,19-3.219-6.556-7.667-13.842-12.7-17.086-10.367-6.68-24.313-6.547-31.748.3a14.182,14.182,0,0,0-4.7,11.847c.489,5.681,4.192,11.146,10.158,14.989a26.029,26.029,0,0,0,5.558,2.534l-26.255,2.258a10.166,10.166,0,0,0-9.246,10.988l1.39,16.169a10.166,10.166,0,0,0,10.988,9.245l.228-.019,6.316,73.426a10.165,10.165,0,0,0,10.987,9.246l100.352-8.631a10.166,10.166,0,0,0,9.247-10.987l-6.316-73.426.232-.019a10.166,10.166,0,0,0,9.247-10.987L997.8,821.168a10.166,10.166,0,0,0-10.987-9.247M940.865,794.8a22.747,22.747,0,0,1,13.021-5.808,12.567,12.567,0,0,1,7.862,1.578,5.628,5.628,0,0,1,2.756,4.4c.256,2.973-1.505,6.509-4.712,9.458-4.015,3.7-17.129,8.184-27.574,11.095,1.874-7.937,5.018-17.381,8.647-20.719m-56.017,7.018a5.632,5.632,0,0,1,1.966-4.8h0a12.566,12.566,0,0,1,7.477-2.9,22.757,22.757,0,0,1,13.823,3.5c4.143,2.671,8.856,11.438,12.058,18.939-10.788-1.084-24.478-3.266-29.064-6.222-3.663-2.359-6-5.543-6.259-8.515m-18.4,46.938-1.39-16.17a1.582,1.582,0,0,1,1.438-1.71l56.251-4.838,1.662,19.318-56.251,4.838a1.583,1.583,0,0,1-1.71-1.439m17.532,82.651-6.316-73.426,47.48-4.083,6.45,75-45.906,3.948a1.582,1.582,0,0,1-1.709-1.439m103.5-8.9a1.583,1.583,0,0,1-1.44,1.709l-45.9,3.948-6.45-75,47.478-4.084Zm3.163-84.432a1.582,1.582,0,0,1-1.44,1.709l-56.252,4.838L931.3,825.3l56.252-4.838a1.583,1.583,0,0,1,1.71,1.44Z" transform="translate(-244.721 114.363)" fill="#e1251b"/>
            <path id="Trazado_23273" data-name="Trazado 23273" d="M727.033,809.492l-26.094-3.7a26.078,26.078,0,0,0,5.69-2.224c6.169-3.509,10.166-8.761,10.966-14.407a14.186,14.186,0,0,0-4.04-12.087c-7.054-7.242-20.967-8.142-31.687-2.046-5.207,2.963-10.049,9.992-13.624,16.361-1.663-7.111-4.359-15.21-8.538-19.5-8.6-8.839-22.22-11.844-31-6.846a14.177,14.177,0,0,0-7.245,10.487c-.8,5.645,1.579,11.8,6.529,16.888a26.07,26.07,0,0,0,4.846,3.719l-26.09-3.7a10.166,10.166,0,0,0-11.48,8.628l-2.279,16.069a10.167,10.167,0,0,0,8.629,11.479l.227.032L591.491,901.6a10.166,10.166,0,0,0,8.629,11.479l99.723,14.145a10.167,10.167,0,0,0,11.48-8.628l10.349-72.966.23.033a10.165,10.165,0,0,0,11.479-8.628l2.279-16.068a10.165,10.165,0,0,0-8.628-11.48" transform="translate(-301.167 110.583)" fill="#fff"/>
            <path id="Trazado_23274" data-name="Trazado 23274" d="M727.033,809.492l-26.093-3.7a26.1,26.1,0,0,0,5.69-2.223c6.168-3.51,10.164-8.762,10.965-14.407a14.184,14.184,0,0,0-4.04-12.088c-7.053-7.241-20.967-8.141-31.685-2.045-5.207,2.962-10.049,9.992-13.624,16.361-1.663-7.113-4.361-15.211-8.539-19.505-8.6-8.839-22.218-11.844-31-6.846a14.186,14.186,0,0,0-7.245,10.487c-.8,5.646,1.579,11.8,6.529,16.889a26.131,26.131,0,0,0,4.847,3.718l-26.091-3.7a10.165,10.165,0,0,0-11.479,8.629l-2.279,16.068a10.164,10.164,0,0,0,8.628,11.479l.227.033-10.349,72.966a10.166,10.166,0,0,0,8.628,11.479l99.725,14.144a10.166,10.166,0,0,0,11.479-8.628l10.35-72.966.229.033a10.166,10.166,0,0,0,11.48-8.626l2.279-16.069a10.167,10.167,0,0,0-8.629-11.48M686.11,782.482a22.756,22.756,0,0,1,13.994-2.733,12.567,12.567,0,0,1,7.3,3.305,5.624,5.624,0,0,1,1.7,4.9c-.418,2.953-2.929,6-6.717,8.158-4.743,2.7-18.53,4.123-29.361,4.612,3.611-7.312,8.8-15.808,13.083-18.245m-56.161-5.752a5.634,5.634,0,0,1,2.995-4.238h0a12.575,12.575,0,0,1,7.936-1.141,22.757,22.757,0,0,1,12.684,6.516C657,781.4,659.621,791,661.056,799.03c-10.267-3.482-23.117-8.686-26.922-12.6-3.04-3.122-4.6-6.75-4.185-9.7m-28.474,41.6,2.278-16.069a1.583,1.583,0,0,1,1.788-1.343l55.9,7.929-2.722,19.2-55.9-7.929a1.58,1.58,0,0,1-1.343-1.785m-1.494,84.477,10.349-72.966,47.183,6.693-10.571,74.53-45.618-6.47a1.582,1.582,0,0,1-1.343-1.787M702.834,917.4a1.582,1.582,0,0,1-1.787,1.341l-45.616-6.47L666,837.739l47.182,6.693Zm22.06-81.561a1.582,1.582,0,0,1-1.787,1.342l-55.9-7.928,2.723-19.2,55.9,7.928a1.583,1.583,0,0,1,1.343,1.787Z" transform="translate(-301.167 110.583)" fill="#e1251b"/>
            <path id="Trazado_23275" data-name="Trazado 23275" d="M604.507,773.682l-26.258,2.258a26.1,26.1,0,0,0,5.045-3.446c5.222-4.807,7.935-10.822,7.446-16.5a14.182,14.182,0,0,0-6.653-10.87c-8.5-5.47-22.261-3.22-31.335,5.128-4.409,4.057-7.547,11.995-9.6,19.005-3.219-6.557-7.667-13.842-12.7-17.087-10.367-6.68-24.313-6.547-31.747.3a14.177,14.177,0,0,0-4.7,11.847c.489,5.681,4.191,11.144,10.157,14.989a26.168,26.168,0,0,0,5.559,2.534l-26.255,2.257a10.166,10.166,0,0,0-9.247,10.988L475.6,811.25a10.164,10.164,0,0,0,10.987,9.246l.228-.019,6.316,73.425a10.166,10.166,0,0,0,10.988,9.246l100.35-8.631a10.164,10.164,0,0,0,9.247-10.986L607.407,810.1l.23-.021a10.164,10.164,0,0,0,9.247-10.986l-1.39-16.169a10.166,10.166,0,0,0-10.988-9.247" transform="translate(-326.125 106.22)" fill="#fff"/>
            <path id="Trazado_23276" data-name="Trazado 23276" d="M604.507,773.682l-26.258,2.258a26.111,26.111,0,0,0,5.045-3.445c5.22-4.807,7.935-10.823,7.446-16.5a14.181,14.181,0,0,0-6.654-10.87c-8.5-5.472-22.26-3.222-31.335,5.128-4.408,4.057-7.546,11.995-9.6,19-3.218-6.556-7.667-13.842-12.7-17.087-10.367-6.68-24.313-6.547-31.748.3a14.182,14.182,0,0,0-4.7,11.847c.488,5.681,4.191,11.146,10.157,14.989a26.032,26.032,0,0,0,5.558,2.534l-26.255,2.259a10.166,10.166,0,0,0-9.246,10.988l1.39,16.17a10.166,10.166,0,0,0,10.988,9.245l.228-.019,6.316,73.426a10.165,10.165,0,0,0,10.987,9.246l100.352-8.631a10.166,10.166,0,0,0,9.247-10.987L607.406,810.1l.232-.019a10.165,10.165,0,0,0,9.247-10.987l-1.391-16.169a10.166,10.166,0,0,0-10.987-9.247M558.56,756.56a22.742,22.742,0,0,1,13.021-5.808,12.566,12.566,0,0,1,7.861,1.578,5.625,5.625,0,0,1,2.756,4.4c.256,2.973-1.505,6.509-4.712,9.458-4.014,3.7-17.129,8.184-27.573,11.095,1.874-7.937,5.019-17.381,8.648-20.719m-56.018,7.018a5.632,5.632,0,0,1,1.966-4.8h0a12.568,12.568,0,0,1,7.477-2.9,22.757,22.757,0,0,1,13.823,3.5c4.143,2.671,8.856,11.439,12.059,18.939-10.789-1.084-24.479-3.266-29.065-6.222-3.663-2.359-6-5.543-6.259-8.515m-18.4,46.938-1.39-16.17a1.582,1.582,0,0,1,1.439-1.71l56.251-4.839,1.662,19.318-56.251,4.837a1.582,1.582,0,0,1-1.71-1.437m17.532,82.651-6.316-73.426,47.48-4.083,6.45,75-45.906,3.948a1.582,1.582,0,0,1-1.709-1.439m103.5-8.9a1.582,1.582,0,0,1-1.44,1.709l-45.9,3.948-6.45-75,47.478-4.084Zm3.163-84.432a1.581,1.581,0,0,1-1.44,1.709l-56.252,4.838-1.662-19.318,56.253-4.839a1.582,1.582,0,0,1,1.709,1.44Z" transform="translate(-326.125 106.221)" fill="#e1251b"/>
            <path id="Trazado_23277" data-name="Trazado 23277" d="M903.727,821.253l-26.094-3.7a26.079,26.079,0,0,0,5.69-2.224c6.169-3.509,10.166-8.761,10.966-14.407a14.186,14.186,0,0,0-4.04-12.087c-7.054-7.242-20.967-8.142-31.687-2.046-5.207,2.963-10.049,9.992-13.624,16.361-1.663-7.111-4.359-15.21-8.538-19.5-8.6-8.839-22.22-11.844-31-6.846a14.177,14.177,0,0,0-7.245,10.487c-.8,5.645,1.579,11.8,6.529,16.888a26.062,26.062,0,0,0,4.846,3.719l-26.09-3.7a10.166,10.166,0,0,0-11.48,8.628l-2.279,16.069a10.167,10.167,0,0,0,8.629,11.479l.227.032-10.35,72.966a10.166,10.166,0,0,0,8.629,11.479l99.723,14.145a10.166,10.166,0,0,0,11.48-8.628L898.366,857.4l.23.033a10.165,10.165,0,0,0,11.479-8.628l2.279-16.068a10.165,10.165,0,0,0-8.628-11.48" transform="translate(-263.544 113.088)" fill="#fff"/>
            <path id="Trazado_23278" data-name="Trazado 23278" d="M903.727,821.253l-26.094-3.7a26.1,26.1,0,0,0,5.69-2.223c6.168-3.51,10.164-8.762,10.965-14.407a14.184,14.184,0,0,0-4.04-12.088c-7.053-7.241-20.967-8.141-31.685-2.045-5.207,2.962-10.049,9.992-13.624,16.361-1.663-7.113-4.36-15.211-8.538-19.505-8.6-8.839-22.22-11.844-31-6.846a14.186,14.186,0,0,0-7.245,10.487c-.8,5.645,1.579,11.8,6.529,16.889a26.125,26.125,0,0,0,4.847,3.718l-26.091-3.7a10.165,10.165,0,0,0-11.479,8.629l-2.279,16.068a10.165,10.165,0,0,0,8.628,11.479l.227.033-10.349,72.966a10.164,10.164,0,0,0,8.628,11.478l99.725,14.145a10.165,10.165,0,0,0,11.479-8.628l10.35-72.966.229.033a10.166,10.166,0,0,0,11.48-8.626l2.279-16.069a10.167,10.167,0,0,0-8.628-11.48M862.8,794.243A22.754,22.754,0,0,1,876.8,791.51a12.573,12.573,0,0,1,7.306,3.305,5.626,5.626,0,0,1,1.7,4.9c-.418,2.953-2.929,6-6.717,8.158-4.743,2.7-18.53,4.123-29.361,4.612,3.611-7.312,8.8-15.808,13.083-18.245m-56.161-5.752a5.634,5.634,0,0,1,2.995-4.238h0a12.575,12.575,0,0,1,7.936-1.141,22.753,22.753,0,0,1,12.684,6.516c3.438,3.533,6.057,13.136,7.494,21.164-10.269-3.482-23.119-8.686-26.923-12.6-3.04-3.122-4.6-6.75-4.185-9.7m-28.474,41.6,2.279-16.069a1.582,1.582,0,0,1,1.787-1.343l55.9,7.929-2.722,19.2-55.9-7.929a1.581,1.581,0,0,1-1.343-1.785m-1.494,84.477L787.023,841.6l47.183,6.693-10.571,74.53-45.618-6.47a1.582,1.582,0,0,1-1.343-1.787m102.853,14.589a1.581,1.581,0,0,1-1.787,1.341l-45.616-6.47L842.7,849.5l47.182,6.693Zm22.06-81.561a1.582,1.582,0,0,1-1.787,1.342l-55.9-7.928,2.722-19.2,55.9,7.928a1.582,1.582,0,0,1,1.343,1.787Z" transform="translate(-263.544 113.088)" fill="#e1251b"/>
            <path id="Trazado_23279" data-name="Trazado 23279" d="M359.081,839.993H332.726a26.151,26.151,0,0,0,5.321-3c5.615-4.341,8.833-10.1,8.833-15.8a14.183,14.183,0,0,0-5.7-11.4c-8-6.179-21.9-5.116-31.659,2.425-4.739,3.664-8.546,11.3-11.193,18.112-2.643-6.807-6.45-14.447-11.19-18.112-9.757-7.543-23.663-8.607-31.657-2.425a14.182,14.182,0,0,0-5.7,11.4c0,5.7,3.22,11.463,8.836,15.8a26.075,26.075,0,0,0,5.32,3H237.588a10.166,10.166,0,0,0-10.155,10.155v16.229a10.166,10.166,0,0,0,10.155,10.153h.229v73.7a10.167,10.167,0,0,0,10.155,10.153H348.694a10.166,10.166,0,0,0,10.155-10.153v-73.7h.232a10.165,10.165,0,0,0,10.155-10.153V850.148a10.165,10.165,0,0,0-10.155-10.155" transform="translate(-378.664 119.77)" fill="#fff"/>
            <path id="Trazado_23280" data-name="Trazado 23280" d="M359.081,839.993H332.726a26.12,26.12,0,0,0,5.321-3c5.615-4.342,8.834-10.1,8.834-15.8a14.184,14.184,0,0,0-5.7-11.4c-8-6.179-21.9-5.117-31.659,2.425-4.74,3.664-8.546,11.3-11.192,18.112-2.644-6.808-6.452-14.447-11.192-18.112-9.757-7.543-23.663-8.607-31.657-2.425a14.182,14.182,0,0,0-5.7,11.4c0,5.7,3.22,11.462,8.835,15.8a26.121,26.121,0,0,0,5.321,3H237.588a10.166,10.166,0,0,0-10.155,10.155v16.229a10.166,10.166,0,0,0,10.155,10.153h.229v73.7a10.166,10.166,0,0,0,10.155,10.153H348.693a10.165,10.165,0,0,0,10.155-10.153v-73.7h.233a10.165,10.165,0,0,0,10.155-10.153V850.148a10.165,10.165,0,0,0-10.155-10.155M314.77,819a22.739,22.739,0,0,1,13.471-4.67,12.562,12.562,0,0,1,7.7,2.245,5.628,5.628,0,0,1,2.37,4.616c0,2.983-2.057,6.356-5.505,9.019-4.317,3.338-17.768,6.686-28.423,8.691,2.547-7.747,6.489-16.888,10.391-19.9m-56.412,2.192a5.633,5.633,0,0,1,2.369-4.616,12.563,12.563,0,0,1,7.7-2.245A22.745,22.745,0,0,1,281.9,819c3.9,3.015,7.843,12.155,10.392,19.9-10.657-2-24.109-5.353-28.425-8.691-3.448-2.664-5.505-6.037-5.505-9.019m-22.351,45.189V850.148a1.581,1.581,0,0,1,1.58-1.58h56.458v19.389H237.588a1.581,1.581,0,0,1-1.58-1.579m10.384,83.85v-73.7h47.655v75.276H247.972a1.581,1.581,0,0,1-1.58-1.579m103.883,0a1.582,1.582,0,0,1-1.58,1.579H302.62V876.53h47.654Zm10.388-83.85a1.582,1.582,0,0,1-1.58,1.579H302.62V848.567h56.461a1.582,1.582,0,0,1,1.58,1.58Z" transform="translate(-378.664 119.77)" fill="#e1251b"/>
            <path id="Trazado_23281" data-name="Trazado 23281" d="M462.29,849.1l-25.68-5.923a26.161,26.161,0,0,0,5.86-1.729c6.445-2.969,10.878-7.859,12.16-13.415a14.181,14.181,0,0,0-2.99-12.389c-6.407-7.82-20.192-9.908-31.394-4.753-5.441,2.506-10.868,9.095-14.975,15.134-1.048-7.229-3.041-15.528-6.836-20.165-7.811-9.543-21.123-13.7-30.3-9.477a14.178,14.178,0,0,0-8.117,9.827c-1.282,5.556.562,11.893,5.058,17.386a26.084,26.084,0,0,0,4.51,4.119L343.906,821.8a10.168,10.168,0,0,0-12.178,7.612l-3.647,15.814a10.166,10.166,0,0,0,7.614,12.177l.223.051-16.564,71.811a10.165,10.165,0,0,0,7.612,12.177l98.145,22.637a10.165,10.165,0,0,0,12.177-7.611l16.564-71.81.227.052a10.167,10.167,0,0,0,12.177-7.612L469.9,861.28A10.165,10.165,0,0,0,462.29,849.1" transform="translate(-359.147 117.42)" fill="#fff"/>
            <path id="Trazado_23282" data-name="Trazado 23282" d="M462.29,849.1l-25.68-5.923a26.081,26.081,0,0,0,5.86-1.728c6.447-2.968,10.879-7.857,12.16-13.414a14.183,14.183,0,0,0-2.99-12.39c-6.407-7.819-20.192-9.909-31.393-4.754-5.442,2.506-10.869,9.095-14.976,15.134-1.048-7.228-3.041-15.528-6.835-20.164-7.812-9.543-21.123-13.7-30.3-9.478a14.18,14.18,0,0,0-8.117,9.827c-1.281,5.556.562,11.894,5.058,17.386a26.083,26.083,0,0,0,4.51,4.12L343.906,821.8a10.165,10.165,0,0,0-12.177,7.612l-3.647,15.814a10.163,10.163,0,0,0,7.612,12.175l.223.052-16.564,71.81a10.167,10.167,0,0,0,7.612,12.177l98.145,22.638a10.165,10.165,0,0,0,12.177-7.611l16.564-71.812.227.052a10.165,10.165,0,0,0,12.177-7.611L469.9,861.28A10.165,10.165,0,0,0,462.29,849.1m-38.457-30.418a22.739,22.739,0,0,1,14.175-1.523A12.567,12.567,0,0,1,445,821.08a5.629,5.629,0,0,1,1.271,5.03c-.671,2.906-3.434,5.73-7.392,7.552-4.956,2.281-18.816,2.52-29.649,2.08,4.223-6.977,10.118-15,14.6-17.057M368.371,808.14a5.635,5.635,0,0,1,3.346-3.965h0a12.568,12.568,0,0,1,8-.457,22.752,22.752,0,0,1,12.078,7.578c3.122,3.815,4.91,13.607,5.652,21.729-9.933-4.349-22.289-10.634-25.744-14.856-2.761-3.372-4.008-7.12-3.338-10.027m-31.934,39.009,3.647-15.813a1.581,1.581,0,0,1,1.9-1.185l55.014,12.69-4.358,18.892-55.014-12.69a1.58,1.58,0,0,1-1.185-1.895m-8.728,84.039,16.564-71.81,46.436,10.71-16.919,73.349-44.9-10.355a1.583,1.583,0,0,1-1.185-1.895m101.225,23.349a1.583,1.583,0,0,1-1.895,1.184l-44.9-10.356,16.919-73.35,46.435,10.71Zm28.967-79.37a1.582,1.582,0,0,1-1.895,1.184l-55.016-12.69,4.358-18.894,55.016,12.691a1.581,1.581,0,0,1,1.184,1.895Z" transform="translate(-359.147 117.42)" fill="#e1251b"/>
            <path id="Trazado_23283" data-name="Trazado 23283" d="M533.1,833.007l-26.257,2.258a26.173,26.173,0,0,0,5.045-3.446c5.222-4.807,7.935-10.822,7.446-16.5a14.18,14.18,0,0,0-6.654-10.87c-8.5-5.47-22.26-3.22-31.335,5.128-4.408,4.057-7.546,11.995-9.6,19-3.218-6.556-7.666-13.841-12.7-17.085-10.367-6.68-24.313-6.547-31.748.3a14.179,14.179,0,0,0-4.7,11.847c.488,5.681,4.191,11.144,10.157,14.989a26.167,26.167,0,0,0,5.559,2.534l-26.255,2.257a10.166,10.166,0,0,0-9.247,10.988l1.39,16.169a10.165,10.165,0,0,0,10.988,9.246l.228-.019,6.316,73.425a10.164,10.164,0,0,0,10.987,9.246l100.352-8.631a10.165,10.165,0,0,0,9.247-10.987L536,869.43l.232-.021a10.164,10.164,0,0,0,9.247-10.986l-1.39-16.169a10.166,10.166,0,0,0-10.988-9.247" transform="translate(-341.331 118.853)" fill="#fff"/>
            <path id="Trazado_23284" data-name="Trazado 23284" d="M533.1,833.007l-26.257,2.258a26.072,26.072,0,0,0,5.043-3.445c5.222-4.807,7.936-10.823,7.447-16.5a14.181,14.181,0,0,0-6.654-10.87c-8.5-5.472-22.26-3.222-31.335,5.128-4.408,4.057-7.546,11.995-9.6,19-3.219-6.556-7.667-13.842-12.7-17.087-10.367-6.68-24.313-6.547-31.748.3a14.179,14.179,0,0,0-4.7,11.847c.489,5.68,4.192,11.144,10.158,14.988a26.031,26.031,0,0,0,5.558,2.534l-26.255,2.258a10.165,10.165,0,0,0-9.246,10.987l1.39,16.171a10.165,10.165,0,0,0,10.988,9.245l.228-.019,6.316,73.426a10.165,10.165,0,0,0,10.987,9.246l100.352-8.631a10.165,10.165,0,0,0,9.247-10.987L536,869.43l.232-.019a10.166,10.166,0,0,0,9.247-10.987l-1.391-16.169a10.166,10.166,0,0,0-10.987-9.247M487.15,815.885a22.741,22.741,0,0,1,13.02-5.808,12.567,12.567,0,0,1,7.862,1.578,5.628,5.628,0,0,1,2.756,4.4c.256,2.973-1.505,6.509-4.712,9.458-4.015,3.7-17.129,8.184-27.574,11.095,1.874-7.937,5.018-17.381,8.648-20.719M431.132,822.9a5.632,5.632,0,0,1,1.966-4.8h0a12.568,12.568,0,0,1,7.476-2.9,22.757,22.757,0,0,1,13.823,3.5c4.143,2.671,8.856,11.438,12.059,18.939-10.789-1.084-24.479-3.266-29.065-6.222-3.663-2.359-6-5.543-6.259-8.515m-18.4,46.938-1.39-16.169a1.581,1.581,0,0,1,1.439-1.71l56.251-4.838,1.662,19.318-56.251,4.837a1.581,1.581,0,0,1-1.71-1.437m17.532,82.652-6.316-73.426,47.48-4.083,6.45,75-45.906,3.948a1.581,1.581,0,0,1-1.709-1.438m103.5-8.9a1.583,1.583,0,0,1-1.44,1.709l-45.9,3.948-6.45-75,47.478-4.084Zm3.163-84.432a1.581,1.581,0,0,1-1.44,1.709l-56.252,4.838-1.662-19.318,56.252-4.838a1.583,1.583,0,0,1,1.71,1.44Z" transform="translate(-341.331 118.853)" fill="#e1251b"/>
            <path id="Trazado_23285" data-name="Trazado 23285" d="M635.317,832.579l-26.094-3.7a26.073,26.073,0,0,0,5.69-2.225c6.169-3.51,10.166-8.761,10.966-14.407a14.186,14.186,0,0,0-4.04-12.087c-7.054-7.242-20.967-8.142-31.687-2.046-5.207,2.963-10.049,9.992-13.624,16.361-1.663-7.111-4.359-15.21-8.538-19.5-8.6-8.839-22.22-11.844-31-6.846a14.177,14.177,0,0,0-7.245,10.487c-.8,5.645,1.579,11.8,6.529,16.888a26.064,26.064,0,0,0,4.846,3.719l-26.09-3.7a10.166,10.166,0,0,0-11.48,8.628l-2.279,16.069a10.167,10.167,0,0,0,8.629,11.479l.227.031-10.35,72.966a10.166,10.166,0,0,0,8.629,11.479l99.723,14.144a10.165,10.165,0,0,0,11.48-8.626l10.349-72.966.23.033a10.165,10.165,0,0,0,11.479-8.628l2.279-16.068a10.165,10.165,0,0,0-8.628-11.48" transform="translate(-320.696 115.499)" fill="#fff"/>
            <path id="Trazado_23286" data-name="Trazado 23286" d="M635.317,832.578l-26.094-3.7a26.1,26.1,0,0,0,5.69-2.223c6.168-3.51,10.164-8.762,10.965-14.407a14.181,14.181,0,0,0-4.04-12.088c-7.053-7.241-20.967-8.141-31.685-2.045-5.207,2.962-10.049,9.991-13.624,16.36-1.663-7.111-4.36-15.21-8.538-19.5-8.6-8.839-22.22-11.844-31-6.846a14.18,14.18,0,0,0-7.244,10.487c-.8,5.646,1.578,11.8,6.528,16.889a26.128,26.128,0,0,0,4.847,3.718l-26.091-3.7a10.166,10.166,0,0,0-11.479,8.628l-2.279,16.069a10.165,10.165,0,0,0,8.628,11.479l.227.033-10.349,72.966a10.167,10.167,0,0,0,8.628,11.479l99.725,14.144a10.165,10.165,0,0,0,11.479-8.628l10.35-72.966.229.033a10.166,10.166,0,0,0,11.48-8.626l2.279-16.069a10.167,10.167,0,0,0-8.628-11.48m-40.924-27.011a22.754,22.754,0,0,1,13.994-2.733,12.573,12.573,0,0,1,7.305,3.305,5.63,5.63,0,0,1,1.7,4.9c-.42,2.953-2.93,6-6.718,8.157-4.742,2.7-18.53,4.124-29.361,4.613,3.611-7.313,8.8-15.808,13.083-18.245m-56.161-5.752a5.634,5.634,0,0,1,2.995-4.238h0a12.575,12.575,0,0,1,7.936-1.141,22.754,22.754,0,0,1,12.684,6.516c3.437,3.533,6.057,13.136,7.493,21.164-10.269-3.482-23.118-8.686-26.923-12.6-3.04-3.122-4.6-6.75-4.185-9.7m-28.474,41.6,2.279-16.069a1.582,1.582,0,0,1,1.787-1.343l55.9,7.929L567,851.133,511.1,843.2a1.581,1.581,0,0,1-1.343-1.786M508.264,925.9l10.349-72.966,47.183,6.693-10.571,74.53-45.618-6.47a1.582,1.582,0,0,1-1.343-1.787m102.853,14.589a1.581,1.581,0,0,1-1.785,1.341l-45.617-6.47,10.571-74.531,47.182,6.692Zm22.06-81.561a1.582,1.582,0,0,1-1.787,1.341l-55.9-7.929,2.722-19.2,55.9,7.929a1.583,1.583,0,0,1,1.343,1.787Z" transform="translate(-320.696 115.499)" fill="#e1251b"/>
            <path id="Trazado_23287" data-name="Trazado 23287" d="M194.773,835.874l-26.094-3.7a26.136,26.136,0,0,0,5.69-2.224c6.169-3.51,10.166-8.761,10.966-14.407a14.186,14.186,0,0,0-4.04-12.087c-7.054-7.242-20.967-8.142-31.687-2.046-5.207,2.963-10.049,9.992-13.624,16.361-1.663-7.111-4.359-15.21-8.538-19.5-8.6-8.839-22.22-11.844-31-6.846A14.177,14.177,0,0,0,89.2,801.907c-.8,5.645,1.579,11.8,6.529,16.888a26.061,26.061,0,0,0,4.846,3.719l-26.09-3.7A10.166,10.166,0,0,0,63,827.441L60.725,843.51a10.167,10.167,0,0,0,8.629,11.479l.227.032-10.35,72.966a10.166,10.166,0,0,0,8.629,11.479l99.723,14.144a10.165,10.165,0,0,0,11.48-8.626l10.349-72.966.23.033a10.165,10.165,0,0,0,11.479-8.628l2.279-16.068a10.165,10.165,0,0,0-8.628-11.48" transform="translate(-414.501 116.201)" fill="#fff"/>
            <path id="Trazado_23288" data-name="Trazado 23288" d="M194.772,835.874l-26.093-3.7a26.1,26.1,0,0,0,5.69-2.223c6.168-3.51,10.164-8.762,10.965-14.407a14.184,14.184,0,0,0-4.04-12.088c-7.053-7.241-20.967-8.141-31.685-2.045-5.207,2.962-10.049,9.992-13.624,16.36-1.663-7.111-4.36-15.21-8.538-19.5-8.6-8.839-22.22-11.844-31-6.846A14.181,14.181,0,0,0,89.2,801.907c-.8,5.645,1.578,11.8,6.528,16.889a26.127,26.127,0,0,0,4.847,3.718l-26.091-3.7A10.166,10.166,0,0,0,63,827.442L60.725,843.51a10.165,10.165,0,0,0,8.628,11.479l.227.033L59.231,927.988a10.164,10.164,0,0,0,8.628,11.478l99.725,14.145a10.165,10.165,0,0,0,11.479-8.628l10.35-72.966.229.033a10.166,10.166,0,0,0,11.48-8.626l2.279-16.069a10.167,10.167,0,0,0-8.629-11.48m-40.923-27.011a22.755,22.755,0,0,1,13.994-2.733,12.574,12.574,0,0,1,7.305,3.305,5.626,5.626,0,0,1,1.7,4.9c-.418,2.953-2.929,6-6.717,8.157-4.743,2.7-18.53,4.124-29.361,4.613,3.611-7.312,8.8-15.808,13.083-18.245m-56.161-5.752a5.634,5.634,0,0,1,2.995-4.238h0a12.575,12.575,0,0,1,7.936-1.141,22.758,22.758,0,0,1,12.684,6.516c3.437,3.533,6.057,13.136,7.493,21.164-10.269-3.482-23.118-8.686-26.923-12.6-3.04-3.122-4.6-6.75-4.185-9.7m-28.474,41.6,2.279-16.069A1.582,1.582,0,0,1,73.28,827.3l55.9,7.929-2.722,19.2-55.9-7.929a1.581,1.581,0,0,1-1.343-1.785M67.72,929.191l10.349-72.966,47.183,6.693-10.571,74.53-45.618-6.47a1.582,1.582,0,0,1-1.343-1.787M170.573,943.78a1.583,1.583,0,0,1-1.787,1.341l-45.616-6.47,10.571-74.531,47.182,6.693Zm22.06-81.561a1.582,1.582,0,0,1-1.787,1.341l-55.9-7.929,2.722-19.2,55.9,7.929a1.583,1.583,0,0,1,1.343,1.787Z" transform="translate(-414.501 116.201)" fill="#e1251b"/>
            <path id="Trazado_23289" data-name="Trazado 23289" d="M709.79,849.769l-26.257,2.258a26.175,26.175,0,0,0,5.045-3.446c5.222-4.807,7.935-10.822,7.446-16.5a14.18,14.18,0,0,0-6.654-10.87c-8.5-5.47-22.26-3.222-31.334,5.128-4.409,4.057-7.547,11.995-9.6,19-3.218-6.556-7.666-13.841-12.7-17.085-10.367-6.68-24.313-6.547-31.748.3a14.179,14.179,0,0,0-4.7,11.847c.488,5.681,4.191,11.144,10.157,14.989A26.172,26.172,0,0,0,615,857.922l-26.255,2.257a10.166,10.166,0,0,0-9.247,10.988l1.391,16.17a10.164,10.164,0,0,0,10.987,9.246l.228-.019,6.316,73.425a10.165,10.165,0,0,0,10.987,9.246L709.757,970.6A10.165,10.165,0,0,0,719,959.616l-6.314-73.425.23-.021a10.164,10.164,0,0,0,9.247-10.986l-1.39-16.17a10.166,10.166,0,0,0-10.988-9.247" transform="translate(-303.707 122.422)" fill="#fff"/>
            <path id="Trazado_23290" data-name="Trazado 23290" d="M709.791,849.769l-26.258,2.257a26.114,26.114,0,0,0,5.045-3.445c5.22-4.807,7.935-10.823,7.446-16.5a14.183,14.183,0,0,0-6.654-10.87c-8.5-5.472-22.26-3.222-31.335,5.128-4.408,4.057-7.546,11.995-9.6,19-3.218-6.556-7.667-13.842-12.7-17.087-10.367-6.68-24.313-6.547-31.748.3a14.179,14.179,0,0,0-4.7,11.847c.488,5.68,4.191,11.144,10.157,14.988A26.033,26.033,0,0,0,615,857.921l-26.255,2.258a10.165,10.165,0,0,0-9.246,10.988l1.39,16.17a10.167,10.167,0,0,0,10.988,9.246l.228-.021,6.316,73.426a10.164,10.164,0,0,0,10.987,9.246L709.758,970.6a10.166,10.166,0,0,0,9.247-10.987l-6.316-73.426.232-.019a10.165,10.165,0,0,0,9.247-10.987l-1.391-16.17a10.164,10.164,0,0,0-10.987-9.246m-45.947-17.123a22.741,22.741,0,0,1,13.021-5.807,12.565,12.565,0,0,1,7.861,1.578,5.625,5.625,0,0,1,2.756,4.4c.256,2.973-1.505,6.509-4.712,9.458-4.015,3.7-17.129,8.184-27.573,11.095,1.874-7.937,5.019-17.381,8.648-20.719m-56.018,7.018a5.632,5.632,0,0,1,1.966-4.8h0a12.573,12.573,0,0,1,7.477-2.9,22.757,22.757,0,0,1,13.823,3.5c4.143,2.671,8.856,11.439,12.059,18.939-10.789-1.084-24.479-3.266-29.065-6.222-3.663-2.359-6-5.543-6.259-8.515M589.43,886.6l-1.39-16.169a1.581,1.581,0,0,1,1.438-1.71l56.251-4.838,1.662,19.318-56.251,4.838a1.583,1.583,0,0,1-1.71-1.439m17.532,82.652-6.316-73.425,47.48-4.084,6.45,75-45.9,3.948a1.58,1.58,0,0,1-1.71-1.438m103.5-8.9a1.583,1.583,0,0,1-1.44,1.709l-45.9,3.948-6.45-75,47.478-4.084Zm3.163-84.432a1.581,1.581,0,0,1-1.44,1.709l-56.252,4.838-1.662-19.318,56.253-4.838a1.582,1.582,0,0,1,1.709,1.44Z" transform="translate(-303.707 122.422)" fill="#e1251b"/>
            <path id="Trazado_23291" data-name="Trazado 23291" d="M821.01,851.34l-26.094-3.7a26.135,26.135,0,0,0,5.69-2.225c6.169-3.51,10.166-8.761,10.966-14.407a14.186,14.186,0,0,0-4.04-12.087c-7.054-7.242-20.967-8.142-31.687-2.046-5.207,2.963-10.049,9.992-13.624,16.361-1.663-7.111-4.359-15.21-8.538-19.5-8.6-8.839-22.22-11.844-31-6.846a14.177,14.177,0,0,0-7.245,10.487c-.8,5.645,1.579,11.8,6.529,16.888a26.06,26.06,0,0,0,4.846,3.719l-26.09-3.7a10.166,10.166,0,0,0-11.48,8.628l-2.279,16.069a10.167,10.167,0,0,0,8.629,11.479l.227.032-10.35,72.966a10.166,10.166,0,0,0,8.629,11.479l99.723,14.145a10.166,10.166,0,0,0,11.48-8.628l10.349-72.966.231.033a10.165,10.165,0,0,0,11.479-8.628l2.279-16.068a10.165,10.165,0,0,0-8.628-11.48" transform="translate(-281.157 119.494)" fill="#fff"/>
            <path id="Trazado_23292" data-name="Trazado 23292" d="M821.011,851.339l-26.094-3.7a26.1,26.1,0,0,0,5.69-2.223c6.168-3.51,10.164-8.762,10.965-14.407a14.184,14.184,0,0,0-4.04-12.088c-7.053-7.241-20.967-8.141-31.685-2.045-5.207,2.962-10.049,9.992-13.624,16.36-1.663-7.111-4.36-15.21-8.538-19.5-8.6-8.839-22.22-11.844-31-6.846a14.186,14.186,0,0,0-7.245,10.487c-.8,5.645,1.579,11.8,6.529,16.889a26.132,26.132,0,0,0,4.847,3.718l-26.091-3.7a10.165,10.165,0,0,0-11.479,8.629l-2.279,16.068a10.165,10.165,0,0,0,8.628,11.479l.227.033-10.349,72.966a10.165,10.165,0,0,0,8.628,11.478l99.725,14.145a10.165,10.165,0,0,0,11.479-8.628l10.35-72.966.229.033a10.166,10.166,0,0,0,11.48-8.626l2.279-16.069a10.167,10.167,0,0,0-8.628-11.48m-40.924-27.011a22.755,22.755,0,0,1,13.994-2.733,12.573,12.573,0,0,1,7.306,3.305,5.626,5.626,0,0,1,1.7,4.9c-.419,2.953-2.929,6-6.717,8.157-4.743,2.7-18.53,4.124-29.361,4.613,3.611-7.313,8.8-15.808,13.083-18.245m-56.161-5.752a5.634,5.634,0,0,1,2.995-4.238h0a12.575,12.575,0,0,1,7.936-1.141,22.755,22.755,0,0,1,12.684,6.516c3.437,3.533,6.057,13.136,7.494,21.164-10.269-3.482-23.118-8.686-26.923-12.6-3.04-3.122-4.6-6.75-4.185-9.7m-28.473,41.6,2.279-16.069a1.581,1.581,0,0,1,1.787-1.343l55.9,7.929-2.722,19.2-55.9-7.929a1.58,1.58,0,0,1-1.343-1.785m-1.494,84.477,10.349-72.966,47.183,6.693-10.571,74.53-45.618-6.47a1.582,1.582,0,0,1-1.343-1.787m102.853,14.589a1.582,1.582,0,0,1-1.785,1.342l-45.617-6.47,10.571-74.531,47.182,6.693Zm22.06-81.561a1.582,1.582,0,0,1-1.787,1.341l-55.9-7.929,2.722-19.2,55.9,7.929a1.583,1.583,0,0,1,1.343,1.787Z" transform="translate(-281.156 119.494)" fill="#e1251b"/>
            <path id="Trazado_23293" data-name="Trazado 23293" d="M274.972,863.34l-26.094-3.7a26.139,26.139,0,0,0,5.69-2.225c6.169-3.51,10.166-8.761,10.966-14.407a14.186,14.186,0,0,0-4.04-12.087c-7.054-7.242-20.967-8.142-31.687-2.046-5.207,2.963-10.049,9.992-13.624,16.361-1.663-7.111-4.359-15.21-8.538-19.5-8.6-8.839-22.22-11.844-31-6.846a14.177,14.177,0,0,0-7.245,10.487c-.8,5.645,1.579,11.8,6.529,16.888a26.063,26.063,0,0,0,4.846,3.719l-26.09-3.7a10.166,10.166,0,0,0-11.48,8.628l-2.279,16.069a10.167,10.167,0,0,0,8.629,11.479l.227.032-10.35,72.966a10.166,10.166,0,0,0,8.629,11.479l99.723,14.145a10.167,10.167,0,0,0,11.48-8.628l10.349-72.966.23.033a10.165,10.165,0,0,0,11.479-8.628l2.279-16.068a10.165,10.165,0,0,0-8.628-11.48" transform="translate(-397.424 122.049)" fill="#fff"/>
            <path id="Trazado_23294" data-name="Trazado 23294" d="M274.972,863.339l-26.094-3.7a26.1,26.1,0,0,0,5.69-2.223c6.168-3.51,10.164-8.762,10.965-14.407a14.18,14.18,0,0,0-4.04-12.088c-7.053-7.241-20.967-8.141-31.685-2.045-5.207,2.962-10.049,9.992-13.624,16.36-1.663-7.111-4.36-15.21-8.539-19.5-8.6-8.839-22.218-11.844-31-6.846a14.181,14.181,0,0,0-7.244,10.487c-.8,5.645,1.578,11.8,6.528,16.889a26.13,26.13,0,0,0,4.847,3.718l-26.091-3.7a10.166,10.166,0,0,0-11.479,8.629l-2.279,16.068a10.165,10.165,0,0,0,8.628,11.479l.227.033L139.43,955.453a10.164,10.164,0,0,0,8.628,11.478l99.725,14.145a10.165,10.165,0,0,0,11.479-8.628l10.35-72.966.229.033a10.166,10.166,0,0,0,11.48-8.626L283.6,874.82a10.167,10.167,0,0,0-8.628-11.48m-40.924-27.011a22.754,22.754,0,0,1,13.994-2.733,12.573,12.573,0,0,1,7.305,3.305,5.626,5.626,0,0,1,1.7,4.9c-.418,2.953-2.929,6-6.717,8.157-4.743,2.7-18.53,4.124-29.361,4.613,3.611-7.313,8.8-15.808,13.083-18.245m-56.161-5.752a5.634,5.634,0,0,1,2.995-4.238h0a12.575,12.575,0,0,1,7.936-1.141,22.759,22.759,0,0,1,12.684,6.516c3.437,3.533,6.057,13.136,7.493,21.164-10.269-3.482-23.118-8.686-26.923-12.6-3.04-3.122-4.6-6.75-4.185-9.7m-28.474,41.6,2.279-16.069a1.582,1.582,0,0,1,1.787-1.343l55.9,7.929-2.722,19.2-55.9-7.929a1.58,1.58,0,0,1-1.343-1.785m-1.494,84.477,10.349-72.966,47.183,6.693-10.571,74.53-45.618-6.47a1.582,1.582,0,0,1-1.343-1.787m102.853,14.589a1.582,1.582,0,0,1-1.787,1.342l-45.616-6.47,10.571-74.531,47.182,6.693Zm22.06-81.561a1.582,1.582,0,0,1-1.787,1.341l-55.9-7.929,2.722-19.2,55.9,7.929a1.583,1.583,0,0,1,1.343,1.787Z" transform="translate(-397.424 122.049)" fill="#e1251b"/>
            <path id="Trazado_23295" data-name="Trazado 23295" d="M419.813,290.921l-26.258,2.258a26.134,26.134,0,0,0,5.045-3.446c5.222-4.807,7.935-10.822,7.446-16.5a14.182,14.182,0,0,0-6.653-10.87c-8.5-5.47-22.261-3.222-31.335,5.128-4.409,4.057-7.547,11.995-9.6,19-3.219-6.556-7.667-13.841-12.7-17.085-10.367-6.68-24.313-6.547-31.748.3a14.179,14.179,0,0,0-4.7,11.847c.489,5.681,4.191,11.144,10.157,14.989a26.169,26.169,0,0,0,5.559,2.534l-26.255,2.257a10.166,10.166,0,0,0-9.247,10.988l1.391,16.17a10.165,10.165,0,0,0,10.987,9.246l.228-.019,6.316,73.425a10.166,10.166,0,0,0,10.988,9.246l100.351-8.631a10.164,10.164,0,0,0,9.247-10.986l-6.315-73.426.23-.021a10.164,10.164,0,0,0,9.247-10.986l-1.39-16.17a10.166,10.166,0,0,0-10.988-9.247" transform="translate(-365.452 3.426)" fill="#fff"/>
            <path id="Trazado_23296" data-name="Trazado 23296" d="M419.814,290.922l-26.258,2.257a26.069,26.069,0,0,0,5.043-3.445c5.222-4.807,7.936-10.823,7.447-16.5a14.183,14.183,0,0,0-6.654-10.869c-8.5-5.472-22.26-3.222-31.335,5.128-4.408,4.057-7.546,11.995-9.6,19-3.219-6.556-7.667-13.842-12.7-17.087-10.367-6.68-24.313-6.547-31.748.3a14.182,14.182,0,0,0-4.7,11.847c.489,5.681,4.192,11.146,10.158,14.989a26.036,26.036,0,0,0,5.558,2.534l-26.255,2.258a10.166,10.166,0,0,0-9.246,10.988l1.39,16.17a10.166,10.166,0,0,0,10.988,9.245l.228-.019,6.316,73.426a10.165,10.165,0,0,0,10.987,9.246l100.352-8.631a10.166,10.166,0,0,0,9.247-10.987l-6.316-73.426.232-.019a10.166,10.166,0,0,0,9.247-10.987l-1.391-16.17a10.164,10.164,0,0,0-10.987-9.246M373.865,273.8a22.748,22.748,0,0,1,13.021-5.807,12.568,12.568,0,0,1,7.862,1.578,5.628,5.628,0,0,1,2.756,4.4c.256,2.973-1.505,6.509-4.712,9.458-4.015,3.7-17.129,8.184-27.574,11.095,1.874-7.937,5.018-17.381,8.647-20.719m-56.017,7.018a5.632,5.632,0,0,1,1.966-4.8h0a12.566,12.566,0,0,1,7.477-2.9,22.757,22.757,0,0,1,13.823,3.5c4.143,2.671,8.856,11.438,12.058,18.939-10.788-1.084-24.478-3.266-29.064-6.222-3.663-2.359-6-5.543-6.259-8.515m-18.4,46.938-1.39-16.17a1.582,1.582,0,0,1,1.439-1.71l56.251-4.838,1.662,19.318-56.251,4.837a1.581,1.581,0,0,1-1.71-1.437m17.532,82.651-6.316-73.426,47.48-4.083,6.45,75-45.906,3.948a1.581,1.581,0,0,1-1.709-1.439m103.5-8.9a1.583,1.583,0,0,1-1.44,1.709l-45.9,3.948-6.45-75,47.478-4.084Zm3.163-84.432a1.582,1.582,0,0,1-1.44,1.709l-56.252,4.838L364.3,304.3l56.252-4.838a1.583,1.583,0,0,1,1.71,1.44Z" transform="translate(-365.452 3.426)" fill="#e1251b"/>
            <rect id="Rectángulo_18853" data-name="Rectángulo 18853" width="1144.973" height="1042.227" transform="translate(-381 61)" fill="none"/>
          </g>
        </g>
      </g>
    </g>
    <g id="Grupo_19939" data-name="Grupo 19939" transform="translate(689.025 540.114)">
      <g id="Grupo_19938" data-name="Grupo 19938" transform="translate(0 0)" clip-path="url(#clip-path)">
        <path id="Trazado_23314" data-name="Trazado 23314" d="M1.482,31.314,3.99,29.841C5.3,34.421,9.171,37.53,15.442,37.53c6.381,0,9.6-3.271,9.6-7.635,0-4.582-4.036-6.327-9.871-8.18C8.789,19.643,3.064,17.844,3.064,11.191,3.064,4.919,8.134.938,14.624.938A12.815,12.815,0,0,1,26.893,8.954l-2.452,1.364a10.036,10.036,0,0,0-9.817-6.6c-5.29,0-8.616,3.108-8.616,7.362,0,4.58,3.871,6,9.325,7.8,6.761,2.237,12.651,4.364,12.651,10.962,0,6.324-4.962,10.47-12.543,10.47-7.143,0-12.215-3.6-13.96-9" transform="translate(0.154 0.097)" fill="#d60812"/>
        <path id="Trazado_23315" data-name="Trazado 23315" d="M58.816,11.419V38.687H56.033V32.525a13.112,13.112,0,0,1-11.725,6.763A14.082,14.082,0,0,1,30.185,25.054,14.082,14.082,0,0,1,44.308,10.82a13.111,13.111,0,0,1,11.725,6.761V11.419ZM56.033,25.054a11.534,11.534,0,1,0-23.067,0,11.534,11.534,0,1,0,23.067,0" transform="translate(3.131 1.122)" fill="#d60812"/>
        <rect id="Rectángulo_18856" data-name="Rectángulo 18856" width="2.726" height="39.808" transform="translate(70.832)" fill="#d60812"/>
        <path id="Trazado_23316" data-name="Trazado 23316" d="M80.808,14.753V32.476c0,4.8,2.563,4.908,8.126,4.417v2.454c-7.143,1.09-10.907-.655-10.907-6.871V14.753h-6V12.081h6V5.264l2.781-.818v7.635h8.126v2.672Z" transform="translate(7.472 0.461)" fill="#d60812"/>
        <path id="Trazado_23317" data-name="Trazado 23317" d="M120.667,11.419V38.687h-2.781V32.525a13.112,13.112,0,0,1-11.725,6.763A14.082,14.082,0,0,1,92.037,25.054,14.082,14.082,0,0,1,106.16,10.82a13.111,13.111,0,0,1,11.725,6.761V11.419Zm-2.781,13.634a11.534,11.534,0,1,0-23.067,0,11.534,11.534,0,1,0,23.067,0" transform="translate(9.547 1.122)" fill="#d60812"/>
        <path id="Trazado_23318" data-name="Trazado 23318" d="M168.237,25.054a14.049,14.049,0,0,1-14.124,14.234,12.921,12.921,0,0,1-11.725-6.927V49.593h-2.726V11.419h2.726v6.327a12.92,12.92,0,0,1,11.725-6.926,14.049,14.049,0,0,1,14.124,14.234m-2.727,0a11.561,11.561,0,1,0-23.122,0,11.561,11.561,0,1,0,23.122,0" transform="translate(14.487 1.122)" fill="#d60812"/>
        <path id="Trazado_23319" data-name="Trazado 23319" d="M170.29,25.054a14.315,14.315,0,1,1,14.342,14.234A14.13,14.13,0,0,1,170.29,25.054m25.848,0a11.534,11.534,0,1,0-23.067,0,11.534,11.534,0,1,0,23.067,0" transform="translate(17.664 1.122)" fill="#d60812"/>
        <path id="Trazado_23320" data-name="Trazado 23320" d="M214.433,11.018v2.617c-4.691,0-9.108,2.891-9.108,9.871V38.666H202.6V11.4h2.726v5.343c1.855-4.308,5.4-5.725,9.108-5.725" transform="translate(21.016 1.143)" fill="#d60812"/>
        <path id="Trazado_23321" data-name="Trazado 23321" d="M12.542,63.1V72.75c0,2.344,2.018,2.563,5.618,2.344v7.417c-10.69,1.09-13.8-2.127-13.8-9.761V63.1H0V55.245H4.362V50.064l8.18-2.454v7.635H18.16V63.1Z" transform="translate(0 4.938)" fill="#d60812"/>
        <path id="Trazado_23322" data-name="Trazado 23322" d="M47.418,54.526V81.793h-8.18V79.23c-1.472,2.018-4.2,3.327-7.8,3.327-5.508,0-10.2-3.926-10.2-11.289V54.526h8.18V70.068c0,3.382,2.127,4.962,4.744,4.962,3,0,5.072-1.745,5.072-5.617V54.526Z" transform="translate(2.204 5.656)" fill="#d60812"/>
        <path id="Trazado_23323" data-name="Trazado 23323" d="M72.174,73.685c0,6.271-5.452,8.944-11.342,8.944-5.455,0-9.6-2.072-11.725-6.489L56.2,72.1a4.48,4.48,0,0,0,4.637,3.217c1.962,0,2.945-.6,2.945-1.691,0-3-13.416-1.417-13.416-10.852,0-5.945,5.016-8.942,10.689-8.942a11.931,11.931,0,0,1,10.634,5.834L64.7,63.432a3.96,3.96,0,0,0-3.653-2.4c-1.418,0-2.29.545-2.29,1.528,0,3.108,13.415,1.035,13.415,11.125" transform="translate(5.094 5.584)" fill="#d60812"/>
        <path id="Trazado_23324" data-name="Trazado 23324" d="M116.533,68.232c0,8.125-5.89,14.4-13.033,14.4A10.239,10.239,0,0,1,95.375,79.3v13.47h-8.18V54.6h8.18v2.564a10.239,10.239,0,0,1,8.126-3.327c7.143,0,13.033,6.271,13.033,14.4m-8.18,0c0-4.09-2.727-6.653-6.49-6.653s-6.489,2.563-6.489,6.653,2.726,6.652,6.489,6.652,6.49-2.563,6.49-6.652" transform="translate(9.045 5.584)" fill="#d60812"/>
        <path id="Trazado_23325" data-name="Trazado 23325" d="M134.777,54.032V63.3c-3.381-.545-8.18.819-8.18,6.217V81.844h-8.18V54.577h8.18v4.854c1.09-3.654,4.744-5.4,8.18-5.4" transform="translate(12.284 5.604)" fill="#d60812"/>
        <path id="Trazado_23326" data-name="Trazado 23326" d="M151.12,75.321a7.117,7.117,0,0,0,5.235-2.073l6.545,3.763c-2.672,3.71-6.707,5.617-11.889,5.617-9.324,0-15.1-6.27-15.1-14.4s5.89-14.4,14.506-14.4c7.96,0,13.851,6.162,13.851,14.4a15.818,15.818,0,0,1-.328,3.271H144.576c1.036,2.837,3.545,3.818,6.544,3.818m5.018-9.925a5.612,5.612,0,0,0-5.78-4.308c-3.109,0-5.181,1.525-5.945,4.308Z" transform="translate(14.098 5.584)" fill="#d60812"/>
        <path id="Trazado_23327" data-name="Trazado 23327" d="M207.139,65.124V81.865h-8.18V65.833c0-2.726-1.309-4.471-3.927-4.471-2.726,0-4.253,1.908-4.253,5.126V81.865H182.6V65.833c0-2.726-1.309-4.471-3.927-4.471-2.727,0-4.254,1.908-4.254,5.126V81.865h-8.18V54.6h8.18v2.508c1.254-1.853,3.653-3.271,7.308-3.271a8.114,8.114,0,0,1,7.143,3.6c1.528-2.181,4.035-3.6,7.907-3.6,6.271,0,10.362,4.472,10.362,11.289" transform="translate(17.244 5.584)" fill="#d60812"/>
        <path id="Trazado_23328" data-name="Trazado 23328" d="M208.083,48.367a4.908,4.908,0,1,1,4.907,4.907,4.957,4.957,0,0,1-4.907-4.907m.818,7.307h8.18V82.941H208.9Z" transform="translate(21.585 4.508)" fill="#d60812"/>
        <path id="Trazado_23329" data-name="Trazado 23329" d="M220.879,68.232a14.451,14.451,0,1,1,14.45,14.4,14.292,14.292,0,0,1-14.45-14.4m20.721,0a6.273,6.273,0,1,0-6.271,6.435,6.115,6.115,0,0,0,6.271-6.435" transform="translate(22.912 5.584)" fill="#d60812"/>
        <path id="Trazado_23330" data-name="Trazado 23330" d="M273.044,73.685c0,6.271-5.452,8.944-11.342,8.944-5.455,0-9.6-2.072-11.725-6.489l7.088-4.036A4.48,4.48,0,0,0,261.7,75.32c1.962,0,2.945-.6,2.945-1.691,0-3-13.416-1.417-13.416-10.852,0-5.945,5.016-8.942,10.689-8.942a11.931,11.931,0,0,1,10.634,5.834l-6.981,3.763a3.961,3.961,0,0,0-3.653-2.4c-1.418,0-2.29.545-2.29,1.528,0,3.108,13.415,1.035,13.415,11.125" transform="translate(25.93 5.584)" fill="#d60812"/>
      </g>
    </g>
  </g>
</svg>
