<svg xmlns="http://www.w3.org/2000/svg" xmlns:xlink="http://www.w3.org/1999/xlink" width="367.6" height="350.745" viewBox="0 0 367.6 350.745">
  <defs>
    <clipPath id="clip-path">
      <rect id="Rect치ngulo_18819" data-name="Rect치ngulo 18819" width="180.664" height="180.662" fill="none"/>
    </clipPath>
    <clipPath id="clip-path-2">
      <rect id="Rect치ngulo_18883" data-name="Rect치ngulo 18883" width="367.6" height="158.87" fill="none"/>
    </clipPath>
  </defs>
  <g id="Grupo_20093" data-name="Grupo 20093" transform="translate(-1273.371 -204.441)">
    <g id="Grupo_19872" data-name="Grupo 19872" transform="translate(1366.979 204.441)">
      <g id="Grupo_19871" data-name="Grupo 19871" transform="translate(-0.001 0)" clip-path="url(#clip-path)">
        <path id="Trazado_22211" data-name="Trazado 22211" d="M179.34,90.022a89.316,89.316,0,1,0-89.316,89.316A89.317,89.317,0,0,0,179.34,90.022" transform="translate(0.309 0.309)" fill="#e1251b"/>
        <path id="Trazado_22212" data-name="Trazado 22212" d="M90.331,180.662A90.355,90.355,0,0,1,55.17,7.1a90.355,90.355,0,0,1,70.323,166.464,89.77,89.77,0,0,1-35.162,7.1m0-178.633a88.3,88.3,0,1,0,88.3,88.3,88.4,88.4,0,0,0-88.3-88.3" transform="translate(0 0)" fill="#fff"/>
        <path id="Trazado_22213" data-name="Trazado 22213" d="M56.441,114.716v4.134a9.554,9.554,0,0,0,7.751-3.947,9.559,9.559,0,0,0,7.752,3.947v-4.134a5.433,5.433,0,0,1-4.821-2.911l-.392-.746a3.518,3.518,0,0,0-.657-6.975H62.386A3.589,3.589,0,0,0,58.8,107.3a3.52,3.52,0,0,0,2.85,3.77l-.387.735a5.434,5.434,0,0,1-4.821,2.911" transform="translate(24.691 45.532)" fill="#fefdfe"/>
        <path id="Trazado_22214" data-name="Trazado 22214" d="M96.285,52.177A12.084,12.084,0,0,0,81.746,62.211l-5.34,36.057L74.855,87.777a13.819,13.819,0,0,0-20.541-9.972l-19.207,11a12.825,12.825,0,1,0,13.8,21.555l9.283-6.481,2.954,10.11L53.737,130a12.806,12.806,0,0,0,2.62,14.449c.2.194.4.385.6.575a8.711,8.711,0,0,1,2.52,8.674l-.351,1.276q2.02.431,4.074.773l.263-.953A12.836,12.836,0,0,0,59.779,142q-.261-.246-.516-.5a8.663,8.663,0,0,1-1.775-9.772l8.057-17.415-5-17.122-14.027,9.793-.049.034a8.691,8.691,0,1,1-9.355-14.6l19.256-11.03a9.686,9.686,0,0,1,14.4,6.989l3.7,25.013h3.881l7.491-50.578a7.949,7.949,0,1,1,15.493,3.4L87.26,114.317l8.093,17.5a8.567,8.567,0,0,1-1.758,9.637l-.095.093A12.694,12.694,0,0,0,90.694,155.6l.17.4q2.111-.306,4.187-.712L94.5,154a8.583,8.583,0,0,1,1.9-9.506l.115-.114a12.711,12.711,0,0,0,2.59-14.3l-7.442-16.088L105.3,67.371a12.082,12.082,0,0,0-9.011-15.194" transform="translate(12.452 22.704)" fill="#fefdfe"/>
        <path id="Trazado_22215" data-name="Trazado 22215" d="M31.91,42.363A4.2,4.2,0,0,1,30.8,45.345a3.746,3.746,0,0,1-2.869,1.186,3.748,3.748,0,0,1-2.822-1.09,4.85,4.85,0,0,1-1.284-2.853l-4.136.834a8.365,8.365,0,0,0,2.677,5.1,8.058,8.058,0,0,0,5.564,1.925,8.214,8.214,0,0,0,6.027-2.277,7.8,7.8,0,0,0,2.309-5.8V28.479H31.91ZM138.121,34.1v-5.62h-3.7V34.1H128.8v3.7h5.62v5.619h3.7V37.8h5.619V34.1Zm-33.984,7.913a4.564,4.564,0,0,0-1.373-3.433,4.389,4.389,0,0,0-3.129-1.324,4.823,4.823,0,0,0-3.21,8.2,4.536,4.536,0,0,0,3.21,1.31,4.384,4.384,0,0,0,3.129-1.325,4.559,4.559,0,0,0,1.373-3.433m1.58-6.019a7.877,7.877,0,0,1,2.507,6.019,7.88,7.88,0,0,1-2.507,6.02,8.576,8.576,0,0,1-6.082,2.346,8.714,8.714,0,0,1-6.162-2.346,7.858,7.858,0,0,1-2.523-6.02,7.855,7.855,0,0,1,2.523-6.019,8.715,8.715,0,0,1,6.162-2.347,8.577,8.577,0,0,1,6.082,2.347M68.568,33.552a6.779,6.779,0,0,0-5.014,1.916V34.03H59.34V49.963h4.215V42.907q0-5.492,3.959-5.491a2.936,2.936,0,0,1,2.347,1.021,4.018,4.018,0,0,1,.878,2.715v8.812h4.215V40.258A6.781,6.781,0,0,0,73.2,35.419a6.062,6.062,0,0,0-4.63-1.867M51.294,41.087q0,5.492-3.96,5.493a2.936,2.936,0,0,1-2.346-1.022,4.022,4.022,0,0,1-.878-2.714V34.03H39.9v9.707a6.772,6.772,0,0,0,1.757,4.837,6.051,6.051,0,0,0,4.629,1.869,6.784,6.784,0,0,0,5.014-1.916v1.436h4.215V34.03H51.294Zm35.121,5.428q-2.331,0-2.332-2.746v-6.29h5.205V34.03h-6.96a5.346,5.346,0,0,0,1.594-4.021V28.479H80.474V30.01a4.026,4.026,0,0,1-4.022,4.021v3.448h3.417v6.609a6.3,6.3,0,0,0,1.66,4.774,6.4,6.4,0,0,0,4.6,1.581,8.833,8.833,0,0,0,4.151-1.182l-1.213-3.513a5.689,5.689,0,0,1-2.651.766m36.415-4.262A4.144,4.144,0,0,1,123.9,45.11a4.587,4.587,0,0,1-1.9,3.96,8.527,8.527,0,0,1-5.093,1.373,9.532,9.532,0,0,1-4.853-1.166,4.491,4.491,0,0,1-2.3-3.529L114,44.888q.287,2.171,3.289,2.171a3.235,3.235,0,0,0,1.82-.447,1.338,1.338,0,0,0,.671-1.15q0-1.052-1.757-1.436l-3.257-.671a6.352,6.352,0,0,1-3.336-1.629,3.973,3.973,0,0,1-1.166-2.905,4.705,4.705,0,0,1,1.772-3.8,7.191,7.191,0,0,1,4.742-1.469,7.9,7.9,0,0,1,4.646,1.308,5.326,5.326,0,0,1,2.283,3.417l-4.023.8a2.289,2.289,0,0,0-.942-1.6,3.414,3.414,0,0,0-2.092-.607,2.437,2.437,0,0,0-1.662.463,1.442,1.442,0,0,0-.51,1.1q0,1.022,1.437,1.341l3.8.831a5.654,5.654,0,0,1,3.114,1.644" transform="translate(8.615 12.458)" fill="#fff"/>
      </g>
    </g>
    <g id="Grupo_20074" data-name="Grupo 20074" transform="translate(1273.371 396.316)">
      <path id="Trazado_23473" data-name="Trazado 23473" d="M0,0V24.331H13.313V22.594H1.842V0Z" transform="translate(0 0)" fill="#d60812"/>
      <g id="Grupo_20075" data-name="Grupo 20075">
        <g id="Grupo_20074-2" data-name="Grupo 20074" clip-path="url(#clip-path-2)">
          <path id="Trazado_23474" data-name="Trazado 23474" d="M47.652,12.515V29.894H45.879V25.967a8.356,8.356,0,0,1-7.473,4.31,9.072,9.072,0,0,1,0-18.144,8.356,8.356,0,0,1,7.473,4.311V12.515ZM45.879,21.2a7.352,7.352,0,1,0-7.334,7.4,7.285,7.285,0,0,0,7.334-7.4" transform="translate(-13.482 -5.563)" fill="#d60812"/>
          <path id="Trazado_23475" data-name="Trazado 23475" d="M41.747,73.915a18.341,18.341,0,0,1-18.68,18.3H15.062v16.773H2.863V55.616h20.2a18.341,18.341,0,0,1,18.68,18.3m-12.2,0a6.522,6.522,0,0,0-6.481-6.862H15.062V80.776h8.006a6.521,6.521,0,0,0,6.481-6.862" transform="translate(-1.313 -25.501)" fill="#d60812"/>
          <path id="Trazado_23476" data-name="Trazado 23476" d="M109.378,82.37V95.331c-4.727-.762-11.436,1.144-11.436,8.692v17.231H86.5V83.132H97.941v6.786c1.525-5.108,6.633-7.548,11.436-7.548" transform="translate(-39.665 -37.769)" fill="#d60812"/>
          <path id="Trazado_23477" data-name="Trazado 23477" d="M157.624,111.846a9.955,9.955,0,0,0,7.32-2.9l9.149,5.261c-3.736,5.185-9.378,7.854-16.62,7.854-13.038,0-21.12-8.769-21.12-20.129s8.234-20.129,20.28-20.129c11.132,0,19.366,8.616,19.366,20.129a22.168,22.168,0,0,1-.457,4.574H148.474c1.448,3.965,4.956,5.337,9.149,5.337m7.014-13.876a7.848,7.848,0,0,0-8.082-6.023c-4.345,0-7.243,2.135-8.31,6.023Z" transform="translate(-62.521 -37.51)" fill="#d60812"/>
          <path id="Trazado_23478" data-name="Trazado 23478" d="M279.991,97.589V121H268.554V98.58c0-3.813-1.83-6.252-5.49-6.252-3.812,0-5.946,2.668-5.946,7.167V121H245.681V98.58c0-3.813-1.83-6.252-5.49-6.252-3.812,0-5.947,2.668-5.947,7.167V121H222.808V82.874h11.436v3.507c1.754-2.592,5.108-4.575,10.217-4.575a11.344,11.344,0,0,1,9.987,5.032c2.135-3.05,5.642-5.032,11.055-5.032,8.768,0,14.487,6.252,14.487,15.783" transform="translate(-102.164 -37.51)" fill="#d60812"/>
          <path id="Trazado_23479" data-name="Trazado 23479" d="M342.075,59.1a6.862,6.862,0,1,1,6.862,6.862,6.932,6.932,0,0,1-6.862-6.862m1.143,10.217h11.436v38.122H343.218Z" transform="translate(-156.851 -23.952)" fill="#d60812"/>
          <path id="Trazado_23480" data-name="Trazado 23480" d="M419.564,82.874V121H408.127v-3.583c-2.516,2.9-6.252,4.651-11.36,4.651-9.988,0-18.222-8.769-18.222-20.129s8.234-20.128,18.222-20.128c5.108,0,8.844,1.753,11.36,4.651V82.874Zm-11.437,19.061c0-5.718-3.812-9.3-9.073-9.3s-9.073,3.583-9.073,9.3,3.812,9.3,9.073,9.3,9.073-3.583,9.073-9.3" transform="translate(-173.573 -37.511)" fill="#d60812"/>
          <path id="Trazado_23481" data-name="Trazado 23481" d="M482.959,85.718v13.5c0,3.279,2.821,3.583,7.853,3.279v10.369c-14.944,1.525-19.289-2.973-19.289-13.648v-13.5h-6.1V74.739h6.1V67.5l11.436-3.431V74.739h7.853V85.718Z" transform="translate(-213.409 -29.376)" fill="#541226"/>
          <path id="Trazado_23482" data-name="Trazado 23482" d="M523.435,89.28a20.2,20.2,0,1,1,20.2,20.128,19.982,19.982,0,0,1-20.2-20.128m28.973,0c0-5.413-3.813-9-8.769-9s-8.768,3.584-8.768,9,3.812,9,8.768,9,8.769-3.583,8.769-9m-4.652-24.4L556.6,54.208H542.877l-6.1,10.674Z" transform="translate(-240.009 -24.856)" fill="#541226"/>
          <path id="Trazado_23483" data-name="Trazado 23483" d="M647.9,97.589V121H636.462V99.266c0-4.727-2.973-6.938-6.633-6.938-4.193,0-7.091,2.44-7.091,7.854V121H611.3V82.874h11.436v3.583c2.059-2.821,5.871-4.651,10.9-4.651,7.7,0,14.258,5.49,14.258,15.783" transform="translate(-280.298 -37.51)" fill="#541226"/>
          <path id="Trazado_23484" data-name="Trazado 23484" d="M394.615,178.344H380.892v41.629h-12.2V178.344H354.969V166.6h39.647Z" transform="translate(-162.763 -76.392)" fill="#d60812"/>
          <path id="Trazado_23485" data-name="Trazado 23485" d="M435.09,212.921a20.2,20.2,0,1,1,20.2,20.129,19.982,19.982,0,0,1-20.2-20.129m28.973,0c0-5.413-3.812-9-8.768-9s-8.768,3.583-8.768,9,3.812,9,8.768,9,8.768-3.583,8.768-9" transform="translate(-199.501 -88.401)" fill="#d60812"/>
          <path id="Trazado_23486" data-name="Trazado 23486" d="M563.973,200.912c0,11.36-8.234,20.129-18.222,20.129-5.108,0-8.844-1.754-11.361-4.651v3.583H522.954V166.6H534.39v18.832c2.517-2.9,6.252-4.651,11.361-4.651,9.988,0,18.222,8.768,18.222,20.128m-11.436,0c0-5.718-3.812-9.3-9.073-9.3s-9.073,3.583-9.073,9.3,3.813,9.3,9.073,9.3,9.073-3.583,9.073-9.3" transform="translate(-239.789 -76.392)" fill="#d60812"/>
          <path id="Trazado_23487" data-name="Trazado 23487" d="M644.609,194.764l-13.038,36.978c-4.27,12.123-11.055,16.926-21.729,16.393V237.461c5.337,0,7.853-1.677,9.53-6.328L604.2,194.764h12.58l8.463,23.331,7.167-23.331Z" transform="translate(-277.042 -89.305)" fill="#d60812"/>
          <path id="Trazado_23488" data-name="Trazado 23488" d="M284.367,202.232v24.332h-1.738v-4.032a8.235,8.235,0,0,1-7.473,4.414,9.072,9.072,0,0,1,0-18.144,8.235,8.235,0,0,1,7.473,4.414V202.232Zm-1.738,15.642a7.369,7.369,0,1,0-7.368,7.4,7.314,7.314,0,0,0,7.368-7.4" transform="translate(-122.039 -92.729)" fill="#d60812"/>
          <path id="Trazado_23489" data-name="Trazado 23489" d="M325.663,223.506c0,.278-.035.557-.035.834H309.882a7.075,7.075,0,0,0,7.368,6.5,6.614,6.614,0,0,0,6.014-3.163l1.529.9a8.565,8.565,0,0,1-7.577,3.927,9.072,9.072,0,0,1-.139-18.144c5.283,0,8.586,4.379,8.586,9.141m-15.781-.869h13.973c-.382-4.241-3.372-6.6-6.778-6.6a7.005,7.005,0,0,0-7.2,6.6" transform="translate(-141.261 -98.292)" fill="#d60812"/>
        </g>
      </g>
    </g>
  </g>
</svg>
