<?xml version="1.0" encoding="UTF-8" standalone="no"?>
<svg
   width="150"
   height="150"
   viewBox="0 0 100 100"
   version="1.1"
   id="svg1"
   sodipodi:docname="logo_circle.svg"
   inkscape:version="1.4 (86a8ad7, 2024-10-11)"
   xmlns:inkscape="http://www.inkscape.org/namespaces/inkscape"
   xmlns:sodipodi="http://sodipodi.sourceforge.net/DTD/sodipodi-0.dtd"
   xmlns="http://www.w3.org/2000/svg"
   xmlns:svg="http://www.w3.org/2000/svg">
  <sodipodi:namedview
     id="namedview1"
     pagecolor="#505050"
     bordercolor="#eeeeee"
     borderopacity="1"
     inkscape:showpageshadow="0"
     inkscape:pageopacity="0"
     inkscape:pagecheckerboard="0"
     inkscape:deskcolor="#505050"
     inkscape:zoom="5.38"
     inkscape:cx="75"
     inkscape:cy="75"
     inkscape:window-width="1920"
     inkscape:window-height="1009"
     inkscape:window-x="1912"
     inkscape:window-y="370"
     inkscape:window-maximized="1"
     inkscape:current-layer="svg1" />
  <defs
     id="defs1">
    <clipPath
       id="clip-path">
      <rect
         id="Rectángulo_18819"
         data-name="Rectángulo 18819"
         width="100"
         height="100"
         fill="none" />
    </clipPath>
  </defs>
  <g
     id="Grupo_20036"
     data-name="Grupo 20036"
     transform="matrix(1.6154393,0,0,1.6131662,-0.00818065,-0.00124331)">
    <g
       id="Grupo_19871"
       data-name="Grupo 19871"
       clip-path="url(#clip-path)">
      <path
         id="Trazado_22211"
         data-name="Trazado 22211"
         d="M 61.854,31.279 A 30.573,30.573 0 1 0 31.28,61.853 30.573,30.573 0 0 0 61.854,31.279"
         transform="translate(-0.359,-0.359)"
         fill="#e1251b" />
      <path
         id="Trazado_22212"
         data-name="Trazado 22212"
         d="M 30.921,61.841 A 30.929,30.929 0 0 1 18.885,2.43 30.929,30.929 0 0 1 42.957,59.412 30.729,30.729 0 0 1 30.921,61.842 m 0,-61.147 A 30.226,30.226 0 1 0 61.147,30.921 30.26,30.26 0 0 0 30.921,0.695"
         fill="#ffffff" />
      <path
         id="Trazado_22213"
         data-name="Trazado 22213"
         d="m 56.441,107.724 v 1.415 a 3.27,3.27 0 0 0 2.653,-1.351 3.272,3.272 0 0 0 2.654,1.351 v -1.415 a 1.86,1.86 0 0 1 -1.65,-1 l -0.134,-0.255 a 1.2,1.2 0 0 0 -0.225,-2.387 h -1.263 a 1.228,1.228 0 0 0 -1.228,1.1 1.2,1.2 0 0 0 0.976,1.291 l -0.132,0.251 a 1.86,1.86 0 0 1 -1.65,1"
         transform="translate(-28.669,-52.87)"
         fill="#fefdfe" />
      <path
         id="Trazado_22214"
         data-name="Trazado 22214"
         d="M 51.679,52 A 4.136,4.136 0 0 0 46.7,55.43 l -1.825,12.342 -0.531,-3.591 a 4.73,4.73 0 0 0 -7.031,-3.413 l -6.575,3.766 a 4.39,4.39 0 1 0 4.724,7.378 l 3.178,-2.219 1.011,3.461 -2.535,5.479 a 4.384,4.384 0 0 0 0.9,4.946 c 0.067,0.066 0.135,0.132 0.2,0.2 a 2.982,2.982 0 0 1 0.863,2.969 l -0.12,0.437 q 0.692,0.148 1.394,0.265 l 0.09,-0.326 a 4.394,4.394 0 0 0 -1.261,-4.378 q -0.089,-0.084 -0.177,-0.17 a 2.965,2.965 0 0 1 -0.608,-3.345 l 2.758,-5.961 -1.711,-5.87 -4.8,3.352 -0.017,0.012 a 2.975,2.975 0 1 1 -3.2,-5 L 38.016,62 a 3.316,3.316 0 0 1 4.928,2.392 l 1.266,8.558 h 1.329 L 48.1,55.637 a 2.721,2.721 0 1 1 5.3,1.162 l -4.81,16.467 2.77,5.989 a 2.933,2.933 0 0 1 -0.6,3.3 l -0.032,0.032 a 4.345,4.345 0 0 0 -0.96,4.813 l 0.058,0.137 q 0.723,-0.1 1.433,-0.244 l -0.188,-0.444 a 2.938,2.938 0 0 1 0.65,-3.254 l 0.039,-0.039 a 4.351,4.351 0 0 0 0.887,-4.894 L 50.1,73.153 54.764,57.2 A 4.136,4.136 0 0 0 51.679,52"
         transform="translate(-14.458,-26.363)"
         fill="#fefdfe" />
      <path
         id="Trazado_22215"
         data-name="Trazado 22215"
         d="m 23.875,33.232 a 1.439,1.439 0 0 1 -0.379,1.021 1.413,1.413 0 0 1 -1.948,0.033 1.66,1.66 0 0 1 -0.439,-0.977 l -1.416,0.285 a 2.864,2.864 0 0 0 0.916,1.745 2.758,2.758 0 0 0 1.9,0.659 2.812,2.812 0 0 0 2.063,-0.779 2.671,2.671 0 0 0 0.79,-1.986 V 28.479 H 23.875 Z M 60.231,30.4 V 28.479 H 58.963 V 30.4 h -1.924 v 1.268 h 1.924 v 1.923 h 1.268 v -1.92 h 1.923 V 30.4 Z M 48.6,33.112 a 1.562,1.562 0 0 0 -0.47,-1.175 1.5,1.5 0 0 0 -1.071,-0.453 1.629,1.629 0 0 0 0,3.257 1.5,1.5 0 0 0 1.071,-0.454 1.561,1.561 0 0 0 0.47,-1.175 m 0.541,-2.06 a 2.9,2.9 0 0 1 0,4.121 2.936,2.936 0 0 1 -2.082,0.8 2.983,2.983 0 0 1 -2.109,-0.8 2.89,2.89 0 0 1 0,-4.121 2.983,2.983 0 0 1 2.109,-0.8 2.936,2.936 0 0 1 2.082,0.8 M 36.425,30.216 a 2.32,2.32 0 0 0 -1.716,0.656 V 30.38 h -1.445 v 5.454 h 1.443 v -2.416 q 0,-1.88 1.355,-1.88 a 1,1 0 0 1 0.8,0.349 1.375,1.375 0 0 1 0.3,0.929 v 3.016 h 1.443 v -3.321 a 2.321,2.321 0 0 0 -0.6,-1.656 2.075,2.075 0 0 0 -1.585,-0.639 m -5.91,2.579 q 0,1.88 -1.356,1.88 a 1,1 0 0 1 -0.8,-0.35 1.377,1.377 0 0 1 -0.3,-0.929 V 30.379 H 26.608 V 33.7 a 2.318,2.318 0 0 0 0.6,1.656 2.071,2.071 0 0 0 1.584,0.64 2.322,2.322 0 0 0 1.716,-0.656 v 0.492 h 1.443 V 30.379 H 30.51 Z m 12.022,1.858 q -0.8,0 -0.8,-0.94 V 31.56 h 1.782 V 30.38 H 41.133 A 1.83,1.83 0 0 0 41.679,29 V 28.476 H 40.5 V 29 a 1.378,1.378 0 0 1 -1.377,1.376 v 1.18 h 1.17 v 2.262 a 2.156,2.156 0 0 0 0.568,1.634 2.191,2.191 0 0 0 1.573,0.548 3.023,3.023 0 0 0 1.421,-0.4 L 43.44,34.4 a 1.948,1.948 0 0 1 -0.907,0.262 M 55,33.194 a 1.418,1.418 0 0 1 0.366,0.978 1.57,1.57 0 0 1 -0.65,1.356 A 2.919,2.919 0 0 1 52.97,36 3.263,3.263 0 0 1 51.309,35.6 1.537,1.537 0 0 1 50.522,34.392 l 1.454,-0.295 q 0.1,0.743 1.126,0.743 a 1.107,1.107 0 0 0 0.623,-0.153 0.458,0.458 0 0 0 0.23,-0.394 q 0,-0.36 -0.6,-0.492 l -1.115,-0.23 a 2.174,2.174 0 0 1 -1.142,-0.557 1.36,1.36 0 0 1 -0.4,-0.994 1.611,1.611 0 0 1 0.607,-1.3 2.461,2.461 0 0 1 1.623,-0.5 2.7,2.7 0 0 1 1.59,0.448 1.823,1.823 0 0 1 0.781,1.17 l -1.377,0.274 A 0.783,0.783 0 0 0 53.6,31.565 1.169,1.169 0 0 0 52.884,31.357 0.834,0.834 0 0 0 52.315,31.515 0.494,0.494 0 0 0 52.14,31.892 q 0,0.35 0.492,0.459 l 1.3,0.284 A 1.935,1.935 0 0 1 55,33.194"
         transform="translate(-10.003,-14.466)"
         fill="#ffffff" />
    </g>
  </g>
</svg>
