<svg xmlns="http://www.w3.org/2000/svg" xmlns:xlink="http://www.w3.org/1999/xlink" width="232.619" height="231.402" viewBox="0 0 222.619 261.402">
  <defs>
    <clipPath id="clip-path">
      <rect id="Rect치ngulo_18819" data-name="Rect치ngulo 18819" width="114.326" height="114.324" fill="none"/>
    </clipPath>
    <clipPath id="clip-path-2">
      <rect id="Rect치ngulo_18883" data-name="Rect치ngulo 18883" width="232.619" height="100.534" fill="none"/>
    </clipPath>
  </defs>
  <g id="Grupo_20031" data-name="Grupo 20031" transform="translate(-78.861 -124.408)">
    <g id="Grupo_19872" data-name="Grupo 19872" transform="translate(138.098 124.408)">
      <g id="Grupo_19871" data-name="Grupo 19871" transform="translate(-0.001 0)" clip-path="url(#clip-path)">
        <path id="Trazado_22211" data-name="Trazado 22211" d="M113.747,57.226a56.52,56.52,0,1,0-56.52,56.52,56.52,56.52,0,0,0,56.52-56.52" transform="translate(-0.064 -0.064)" fill="#e1251b"/>
        <path id="Trazado_22212" data-name="Trazado 22212" d="M57.162,114.324A57.177,57.177,0,0,1,34.912,4.493a57.177,57.177,0,0,1,44.5,105.34,56.808,56.808,0,0,1-22.251,4.492m0-113.04A55.878,55.878,0,1,0,113.04,57.162,55.941,55.941,0,0,0,57.162,1.284" transform="translate(0 0)" fill="#fff"/>
        <path id="Trazado_22213" data-name="Trazado 22213" d="M56.441,110.813v2.616a6.046,6.046,0,0,0,4.9-2.5,6.049,6.049,0,0,0,4.906,2.5v-2.616a3.438,3.438,0,0,1-3.051-1.842l-.248-.472a2.226,2.226,0,0,0-.416-4.414H60.2a2.271,2.271,0,0,0-2.27,2.035,2.227,2.227,0,0,0,1.8,2.386l-.245.465a3.439,3.439,0,0,1-3.051,1.842" transform="translate(-5.1 -9.406)" fill="#fefdfe"/>
        <path id="Trazado_22214" data-name="Trazado 22214" d="M71.381,52.076a7.647,7.647,0,0,0-9.2,6.349L58.8,81.242,57.821,74.6a8.745,8.745,0,0,0-13-6.31L32.667,75.255A8.116,8.116,0,1,0,41.4,88.895l5.874-4.1,1.869,6.4-4.686,10.129a8.1,8.1,0,0,0,1.658,9.144c.125.123.25.244.378.364a5.513,5.513,0,0,1,1.595,5.489l-.222.808q1.278.273,2.578.489l.166-.6a8.123,8.123,0,0,0-2.33-8.093q-.165-.156-.327-.315a5.482,5.482,0,0,1-1.123-6.184l5.1-11.02L48.763,80.563l-8.876,6.2-.031.022a5.5,5.5,0,1,1-5.92-9.24l12.185-6.98a6.13,6.13,0,0,1,9.111,4.423l2.341,15.828h2.456l4.74-32.006a5.03,5.03,0,1,1,9.8,2.149L65.671,91.4l5.121,11.071a5.421,5.421,0,0,1-1.112,6.1l-.06.059a8.033,8.033,0,0,0-1.776,8.9l.107.254q1.336-.194,2.65-.45l-.347-.821a5.431,5.431,0,0,1,1.2-6.015l.073-.072a8.044,8.044,0,0,0,1.639-9.048L68.457,91.191l8.627-29.5a7.646,7.646,0,0,0-5.7-9.615" transform="translate(-2.572 -4.69)" fill="#fefdfe"/>
        <path id="Trazado_22215" data-name="Trazado 22215" d="M27.424,37.265a2.66,2.66,0,0,1-.7,1.887,2.613,2.613,0,0,1-3.6.061,3.069,3.069,0,0,1-.812-1.806l-2.617.528a5.294,5.294,0,0,0,1.694,3.226,5.1,5.1,0,0,0,3.521,1.218,5.2,5.2,0,0,0,3.814-1.441,4.937,4.937,0,0,0,1.461-3.672V28.479H27.424Zm67.211-5.229V28.479H92.291v3.557H88.734V34.38h3.557v3.556h2.344V34.38h3.556V32.036ZM73.13,37.043a2.888,2.888,0,0,0-.869-2.172,2.777,2.777,0,0,0-1.98-.838,3.011,3.011,0,0,0,0,6.021,2.774,2.774,0,0,0,1.98-.839,2.885,2.885,0,0,0,.869-2.172m1-3.809a5.366,5.366,0,0,1,0,7.618,5.427,5.427,0,0,1-3.849,1.485,5.514,5.514,0,0,1-3.9-1.485,5.343,5.343,0,0,1,0-7.618,5.515,5.515,0,0,1,3.9-1.485,5.428,5.428,0,0,1,3.849,1.485M50.621,31.689A4.29,4.29,0,0,0,47.449,32.9v-.91H44.782V42.074h2.667V37.609q0-3.475,2.505-3.475a1.858,1.858,0,0,1,1.485.646A2.543,2.543,0,0,1,52,36.5v5.576h2.667V35.933a4.291,4.291,0,0,0-1.111-3.062,3.836,3.836,0,0,0-2.93-1.182M39.69,36.457q0,3.475-2.506,3.476a1.858,1.858,0,0,1-1.485-.647,2.545,2.545,0,0,1-.556-1.717V31.992H32.477v6.143A4.286,4.286,0,0,0,33.589,41.2a3.829,3.829,0,0,0,2.929,1.183,4.293,4.293,0,0,0,3.173-1.213v.909h2.667V31.992H39.69Zm22.225,3.435q-1.475,0-1.475-1.737V34.174h3.294V31.992h-4.4a3.383,3.383,0,0,0,1.009-2.544v-.969H58.156v.969a2.548,2.548,0,0,1-2.545,2.544v2.182h2.162v4.182a3.986,3.986,0,0,0,1.051,3.021,4.05,4.05,0,0,0,2.91,1,5.59,5.59,0,0,0,2.627-.748l-.768-2.223a3.6,3.6,0,0,1-1.677.485m23.044-2.7A2.622,2.622,0,0,1,85.636,39a2.9,2.9,0,0,1-1.2,2.506,5.4,5.4,0,0,1-3.223.869,6.032,6.032,0,0,1-3.071-.738,2.842,2.842,0,0,1-1.455-2.233l2.688-.545q.181,1.374,2.081,1.374a2.047,2.047,0,0,0,1.152-.283.847.847,0,0,0,.425-.728q0-.666-1.112-.909l-2.061-.425a4.02,4.02,0,0,1-2.111-1.031,2.514,2.514,0,0,1-.738-1.838,2.977,2.977,0,0,1,1.122-2.4,4.55,4.55,0,0,1,3-.93,5,5,0,0,1,2.94.828,3.37,3.37,0,0,1,1.445,2.162l-2.546.506a1.448,1.448,0,0,0-.6-1.011,2.16,2.16,0,0,0-1.324-.384A1.542,1.542,0,0,0,80,34.083a.913.913,0,0,0-.323.7q0,.647.91.849l2.4.526a3.578,3.578,0,0,1,1.97,1.041" transform="translate(-1.78 -2.574)" fill="#fff"/>
      </g>
    </g>
    <g id="Grupo_20076" data-name="Grupo 20076" transform="translate(78.861 255.275)">
      <path id="Trazado_23473" data-name="Trazado 23473" d="M0,0V15.4H8.424V14.3H1.166V0Z" transform="translate(0 0)" fill="#d60812"/>
      <g id="Grupo_20075" data-name="Grupo 20075">
        <g id="Grupo_20074" data-name="Grupo 20074" clip-path="url(#clip-path-2)">
          <path id="Trazado_23474" data-name="Trazado 23474" d="M40.951,12.374v11H39.829V20.887A5.288,5.288,0,0,1,35.1,23.614a5.741,5.741,0,0,1,0-11.482,5.288,5.288,0,0,1,4.729,2.728V12.374Zm-1.122,5.5a4.652,4.652,0,1,0-4.641,4.685,4.61,4.61,0,0,0,4.641-4.685" transform="translate(-19.328 -7.975)" fill="#d60812"/>
          <path id="Trazado_23475" data-name="Trazado 23475" d="M27.469,67.2A11.606,11.606,0,0,1,15.649,78.775H10.582V89.389H2.863V55.616H15.649A11.606,11.606,0,0,1,27.469,67.2m-7.719,0a4.127,4.127,0,0,0-4.1-4.342H10.582v8.684h5.066a4.127,4.127,0,0,0,4.1-4.342" transform="translate(-1.882 -36.559)" fill="#d60812"/>
          <path id="Trazado_23476" data-name="Trazado 23476" d="M100.979,82.37v8.2c-2.991-.482-7.237.724-7.237,5.5v10.9H86.5V82.852h7.237v4.294c.965-3.233,4.2-4.777,7.237-4.777" transform="translate(-56.864 -54.146)" fill="#d60812"/>
          <path id="Trazado_23477" data-name="Trazado 23477" d="M149.813,100.816a6.3,6.3,0,0,0,4.632-1.833l5.789,3.329c-2.364,3.281-5.934,4.97-10.518,4.97-8.251,0-13.365-5.549-13.365-12.738a12.369,12.369,0,0,1,12.833-12.738c7.044,0,12.255,5.452,12.255,12.738a14.029,14.029,0,0,1-.289,2.895H144.023c.917,2.509,3.136,3.377,5.79,3.377m4.439-8.781a5.434,5.434,0,0,0-10.373,0Z" transform="translate(-89.631 -53.775)" fill="#d60812"/>
          <path id="Trazado_23478" data-name="Trazado 23478" d="M258.994,91.793v14.812h-7.237V92.421c0-2.413-1.158-3.957-3.474-3.957-2.412,0-3.763,1.689-3.763,4.535v13.606h-7.237V92.421c0-2.413-1.158-3.957-3.474-3.957-2.412,0-3.763,1.689-3.763,4.535v13.606h-7.237V82.482h7.237V84.7c1.11-1.64,3.233-2.9,6.465-2.9a7.178,7.178,0,0,1,6.32,3.185c1.351-1.93,3.57-3.185,7-3.185,5.548,0,9.167,3.957,9.167,9.987" transform="translate(-146.464 -53.775)" fill="#d60812"/>
          <path id="Trazado_23479" data-name="Trazado 23479" d="M342.075,56.578a4.342,4.342,0,1,1,4.342,4.342,4.387,4.387,0,0,1-4.342-4.342m.723,6.465h7.237V87.167H342.8Z" transform="translate(-224.864 -34.338)" fill="#d60812"/>
          <path id="Trazado_23480" data-name="Trazado 23480" d="M404.5,82.482v24.124h-7.237v-2.268a9.061,9.061,0,0,1-7.189,2.943c-6.32,0-11.531-5.549-11.531-12.738s5.211-12.737,11.531-12.737a9.061,9.061,0,0,1,7.189,2.943V82.482Zm-7.237,12.062a5.743,5.743,0,1,0-5.741,5.886,5.509,5.509,0,0,0,5.741-5.886" transform="translate(-248.838 -53.776)" fill="#d60812"/>
          <path id="Trazado_23481" data-name="Trazado 23481" d="M476.52,77.767v8.54c0,2.075,1.785,2.268,4.969,2.075v6.562c-9.456.965-12.206-1.881-12.206-8.636v-8.54h-3.86V70.82h3.86V66.236l7.237-2.171V70.82h4.969v6.948Z" transform="translate(-305.947 -42.113)" fill="#541226"/>
          <path id="Trazado_23482" data-name="Trazado 23482" d="M523.435,76.4A12.786,12.786,0,1,1,536.22,89.139,12.644,12.644,0,0,1,523.435,76.4m18.334,0a5.55,5.55,0,1,0-5.549,5.693,5.411,5.411,0,0,0,5.549-5.693m-2.944-15.439,5.6-6.755h-8.685l-3.86,6.755Z" transform="translate(-344.082 -35.634)" fill="#541226"/>
          <path id="Trazado_23483" data-name="Trazado 23483" d="M634.46,91.793v14.812h-7.237V92.855c0-2.991-1.881-4.391-4.2-4.391-2.653,0-4.487,1.544-4.487,4.97v13.171H611.3V82.482h7.237v2.268c1.3-1.785,3.715-2.943,6.9-2.943,4.873,0,9.022,3.474,9.022,9.987" transform="translate(-401.841 -53.775)" fill="#541226"/>
          <path id="Trazado_23484" data-name="Trazado 23484" d="M380.057,174.033h-8.684v26.343h-7.719V174.033h-8.685V166.6h25.089Z" transform="translate(-233.34 -109.517)" fill="#d60812"/>
          <path id="Trazado_23485" data-name="Trazado 23485" d="M435.09,205.53a12.786,12.786,0,1,1,12.785,12.738A12.644,12.644,0,0,1,435.09,205.53m18.334,0a5.55,5.55,0,1,0-5.549,5.693,5.411,5.411,0,0,0,5.549-5.693" transform="translate(-286.008 -126.733)" fill="#d60812"/>
          <path id="Trazado_23486" data-name="Trazado 23486" d="M548.911,188.314c0,7.189-5.211,12.738-11.531,12.738a9.062,9.062,0,0,1-7.189-2.943v2.268h-7.237V166.6h7.237V178.52a9.062,9.062,0,0,1,7.189-2.943c6.32,0,11.531,5.548,11.531,12.737m-7.237,0a5.743,5.743,0,1,0-5.741,5.886,5.509,5.509,0,0,0,5.741-5.886" transform="translate(-343.765 -109.517)" fill="#d60812"/>
          <path id="Trazado_23487" data-name="Trazado 23487" d="M629.771,194.764l-8.25,23.4c-2.7,7.672-7,10.711-13.75,10.373v-6.755c3.377,0,4.969-1.061,6.031-4l-9.6-23.014h7.961l5.356,14.764,4.535-14.764Z" transform="translate(-397.173 -128.029)" fill="#d60812"/>
          <path id="Trazado_23488" data-name="Trazado 23488" d="M277.679,202.232v15.4h-1.1v-2.551a5.211,5.211,0,0,1-4.729,2.793,5.741,5.741,0,0,1,0-11.482,5.211,5.211,0,0,1,4.729,2.793v-6.951Zm-1.1,9.9a4.663,4.663,0,1,0-4.663,4.685,4.629,4.629,0,0,0,4.663-4.685" transform="translate(-174.957 -132.938)" fill="#d60812"/>
          <path id="Trazado_23489" data-name="Trazado 23489" d="M319.2,220.15c0,.176-.022.352-.022.528h-9.964a4.477,4.477,0,0,0,4.663,4.113,4.185,4.185,0,0,0,3.806-2l.968.572a5.42,5.42,0,0,1-4.8,2.485,5.752,5.752,0,1,1,5.345-5.7m-9.986-.55h8.842a4.27,4.27,0,0,0-4.289-4.179,4.433,4.433,0,0,0-4.553,4.179" transform="translate(-202.514 -140.913)" fill="#d60812"/>
        </g>
      </g>
    </g>
  </g>
</svg>
