<?xml version="1.0" encoding="UTF-8" standalone="no"?>
<svg
   id="Grupo_19879"
   data-name="Grupo 19879"
   width="378.76801"
   height="141.091"
   viewBox="0 0 378.768 141.091"
   version="1.1"
   sodipodi:docname="puntos_zanahorias.svg"
   inkscape:version="1.4 (86a8ad7, 2024-10-11)"
   xmlns:inkscape="http://www.inkscape.org/namespaces/inkscape"
   xmlns:sodipodi="http://sodipodi.sourceforge.net/DTD/sodipodi-0.dtd"
   xmlns="http://www.w3.org/2000/svg"
   xmlns:svg="http://www.w3.org/2000/svg">
  <sodipodi:namedview
     id="namedview3"
     pagecolor="#505050"
     bordercolor="#eeeeee"
     borderopacity="1"
     inkscape:showpageshadow="0"
     inkscape:pageopacity="0"
     inkscape:pagecheckerboard="0"
     inkscape:deskcolor="#505050"
     inkscape:zoom="2.0090187"
     inkscape:cx="212.54157"
     inkscape:cy="26.132161"
     inkscape:window-width="1920"
     inkscape:window-height="1009"
     inkscape:window-x="1912"
     inkscape:window-y="370"
     inkscape:window-maximized="1"
     inkscape:current-layer="Grupo_19879" />
  <defs
     id="defs1">
    <clipPath
       id="clip-path">
      <rect
         id="Rect치ngulo_18823"
         data-name="Rect치ngulo 18823"
         width="31.221001"
         height="71.644997"
         fill="none"
         x="0"
         y="0" />
    </clipPath>
  </defs>
  <g
     id="Rect치ngulo_2943"
     data-name="Rect치ngulo 2943"
     transform="matrix(1.8480039,0,0,1.8909698,38.656545,42.284397)"
     fill="#691f32"
     stroke="#691f32"
     stroke-width="1">
    <rect
       width="196.849"
       height="32.166"
       rx="16.083"
       stroke="none"
       id="rect1"
       x="0"
       y="0" />
    <rect
       x="0.5"
       y="0.5"
       width="195.849"
       height="31.166"
       rx="15.583"
       fill="none"
       id="rect2" />
  </g>
  <text
     id="_3_zanahorias"
     data-name="3 zanahorias"
     fill="#ffffff"
     font-size="26.1712px"
     font-family="Roboto-Black, Roboto"
     font-weight="800"
     letter-spacing="0.04em"
     x="206.84132"
     y="77.390198"
     transform="scale(0.98857387,1.0115582)"
     style="stroke-width:1.86936"><tspan
       x="125.30529"
       y="77.390198"
       id="tspan2"
       style="stroke-width:1.86936">3 zanahorias</tspan></text>
  <g
     id="Grupo_19999"
     data-name="Grupo 19999"
     transform="matrix(1.8480039,0,0,1.8909698,0,-8.4125041)">
    <g
       id="Elipse_385"
       data-name="Elipse 385"
       transform="translate(0,10.008)"
       fill="none"
       stroke="#691f32"
       stroke-width="2">
      <circle
         cx="30.723"
         cy="30.723"
         r="30.723"
         stroke="none"
         id="circle2" />
      <circle
         cx="30.723"
         cy="30.723"
         r="29.723"
         fill="none"
         id="circle3" />
    </g>
    <circle
       id="Elipse_386"
       data-name="Elipse 386"
       cx="27.34"
       cy="27.34"
       r="27.34"
       transform="translate(3.382,13.391)"
       fill="#691f32" />
    <g
       id="Grupo_19997"
       data-name="Grupo 19997"
       transform="matrix(0.839,0.545,-0.545,0.839,40.464,0)">
      <g
         id="Grupo_19880"
         data-name="Grupo 19880"
         clip-path="url(#clip-path)">
        <path
           id="Trazado_22277"
           data-name="Trazado 22277"
           d="m 20.417,36.123 c 1.645,-4.794 3.33,-9.557 4.878,-14.386 C 26.1,19.221 29.62,8.3 28.957,6.024 26.562,-2.2 1.407,-1.982 0.049,6.556 c -0.488,3.074 2.769,12.595 3.831,15.7 1.592,4.656 3.321,9.266 5.1,13.854 0.933,2.41 2.936,5.857 5.918,5.872 2.982,0.015 4.7,-3.473 5.52,-5.86"
           transform="translate(0.235,29.662)"
           fill="#ffffff"
           fill-rule="evenodd" />
        <path
           id="Trazado_22278"
           data-name="Trazado 22278"
           d="m 11.627,27.186 c 1.05,-0.055 2.1,-0.078 3.152,-0.076 0.978,0 1.956,0.022 2.933,0.069 a 47.2,47.2 0 0 1 5.1,-4.861 38.148,38.148 0 0 0 4.284,-3.94 c 3.212,-3.706 4.024,-7.7 4.106,-12.521 0.023,-1.347 0.152,-4.459 -1.011,-5.418 -1.1,-0.9 -3.545,-0.187 -4.729,0.169 a 16.135,16.135 0 0 0 -8.679,6.169 22.469,22.469 0 0 0 -3.011,8.985 l -0.129,0.856 -0.474,-0.724 C 10.7,12.125 6.882,10.681 2.506,10.687 c -2.155,0 -2.625,0.05 -2.483,2.333 0.177,2.86 0.777,6.057 2.969,8.093 a 19.905,19.905 0 0 0 3.683,2.687 40.566,40.566 0 0 1 4.952,3.389"
           fill="#ffffff"
           fill-rule="evenodd" />
        <path
           id="Trazado_22279"
           data-name="Trazado 22279"
           d="m 20.417,36.123 c 1.645,-4.794 3.33,-9.557 4.878,-14.386 C 26.1,19.221 29.62,8.3 28.957,6.024 26.562,-2.2 1.406,-1.982 0.05,6.556 c -0.488,3.074 2.769,12.595 3.831,15.7 1.591,4.656 3.321,9.266 5.1,13.854 0.933,2.41 2.936,5.857 5.919,5.872 2.983,0.015 4.7,-3.473 5.52,-5.86 M 16.746,33.8 h 0.177 l 0.365,0.009 0.475,0.008 -0.442,1.14 a 13.937,13.937 0 0 1 -1.079,2.285 2.369,2.369 0 0 1 -1.57,1.356 1.144,1.144 0 0 1 -0.146,0.007 A 1.221,1.221 0 0 1 14.369,38.598 2.357,2.357 0 0 1 12.8,37.255 14.012,14.012 0 0 1 11.715,34.96 C 9.953,30.411 8.239,25.843 6.661,21.226 5.622,18.18 4.607,15.074 3.79,11.961 2.832,8.316 2.164,5.994 6.381,4.432 a 23.21,23.21 0 0 1 7.952,-1.248 h 0.374 a 23.2,23.2 0 0 1 7.951,1.248 c 4.217,1.562 3.549,3.884 2.592,7.529 -0.326,1.241 -0.687,2.473 -1.062,3.7 l -0.072,0.234 h -7.191 a 1.625,1.625 0 0 0 0,3.25 h 6.151 l -0.145,0.435 q -0.274,0.825 -0.557,1.647 -0.308,0.9 -0.622,1.8 l -0.078,0.221 h -4.75 a 1.625,1.625 0 0 0 0,3.25 h 3.588 l -0.162,0.445 q -0.624,1.7 -1.264,3.4 l -0.08,0.214 h -2.081 a 1.625,1.625 0 0 0 -0.179,3.24"
           transform="translate(0.236,29.662)"
           fill="#e1251b"
           fill-rule="evenodd" />
        <path
           id="Trazado_22280"
           data-name="Trazado 22280"
           d="m 11.627,27.186 c 1.049,-0.055 2.1,-0.078 3.152,-0.076 0.978,0 1.956,0.022 2.933,0.069 a 47.152,47.152 0 0 1 5.1,-4.861 38.055,38.055 0 0 0 4.288,-3.94 c 3.212,-3.706 4.025,-7.7 4.106,-12.521 0.022,-1.347 0.152,-4.459 -1.01,-5.418 -1.1,-0.9 -3.545,-0.187 -4.73,0.169 a 16.135,16.135 0 0 0 -8.679,6.169 22.464,22.464 0 0 0 -3.011,8.985 l -0.129,0.856 -0.475,-0.724 C 10.7,12.125 6.881,10.681 2.506,10.687 c -2.155,0 -2.625,0.05 -2.483,2.333 0.177,2.86 0.777,6.057 2.969,8.093 a 19.923,19.923 0 0 0 3.683,2.687 40.645,40.645 0 0 1 4.952,3.39 M 26.155,3.214 c 1.151,-0.382 2.226,-0.452 2.324,1.016 a 21.628,21.628 0 0 1 -0.9,7.59 13.158,13.158 0 0 1 -2.079,3.816 21.637,21.637 0 0 1 -2.565,2.746 c -2.143,1.965 -4.63,3.633 -6.667,5.682 l -0.629,0.632 0.064,-0.889 c 0.14,-1.944 0.294,-3.889 0.519,-5.826 0.379,-3.267 1.017,-6.919 2.841,-9.716 a 12.99,12.99 0 0 1 7.088,-5.05 M 12.82,24.348 c -1.969,-1.2 -3.968,-2.344 -5.908,-3.6 -2.792,-1.8 -3.506,-2.961 -3.88,-6.288 a 1,1 0 0 1 0.18,-0.814 1.16,1.16 0 0 1 1.042,-0.2 c 5.795,0.883 8.3,5.127 9.066,10.568 l 0.1,0.693 z"
           fill="#e1251b"
           fill-rule="evenodd" />
      </g>
    </g>
  </g>
</svg>
