<svg id="Grupo_19877" data-name="Grupo 19877" xmlns="http://www.w3.org/2000/svg" xmlns:xlink="http://www.w3.org/1999/xlink" width="305" height="279.322" viewBox="0 0 305 279.322">
  <defs>
    <clipPath id="clip-path">
      <rect id="Rectángulo_18822" data-name="Rectángulo 18822" width="305" height="279.322" fill="none"/>
    </clipPath>
  </defs>
  <g id="Grupo_19876" data-name="Grupo 19876" clip-path="url(#clip-path)">
    <path id="Trazado_22216" data-name="Trazado 22216" d="M135.078,206.407l-7.057-1.628a7.177,7.177,0,0,0,1.61-.475,5.665,5.665,0,0,0,3.342-3.686,3.9,3.9,0,0,0-.822-3.4c-1.76-2.149-5.549-2.723-8.627-1.307-1.5.689-2.986,2.5-4.115,4.159-.288-1.986-.836-4.268-1.878-5.541-2.147-2.622-5.8-3.766-8.327-2.6a3.9,3.9,0,0,0-2.231,2.7,5.663,5.663,0,0,0,1.39,4.777,7.166,7.166,0,0,0,1.239,1.132l-7.057-1.628a2.794,2.794,0,0,0-3.347,2.092l-1,4.346a2.794,2.794,0,0,0,2.092,3.346l.061.014L95.8,228.434a2.793,2.793,0,0,0,2.092,3.347L124.861,238a2.793,2.793,0,0,0,3.346-2.092l4.552-19.734.062.014a2.793,2.793,0,0,0,3.347-2.092l1-4.345a2.794,2.794,0,0,0-2.092-3.347" transform="translate(-24.17 -48.343)" fill="#fff"/>
    <path id="Trazado_22217" data-name="Trazado 22217" d="M135.078,206.407l-7.057-1.627a7.176,7.176,0,0,0,1.61-.475,5.662,5.662,0,0,0,3.341-3.686,3.9,3.9,0,0,0-.822-3.4c-1.76-2.148-5.549-2.723-8.627-1.306-1.5.688-2.986,2.5-4.115,4.158-.288-1.986-.836-4.267-1.878-5.541-2.147-2.622-5.805-3.766-8.327-2.6a3.9,3.9,0,0,0-2.231,2.7,5.664,5.664,0,0,0,1.39,4.777,7.193,7.193,0,0,0,1.239,1.132l-7.056-1.627a2.793,2.793,0,0,0-3.347,2.092l-1,4.346a2.794,2.794,0,0,0,2.092,3.346l.061.014L95.8,228.435a2.794,2.794,0,0,0,2.092,3.346L124.861,238a2.792,2.792,0,0,0,3.346-2.092l4.552-19.734.062.015a2.793,2.793,0,0,0,3.346-2.092l1-4.345a2.793,2.793,0,0,0-2.092-3.347m-10.568-8.359a6.254,6.254,0,0,1,3.9-.419,3.459,3.459,0,0,1,1.923,1.077,1.546,1.546,0,0,1,.349,1.382,3.415,3.415,0,0,1-2.031,2.076c-1.362.627-5.171.692-8.148.571,1.161-1.917,2.781-4.121,4.012-4.688m-15.241-2.9a1.545,1.545,0,0,1,.919-1.089h0a3.453,3.453,0,0,1,2.2-.126,6.254,6.254,0,0,1,3.319,2.083c.858,1.049,1.349,3.739,1.553,5.971-2.73-1.2-6.125-2.922-7.075-4.083a3.415,3.415,0,0,1-.916-2.755m-8.777,10.72,1-4.345a.435.435,0,0,1,.521-.326l15.118,3.487-1.2,5.192-15.118-3.487a.435.435,0,0,1-.326-.521m-2.4,23.094,4.552-19.734,12.761,2.944-4.65,20.157-12.338-2.846a.434.434,0,0,1-.325-.52m27.817,6.417a.435.435,0,0,1-.521.325l-12.337-2.846L117.7,212.7l12.76,2.944Zm7.96-21.812a.435.435,0,0,1-.521.325l-15.118-3.487,1.2-5.192,15.118,3.488a.435.435,0,0,1,.326.52Z" transform="translate(-24.17 -48.343)" fill="#e1251b"/>
    <path id="Trazado_22218" data-name="Trazado 22218" d="M264.357,216.375l-7.171-1.017a7.176,7.176,0,0,0,1.564-.611,5.661,5.661,0,0,0,3.013-3.96,3.9,3.9,0,0,0-1.11-3.321c-1.938-1.99-5.762-2.237-8.708-.562-1.431.814-2.761,2.746-3.744,4.5-.457-1.954-1.2-4.179-2.346-5.36-2.364-2.429-6.106-3.255-8.519-1.882a3.9,3.9,0,0,0-1.991,2.882,5.663,5.663,0,0,0,1.795,4.641,7.126,7.126,0,0,0,1.331,1.022l-7.169-1.017a2.794,2.794,0,0,0-3.155,2.371l-.626,4.416a2.794,2.794,0,0,0,2.371,3.154l.063.009-2.844,20.051a2.794,2.794,0,0,0,2.371,3.155l27.4,3.887a2.8,2.8,0,0,0,3.155-2.371l2.844-20.051.064.009a2.794,2.794,0,0,0,3.154-2.37l.626-4.416a2.794,2.794,0,0,0-2.371-3.154" transform="translate(-57.336 -51.381)" fill="#fff"/>
    <path id="Trazado_22219" data-name="Trazado 22219" d="M264.357,216.375l-7.171-1.017a7.212,7.212,0,0,0,1.564-.611,5.661,5.661,0,0,0,3.013-3.959,3.9,3.9,0,0,0-1.11-3.322c-1.938-1.99-5.762-2.237-8.708-.562-1.431.814-2.761,2.746-3.744,4.5-.457-1.955-1.2-4.18-2.346-5.36-2.364-2.429-6.106-3.255-8.52-1.881a3.9,3.9,0,0,0-1.991,2.882,5.665,5.665,0,0,0,1.794,4.641,7.133,7.133,0,0,0,1.332,1.022l-7.17-1.017a2.794,2.794,0,0,0-3.154,2.371l-.626,4.416a2.794,2.794,0,0,0,2.371,3.154l.063.009-2.844,20.051a2.794,2.794,0,0,0,2.371,3.155l27.4,3.887a2.794,2.794,0,0,0,3.155-2.371l2.844-20.051.064.009a2.794,2.794,0,0,0,3.154-2.37l.626-4.416a2.794,2.794,0,0,0-2.371-3.154m-11.246-7.423a6.25,6.25,0,0,1,3.845-.751,3.45,3.45,0,0,1,2.008.907,1.546,1.546,0,0,1,.466,1.348,3.416,3.416,0,0,1-1.846,2.242c-1.3.742-5.093,1.133-8.069,1.268.992-2.01,2.417-4.345,3.595-5.014m-15.433-1.581a1.547,1.547,0,0,1,.823-1.164h0a3.455,3.455,0,0,1,2.18-.313,6.249,6.249,0,0,1,3.486,1.79c.945.971,1.665,3.61,2.059,5.816-2.822-.957-6.353-2.386-7.4-3.461a3.417,3.417,0,0,1-1.15-2.667M229.853,218.8l.626-4.416a.434.434,0,0,1,.491-.369l15.361,2.179-.748,5.275-15.361-2.179a.434.434,0,0,1-.369-.49m-.41,23.215,2.844-20.052,12.966,1.84-2.9,20.481-12.536-1.778a.434.434,0,0,1-.369-.49m28.264,4.009a.434.434,0,0,1-.49.369l-12.536-1.778,2.9-20.482,12.966,1.84Zm6.062-22.413a.435.435,0,0,1-.491.369L247.917,221.8l.748-5.275,15.361,2.179a.435.435,0,0,1,.369.491Z" transform="translate(-57.336 -51.381)" fill="#e1251b"/>
    <path id="Trazado_22220" data-name="Trazado 22220" d="M154.116,143.018c-1.2,3.718-2.377,7.365-3.412,10.678l-.138-.54q-.612-.036-1.233-.035a20.7,20.7,0,0,0-10.565,38.5.365.365,0,0,1-.357.366c-8.19.148-17.489,5.376-19.32,14.248H228.1c-1.858-9-11.4-14.252-19.68-14.252v-.363a20.7,20.7,0,0,0-10.565-38.5c-.26,0-.518.006-.775.016-2.245-9.645-5.5-23.759-6.948-30.538a9.831,9.831,0,0,1,6.162-11.3l.109-.04.135-.049a10.843,10.843,0,0,0,7.146-10.2l0-18.67,40.058-45.894A10.905,10.905,0,1,0,226.4,23.3L193.01,74.251l-.292-.135,17.189-58.442a10.905,10.905,0,1,0-21.247-4.694l-9.019,60.246L164.709,84.986a10.841,10.841,0,0,0-3.147,12.038c.019.049.035.1.055.147,2.842,6.752,3.314,10.061-.934,24.9-.536,1.872-1.156,3.93-1.828,6.1a35.531,35.531,0,0,1-23.437-40.262A7.8,7.8,0,0,0,120.1,85a51.189,51.189,0,0,0,34.018,58.022" transform="translate(-30.069 -0.425)" fill="#fff"/>
    <path id="Trazado_22221" data-name="Trazado 22221" d="M207.275,124.286a2.46,2.46,0,0,1-1.035-.228l-3.394-1.569A2.342,2.342,0,0,1,201.8,119.2a2.4,2.4,0,0,1,3.082-.925l3.394,1.569a2.327,2.327,0,0,1-1,4.445m-3.433-4.52a.618.618,0,0,0-.546.288.619.619,0,0,0,.274.872l3.394,1.569a.675.675,0,0,0,.863-.218.619.619,0,0,0-.275-.872l-3.394-1.569a.761.761,0,0,0-.317-.07" transform="translate(-50.874 -29.805)" fill="#e1251b"/>
    <path id="Trazado_22222" data-name="Trazado 22222" d="M205.954,135.464a8.461,8.461,0,0,1-4.911-7.263l-.039-.76-.6.463a8.46,8.46,0,0,1-8.714.963l.724-1.564a6.74,6.74,0,0,0,6.944-.768l1.9-1.457,1.384.64.123,2.394a6.742,6.742,0,0,0,3.913,5.788Z" transform="translate(-48.399 -31.581)" fill="#e1251b"/>
    <path id="Trazado_22223" data-name="Trazado 22223" d="M195.25,130.146a8.491,8.491,0,0,1-3.564-.786l.723-1.565a6.742,6.742,0,0,0,6.944-.767L200.4,128.4a8.466,8.466,0,0,1-5.15,1.749" transform="translate(-48.399 -32.073)" fill="#e1251b"/>
    <path id="Trazado_22224" data-name="Trazado 22224" d="M117.481,205.146h-.266V207.4H229.163L229,206.354a17.885,17.885,0,0,0-7.8-11.873,24.04,24.04,0,0,0-10.113-3.942,22.228,22.228,0,0,0,5.285-6.124A21.946,21.946,0,0,0,197.6,151.448c-2.234-9.609-5.329-23.029-6.715-29.536a8.6,8.6,0,0,1,5.369-9.863l.238-.086a12.128,12.128,0,0,0,7.972-11.377l0-18.2,39.749-45.54a12.21,12.21,0,0,0,2.938-9.244,12.028,12.028,0,0,0-4.707-8.411l-.04-.03a12.163,12.163,0,0,0-17.522,3.027L195.524,66.98,210.635,15.6A12.163,12.163,0,0,0,201.593.293a12.03,12.03,0,0,0-9.506,1.852,12.21,12.21,0,0,0-5.14,8.226l-8.953,59.809L163.4,83.623a12.127,12.127,0,0,0-3.49,13.413l.013.034c.019.053.039.105.062.161,2.613,6.206,3.3,9.113-.984,24.065-.408,1.425-.881,3.014-1.434,4.826a34.285,34.285,0,0,1-21.395-38.4,9.05,9.05,0,1,0-17.783-3.38,52.447,52.447,0,0,0,33.68,59.037c-.937,2.9-1.8,5.6-2.584,8.078-.209-.006-.419-.009-.629-.009a21.941,21.941,0,0,0-18.99,32.972,22.242,22.242,0,0,0,5.285,6.125,24.05,24.05,0,0,0-10.278,4.055,17.809,17.809,0,0,0-7.4,10.551m99.358-31.739a19.591,19.591,0,0,1-9.536,16.717l-.611.365v2.328h1.253c7.606,0,16.182,4.635,18.273,12.476l-18.128-.021a18.654,18.654,0,0,0-5.326-7.279,20.931,20.931,0,0,0-6.683-3.659,53.188,53.188,0,0,0,4.41-14.844,51.61,51.61,0,0,0-.321-17.033l-.01-.048c-.023-.1-.829-3.53-1.973-8.439a19.479,19.479,0,0,1,18.653,19.438m-77.9,16.717a19.442,19.442,0,0,1,9.768-36.171c-1.029,3.322-1.866,6.162-2.45,8.43a41.818,41.818,0,0,0-.548,16.059,52.77,52.77,0,0,0,5.064,16.3l2.234-1.137c-4.845-9.52-6.582-21.818-4.322-30.6,1.168-4.541,3.38-11.459,6.151-20.03l.382-1.181-1.178-.393a50.015,50.015,0,0,1-33.183-56.6,6.544,6.544,0,1,1,12.858,2.444,36.783,36.783,0,0,0,24.266,41.683l1.219.413.38-1.23c.73-2.361,1.331-4.366,1.836-6.129,4.375-15.278,3.8-18.8.887-25.722l-.017-.046-.021-.057a9.614,9.614,0,0,1,2.784-10.646l15.3-14.092,9.084-60.682A9.652,9.652,0,1,1,208.231,14.9L190.736,74.376l2.255,1.041,33.983-51.854a9.656,9.656,0,0,1,13.9-2.416l.016.012a9.651,9.651,0,0,1,1.434,14.04L201.954,81.446l0,19.14a9.614,9.614,0,0,1-6.32,9.02l-.246.089a10.927,10.927,0,0,0-5.852,5.069,11.213,11.213,0,0,0-1.106,7.67c2.26,10.613,9.049,39.533,9.281,40.523a50.691,50.691,0,0,1-4.519,31.575l-.7,1.369,1.482.407c5.366,1.475,9.175,4.488,11.357,8.959l-21.448-.025v-.1h-3.136c.131-2.426.592-8.31,2.215-19.114l-2.479-.372c-1.673,11.141-2.126,17.058-2.249,19.486H120.065c2.13-7.586,10.481-12.193,17.9-12.327a1.626,1.626,0,0,0,1.588-1.619v-.711Z" transform="translate(-29.596 0)" fill="#e1251b"/>
    <path id="Trazado_22225" data-name="Trazado 22225" d="M117.341,236.559H110.1a7.2,7.2,0,0,0,1.463-.824,5.665,5.665,0,0,0,2.427-4.343,3.9,3.9,0,0,0-1.566-3.133c-2.2-1.7-6.018-1.406-8.7.666-1.3,1.007-2.349,3.107-3.076,4.977-.727-1.87-1.773-3.97-3.075-4.977-2.681-2.073-6.5-2.365-8.7-.666a3.9,3.9,0,0,0-1.567,3.133,5.662,5.662,0,0,0,2.429,4.343,7.187,7.187,0,0,0,1.462.824H83.954a2.794,2.794,0,0,0-2.79,2.79v4.46a2.793,2.793,0,0,0,2.79,2.79h.063v20.252a2.794,2.794,0,0,0,2.79,2.79h27.679a2.794,2.794,0,0,0,2.791-2.79V246.6h.064a2.793,2.793,0,0,0,2.79-2.79v-4.46a2.794,2.794,0,0,0-2.79-2.79" transform="translate(-20.493 -57.354)" fill="#fff"/>
    <path id="Trazado_22226" data-name="Trazado 22226" d="M117.341,236.559H110.1a7.158,7.158,0,0,0,1.463-.825,5.664,5.664,0,0,0,2.427-4.343,3.9,3.9,0,0,0-1.566-3.133c-2.2-1.7-6.019-1.406-8.7.666-1.3,1.008-2.349,3.107-3.076,4.978-.727-1.871-1.773-3.97-3.075-4.978-2.681-2.073-6.5-2.365-8.7-.666a3.9,3.9,0,0,0-1.567,3.133,5.661,5.661,0,0,0,2.429,4.343,7.151,7.151,0,0,0,1.462.825H83.954a2.793,2.793,0,0,0-2.79,2.79v4.46a2.794,2.794,0,0,0,2.79,2.79h.063v20.252a2.793,2.793,0,0,0,2.79,2.79h27.679a2.793,2.793,0,0,0,2.791-2.79V246.6h.064a2.794,2.794,0,0,0,2.79-2.79v-4.46a2.793,2.793,0,0,0-2.79-2.79m-12.177-5.77a6.248,6.248,0,0,1,3.7-1.283,3.455,3.455,0,0,1,2.115.617,1.546,1.546,0,0,1,.651,1.269,3.416,3.416,0,0,1-1.513,2.479c-1.186.917-4.883,1.837-7.811,2.388.7-2.129,1.784-4.641,2.855-5.469m-15.5.6a1.549,1.549,0,0,1,.652-1.269,3.454,3.454,0,0,1,2.115-.617,6.252,6.252,0,0,1,3.7,1.283c1.072.828,2.155,3.34,2.855,5.469-2.928-.551-6.625-1.471-7.811-2.388a3.416,3.416,0,0,1-1.513-2.479M83.52,243.809v-4.46a.434.434,0,0,1,.434-.434H99.47v5.328H83.954a.435.435,0,0,1-.434-.434m2.853,23.043V246.6h13.1v20.686H86.808a.435.435,0,0,1-.434-.434m28.547,0a.434.434,0,0,1-.434.434H101.826V246.6h13.095Zm2.855-23.043a.435.435,0,0,1-.434.434H101.826v-5.328h15.515a.435.435,0,0,1,.434.434Z" transform="translate(-20.493 -57.354)" fill="#e1251b"/>
    <path id="Trazado_22227" data-name="Trazado 22227" d="M268.152,247.619l-7.216.62a7.145,7.145,0,0,0,1.386-.946,5.663,5.663,0,0,0,2.047-4.536,3.9,3.9,0,0,0-1.828-2.987c-2.336-1.5-6.117-.885-8.611,1.41-1.211,1.115-2.074,3.3-2.637,5.222-.884-1.8-2.107-3.8-3.491-4.7-2.849-1.836-6.681-1.8-8.725.081a3.9,3.9,0,0,0-1.292,3.255,5.661,5.661,0,0,0,2.791,4.12,7.206,7.206,0,0,0,1.527.7l-7.215.62a2.794,2.794,0,0,0-2.541,3.02l.382,4.443a2.793,2.793,0,0,0,3.019,2.541l.063-.005,1.736,20.178a2.793,2.793,0,0,0,3.019,2.541l27.577-2.372a2.794,2.794,0,0,0,2.542-3.019l-1.736-20.178.064-.005a2.8,2.8,0,0,0,2.542-3.019l-.383-4.444a2.793,2.793,0,0,0-3.019-2.541" transform="translate(-58.663 -60.332)" fill="#fff"/>
    <path id="Trazado_22228" data-name="Trazado 22228" d="M268.152,247.619l-7.216.62a7.145,7.145,0,0,0,1.386-.946,5.662,5.662,0,0,0,2.047-4.535,3.9,3.9,0,0,0-1.828-2.988c-2.336-1.5-6.117-.885-8.611,1.41-1.211,1.115-2.074,3.3-2.637,5.222-.884-1.8-2.107-3.8-3.491-4.7-2.849-1.836-6.681-1.8-8.725.081a3.9,3.9,0,0,0-1.292,3.255,5.66,5.66,0,0,0,2.791,4.12,7.189,7.189,0,0,0,1.527.7l-7.215.62a2.794,2.794,0,0,0-2.541,3.02l.382,4.443a2.793,2.793,0,0,0,3.019,2.541l.063-.005,1.736,20.178a2.793,2.793,0,0,0,3.019,2.541l27.577-2.372a2.794,2.794,0,0,0,2.542-3.019l-1.736-20.178.064-.005a2.794,2.794,0,0,0,2.542-3.019l-.383-4.443a2.794,2.794,0,0,0-3.019-2.542m-12.626-4.706a6.248,6.248,0,0,1,3.578-1.6,3.453,3.453,0,0,1,2.16.434,1.547,1.547,0,0,1,.758,1.208,3.417,3.417,0,0,1-1.3,2.6c-1.1,1.015-4.707,2.249-7.577,3.048.515-2.181,1.378-4.777,2.376-5.694m-15.394,1.929a1.548,1.548,0,0,1,.54-1.319,3.447,3.447,0,0,1,2.054-.8,6.255,6.255,0,0,1,3.8.961c1.138.734,2.433,3.143,3.314,5.2-2.965-.3-6.727-.9-7.987-1.71a3.417,3.417,0,0,1-1.72-2.34m-5.055,12.9-.383-4.443a.435.435,0,0,1,.4-.47l15.459-1.33.456,5.309-15.458,1.33a.434.434,0,0,1-.469-.4m4.817,22.713-1.735-20.177,13.048-1.122,1.772,20.61-12.615,1.085a.436.436,0,0,1-.47-.4m28.443-2.447a.435.435,0,0,1-.4.47l-12.615,1.085-1.772-20.61L266.6,257.83Zm.869-23.2a.434.434,0,0,1-.4.469l-15.459,1.33L252.9,251.3l15.458-1.329a.435.435,0,0,1,.47.4Z" transform="translate(-58.663 -60.332)" fill="#e1251b"/>
    <path id="Trazado_22229" data-name="Trazado 22229" d="M312.824,244.807l-7.171-1.017a7.176,7.176,0,0,0,1.564-.611,5.661,5.661,0,0,0,3.013-3.96,3.9,3.9,0,0,0-1.11-3.321c-1.938-1.99-5.762-2.237-8.708-.562-1.431.814-2.761,2.746-3.744,4.5-.457-1.954-1.2-4.179-2.346-5.36-2.364-2.429-6.106-3.255-8.519-1.881a3.9,3.9,0,0,0-1.991,2.882,5.663,5.663,0,0,0,1.795,4.641,7.1,7.1,0,0,0,1.331,1.022l-7.169-1.017a2.794,2.794,0,0,0-3.155,2.371l-.626,4.416a2.794,2.794,0,0,0,2.371,3.154l.063.009-2.844,20.051a2.794,2.794,0,0,0,2.371,3.154l27.4,3.887a2.8,2.8,0,0,0,3.155-2.371l2.844-20.051.064.009a2.794,2.794,0,0,0,3.154-2.37l.626-4.416a2.794,2.794,0,0,0-2.371-3.155" transform="translate(-69.573 -58.559)" fill="#fff"/>
    <path id="Trazado_22230" data-name="Trazado 22230" d="M312.824,244.806l-7.171-1.017a7.214,7.214,0,0,0,1.564-.611,5.663,5.663,0,0,0,3.013-3.959,3.9,3.9,0,0,0-1.11-3.322c-1.938-1.99-5.762-2.237-8.708-.562-1.431.814-2.761,2.746-3.744,4.5-.457-1.955-1.2-4.18-2.346-5.36-2.364-2.429-6.106-3.255-8.52-1.881a3.9,3.9,0,0,0-1.991,2.882,5.665,5.665,0,0,0,1.794,4.641,7.133,7.133,0,0,0,1.332,1.022l-7.17-1.017a2.794,2.794,0,0,0-3.155,2.371l-.626,4.416a2.794,2.794,0,0,0,2.371,3.155l.063.009-2.844,20.051a2.794,2.794,0,0,0,2.371,3.155l27.4,3.887a2.794,2.794,0,0,0,3.154-2.371l2.844-20.051.064.009a2.794,2.794,0,0,0,3.154-2.37l.626-4.416a2.794,2.794,0,0,0-2.371-3.154m-11.246-7.423a6.25,6.25,0,0,1,3.845-.751,3.447,3.447,0,0,1,2.008.908,1.544,1.544,0,0,1,.466,1.347,3.416,3.416,0,0,1-1.846,2.242c-1.3.742-5.093,1.133-8.069,1.268.992-2.01,2.417-4.345,3.595-5.014M286.145,235.8a1.547,1.547,0,0,1,.823-1.164h0a3.455,3.455,0,0,1,2.18-.313,6.249,6.249,0,0,1,3.486,1.79c.945.971,1.665,3.61,2.059,5.816-2.822-.957-6.353-2.386-7.4-3.461a3.417,3.417,0,0,1-1.15-2.667m-7.825,11.433.626-4.416a.434.434,0,0,1,.491-.369l15.361,2.179-.748,5.275-15.361-2.179a.434.434,0,0,1-.369-.49m-.41,23.215,2.844-20.052,12.966,1.84-2.9,20.481-12.536-1.778a.434.434,0,0,1-.369-.49m28.264,4.009a.434.434,0,0,1-.49.368l-12.536-1.778,2.9-20.482,12.966,1.84Zm6.062-22.413a.435.435,0,0,1-.491.369l-15.361-2.179.748-5.275,15.362,2.179a.435.435,0,0,1,.369.491Z" transform="translate(-69.573 -58.559)" fill="#e1251b"/>
    <path id="Trazado_22231" data-name="Trazado 22231" d="M158.49,276.729h-7.243a7.194,7.194,0,0,0,1.463-.824,5.665,5.665,0,0,0,2.427-4.343,3.9,3.9,0,0,0-1.566-3.133c-2.2-1.7-6.018-1.406-8.7.666-1.3,1.007-2.349,3.107-3.076,4.977-.727-1.87-1.773-3.97-3.075-4.977-2.681-2.073-6.5-2.365-8.7-.666a3.9,3.9,0,0,0-1.567,3.133,5.662,5.662,0,0,0,2.429,4.343,7.187,7.187,0,0,0,1.462.824H125.1a2.793,2.793,0,0,0-2.79,2.79v4.46a2.793,2.793,0,0,0,2.79,2.79h.063v20.252a2.794,2.794,0,0,0,2.79,2.79h27.68a2.794,2.794,0,0,0,2.79-2.79V286.77h.064a2.793,2.793,0,0,0,2.79-2.79v-4.46a2.793,2.793,0,0,0-2.79-2.79" transform="translate(-30.883 -67.497)" fill="#fff"/>
    <path id="Trazado_22232" data-name="Trazado 22232" d="M158.49,276.729h-7.243a7.158,7.158,0,0,0,1.463-.825,5.664,5.664,0,0,0,2.427-4.343,3.9,3.9,0,0,0-1.566-3.133c-2.2-1.7-6.019-1.406-8.7.666-1.3,1.008-2.349,3.107-3.076,4.978-.727-1.871-1.773-3.97-3.075-4.978-2.681-2.073-6.5-2.365-8.7-.666a3.9,3.9,0,0,0-1.567,3.133,5.661,5.661,0,0,0,2.429,4.343,7.15,7.15,0,0,0,1.462.825H125.1a2.793,2.793,0,0,0-2.79,2.79v4.46a2.794,2.794,0,0,0,2.79,2.79h.063v20.252a2.793,2.793,0,0,0,2.79,2.79h27.679a2.794,2.794,0,0,0,2.791-2.79V286.77h.064a2.794,2.794,0,0,0,2.79-2.79v-4.46a2.793,2.793,0,0,0-2.79-2.79m-12.177-5.77a6.248,6.248,0,0,1,3.7-1.283,3.455,3.455,0,0,1,2.115.617,1.546,1.546,0,0,1,.651,1.269,3.416,3.416,0,0,1-1.513,2.479c-1.186.917-4.883,1.837-7.811,2.388.7-2.129,1.784-4.641,2.855-5.469m-15.5.6a1.549,1.549,0,0,1,.652-1.269,3.454,3.454,0,0,1,2.115-.617,6.252,6.252,0,0,1,3.7,1.283c1.072.828,2.155,3.34,2.855,5.469-2.928-.551-6.625-1.471-7.811-2.388a3.416,3.416,0,0,1-1.513-2.479m-6.142,12.418v-4.46a.434.434,0,0,1,.434-.434h15.515v5.328H125.1a.435.435,0,0,1-.434-.434m2.853,23.043V286.77h13.1v20.686H127.957a.435.435,0,0,1-.434-.434m28.547,0a.434.434,0,0,1-.434.434H142.975V286.77H156.07Zm2.855-23.043a.435.435,0,0,1-.434.434H142.975v-5.328H158.49a.435.435,0,0,1,.434.434Z" transform="translate(-30.883 -67.496)" fill="#e1251b"/>
    <path id="Trazado_22233" data-name="Trazado 22233" d="M202.536,277.345l-7.057-1.628a7.178,7.178,0,0,0,1.61-.475,5.665,5.665,0,0,0,3.342-3.686,3.9,3.9,0,0,0-.822-3.4c-1.76-2.149-5.549-2.723-8.627-1.307-1.5.689-2.986,2.5-4.115,4.159-.288-1.986-.836-4.268-1.879-5.541-2.147-2.622-5.8-3.766-8.327-2.6a3.9,3.9,0,0,0-2.231,2.7,5.663,5.663,0,0,0,1.39,4.777,7.166,7.166,0,0,0,1.239,1.132L170,269.84a2.794,2.794,0,0,0-3.347,2.092l-1,4.346a2.794,2.794,0,0,0,2.092,3.346l.061.014-4.552,19.734a2.793,2.793,0,0,0,2.092,3.347l26.971,6.221a2.793,2.793,0,0,0,3.346-2.092l4.552-19.734.062.014a2.793,2.793,0,0,0,3.347-2.092l1-4.345a2.794,2.794,0,0,0-2.092-3.347" transform="translate(-41.202 -66.254)" fill="#fff"/>
    <path id="Trazado_22234" data-name="Trazado 22234" d="M202.536,277.345l-7.057-1.627a7.177,7.177,0,0,0,1.61-.475,5.662,5.662,0,0,0,3.341-3.686,3.9,3.9,0,0,0-.822-3.4c-1.76-2.148-5.549-2.723-8.627-1.306-1.5.688-2.986,2.5-4.115,4.158-.288-1.986-.836-4.267-1.878-5.541-2.147-2.622-5.805-3.766-8.327-2.6a3.9,3.9,0,0,0-2.231,2.7,5.664,5.664,0,0,0,1.39,4.777,7.194,7.194,0,0,0,1.239,1.132L170,269.841a2.793,2.793,0,0,0-3.347,2.092l-1,4.346a2.794,2.794,0,0,0,2.092,3.346l.061.014-4.552,19.734a2.794,2.794,0,0,0,2.092,3.346l26.971,6.221a2.792,2.792,0,0,0,3.346-2.092l4.552-19.734.062.015a2.793,2.793,0,0,0,3.346-2.092l1-4.345a2.793,2.793,0,0,0-2.092-3.347m-10.568-8.359a6.254,6.254,0,0,1,3.9-.419,3.459,3.459,0,0,1,1.923,1.077,1.546,1.546,0,0,1,.349,1.382A3.415,3.415,0,0,1,196.1,273.1c-1.362.627-5.171.692-8.148.571,1.161-1.917,2.781-4.121,4.012-4.688m-15.241-2.9a1.545,1.545,0,0,1,.919-1.089h0a3.453,3.453,0,0,1,2.2-.126,6.255,6.255,0,0,1,3.319,2.083c.858,1.049,1.349,3.739,1.553,5.971-2.73-1.2-6.125-2.922-7.075-4.083a3.415,3.415,0,0,1-.916-2.755m-8.777,10.72,1-4.345a.435.435,0,0,1,.521-.326l15.118,3.487-1.2,5.192-15.118-3.487a.435.435,0,0,1-.326-.521m-2.4,23.094,4.552-19.734,12.761,2.944-4.65,20.157-12.338-2.846a.434.434,0,0,1-.325-.52m27.817,6.417a.435.435,0,0,1-.521.325L180.511,303.8l4.65-20.157,12.76,2.944Zm7.96-21.812a.435.435,0,0,1-.521.325l-15.118-3.487,1.2-5.192,15.118,3.488a.435.435,0,0,1,.326.52Z" transform="translate(-41.202 -66.254)" fill="#e1251b"/>
    <path id="Trazado_22235" data-name="Trazado 22235" d="M236.31,274.072l-7.216.62a7.145,7.145,0,0,0,1.386-.946,5.663,5.663,0,0,0,2.047-4.536,3.9,3.9,0,0,0-1.828-2.987c-2.336-1.5-6.117-.885-8.611,1.41-1.211,1.115-2.074,3.3-2.637,5.222-.884-1.8-2.107-3.8-3.491-4.7-2.849-1.836-6.681-1.8-8.725.082a3.9,3.9,0,0,0-1.292,3.255,5.661,5.661,0,0,0,2.791,4.12,7.207,7.207,0,0,0,1.527.7l-7.215.62a2.794,2.794,0,0,0-2.541,3.02l.382,4.443a2.793,2.793,0,0,0,3.019,2.541l.063-.005,1.736,20.178a2.793,2.793,0,0,0,3.019,2.541l27.577-2.372a2.794,2.794,0,0,0,2.542-3.019l-1.736-20.178.064-.005a2.8,2.8,0,0,0,2.542-3.019l-.383-4.444a2.793,2.793,0,0,0-3.019-2.541" transform="translate(-50.623 -67.012)" fill="#fff"/>
    <path id="Trazado_22236" data-name="Trazado 22236" d="M236.31,274.072l-7.216.62a7.145,7.145,0,0,0,1.386-.946,5.662,5.662,0,0,0,2.047-4.535,3.9,3.9,0,0,0-1.828-2.988c-2.336-1.5-6.117-.885-8.611,1.41-1.211,1.115-2.074,3.3-2.637,5.222-.884-1.8-2.107-3.8-3.491-4.7-2.849-1.836-6.681-1.8-8.725.082a3.9,3.9,0,0,0-1.292,3.255,5.66,5.66,0,0,0,2.791,4.12,7.19,7.19,0,0,0,1.527.7l-7.215.62a2.794,2.794,0,0,0-2.541,3.02l.382,4.443a2.793,2.793,0,0,0,3.019,2.541l.063-.005,1.736,20.178a2.793,2.793,0,0,0,3.019,2.541l27.577-2.372a2.794,2.794,0,0,0,2.542-3.019l-1.736-20.178.064-.005a2.793,2.793,0,0,0,2.541-3.019l-.382-4.443a2.794,2.794,0,0,0-3.019-2.542m-12.626-4.706a6.249,6.249,0,0,1,3.578-1.6,3.453,3.453,0,0,1,2.16.434,1.547,1.547,0,0,1,.758,1.208,3.417,3.417,0,0,1-1.3,2.6c-1.1,1.015-4.707,2.249-7.577,3.048.515-2.181,1.378-4.777,2.376-5.694m-15.394,1.929a1.548,1.548,0,0,1,.54-1.319,3.448,3.448,0,0,1,2.054-.8,6.255,6.255,0,0,1,3.8.961c1.138.734,2.433,3.143,3.314,5.2-2.965-.3-6.727-.9-7.987-1.71a3.417,3.417,0,0,1-1.72-2.34m-5.055,12.9-.383-4.443a.435.435,0,0,1,.4-.47l15.459-1.33.456,5.309-15.458,1.33a.435.435,0,0,1-.469-.4m4.817,22.713-1.735-20.178,13.048-1.122,1.772,20.61L208.523,307.3a.436.436,0,0,1-.47-.4M236.5,304.46a.436.436,0,0,1-.4.47l-12.615,1.085-1.772-20.61,13.047-1.122Zm.869-23.2a.435.435,0,0,1-.4.469l-15.459,1.33-.457-5.309,15.459-1.329a.435.435,0,0,1,.47.4Z" transform="translate(-50.623 -67.012)" fill="#e1251b"/>
    <path id="Trazado_22237" data-name="Trazado 22237" d="M280.982,271.26l-7.171-1.017a7.176,7.176,0,0,0,1.564-.611,5.662,5.662,0,0,0,3.013-3.96,3.9,3.9,0,0,0-1.11-3.321c-1.938-1.99-5.762-2.237-8.708-.562-1.431.814-2.761,2.746-3.744,4.5-.457-1.954-1.2-4.179-2.346-5.36-2.364-2.429-6.106-3.255-8.519-1.881a3.9,3.9,0,0,0-1.991,2.882,5.663,5.663,0,0,0,1.795,4.641,7.1,7.1,0,0,0,1.331,1.022l-7.169-1.017a2.794,2.794,0,0,0-3.155,2.371l-.626,4.416a2.794,2.794,0,0,0,2.371,3.155l.063.009-2.844,20.051a2.794,2.794,0,0,0,2.371,3.155l27.4,3.887a2.8,2.8,0,0,0,3.155-2.371l2.844-20.051.064.009a2.794,2.794,0,0,0,3.155-2.37l.626-4.416a2.794,2.794,0,0,0-2.371-3.154" transform="translate(-61.533 -65.238)" fill="#fff"/>
    <path id="Trazado_22238" data-name="Trazado 22238" d="M280.982,271.26l-7.171-1.017a7.214,7.214,0,0,0,1.564-.611,5.661,5.661,0,0,0,3.013-3.959,3.9,3.9,0,0,0-1.11-3.322c-1.938-1.99-5.762-2.237-8.708-.562-1.431.814-2.761,2.746-3.744,4.5-.457-1.955-1.2-4.18-2.346-5.36-2.364-2.429-6.106-3.255-8.52-1.881a3.9,3.9,0,0,0-1.991,2.882,5.665,5.665,0,0,0,1.794,4.641,7.132,7.132,0,0,0,1.332,1.022l-7.17-1.017a2.794,2.794,0,0,0-3.154,2.371l-.626,4.416a2.794,2.794,0,0,0,2.371,3.155l.063.009-2.844,20.051a2.794,2.794,0,0,0,2.371,3.155l27.4,3.887a2.794,2.794,0,0,0,3.155-2.37l2.844-20.052.064.009a2.794,2.794,0,0,0,3.155-2.37l.626-4.416a2.794,2.794,0,0,0-2.371-3.154m-11.246-7.423a6.25,6.25,0,0,1,3.845-.75,3.446,3.446,0,0,1,2.008.908,1.544,1.544,0,0,1,.466,1.347,3.416,3.416,0,0,1-1.846,2.242c-1.3.742-5.093,1.133-8.069,1.268.992-2.01,2.417-4.345,3.595-5.014M254.3,262.256a1.547,1.547,0,0,1,.823-1.164h0a3.456,3.456,0,0,1,2.18-.313,6.249,6.249,0,0,1,3.486,1.79c.945.971,1.665,3.61,2.059,5.816-2.822-.957-6.353-2.386-7.4-3.461a3.417,3.417,0,0,1-1.15-2.667m-7.825,11.433.626-4.416a.434.434,0,0,1,.491-.369l15.361,2.179-.748,5.275-15.361-2.179a.434.434,0,0,1-.369-.49m-.41,23.215,2.844-20.052,12.966,1.84-2.9,20.481-12.536-1.778a.434.434,0,0,1-.369-.49m28.265,4.009a.435.435,0,0,1-.491.369L261.306,299.5l2.9-20.482,12.966,1.84Zm6.062-22.413a.435.435,0,0,1-.491.368l-15.361-2.179.748-5.275,15.361,2.179a.435.435,0,0,1,.369.491Z" transform="translate(-61.533 -65.238)" fill="#e1251b"/>
    <path id="Trazado_22239" data-name="Trazado 22239" d="M84.541,272.73l-7.171-1.017a7.176,7.176,0,0,0,1.564-.611,5.662,5.662,0,0,0,3.013-3.96,3.9,3.9,0,0,0-1.11-3.321c-1.938-1.99-5.762-2.237-8.708-.562-1.431.814-2.761,2.746-3.744,4.5-.457-1.954-1.2-4.179-2.346-5.36-2.364-2.429-6.106-3.255-8.519-1.881a3.9,3.9,0,0,0-1.991,2.882,5.663,5.663,0,0,0,1.795,4.641,7.126,7.126,0,0,0,1.331,1.022l-7.169-1.017a2.794,2.794,0,0,0-3.155,2.371l-.626,4.416a2.794,2.794,0,0,0,2.371,3.154l.063.009-2.844,20.051a2.794,2.794,0,0,0,2.371,3.154l27.4,3.887a2.8,2.8,0,0,0,3.155-2.371l2.844-20.051.064.009a2.794,2.794,0,0,0,3.154-2.37l.626-4.416a2.794,2.794,0,0,0-2.371-3.154" transform="translate(-11.934 -65.61)" fill="#fff"/>
    <path id="Trazado_22240" data-name="Trazado 22240" d="M84.541,272.73l-7.171-1.017a7.215,7.215,0,0,0,1.564-.611,5.661,5.661,0,0,0,3.013-3.959,3.9,3.9,0,0,0-1.11-3.322c-1.938-1.99-5.762-2.237-8.708-.562-1.431.814-2.761,2.746-3.744,4.5-.457-1.955-1.2-4.18-2.346-5.36-2.364-2.429-6.106-3.255-8.52-1.881a3.9,3.9,0,0,0-1.991,2.882,5.665,5.665,0,0,0,1.794,4.641,7.134,7.134,0,0,0,1.332,1.022l-7.17-1.017a2.794,2.794,0,0,0-3.154,2.371l-.626,4.416a2.794,2.794,0,0,0,2.371,3.154l.063.009-2.844,20.051a2.794,2.794,0,0,0,2.371,3.154l27.4,3.887a2.794,2.794,0,0,0,3.154-2.37l2.844-20.052.064.009a2.794,2.794,0,0,0,3.154-2.37l.626-4.416a2.794,2.794,0,0,0-2.371-3.154m-11.246-7.423a6.25,6.25,0,0,1,3.845-.75,3.45,3.45,0,0,1,2.008.907,1.546,1.546,0,0,1,.466,1.348,3.416,3.416,0,0,1-1.846,2.242c-1.3.742-5.093,1.133-8.069,1.268.992-2.01,2.417-4.345,3.595-5.014m-15.433-1.581a1.547,1.547,0,0,1,.823-1.164h0a3.455,3.455,0,0,1,2.18-.313,6.249,6.249,0,0,1,3.486,1.79c.945.971,1.665,3.61,2.059,5.816-2.822-.957-6.353-2.386-7.4-3.461a3.417,3.417,0,0,1-1.15-2.667m-7.825,11.433.626-4.416a.434.434,0,0,1,.491-.369l15.361,2.179-.748,5.275L50.406,275.65a.434.434,0,0,1-.369-.49m-.41,23.215,2.844-20.052,12.966,1.84-2.9,20.481L50,298.864a.434.434,0,0,1-.369-.49m28.264,4.009a.434.434,0,0,1-.49.368l-12.536-1.778,2.9-20.482,12.966,1.84Zm6.062-22.413a.435.435,0,0,1-.491.368L68.1,278.159l.748-5.275,15.361,2.179a.435.435,0,0,1,.369.491Z" transform="translate(-11.934 -65.61)" fill="#e1251b"/>
    <path id="Trazado_22241" data-name="Trazado 22241" d="M309.3,287.789l-7.216.62a7.147,7.147,0,0,0,1.386-.946,5.663,5.663,0,0,0,2.047-4.536,3.9,3.9,0,0,0-1.828-2.987c-2.336-1.5-6.117-.885-8.611,1.41-1.211,1.115-2.074,3.3-2.637,5.222-.884-1.8-2.107-3.8-3.491-4.7-2.849-1.836-6.681-1.8-8.725.081a3.9,3.9,0,0,0-1.292,3.255,5.661,5.661,0,0,0,2.791,4.12,7.207,7.207,0,0,0,1.527.7l-7.215.62a2.794,2.794,0,0,0-2.541,3.02l.382,4.443a2.793,2.793,0,0,0,3.019,2.541l.063-.005,1.736,20.178a2.793,2.793,0,0,0,3.019,2.541l27.577-2.372a2.794,2.794,0,0,0,2.542-3.019L310.1,297.8l.064-.005a2.8,2.8,0,0,0,2.542-3.019l-.383-4.444a2.793,2.793,0,0,0-3.019-2.541" transform="translate(-69.053 -70.475)" fill="#fff"/>
    <path id="Trazado_22242" data-name="Trazado 22242" d="M309.3,287.789l-7.216.62a7.147,7.147,0,0,0,1.386-.946,5.662,5.662,0,0,0,2.047-4.535,3.9,3.9,0,0,0-1.828-2.988c-2.336-1.5-6.117-.885-8.611,1.41-1.211,1.115-2.074,3.3-2.637,5.222-.884-1.8-2.107-3.8-3.491-4.7-2.849-1.836-6.681-1.8-8.725.081a3.9,3.9,0,0,0-1.292,3.255,5.66,5.66,0,0,0,2.791,4.12,7.189,7.189,0,0,0,1.527.7l-7.215.62a2.794,2.794,0,0,0-2.541,3.02l.382,4.443a2.793,2.793,0,0,0,3.019,2.541l.063-.005,1.736,20.178a2.793,2.793,0,0,0,3.019,2.541l27.577-2.372a2.794,2.794,0,0,0,2.542-3.019L310.1,297.8l.064-.005a2.8,2.8,0,0,0,2.542-3.019l-.383-4.443a2.794,2.794,0,0,0-3.019-2.542m-12.626-4.706a6.249,6.249,0,0,1,3.578-1.6,3.453,3.453,0,0,1,2.16.434,1.547,1.547,0,0,1,.758,1.208,3.417,3.417,0,0,1-1.3,2.6c-1.1,1.015-4.707,2.248-7.577,3.048.515-2.181,1.378-4.777,2.376-5.694m-15.394,1.929a1.548,1.548,0,0,1,.54-1.319,3.447,3.447,0,0,1,2.054-.8,6.255,6.255,0,0,1,3.8.961c1.138.734,2.433,3.143,3.314,5.2-2.965-.3-6.727-.9-7.987-1.71a3.417,3.417,0,0,1-1.72-2.34m-5.055,12.9-.383-4.443a.435.435,0,0,1,.4-.47l15.458-1.33.456,5.309-15.458,1.33a.434.434,0,0,1-.469-.4m4.817,22.713-1.735-20.178,13.048-1.122,1.772,20.61-12.615,1.085a.436.436,0,0,1-.47-.4m28.443-2.447a.435.435,0,0,1-.4.47l-12.615,1.085-1.772-20.61L307.751,298Zm.869-23.2a.435.435,0,0,1-.4.469l-15.459,1.33-.457-5.309,15.459-1.329a.435.435,0,0,1,.47.4Z" transform="translate(-69.053 -70.475)" fill="#e1251b"/>
    <path id="Trazado_22243" data-name="Trazado 22243" d="M353.974,284.977l-7.171-1.017a7.176,7.176,0,0,0,1.564-.611,5.66,5.66,0,0,0,3.013-3.96,3.9,3.9,0,0,0-1.11-3.321c-1.938-1.99-5.762-2.237-8.708-.562-1.431.814-2.761,2.746-3.744,4.5-.457-1.954-1.2-4.179-2.346-5.36-2.364-2.429-6.106-3.255-8.519-1.881a3.9,3.9,0,0,0-1.991,2.882,5.663,5.663,0,0,0,1.795,4.641,7.129,7.129,0,0,0,1.331,1.022l-7.169-1.017a2.794,2.794,0,0,0-3.155,2.371l-.626,4.416a2.794,2.794,0,0,0,2.371,3.155l.063.009-2.844,20.051a2.794,2.794,0,0,0,2.371,3.155l27.4,3.887a2.794,2.794,0,0,0,3.155-2.371l2.844-20.051.064.009a2.794,2.794,0,0,0,3.154-2.37l.626-4.416a2.794,2.794,0,0,0-2.371-3.154" transform="translate(-79.963 -68.702)" fill="#fff"/>
    <path id="Trazado_22244" data-name="Trazado 22244" d="M353.974,284.976l-7.171-1.017a7.212,7.212,0,0,0,1.564-.611,5.661,5.661,0,0,0,3.013-3.959,3.9,3.9,0,0,0-1.11-3.322c-1.938-1.99-5.762-2.237-8.708-.562-1.431.814-2.761,2.746-3.744,4.5-.457-1.955-1.2-4.18-2.346-5.36-2.364-2.429-6.106-3.255-8.52-1.881a3.9,3.9,0,0,0-1.991,2.882,5.665,5.665,0,0,0,1.794,4.641,7.131,7.131,0,0,0,1.332,1.022l-7.17-1.017a2.794,2.794,0,0,0-3.154,2.371l-.626,4.416a2.794,2.794,0,0,0,2.371,3.154l.063.009-2.844,20.051a2.794,2.794,0,0,0,2.371,3.154l27.4,3.887a2.794,2.794,0,0,0,3.155-2.371l2.844-20.051.064.009a2.794,2.794,0,0,0,3.154-2.37l.626-4.416a2.794,2.794,0,0,0-2.371-3.154m-11.246-7.423a6.25,6.25,0,0,1,3.845-.75,3.45,3.45,0,0,1,2.008.907,1.546,1.546,0,0,1,.466,1.348A3.416,3.416,0,0,1,347.2,281.3c-1.3.742-5.093,1.133-8.069,1.268.992-2.01,2.417-4.345,3.595-5.014m-15.433-1.581a1.547,1.547,0,0,1,.823-1.164h0a3.455,3.455,0,0,1,2.18-.313,6.249,6.249,0,0,1,3.486,1.79c.945.971,1.665,3.61,2.059,5.816-2.822-.957-6.353-2.386-7.4-3.461a3.417,3.417,0,0,1-1.15-2.667m-7.825,11.433.626-4.416a.434.434,0,0,1,.491-.369l15.361,2.179-.748,5.275L319.839,287.9a.434.434,0,0,1-.369-.49m-.41,23.215,2.844-20.052,12.966,1.84-2.9,20.481-12.536-1.778a.434.434,0,0,1-.368-.49m28.265,4.009a.435.435,0,0,1-.491.369L334.3,313.22l2.9-20.482,12.966,1.84Zm6.062-22.413a.435.435,0,0,1-.491.369l-15.361-2.179.748-5.275,15.361,2.179a.435.435,0,0,1,.369.491Z" transform="translate(-79.963 -68.702)" fill="#e1251b"/>
    <path id="Trazado_22245" data-name="Trazado 22245" d="M120.3,284.977l-7.171-1.017a7.176,7.176,0,0,0,1.564-.611,5.66,5.66,0,0,0,3.013-3.96,3.9,3.9,0,0,0-1.11-3.321c-1.938-1.99-5.762-2.237-8.708-.562-1.431.814-2.761,2.746-3.744,4.5-.457-1.954-1.2-4.179-2.346-5.36-2.364-2.429-6.106-3.255-8.519-1.881a3.9,3.9,0,0,0-1.991,2.882,5.663,5.663,0,0,0,1.795,4.641,7.127,7.127,0,0,0,1.331,1.022l-7.169-1.017a2.794,2.794,0,0,0-3.155,2.371l-.626,4.416a2.794,2.794,0,0,0,2.371,3.155l.063.009L83.055,310.29a2.794,2.794,0,0,0,2.371,3.155l27.4,3.887a2.8,2.8,0,0,0,3.155-2.371l2.844-20.051.064.009a2.794,2.794,0,0,0,3.154-2.37l.626-4.416a2.794,2.794,0,0,0-2.371-3.154" transform="translate(-20.963 -68.702)" fill="#fff"/>
    <path id="Trazado_22246" data-name="Trazado 22246" d="M120.3,284.976l-7.171-1.017a7.212,7.212,0,0,0,1.564-.611,5.661,5.661,0,0,0,3.013-3.959,3.9,3.9,0,0,0-1.11-3.322c-1.938-1.99-5.762-2.237-8.708-.562-1.431.814-2.761,2.746-3.744,4.5-.457-1.955-1.2-4.18-2.346-5.36-2.364-2.429-6.106-3.255-8.52-1.881a3.9,3.9,0,0,0-1.991,2.882,5.665,5.665,0,0,0,1.794,4.641,7.132,7.132,0,0,0,1.332,1.022l-7.17-1.017a2.794,2.794,0,0,0-3.154,2.371l-.626,4.416a2.794,2.794,0,0,0,2.371,3.154l.063.009-2.844,20.051a2.794,2.794,0,0,0,2.371,3.154l27.4,3.887a2.794,2.794,0,0,0,3.154-2.371l2.844-20.051.064.009a2.794,2.794,0,0,0,3.154-2.37l.626-4.416a2.794,2.794,0,0,0-2.371-3.154m-11.246-7.423a6.25,6.25,0,0,1,3.845-.75,3.45,3.45,0,0,1,2.008.907,1.546,1.546,0,0,1,.466,1.348,3.416,3.416,0,0,1-1.846,2.242c-1.3.742-5.093,1.133-8.069,1.268.992-2.01,2.417-4.345,3.595-5.014m-15.433-1.581a1.547,1.547,0,0,1,.823-1.164h0a3.455,3.455,0,0,1,2.18-.313,6.249,6.249,0,0,1,3.486,1.79c.945.971,1.665,3.61,2.059,5.816-2.822-.957-6.353-2.386-7.4-3.461a3.417,3.417,0,0,1-1.15-2.667M85.8,287.405l.626-4.416a.434.434,0,0,1,.491-.369l15.361,2.179-.748,5.275L86.167,287.9a.434.434,0,0,1-.369-.49m-.41,23.215,2.844-20.052,12.966,1.84-2.9,20.481L85.756,311.11a.434.434,0,0,1-.369-.49m28.264,4.009a.434.434,0,0,1-.49.369l-12.536-1.778,2.9-20.482,12.966,1.84Zm6.062-22.413a.435.435,0,0,1-.491.369l-15.361-2.179.748-5.275,15.361,2.179a.435.435,0,0,1,.369.491Z" transform="translate(-20.963 -68.702)" fill="#e1251b"/>
    <path id="Trazado_22247" data-name="Trazado 22247" d="M46,280.7H38.754a7.194,7.194,0,0,0,1.463-.824,5.665,5.665,0,0,0,2.427-4.343,3.9,3.9,0,0,0-1.566-3.133c-2.2-1.7-6.018-1.406-8.7.666-1.3,1.007-2.349,3.107-3.076,4.977-.727-1.87-1.773-3.97-3.075-4.977-2.681-2.073-6.5-2.365-8.7-.666a3.9,3.9,0,0,0-1.567,3.133,5.662,5.662,0,0,0,2.429,4.343,7.187,7.187,0,0,0,1.462.824H12.609a2.794,2.794,0,0,0-2.79,2.79v4.46a2.793,2.793,0,0,0,2.79,2.79h.063V311a2.794,2.794,0,0,0,2.79,2.79H43.142A2.794,2.794,0,0,0,45.933,311V290.744H46a2.793,2.793,0,0,0,2.79-2.79v-4.46A2.794,2.794,0,0,0,46,280.7" transform="translate(-2.479 -68.5)" fill="#fff"/>
    <path id="Trazado_22248" data-name="Trazado 22248" d="M46,280.7H38.754a7.16,7.16,0,0,0,1.463-.825,5.664,5.664,0,0,0,2.427-4.343,3.9,3.9,0,0,0-1.566-3.133c-2.2-1.7-6.019-1.406-8.7.666-1.3,1.008-2.349,3.107-3.076,4.978-.727-1.871-1.773-3.97-3.075-4.978-2.681-2.073-6.5-2.365-8.7-.666a3.9,3.9,0,0,0-1.567,3.133,5.661,5.661,0,0,0,2.429,4.343,7.152,7.152,0,0,0,1.462.825H12.609a2.793,2.793,0,0,0-2.79,2.79v4.46a2.794,2.794,0,0,0,2.79,2.79h.063V311a2.793,2.793,0,0,0,2.79,2.79H43.142A2.793,2.793,0,0,0,45.933,311V290.745H46a2.794,2.794,0,0,0,2.79-2.79v-4.46A2.793,2.793,0,0,0,46,280.7m-12.177-5.77a6.248,6.248,0,0,1,3.7-1.283,3.455,3.455,0,0,1,2.115.617,1.546,1.546,0,0,1,.651,1.269,3.416,3.416,0,0,1-1.513,2.479c-1.186.917-4.883,1.837-7.811,2.388.7-2.129,1.784-4.641,2.855-5.469m-15.5.6a1.549,1.549,0,0,1,.652-1.269,3.454,3.454,0,0,1,2.115-.617,6.252,6.252,0,0,1,3.7,1.283c1.072.828,2.155,3.34,2.855,5.469-2.928-.551-6.625-1.471-7.811-2.388a3.416,3.416,0,0,1-1.513-2.479m-6.142,12.418v-4.46a.434.434,0,0,1,.434-.434H28.125v5.328H12.609a.435.435,0,0,1-.434-.434M15.028,311V290.745h13.1v20.686H15.463a.434.434,0,0,1-.434-.434m28.547,0a.434.434,0,0,1-.434.434H30.481V290.745H43.576Zm2.855-23.043a.435.435,0,0,1-.434.434H30.481V283.06H46a.435.435,0,0,1,.434.434Z" transform="translate(-2.479 -68.5)" fill="#e1251b"/>
    <path id="Trazado_22249" data-name="Trazado 22249" d="M145.334,298.71l-7.057-1.628a7.179,7.179,0,0,0,1.61-.475,5.665,5.665,0,0,0,3.342-3.686,3.9,3.9,0,0,0-.822-3.4c-1.76-2.149-5.549-2.723-8.627-1.307-1.5.689-2.986,2.5-4.115,4.159-.288-1.986-.836-4.268-1.879-5.541-2.147-2.622-5.8-3.766-8.327-2.6a3.9,3.9,0,0,0-2.231,2.7,5.663,5.663,0,0,0,1.39,4.777,7.165,7.165,0,0,0,1.239,1.132l-7.056-1.628a2.8,2.8,0,0,0-3.347,2.092l-1,4.346a2.794,2.794,0,0,0,2.092,3.346l.061.014-4.552,19.733a2.793,2.793,0,0,0,2.092,3.347l26.971,6.221a2.793,2.793,0,0,0,3.346-2.092l4.552-19.734.062.014a2.793,2.793,0,0,0,3.347-2.092l1-4.345a2.794,2.794,0,0,0-2.092-3.347" transform="translate(-26.76 -71.649)" fill="#fff"/>
    <path id="Trazado_22250" data-name="Trazado 22250" d="M145.334,298.71l-7.057-1.627a7.179,7.179,0,0,0,1.61-.475,5.662,5.662,0,0,0,3.341-3.686,3.9,3.9,0,0,0-.822-3.4c-1.76-2.148-5.549-2.723-8.627-1.306-1.5.688-2.986,2.5-4.115,4.158-.288-1.986-.836-4.267-1.878-5.541-2.147-2.622-5.805-3.766-8.327-2.6a3.9,3.9,0,0,0-2.231,2.7,5.664,5.664,0,0,0,1.39,4.777,7.194,7.194,0,0,0,1.239,1.132l-7.056-1.627a2.793,2.793,0,0,0-3.347,2.092l-1,4.346a2.794,2.794,0,0,0,2.092,3.346l.061.014-4.552,19.734a2.794,2.794,0,0,0,2.092,3.346l26.971,6.221a2.792,2.792,0,0,0,3.346-2.092l4.552-19.734.062.015a2.793,2.793,0,0,0,3.346-2.092l1-4.345a2.793,2.793,0,0,0-2.092-3.347m-10.568-8.359a6.254,6.254,0,0,1,3.9-.419,3.459,3.459,0,0,1,1.923,1.077,1.546,1.546,0,0,1,.349,1.382,3.415,3.415,0,0,1-2.031,2.076c-1.362.627-5.171.692-8.148.571,1.161-1.917,2.781-4.121,4.012-4.688m-15.241-2.9a1.546,1.546,0,0,1,.919-1.089h0a3.453,3.453,0,0,1,2.2-.126,6.254,6.254,0,0,1,3.319,2.083c.858,1.049,1.349,3.739,1.553,5.971-2.73-1.2-6.125-2.922-7.075-4.083a3.415,3.415,0,0,1-.916-2.755m-8.777,10.72,1-4.345a.435.435,0,0,1,.521-.326l15.118,3.487-1.2,5.192-15.118-3.487a.435.435,0,0,1-.326-.521m-2.4,23.094,4.552-19.734,12.761,2.944-4.65,20.157-12.338-2.846a.434.434,0,0,1-.325-.52m27.817,6.417a.435.435,0,0,1-.521.325l-12.337-2.846,4.65-20.157,12.76,2.944Zm7.96-21.812a.435.435,0,0,1-.521.325l-15.118-3.487,1.2-5.192,15.118,3.488a.435.435,0,0,1,.326.52Z" transform="translate(-26.759 -71.649)" fill="#e1251b"/>
    <path id="Trazado_22251" data-name="Trazado 22251" d="M391.359,305.693l-7.216.62a7.143,7.143,0,0,0,1.386-.946,5.663,5.663,0,0,0,2.047-4.536,3.9,3.9,0,0,0-1.828-2.987c-2.336-1.5-6.117-.885-8.611,1.41-1.211,1.115-2.074,3.3-2.637,5.222-.884-1.8-2.107-3.8-3.491-4.7-2.849-1.836-6.681-1.8-8.725.081a3.9,3.9,0,0,0-1.292,3.255,5.661,5.661,0,0,0,2.791,4.12,7.207,7.207,0,0,0,1.527.7l-7.215.62a2.794,2.794,0,0,0-2.541,3.02l.382,4.443a2.793,2.793,0,0,0,3.019,2.541l.063-.005,1.736,20.178a2.793,2.793,0,0,0,3.019,2.541L391.35,338.9a2.794,2.794,0,0,0,2.542-3.019L392.156,315.7l.064-.005a2.8,2.8,0,0,0,2.542-3.019l-.383-4.444a2.793,2.793,0,0,0-3.019-2.541" transform="translate(-89.771 -74.995)" fill="#fff"/>
    <path id="Trazado_22252" data-name="Trazado 22252" d="M391.359,305.693l-7.216.62a7.143,7.143,0,0,0,1.386-.946,5.662,5.662,0,0,0,2.047-4.535,3.9,3.9,0,0,0-1.828-2.988c-2.336-1.5-6.117-.885-8.611,1.41-1.211,1.115-2.074,3.3-2.637,5.222-.884-1.8-2.107-3.8-3.491-4.7-2.85-1.836-6.681-1.8-8.725.081a3.9,3.9,0,0,0-1.292,3.255,5.66,5.66,0,0,0,2.791,4.12,7.189,7.189,0,0,0,1.527.7l-7.215.62a2.794,2.794,0,0,0-2.541,3.02l.382,4.443a2.793,2.793,0,0,0,3.019,2.541l.063-.005,1.736,20.178a2.793,2.793,0,0,0,3.019,2.541L391.35,338.9a2.794,2.794,0,0,0,2.542-3.019L392.156,315.7l.064-.005a2.793,2.793,0,0,0,2.541-3.019l-.382-4.443a2.794,2.794,0,0,0-3.019-2.542m-12.627-4.706a6.253,6.253,0,0,1,3.578-1.6,3.453,3.453,0,0,1,2.16.434,1.547,1.547,0,0,1,.758,1.208,3.417,3.417,0,0,1-1.3,2.6c-1.1,1.015-4.707,2.249-7.577,3.048.515-2.181,1.378-4.777,2.376-5.694m-15.394,1.929a1.548,1.548,0,0,1,.54-1.319,3.447,3.447,0,0,1,2.054-.8,6.255,6.255,0,0,1,3.8.961c1.138.734,2.433,3.143,3.314,5.2-2.965-.3-6.727-.9-7.987-1.71a3.417,3.417,0,0,1-1.72-2.34m-5.055,12.9-.382-4.443a.435.435,0,0,1,.4-.47l15.459-1.33.456,5.309-15.458,1.33a.436.436,0,0,1-.47-.4m4.818,22.713-1.735-20.178,13.048-1.122,1.772,20.61-12.615,1.085a.436.436,0,0,1-.47-.4m28.443-2.447a.436.436,0,0,1-.4.47l-12.615,1.085-1.772-20.61,13.047-1.122Zm.869-23.2a.434.434,0,0,1-.4.469l-15.459,1.33-.457-5.309,15.459-1.329a.435.435,0,0,1,.47.4Z" transform="translate(-89.771 -74.995)" fill="#e1251b"/>
    <path id="Trazado_22253" data-name="Trazado 22253" d="M274.613,301.989l-7.171-1.017a7.176,7.176,0,0,0,1.564-.611,5.66,5.66,0,0,0,3.013-3.96,3.9,3.9,0,0,0-1.11-3.321c-1.938-1.99-5.762-2.237-8.708-.562-1.431.814-2.761,2.746-3.743,4.5-.457-1.954-1.2-4.179-2.346-5.36-2.364-2.429-6.106-3.255-8.519-1.882a3.9,3.9,0,0,0-1.991,2.882A5.663,5.663,0,0,0,247.4,297.3a7.124,7.124,0,0,0,1.331,1.022l-7.169-1.017a2.794,2.794,0,0,0-3.155,2.371l-.626,4.416a2.794,2.794,0,0,0,2.371,3.155l.063.009L237.366,327.3a2.794,2.794,0,0,0,2.371,3.155l27.4,3.887a2.8,2.8,0,0,0,3.155-2.371l2.844-20.051.064.009a2.794,2.794,0,0,0,3.154-2.37l.626-4.416a2.794,2.794,0,0,0-2.371-3.154" transform="translate(-59.925 -72.997)" fill="#fff"/>
    <path id="Trazado_22254" data-name="Trazado 22254" d="M274.613,301.989l-7.171-1.017a7.212,7.212,0,0,0,1.564-.611,5.663,5.663,0,0,0,3.013-3.959,3.9,3.9,0,0,0-1.11-3.322c-1.938-1.99-5.762-2.237-8.708-.562-1.431.814-2.761,2.746-3.743,4.5-.457-1.955-1.2-4.18-2.346-5.36-2.364-2.429-6.106-3.255-8.52-1.881a3.9,3.9,0,0,0-1.991,2.882,5.665,5.665,0,0,0,1.794,4.641,7.132,7.132,0,0,0,1.332,1.022l-7.17-1.017a2.794,2.794,0,0,0-3.154,2.371l-.626,4.416a2.794,2.794,0,0,0,2.371,3.155l.063.009L237.366,327.3a2.794,2.794,0,0,0,2.371,3.155l27.4,3.887a2.794,2.794,0,0,0,3.154-2.371l2.844-20.051.064.009a2.794,2.794,0,0,0,3.154-2.37l.626-4.416a2.794,2.794,0,0,0-2.371-3.154m-11.246-7.423a6.25,6.25,0,0,1,3.845-.75,3.45,3.45,0,0,1,2.008.907,1.546,1.546,0,0,1,.466,1.348,3.416,3.416,0,0,1-1.846,2.242c-1.3.742-5.093,1.133-8.069,1.268.992-2.01,2.417-4.345,3.595-5.014m-15.433-1.581a1.547,1.547,0,0,1,.823-1.164h0a3.455,3.455,0,0,1,2.18-.313,6.249,6.249,0,0,1,3.486,1.79c.945.971,1.665,3.61,2.059,5.816-2.822-.957-6.353-2.386-7.4-3.461a3.417,3.417,0,0,1-1.15-2.667m-7.825,11.433.626-4.416a.434.434,0,0,1,.491-.369l15.361,2.179-.748,5.275-15.361-2.179a.434.434,0,0,1-.369-.49m-.41,23.215,2.844-20.052,12.966,1.84L252.6,329.9l-12.537-1.778a.434.434,0,0,1-.369-.49m28.264,4.009a.434.434,0,0,1-.49.368l-12.536-1.778,2.9-20.482,12.966,1.84Zm6.062-22.413a.435.435,0,0,1-.491.369l-15.361-2.179.748-5.275,15.361,2.179a.435.435,0,0,1,.369.491Z" transform="translate(-59.925 -72.997)" fill="#e1251b"/>
    <path id="Trazado_22255" data-name="Trazado 22255" d="M220.886,288.642l-7.216.62a7.146,7.146,0,0,0,1.386-.946,5.663,5.663,0,0,0,2.047-4.536,3.9,3.9,0,0,0-1.828-2.987c-2.336-1.5-6.117-.885-8.611,1.41-1.211,1.115-2.074,3.3-2.637,5.222-.884-1.8-2.107-3.8-3.491-4.7-2.849-1.836-6.681-1.8-8.725.081a3.9,3.9,0,0,0-1.292,3.255,5.661,5.661,0,0,0,2.791,4.12,7.206,7.206,0,0,0,1.527.7l-7.215.62a2.794,2.794,0,0,0-2.541,3.02l.382,4.443a2.793,2.793,0,0,0,3.019,2.541l.063-.005,1.736,20.178a2.793,2.793,0,0,0,3.019,2.541l27.577-2.372a2.794,2.794,0,0,0,2.542-3.019l-1.736-20.178.064-.005a2.8,2.8,0,0,0,2.542-3.019l-.383-4.444a2.793,2.793,0,0,0-3.019-2.541" transform="translate(-46.728 -70.69)" fill="#fff"/>
    <path id="Trazado_22256" data-name="Trazado 22256" d="M220.886,288.642l-7.216.62a7.146,7.146,0,0,0,1.386-.946,5.662,5.662,0,0,0,2.047-4.535,3.9,3.9,0,0,0-1.828-2.988c-2.336-1.5-6.117-.885-8.611,1.41-1.211,1.115-2.074,3.3-2.637,5.222-.884-1.8-2.107-3.8-3.491-4.7-2.849-1.836-6.681-1.8-8.725.081a3.9,3.9,0,0,0-1.292,3.255,5.66,5.66,0,0,0,2.791,4.12,7.189,7.189,0,0,0,1.527.7l-7.215.62a2.794,2.794,0,0,0-2.541,3.02l.382,4.443a2.793,2.793,0,0,0,3.019,2.541l.063-.005,1.736,20.178a2.793,2.793,0,0,0,3.019,2.541l27.577-2.372a2.794,2.794,0,0,0,2.542-3.019l-1.736-20.178.064-.005a2.794,2.794,0,0,0,2.542-3.019l-.383-4.443a2.794,2.794,0,0,0-3.019-2.542m-12.626-4.706a6.249,6.249,0,0,1,3.578-1.6,3.453,3.453,0,0,1,2.16.434,1.547,1.547,0,0,1,.758,1.208,3.417,3.417,0,0,1-1.3,2.6c-1.1,1.015-4.707,2.249-7.577,3.048.515-2.181,1.378-4.777,2.376-5.694m-15.394,1.929a1.548,1.548,0,0,1,.54-1.319,3.447,3.447,0,0,1,2.054-.8,6.255,6.255,0,0,1,3.8.961c1.138.734,2.433,3.143,3.314,5.2-2.965-.3-6.727-.9-7.987-1.71a3.417,3.417,0,0,1-1.72-2.34m-5.055,12.9-.383-4.443a.435.435,0,0,1,.4-.47l15.459-1.33.456,5.309-15.458,1.33a.435.435,0,0,1-.469-.4m4.817,22.713L190.893,301.3l13.048-1.122,1.772,20.61L193.1,321.873a.436.436,0,0,1-.47-.4m28.443-2.447a.435.435,0,0,1-.4.47l-12.615,1.085-1.772-20.61,13.047-1.122Zm.869-23.2a.435.435,0,0,1-.4.469l-15.458,1.33-.457-5.309,15.459-1.329a.435.435,0,0,1,.47.4Z" transform="translate(-46.728 -70.69)" fill="#e1251b"/>
    <path id="Trazado_22257" data-name="Trazado 22257" d="M353.4,307.233l-7.171-1.017a7.174,7.174,0,0,0,1.564-.611,5.66,5.66,0,0,0,3.013-3.96,3.9,3.9,0,0,0-1.11-3.321c-1.938-1.99-5.762-2.237-8.708-.562-1.431.814-2.761,2.746-3.744,4.5-.457-1.954-1.2-4.179-2.346-5.36-2.364-2.429-6.106-3.255-8.519-1.882a3.9,3.9,0,0,0-1.991,2.882,5.663,5.663,0,0,0,1.795,4.641,7.126,7.126,0,0,0,1.331,1.022l-7.169-1.017a2.794,2.794,0,0,0-3.155,2.371l-.626,4.416a2.794,2.794,0,0,0,2.371,3.154l.063.009-2.844,20.051a2.794,2.794,0,0,0,2.371,3.154l27.4,3.887a2.8,2.8,0,0,0,3.155-2.371l2.844-20.051.064.009a2.794,2.794,0,0,0,3.154-2.37l.626-4.416a2.794,2.794,0,0,0-2.371-3.154" transform="translate(-79.818 -74.321)" fill="#fff"/>
    <path id="Trazado_22258" data-name="Trazado 22258" d="M353.4,307.233l-7.171-1.017a7.213,7.213,0,0,0,1.564-.611,5.661,5.661,0,0,0,3.013-3.959,3.9,3.9,0,0,0-1.11-3.322c-1.938-1.99-5.762-2.237-8.708-.562-1.431.814-2.761,2.746-3.744,4.5-.457-1.955-1.2-4.18-2.346-5.36-2.364-2.429-6.106-3.255-8.52-1.881a3.9,3.9,0,0,0-1.991,2.882,5.665,5.665,0,0,0,1.794,4.641,7.131,7.131,0,0,0,1.332,1.022l-7.17-1.017a2.794,2.794,0,0,0-3.155,2.371l-.626,4.416a2.794,2.794,0,0,0,2.371,3.154l.063.009-2.844,20.051a2.793,2.793,0,0,0,2.371,3.154l27.4,3.887a2.794,2.794,0,0,0,3.154-2.371l2.844-20.051.064.009a2.794,2.794,0,0,0,3.154-2.37l.626-4.416a2.794,2.794,0,0,0-2.371-3.155m-11.246-7.423A6.25,6.25,0,0,1,346,299.06a3.45,3.45,0,0,1,2.008.907,1.546,1.546,0,0,1,.466,1.348,3.416,3.416,0,0,1-1.846,2.242c-1.3.742-5.093,1.133-8.069,1.268.992-2.01,2.417-4.345,3.595-5.014m-15.433-1.581a1.547,1.547,0,0,1,.823-1.164h0a3.455,3.455,0,0,1,2.18-.313,6.249,6.249,0,0,1,3.486,1.79c.945.971,1.665,3.61,2.059,5.816-2.822-.957-6.353-2.386-7.4-3.461a3.417,3.417,0,0,1-1.15-2.667M318.9,309.662l.626-4.416a.434.434,0,0,1,.491-.368l15.361,2.179-.748,5.275-15.361-2.179a.434.434,0,0,1-.369-.49m-.41,23.215,2.844-20.052,12.966,1.84-2.9,20.481-12.536-1.778a.434.434,0,0,1-.369-.49m28.264,4.009a.434.434,0,0,1-.49.369l-12.536-1.778L336.63,315l12.966,1.84Zm6.062-22.413a.435.435,0,0,1-.491.368l-15.361-2.179.748-5.275,15.361,2.179a.435.435,0,0,1,.369.491Z" transform="translate(-79.819 -74.321)" fill="#e1251b"/>
    <path id="Trazado_22259" data-name="Trazado 22259" d="M111.224,317.752h-7.243a7.193,7.193,0,0,0,1.463-.824,5.665,5.665,0,0,0,2.427-4.343,3.9,3.9,0,0,0-1.566-3.133c-2.2-1.7-6.018-1.406-8.7.666-1.3,1.007-2.349,3.107-3.076,4.977-.727-1.87-1.773-3.97-3.075-4.977-2.681-2.073-6.5-2.365-8.7-.666a3.9,3.9,0,0,0-1.567,3.133,5.662,5.662,0,0,0,2.429,4.343,7.185,7.185,0,0,0,1.462.824H77.837a2.794,2.794,0,0,0-2.79,2.79V325a2.793,2.793,0,0,0,2.79,2.79H77.9v20.252a2.794,2.794,0,0,0,2.79,2.79H108.37a2.794,2.794,0,0,0,2.791-2.79V327.793h.064a2.793,2.793,0,0,0,2.79-2.79v-4.46a2.794,2.794,0,0,0-2.79-2.79" transform="translate(-18.949 -77.855)" fill="#fff"/>
    <path id="Trazado_22260" data-name="Trazado 22260" d="M111.224,317.752h-7.243a7.158,7.158,0,0,0,1.463-.825,5.664,5.664,0,0,0,2.427-4.343,3.9,3.9,0,0,0-1.566-3.133c-2.2-1.7-6.019-1.406-8.7.666-1.3,1.008-2.349,3.107-3.076,4.978-.727-1.871-1.773-3.97-3.075-4.978-2.681-2.073-6.5-2.365-8.7-.666a3.9,3.9,0,0,0-1.567,3.133,5.661,5.661,0,0,0,2.429,4.343,7.151,7.151,0,0,0,1.462.825H77.837a2.793,2.793,0,0,0-2.79,2.79V325a2.794,2.794,0,0,0,2.79,2.79H77.9v20.252a2.793,2.793,0,0,0,2.79,2.79H108.37a2.794,2.794,0,0,0,2.791-2.79V327.793h.064a2.794,2.794,0,0,0,2.79-2.79v-4.46a2.793,2.793,0,0,0-2.79-2.79m-12.177-5.77a6.248,6.248,0,0,1,3.7-1.283,3.455,3.455,0,0,1,2.115.617,1.546,1.546,0,0,1,.651,1.269A3.416,3.416,0,0,1,104,315.063c-1.186.917-4.883,1.837-7.811,2.388.7-2.129,1.784-4.641,2.855-5.469m-15.5.6a1.549,1.549,0,0,1,.652-1.269,3.454,3.454,0,0,1,2.115-.617,6.252,6.252,0,0,1,3.7,1.283c1.072.828,2.155,3.34,2.855,5.469-2.928-.551-6.625-1.471-7.811-2.388a3.416,3.416,0,0,1-1.513-2.479M77.4,325v-4.46a.434.434,0,0,1,.434-.434H93.353v5.328H77.837A.435.435,0,0,1,77.4,325m2.853,23.043V327.793h13.1v20.686H80.691a.435.435,0,0,1-.434-.434m28.547,0a.434.434,0,0,1-.434.434H95.709V327.793H108.8ZM111.659,325a.435.435,0,0,1-.434.434H95.709v-5.328h15.515a.435.435,0,0,1,.434.434Z" transform="translate(-18.949 -77.854)" fill="#e1251b"/>
    <path id="Trazado_22261" data-name="Trazado 22261" d="M155.27,318.368l-7.057-1.628a7.177,7.177,0,0,0,1.61-.475,5.665,5.665,0,0,0,3.342-3.686,3.9,3.9,0,0,0-.822-3.4c-1.76-2.149-5.549-2.723-8.627-1.307-1.5.689-2.986,2.5-4.115,4.159-.288-1.986-.836-4.268-1.878-5.541-2.147-2.622-5.8-3.766-8.327-2.6a3.9,3.9,0,0,0-2.231,2.7,5.663,5.663,0,0,0,1.39,4.777,7.167,7.167,0,0,0,1.239,1.133l-7.057-1.628a2.794,2.794,0,0,0-3.347,2.092l-1,4.346a2.794,2.794,0,0,0,2.092,3.346l.061.014L115.991,340.4a2.793,2.793,0,0,0,2.092,3.347l26.971,6.221a2.793,2.793,0,0,0,3.346-2.092l4.552-19.734.062.014a2.793,2.793,0,0,0,3.347-2.092l1-4.345a2.794,2.794,0,0,0-2.092-3.347" transform="translate(-29.268 -76.612)" fill="#fff"/>
    <path id="Trazado_22262" data-name="Trazado 22262" d="M155.27,318.368l-7.057-1.627a7.178,7.178,0,0,0,1.61-.475,5.662,5.662,0,0,0,3.341-3.686,3.9,3.9,0,0,0-.822-3.4c-1.76-2.148-5.549-2.723-8.627-1.306-1.5.688-2.986,2.5-4.115,4.158-.288-1.986-.836-4.267-1.878-5.541-2.147-2.622-5.805-3.766-8.327-2.6a3.9,3.9,0,0,0-2.231,2.7,5.664,5.664,0,0,0,1.39,4.777,7.194,7.194,0,0,0,1.239,1.133l-7.056-1.627a2.793,2.793,0,0,0-3.347,2.092l-1,4.346a2.793,2.793,0,0,0,2.092,3.346l.061.014L115.99,340.4a2.794,2.794,0,0,0,2.092,3.346l26.971,6.221a2.792,2.792,0,0,0,3.346-2.092l4.552-19.734.062.015a2.793,2.793,0,0,0,3.346-2.092l1-4.345a2.793,2.793,0,0,0-2.092-3.347M144.7,310.008a6.254,6.254,0,0,1,3.9-.419,3.459,3.459,0,0,1,1.923,1.077,1.546,1.546,0,0,1,.349,1.382,3.415,3.415,0,0,1-2.031,2.076c-1.362.627-5.171.692-8.148.571,1.161-1.917,2.781-4.121,4.012-4.688m-15.241-2.9a1.545,1.545,0,0,1,.919-1.089h0a3.453,3.453,0,0,1,2.2-.126,6.254,6.254,0,0,1,3.319,2.083c.858,1.049,1.349,3.739,1.553,5.971-2.73-1.2-6.125-2.922-7.075-4.083a3.415,3.415,0,0,1-.916-2.755m-8.777,10.72,1-4.345a.435.435,0,0,1,.521-.326l15.118,3.487-1.2,5.192-15.118-3.487a.435.435,0,0,1-.326-.521m-2.4,23.094,4.552-19.734,12.761,2.944-4.65,20.157-12.338-2.846a.434.434,0,0,1-.325-.52m27.817,6.417a.435.435,0,0,1-.521.325l-12.337-2.846,4.65-20.157,12.76,2.944Zm7.96-21.812a.435.435,0,0,1-.521.325l-15.118-3.487,1.2-5.192,15.118,3.488a.435.435,0,0,1,.326.52Z" transform="translate(-29.268 -76.612)" fill="#e1251b"/>
    <path id="Trazado_22263" data-name="Trazado 22263" d="M189.044,315.1l-7.216.62a7.147,7.147,0,0,0,1.386-.946,5.663,5.663,0,0,0,2.047-4.536,3.9,3.9,0,0,0-1.828-2.987c-2.336-1.5-6.117-.885-8.611,1.41-1.211,1.115-2.074,3.3-2.637,5.222-.884-1.8-2.107-3.8-3.491-4.7-2.849-1.836-6.681-1.8-8.725.081a3.9,3.9,0,0,0-1.292,3.255,5.661,5.661,0,0,0,2.791,4.12,7.205,7.205,0,0,0,1.527.7l-7.215.62a2.794,2.794,0,0,0-2.541,3.02l.382,4.443a2.793,2.793,0,0,0,3.019,2.541l.063-.005,1.736,20.178a2.793,2.793,0,0,0,3.019,2.541l27.577-2.372a2.794,2.794,0,0,0,2.542-3.019l-1.736-20.178.064-.005a2.8,2.8,0,0,0,2.542-3.019l-.383-4.444a2.793,2.793,0,0,0-3.019-2.541" transform="translate(-38.689 -77.37)" fill="#fff"/>
    <path id="Trazado_22264" data-name="Trazado 22264" d="M189.044,315.095l-7.216.62a7.148,7.148,0,0,0,1.386-.946,5.662,5.662,0,0,0,2.047-4.535,3.9,3.9,0,0,0-1.828-2.988c-2.336-1.5-6.117-.885-8.611,1.41-1.211,1.115-2.074,3.3-2.637,5.222-.884-1.8-2.107-3.8-3.491-4.7-2.849-1.836-6.681-1.8-8.725.081a3.9,3.9,0,0,0-1.292,3.255,5.66,5.66,0,0,0,2.791,4.12,7.19,7.19,0,0,0,1.527.7l-7.215.62a2.794,2.794,0,0,0-2.541,3.02l.382,4.443a2.793,2.793,0,0,0,3.019,2.541l.063-.005,1.736,20.178a2.793,2.793,0,0,0,3.019,2.541l27.577-2.372a2.794,2.794,0,0,0,2.542-3.019L189.841,325.1l.064-.005a2.794,2.794,0,0,0,2.541-3.019l-.382-4.443a2.794,2.794,0,0,0-3.019-2.542m-12.626-4.706a6.249,6.249,0,0,1,3.578-1.6,3.453,3.453,0,0,1,2.16.434,1.547,1.547,0,0,1,.758,1.208,3.417,3.417,0,0,1-1.3,2.6c-1.1,1.015-4.707,2.248-7.577,3.048.515-2.181,1.378-4.777,2.376-5.694m-15.394,1.929a1.548,1.548,0,0,1,.54-1.319,3.447,3.447,0,0,1,2.054-.8,6.255,6.255,0,0,1,3.8.961c1.138.734,2.433,3.143,3.314,5.2-2.965-.3-6.727-.9-7.987-1.71a3.417,3.417,0,0,1-1.72-2.34m-5.055,12.9-.383-4.443a.435.435,0,0,1,.4-.47l15.459-1.33.456,5.309-15.458,1.33a.434.434,0,0,1-.469-.4m4.817,22.713-1.735-20.178L172.1,326.63l1.772,20.61-12.615,1.085a.436.436,0,0,1-.47-.4m28.443-2.447a.436.436,0,0,1-.4.47l-12.615,1.085-1.772-20.61,13.047-1.122Zm.869-23.2a.435.435,0,0,1-.4.469l-15.459,1.33-.457-5.309,15.459-1.329a.435.435,0,0,1,.47.4Z" transform="translate(-38.689 -77.369)" fill="#e1251b"/>
    <path id="Trazado_22265" data-name="Trazado 22265" d="M233.716,312.283l-7.171-1.017a7.175,7.175,0,0,0,1.564-.611,5.66,5.66,0,0,0,3.013-3.96,3.9,3.9,0,0,0-1.11-3.321c-1.938-1.99-5.762-2.237-8.708-.562-1.431.814-2.761,2.746-3.744,4.5-.457-1.954-1.2-4.179-2.346-5.36-2.364-2.429-6.106-3.255-8.519-1.882a3.9,3.9,0,0,0-1.991,2.882,5.663,5.663,0,0,0,1.795,4.641,7.126,7.126,0,0,0,1.331,1.022l-7.169-1.017a2.794,2.794,0,0,0-3.155,2.371l-.626,4.416a2.794,2.794,0,0,0,2.371,3.155l.063.009L196.469,337.6a2.794,2.794,0,0,0,2.371,3.155l27.4,3.887a2.8,2.8,0,0,0,3.155-2.371l2.844-20.051.064.009a2.794,2.794,0,0,0,3.154-2.37l.626-4.416a2.794,2.794,0,0,0-2.371-3.155" transform="translate(-49.599 -75.596)" fill="#fff"/>
    <path id="Trazado_22266" data-name="Trazado 22266" d="M233.716,312.283l-7.171-1.017a7.211,7.211,0,0,0,1.564-.611,5.661,5.661,0,0,0,3.013-3.959,3.9,3.9,0,0,0-1.11-3.322c-1.938-1.99-5.762-2.237-8.708-.562-1.431.814-2.761,2.746-3.744,4.5-.457-1.955-1.2-4.18-2.346-5.36-2.364-2.429-6.106-3.255-8.52-1.881a3.9,3.9,0,0,0-1.991,2.882,5.665,5.665,0,0,0,1.794,4.641,7.134,7.134,0,0,0,1.332,1.022l-7.17-1.017a2.794,2.794,0,0,0-3.155,2.371l-.626,4.416a2.794,2.794,0,0,0,2.371,3.155l.063.009L196.469,337.6a2.794,2.794,0,0,0,2.371,3.155l27.4,3.887a2.794,2.794,0,0,0,3.154-2.371l2.844-20.051.064.009a2.794,2.794,0,0,0,3.154-2.37l.626-4.416a2.794,2.794,0,0,0-2.371-3.155M222.47,304.86a6.25,6.25,0,0,1,3.845-.751,3.45,3.45,0,0,1,2.008.907,1.546,1.546,0,0,1,.466,1.348,3.416,3.416,0,0,1-1.846,2.242c-1.3.742-5.093,1.133-8.069,1.268.992-2.01,2.417-4.345,3.595-5.014m-15.433-1.581a1.547,1.547,0,0,1,.823-1.164h0a3.455,3.455,0,0,1,2.18-.313,6.249,6.249,0,0,1,3.486,1.79c.945.971,1.665,3.61,2.059,5.816-2.822-.957-6.353-2.386-7.4-3.461a3.417,3.417,0,0,1-1.15-2.667m-7.825,11.433.626-4.416a.434.434,0,0,1,.491-.369l15.361,2.179-.748,5.275L199.581,315.2a.434.434,0,0,1-.369-.49m-.41,23.215,2.844-20.052,12.966,1.84-2.9,20.481-12.536-1.778a.434.434,0,0,1-.368-.49m28.264,4.009a.434.434,0,0,1-.49.369l-12.536-1.778,2.9-20.482,12.966,1.839Zm6.062-22.413a.435.435,0,0,1-.491.369l-15.361-2.179.748-5.275,15.361,2.179a.435.435,0,0,1,.369.491Z" transform="translate(-49.599 -75.596)" fill="#e1251b"/>
    <path id="Trazado_22267" data-name="Trazado 22267" d="M37.275,313.753,30.1,312.735a7.178,7.178,0,0,0,1.564-.611,5.662,5.662,0,0,0,3.013-3.96,3.9,3.9,0,0,0-1.11-3.321c-1.938-1.99-5.762-2.237-8.708-.562-1.431.814-2.761,2.746-3.744,4.5-.457-1.954-1.2-4.179-2.346-5.36-2.364-2.429-6.106-3.255-8.519-1.881a3.9,3.9,0,0,0-1.991,2.882,5.663,5.663,0,0,0,1.795,4.641,7.127,7.127,0,0,0,1.331,1.022L4.22,309.064a2.794,2.794,0,0,0-3.155,2.371l-.626,4.416a2.794,2.794,0,0,0,2.371,3.154l.063.009L.028,339.066A2.794,2.794,0,0,0,2.4,342.22l27.4,3.887a2.8,2.8,0,0,0,3.155-2.371L35.8,323.685l.064.009a2.794,2.794,0,0,0,3.154-2.37l.626-4.416a2.794,2.794,0,0,0-2.371-3.155" transform="translate(0 -75.967)" fill="#fff"/>
    <path id="Trazado_22268" data-name="Trazado 22268" d="M37.275,313.753,30.1,312.736a7.213,7.213,0,0,0,1.564-.612,5.661,5.661,0,0,0,3.013-3.959,3.9,3.9,0,0,0-1.11-3.322c-1.938-1.99-5.762-2.237-8.708-.562-1.431.814-2.761,2.746-3.744,4.5-.457-1.955-1.2-4.18-2.346-5.36-2.364-2.429-6.106-3.255-8.52-1.881a3.9,3.9,0,0,0-1.991,2.882,5.665,5.665,0,0,0,1.794,4.641,7.134,7.134,0,0,0,1.332,1.022l-7.17-1.017a2.794,2.794,0,0,0-3.154,2.371l-.626,4.416a2.794,2.794,0,0,0,2.371,3.154l.063.009L.028,339.066A2.794,2.794,0,0,0,2.4,342.22l27.4,3.887a2.794,2.794,0,0,0,3.154-2.37L35.8,323.685l.064.009a2.794,2.794,0,0,0,3.154-2.37l.626-4.416a2.794,2.794,0,0,0-2.371-3.154M26.029,306.33a6.25,6.25,0,0,1,3.845-.751,3.447,3.447,0,0,1,2.008.908,1.544,1.544,0,0,1,.466,1.347,3.416,3.416,0,0,1-1.846,2.242c-1.3.742-5.093,1.133-8.069,1.268.992-2.01,2.417-4.345,3.595-5.014M10.6,304.749a1.547,1.547,0,0,1,.823-1.164h0a3.455,3.455,0,0,1,2.18-.313,6.249,6.249,0,0,1,3.486,1.79c.945.971,1.665,3.61,2.059,5.816-2.822-.957-6.353-2.386-7.4-3.461a3.417,3.417,0,0,1-1.15-2.667M2.771,316.182l.626-4.416a.434.434,0,0,1,.491-.369l15.361,2.179-.748,5.275L3.14,316.673a.434.434,0,0,1-.369-.49M2.361,339.4,5.2,319.345l12.966,1.84-2.9,20.481L2.729,339.887a.434.434,0,0,1-.369-.49m28.264,4.009a.434.434,0,0,1-.49.369L17.6,342l2.9-20.482,12.966,1.84Zm6.062-22.413a.435.435,0,0,1-.491.368l-15.361-2.179.748-5.275,15.361,2.179a.435.435,0,0,1,.369.491Z" transform="translate(0 -75.968)" fill="#e1251b"/>
    <path id="Trazado_22269" data-name="Trazado 22269" d="M267.833,322.569l-7.216.62a7.144,7.144,0,0,0,1.386-.946,5.663,5.663,0,0,0,2.047-4.536,3.9,3.9,0,0,0-1.828-2.987c-2.336-1.5-6.117-.885-8.611,1.41-1.211,1.115-2.074,3.3-2.637,5.222-.884-1.8-2.106-3.8-3.491-4.7-2.849-1.836-6.681-1.8-8.725.081a3.9,3.9,0,0,0-1.292,3.255,5.664,5.664,0,0,0,2.791,4.12,7.206,7.206,0,0,0,1.527.7l-7.215.62a2.794,2.794,0,0,0-2.541,3.02l.382,4.443a2.793,2.793,0,0,0,3.019,2.541l.063-.005,1.736,20.178a2.793,2.793,0,0,0,3.019,2.541l27.577-2.372a2.794,2.794,0,0,0,2.542-3.019l-1.736-20.178.064-.005a2.8,2.8,0,0,0,2.542-3.019l-.383-4.444a2.793,2.793,0,0,0-3.019-2.541" transform="translate(-58.582 -79.256)" fill="#fff"/>
    <path id="Trazado_22270" data-name="Trazado 22270" d="M267.833,322.569l-7.216.62a7.144,7.144,0,0,0,1.386-.946,5.662,5.662,0,0,0,2.047-4.535,3.9,3.9,0,0,0-1.828-2.988c-2.336-1.5-6.117-.885-8.611,1.41-1.211,1.115-2.074,3.3-2.637,5.222-.884-1.8-2.107-3.8-3.491-4.7-2.849-1.836-6.681-1.8-8.725.081a3.9,3.9,0,0,0-1.292,3.255,5.66,5.66,0,0,0,2.791,4.12,7.189,7.189,0,0,0,1.527.7l-7.215.62a2.794,2.794,0,0,0-2.541,3.02l.382,4.443a2.793,2.793,0,0,0,3.019,2.541l.063-.005,1.736,20.178a2.793,2.793,0,0,0,3.019,2.541l27.577-2.372a2.794,2.794,0,0,0,2.542-3.019l-1.736-20.178.064-.005a2.793,2.793,0,0,0,2.541-3.019l-.382-4.443a2.794,2.794,0,0,0-3.019-2.542m-12.627-4.706a6.253,6.253,0,0,1,3.578-1.6,3.453,3.453,0,0,1,2.16.434,1.547,1.547,0,0,1,.758,1.208,3.417,3.417,0,0,1-1.3,2.6c-1.1,1.015-4.707,2.249-7.578,3.048.516-2.181,1.379-4.777,2.376-5.694m-15.393,1.929a1.548,1.548,0,0,1,.54-1.319,3.447,3.447,0,0,1,2.054-.8,6.255,6.255,0,0,1,3.8.961c1.138.734,2.433,3.143,3.314,5.2-2.965-.3-6.727-.9-7.987-1.71a3.417,3.417,0,0,1-1.72-2.34m-5.055,12.9-.382-4.443a.435.435,0,0,1,.4-.47l15.459-1.33.456,5.309-15.458,1.33a.436.436,0,0,1-.47-.4m4.818,22.713-1.735-20.178,13.048-1.122,1.772,20.61L240.046,355.8a.436.436,0,0,1-.47-.4m28.443-2.447a.436.436,0,0,1-.4.47l-12.615,1.085-1.772-20.61,13.047-1.122Zm.869-23.2a.435.435,0,0,1-.4.469l-15.459,1.33-.457-5.309,15.458-1.329a.435.435,0,0,1,.47.4Z" transform="translate(-58.582 -79.256)" fill="#e1251b"/>
    <path id="Trazado_22271" data-name="Trazado 22271" d="M316.518,320.649l-7.171-1.017a7.176,7.176,0,0,0,1.564-.611,5.661,5.661,0,0,0,3.013-3.96,3.9,3.9,0,0,0-1.11-3.321c-1.938-1.99-5.762-2.237-8.708-.562-1.431.814-2.761,2.746-3.744,4.5-.457-1.954-1.2-4.179-2.346-5.36-2.364-2.429-6.106-3.255-8.519-1.881a3.9,3.9,0,0,0-1.991,2.882,5.663,5.663,0,0,0,1.795,4.641,7.124,7.124,0,0,0,1.331,1.022l-7.169-1.017a2.794,2.794,0,0,0-3.155,2.371l-.626,4.416a2.794,2.794,0,0,0,2.371,3.154l.063.009-2.844,20.051a2.794,2.794,0,0,0,2.371,3.154l27.4,3.887a2.8,2.8,0,0,0,3.155-2.371l2.844-20.051.064.009a2.794,2.794,0,0,0,3.155-2.37l.626-4.416a2.794,2.794,0,0,0-2.371-3.154" transform="translate(-70.506 -77.709)" fill="#fff"/>
    <path id="Trazado_22272" data-name="Trazado 22272" d="M316.518,320.649l-7.171-1.017a7.212,7.212,0,0,0,1.564-.611,5.661,5.661,0,0,0,3.013-3.959,3.9,3.9,0,0,0-1.11-3.322c-1.938-1.99-5.762-2.237-8.708-.562-1.431.814-2.761,2.746-3.744,4.5-.457-1.955-1.2-4.18-2.346-5.36-2.364-2.429-6.106-3.255-8.52-1.881a3.9,3.9,0,0,0-1.991,2.882,5.665,5.665,0,0,0,1.794,4.641,7.134,7.134,0,0,0,1.332,1.022l-7.17-1.017a2.794,2.794,0,0,0-3.155,2.371l-.626,4.416a2.794,2.794,0,0,0,2.371,3.154l.063.009-2.844,20.051a2.794,2.794,0,0,0,2.371,3.155l27.4,3.887a2.794,2.794,0,0,0,3.154-2.371l2.844-20.051.064.009a2.794,2.794,0,0,0,3.155-2.37l.626-4.416a2.794,2.794,0,0,0-2.371-3.155m-11.246-7.423a6.25,6.25,0,0,1,3.845-.75,3.45,3.45,0,0,1,2.008.907,1.546,1.546,0,0,1,.466,1.348,3.416,3.416,0,0,1-1.846,2.242c-1.3.742-5.093,1.133-8.069,1.268.992-2.01,2.417-4.345,3.595-5.014m-15.433-1.581a1.547,1.547,0,0,1,.823-1.164h0a3.456,3.456,0,0,1,2.181-.313,6.249,6.249,0,0,1,3.486,1.79c.945.971,1.665,3.61,2.059,5.816-2.822-.957-6.353-2.386-7.4-3.461a3.417,3.417,0,0,1-1.15-2.667m-7.825,11.433.626-4.416a.434.434,0,0,1,.491-.369l15.361,2.179-.748,5.275-15.361-2.179a.434.434,0,0,1-.369-.49m-.41,23.215,2.844-20.052,12.966,1.84-2.9,20.481-12.536-1.778a.434.434,0,0,1-.369-.49m28.264,4.009a.434.434,0,0,1-.49.368l-12.536-1.778,2.9-20.482,12.966,1.84Zm6.062-22.413a.435.435,0,0,1-.491.369l-15.361-2.179.748-5.275,15.361,2.179a.435.435,0,0,1,.369.491Z" transform="translate(-70.506 -77.709)" fill="#e1251b"/>
    <path id="Trazado_22273" data-name="Trazado 22273" d="M73.036,326l-7.171-1.017a7.174,7.174,0,0,0,1.564-.611,5.661,5.661,0,0,0,3.013-3.96,3.9,3.9,0,0,0-1.11-3.321c-1.938-1.99-5.762-2.237-8.708-.562-1.431.814-2.761,2.746-3.744,4.5-.457-1.954-1.2-4.179-2.346-5.36-2.364-2.429-6.106-3.255-8.519-1.882a3.9,3.9,0,0,0-1.991,2.882,5.663,5.663,0,0,0,1.795,4.641,7.126,7.126,0,0,0,1.331,1.022l-7.169-1.017a2.794,2.794,0,0,0-3.155,2.371L36.2,328.1a2.794,2.794,0,0,0,2.371,3.155l.063.009-2.844,20.051a2.794,2.794,0,0,0,2.371,3.155l27.4,3.887a2.8,2.8,0,0,0,3.155-2.371l2.844-20.051.064.009a2.794,2.794,0,0,0,3.154-2.37l.626-4.416A2.794,2.794,0,0,0,73.036,326" transform="translate(-9.029 -79.06)" fill="#fff"/>
    <path id="Trazado_22274" data-name="Trazado 22274" d="M73.036,326l-7.171-1.017a7.21,7.21,0,0,0,1.564-.611,5.661,5.661,0,0,0,3.013-3.959,3.9,3.9,0,0,0-1.11-3.322c-1.938-1.99-5.762-2.237-8.708-.562-1.431.814-2.761,2.746-3.744,4.5-.457-1.955-1.2-4.18-2.346-5.36-2.364-2.429-6.106-3.255-8.52-1.881a3.9,3.9,0,0,0-1.991,2.882,5.665,5.665,0,0,0,1.794,4.641,7.133,7.133,0,0,0,1.332,1.022l-7.17-1.017a2.794,2.794,0,0,0-3.154,2.371L36.2,328.1a2.794,2.794,0,0,0,2.371,3.155l.063.009-2.844,20.051a2.794,2.794,0,0,0,2.371,3.155l27.4,3.887a2.794,2.794,0,0,0,3.154-2.371l2.844-20.051.064.009a2.794,2.794,0,0,0,3.154-2.37l.626-4.416A2.794,2.794,0,0,0,73.036,326M61.79,318.577a6.25,6.25,0,0,1,3.845-.751,3.45,3.45,0,0,1,2.008.907,1.546,1.546,0,0,1,.466,1.348,3.416,3.416,0,0,1-1.846,2.242c-1.3.742-5.093,1.133-8.069,1.268.992-2.01,2.417-4.345,3.595-5.014M46.357,317a1.547,1.547,0,0,1,.823-1.164h0a3.455,3.455,0,0,1,2.18-.313,6.249,6.249,0,0,1,3.486,1.79c.945.971,1.665,3.61,2.059,5.816-2.822-.957-6.353-2.386-7.4-3.461A3.417,3.417,0,0,1,46.357,317m-7.825,11.433.626-4.416a.434.434,0,0,1,.491-.369l15.361,2.179-.748,5.275L38.9,328.92a.434.434,0,0,1-.369-.49m-.41,23.215,2.844-20.052,12.966,1.84-2.9,20.481L38.49,352.134a.434.434,0,0,1-.369-.49m28.264,4.009a.434.434,0,0,1-.49.369L53.36,354.244l2.9-20.482L69.23,335.6Zm6.062-22.413a.435.435,0,0,1-.491.369L56.6,331.429l.748-5.275,15.361,2.179a.435.435,0,0,1,.369.491Z" transform="translate(-9.029 -79.06)" fill="#e1251b"/>
    <path id="Trazado_22275" data-name="Trazado 22275" d="M138.53,73.376l-7.216.62a7.145,7.145,0,0,0,1.386-.946,5.663,5.663,0,0,0,2.047-4.536,3.9,3.9,0,0,0-1.828-2.987c-2.336-1.5-6.117-.885-8.611,1.41-1.211,1.115-2.074,3.3-2.637,5.222-.884-1.8-2.106-3.8-3.491-4.7-2.849-1.836-6.681-1.8-8.725.081a3.9,3.9,0,0,0-1.292,3.255,5.664,5.664,0,0,0,2.791,4.12,7.206,7.206,0,0,0,1.527.7l-7.215.62a2.794,2.794,0,0,0-2.541,3.02l.382,4.443a2.793,2.793,0,0,0,3.019,2.541l.063-.005,1.736,20.178a2.793,2.793,0,0,0,3.019,2.541l27.577-2.372a2.794,2.794,0,0,0,2.542-3.019l-1.736-20.178.064-.005a2.8,2.8,0,0,0,2.542-3.019l-.383-4.444a2.793,2.793,0,0,0-3.019-2.541" transform="translate(-25.934 -16.338)" fill="#fff"/>
    <path id="Trazado_22276" data-name="Trazado 22276" d="M138.531,73.376l-7.216.62a7.144,7.144,0,0,0,1.386-.946,5.662,5.662,0,0,0,2.047-4.535,3.9,3.9,0,0,0-1.828-2.988c-2.336-1.5-6.117-.885-8.611,1.41-1.211,1.115-2.074,3.3-2.637,5.222-.884-1.8-2.107-3.8-3.491-4.7-2.849-1.836-6.681-1.8-8.725.081a3.9,3.9,0,0,0-1.292,3.255,5.66,5.66,0,0,0,2.791,4.12,7.189,7.189,0,0,0,1.527.7l-7.215.621a2.793,2.793,0,0,0-2.541,3.019l.382,4.443a2.793,2.793,0,0,0,3.019,2.541l.063-.005,1.736,20.178a2.793,2.793,0,0,0,3.019,2.541l27.577-2.372a2.794,2.794,0,0,0,2.542-3.019l-1.736-20.178.064-.005a2.793,2.793,0,0,0,2.541-3.019l-.382-4.443a2.794,2.794,0,0,0-3.019-2.542M125.905,68.67a6.249,6.249,0,0,1,3.578-1.6,3.453,3.453,0,0,1,2.16.434,1.547,1.547,0,0,1,.758,1.208,3.417,3.417,0,0,1-1.3,2.6c-1.1,1.015-4.707,2.249-7.578,3.048.516-2.181,1.379-4.777,2.377-5.694M110.511,70.6a1.548,1.548,0,0,1,.54-1.319,3.448,3.448,0,0,1,2.054-.8,6.255,6.255,0,0,1,3.8.961c1.138.734,2.433,3.143,3.314,5.2-2.965-.3-6.727-.9-7.987-1.71a3.417,3.417,0,0,1-1.72-2.34m-5.055,12.9-.383-4.443a.435.435,0,0,1,.4-.47l15.459-1.33.456,5.309-15.458,1.33a.435.435,0,0,1-.469-.4m4.817,22.713-1.735-20.178,13.048-1.122,1.772,20.61-12.615,1.085a.436.436,0,0,1-.47-.4m28.443-2.447a.436.436,0,0,1-.4.47l-12.615,1.085-1.772-20.61,13.047-1.122Zm.869-23.2a.435.435,0,0,1-.4.469l-15.459,1.33-.457-5.309,15.459-1.329a.435.435,0,0,1,.47.4Z" transform="translate(-25.935 -16.338)" fill="#e1251b"/>
  </g>
</svg>
