<svg xmlns="http://www.w3.org/2000/svg" xmlns:xlink="http://www.w3.org/1999/xlink" width="386.488" height="407.828" viewBox="0 0 386.488 407.828">
  <defs>
    <clipPath id="clip-path">
      <rect id="Rectángulo_18862" data-name="Rectángulo 18862" width="229.381" height="337.804" fill="none"/>
    </clipPath>
  </defs>
  <g id="Grupo_19964" data-name="Grupo 19964" transform="matrix(0.799, 0.602, -0.602, 0.799, 203.296, 0)">
    <g id="Grupo_19944" data-name="Grupo 19944" clip-path="url(#clip-path)">
      <path id="Trazado_23394" data-name="Trazado 23394" d="M93.77,233.97c-1.957,6.055-3.872,12-5.556,17.392l-.226-.879q-1-.058-2.007-.058a33.711,33.711,0,0,0-17.206,62.714.6.6,0,0,1-.581.6c-13.34.241-28.486,8.756-31.468,23.208H214.27c-3.026-14.663-18.574-23.213-32.053-23.213v-.592a33.711,33.711,0,0,0-17.207-62.714c-.423,0-.843.01-1.262.026-3.656-15.709-8.965-38.7-11.317-49.738a16.012,16.012,0,0,1,10.036-18.407l.178-.065.219-.079A17.66,17.66,0,0,0,174.5,165.552l0-30.408,65.245-74.75A17.761,17.761,0,0,0,237.1,34.559h0a17.769,17.769,0,0,0-25.6,4.425l-54.385,82.984-.475-.219,28-95.186a17.762,17.762,0,1,0-34.6-7.646l-14.689,98.125-24.323,22.411a17.655,17.655,0,0,0-5.124,19.606c.03.08.057.16.09.239,4.629,11,5.4,16.387-1.522,40.549-.874,3.049-1.883,6.4-2.977,9.942a57.867,57.867,0,0,1-38.173-65.576,12.7,12.7,0,1,0-24.953-4.744,83.375,83.375,0,0,0,55.408,94.5" transform="translate(-16.787 -1.724)" fill="#fff"/>
      <path id="Trazado_23395" data-name="Trazado 23395" d="M230.935,274.9a4.011,4.011,0,0,1-1.685-.371l-5.528-2.556a3.813,3.813,0,0,1-1.706-5.362,3.905,3.905,0,0,1,5.02-1.508l5.528,2.555a3.79,3.79,0,0,1-1.629,7.241m-5.592-7.362a.972.972,0,0,0-.979,1.28,1,1,0,0,0,.536.608h0l5.528,2.556a1.1,1.1,0,0,0,1.406-.355,1.007,1.007,0,0,0-.448-1.42l-5.528-2.555a1.228,1.228,0,0,0-.516-.113" transform="translate(-101.254 -121.011)" fill="#e1251b"/>
      <path id="Trazado_23396" data-name="Trazado 23396" d="M222.769,297.421a13.779,13.779,0,0,1-8-11.83l-.064-1.237-.984.753a13.781,13.781,0,0,1-14.194,1.568l1.178-2.547a10.98,10.98,0,0,0,11.31-1.25l3.1-2.373,2.255,1.042.2,3.9a10.981,10.981,0,0,0,6.374,9.427Z" transform="translate(-91.206 -128.221)" fill="#e1251b"/>
      <path id="Trazado_23397" data-name="Trazado 23397" d="M205.334,289.954a13.811,13.811,0,0,1-5.805-1.281l1.178-2.547a10.98,10.98,0,0,0,11.31-1.25l1.705,2.229a13.785,13.785,0,0,1-8.388,2.85" transform="translate(-91.206 -130.219)" fill="#e1251b"/>
      <path id="Trazado_23398" data-name="Trazado 23398" d="M32.949,334.13h-.433V337.8H214.85l-.267-1.707c-1.191-7.627-5.7-14.495-12.7-19.338a39.147,39.147,0,0,0-16.471-6.42,36.182,36.182,0,0,0,8.606-9.975,35.744,35.744,0,0,0-30.574-53.695c-3.64-15.651-8.68-37.507-10.938-48.105a14.011,14.011,0,0,1,8.745-16.066l.386-.14a19.753,19.753,0,0,0,12.985-18.53l0-29.642,64.742-74.173a19.892,19.892,0,0,0,4.785-15.057,19.591,19.591,0,0,0-7.667-13.7l-.065-.049a19.809,19.809,0,0,0-28.538,4.932l-47.81,72.953,24.612-83.679A19.809,19.809,0,0,0,169.946.478a19.593,19.593,0,0,0-15.483,3.015,19.887,19.887,0,0,0-8.371,13.4L131.51,114.3l-23.765,21.9a19.75,19.75,0,0,0-5.684,21.847l.021.055c.031.086.062.171.1.263,4.255,10.107,5.372,14.842-1.6,39.195-.665,2.323-1.434,4.909-2.337,7.861A55.838,55.838,0,0,1,63.4,142.87a14.741,14.741,0,0,0-28.964-5.507A85.423,85.423,0,0,0,89.29,233.521c-1.526,4.726-2.938,9.122-4.21,13.155-.34-.009-.682-.015-1.023-.015a35.736,35.736,0,0,0-30.93,53.7,36.2,36.2,0,0,0,8.608,9.976A39.168,39.168,0,0,0,45,316.946c-6.339,4.472-10.467,10.384-12.047,17.184m161.829-51.7a31.909,31.909,0,0,1-15.533,27.229l-.994.594v3.791h2.041c12.388,0,26.356,7.548,29.762,20.32l-29.526-.034a30.394,30.394,0,0,0-8.674-11.856,34.063,34.063,0,0,0-10.886-5.959,86.625,86.625,0,0,0,7.182-24.178,84.047,84.047,0,0,0-.524-27.742l-.016-.078c-.039-.163-1.35-5.75-3.213-13.747a31.727,31.727,0,0,1,30.382,31.659M67.9,309.664a31.667,31.667,0,0,1,15.91-58.914c-1.676,5.41-3.039,10.036-3.989,13.731-1.946,7.563-2.255,16.607-.892,26.156a85.964,85.964,0,0,0,8.246,26.551l3.638-1.851C82.919,299.829,80.091,279.8,83.771,265.5c1.9-7.4,5.505-18.663,10.017-32.623l.622-1.924-1.918-.64a81.462,81.462,0,0,1-54.048-92.185,10.659,10.659,0,0,1,20.943,3.982A59.908,59.908,0,0,0,98.911,210l1.985.673.619-2c1.189-3.847,2.167-7.112,2.99-9.983,7.126-24.882,6.19-30.621,1.444-41.894-.01-.025-.018-.05-.028-.075l-.034-.092a15.656,15.656,0,0,1,4.534-17.339l24.913-22.953L150.13,17.5a15.721,15.721,0,1,1,30.628,6.767L152.264,121.14l3.673,1.695,55.349-84.457a15.727,15.727,0,0,1,22.633-3.935l.025.019a15.72,15.72,0,0,1,2.337,22.867l-65.749,75.327,0,31.173a15.663,15.663,0,0,1-10.294,14.692l-.4.144a17.8,17.8,0,0,0-9.532,8.256,18.256,18.256,0,0,0-1.8,12.493c3.681,17.286,14.737,64.389,15.116,66a82.567,82.567,0,0,1-7.361,51.427l-1.135,2.23,2.413.663c8.74,2.4,14.944,7.31,18.5,14.592l-34.932-.04v-.16H136c.213-3.951.965-13.534,3.608-31.132l-4.036-.606c-2.726,18.145-3.464,27.784-3.663,31.737H37.158c3.47-12.356,17.071-19.858,29.147-20.077a2.648,2.648,0,0,0,2.585-2.637v-1.158Z" transform="translate(-14.863 0)" fill="#e1251b"/>
      <path id="Trazado_23399" data-name="Trazado 23399" d="M58.334,159.234l-11.753,1.011A11.7,11.7,0,0,0,48.84,158.7a9.223,9.223,0,0,0,3.333-7.387,6.348,6.348,0,0,0-2.978-4.865c-3.805-2.448-9.964-1.442-14.025,2.3-1.973,1.816-3.378,5.369-4.3,8.506-1.44-2.934-3.431-6.195-5.686-7.647-4.64-2.99-10.882-2.931-14.21.133a6.347,6.347,0,0,0-2.1,5.3,9.224,9.224,0,0,0,4.546,6.709,11.711,11.711,0,0,0,2.488,1.134l-11.751,1.01a4.55,4.55,0,0,0-4.139,4.918l.623,7.237a4.55,4.55,0,0,0,4.918,4.138l.1-.009,2.827,32.864a4.55,4.55,0,0,0,4.918,4.138l44.916-3.863a4.55,4.55,0,0,0,4.139-4.918l-2.826-32.864.1-.009a4.549,4.549,0,0,0,4.139-4.917l-.622-7.237a4.55,4.55,0,0,0-4.918-4.139" transform="translate(0 -66.333)" fill="#fff"/>
      <path id="Trazado_23400" data-name="Trazado 23400" d="M58.335,159.235l-11.752,1.01A11.668,11.668,0,0,0,48.84,158.7a9.224,9.224,0,0,0,3.333-7.387,6.347,6.347,0,0,0-2.978-4.865c-3.805-2.449-9.963-1.442-14.025,2.3-1.973,1.816-3.377,5.369-4.3,8.506-1.441-2.934-3.432-6.2-5.686-7.648-4.64-2.99-10.882-2.931-14.21.133a6.348,6.348,0,0,0-2.1,5.3,9.223,9.223,0,0,0,4.547,6.709,11.66,11.66,0,0,0,2.487,1.134L4.156,163.894a4.55,4.55,0,0,0-4.138,4.918L.64,176.05a4.55,4.55,0,0,0,4.918,4.138l.1-.009,2.827,32.864a4.549,4.549,0,0,0,4.917,4.138l44.916-3.863a4.55,4.55,0,0,0,4.14-4.918l-2.827-32.864.1-.009a4.551,4.551,0,0,0,4.139-4.918l-.623-7.237a4.55,4.55,0,0,0-4.918-4.138m-20.565-7.664a10.18,10.18,0,0,1,5.828-2.6,5.623,5.623,0,0,1,3.518.706,2.518,2.518,0,0,1,1.234,1.967,5.562,5.562,0,0,1-2.109,4.233c-1.8,1.654-7.667,3.663-12.342,4.966.839-3.553,2.245-7.78,3.87-9.274M12.7,154.712a2.522,2.522,0,0,1,.879-2.149h0a5.627,5.627,0,0,1,3.347-1.3,10.185,10.185,0,0,1,6.187,1.566c1.855,1.2,3.964,5.119,5.4,8.477-4.828-.485-10.957-1.462-13.009-2.785a5.565,5.565,0,0,1-2.8-3.811M4.463,175.721l-.622-7.237a.708.708,0,0,1,.644-.765l25.177-2.166.744,8.647L5.229,176.364a.708.708,0,0,1-.765-.643m7.846,36.994L9.483,179.85l21.252-1.827,2.887,33.569-20.547,1.767a.709.709,0,0,1-.765-.644m46.326-3.984a.708.708,0,0,1-.644.765l-20.546,1.767-2.887-33.569,21.25-1.828Zm1.416-37.791a.709.709,0,0,1-.644.765L34.23,173.87l-.744-8.647,25.178-2.166a.708.708,0,0,1,.765.644Z" transform="translate(0 -66.334)" fill="#e1251b"/>
    </g>
  </g>
</svg>
