<?xml version="1.0" encoding="UTF-8" standalone="no"?>
<svg
   width="20.219"
   height="35.145"
   viewBox="0 0 20.218998 35.145"
   version="1.1"
   id="svg1"
   sodipodi:docname="zanahoria_icono.svg"
   inkscape:version="1.4 (86a8ad7, 2024-10-11)"
   xmlns:inkscape="http://www.inkscape.org/namespaces/inkscape"
   xmlns:sodipodi="http://sodipodi.sourceforge.net/DTD/sodipodi-0.dtd"
   xmlns="http://www.w3.org/2000/svg"
   xmlns:svg="http://www.w3.org/2000/svg">
  <sodipodi:namedview
     id="namedview1"
     pagecolor="#505050"
     bordercolor="#eeeeee"
     borderopacity="1"
     inkscape:showpageshadow="0"
     inkscape:pageopacity="0"
     inkscape:pagecheckerboard="0"
     inkscape:deskcolor="#505050"
     inkscape:zoom="9.8140022"
     inkscape:cx="12.838799"
     inkscape:cy="22.569793"
     inkscape:window-width="1920"
     inkscape:window-height="1009"
     inkscape:window-x="1912"
     inkscape:window-y="370"
     inkscape:window-maximized="1"
     inkscape:current-layer="Grupo_19888" />
  <defs
     id="defs1">
    <clipPath
       id="clip-path">
      <rect
         id="Rectángulo_18827"
         data-name="Rectángulo 18827"
         width="23.628"
         height="54.220001"
         fill="none"
         x="0"
         y="0" />
    </clipPath>
  </defs>
  <g
     id="Grupo_19888"
     data-name="Grupo 19888"
     transform="rotate(-13,23.32019,2.657)">
    <g
       id="Grupo_19887"
       data-name="Grupo 19887"
       clip-path="url(#clip-path)"
       style="fill:#ff0000"
       transform="matrix(0.63436001,0.00496222,0.00496222,0.61401189,1.1501264,-1.7012551)">
      <path
         id="Trazado_23219"
         data-name="Trazado 23219"
         d="m 15.935,88.311 c 1.245,-3.628 2.52,-7.232 3.692,-10.887 0.61,-1.9 3.273,-10.168 2.771,-11.892 -1.812,-6.226 -20.85,-6.059 -21.877,0.4 -0.37,2.327 2.1,9.532 2.9,11.883 1.2,3.524 2.513,7.012 3.858,10.484 0.706,1.823 2.222,4.433 4.479,4.444 2.257,0.011 3.558,-2.629 4.177,-4.435 m -2.778,-1.759 h 0.134 l 0.276,0.007 0.359,0.006 -0.334,0.863 a 10.547,10.547 0 0 1 -0.817,1.73 1.793,1.793 0 0 1 -1.188,1.026 0.863,0.863 0 0 1 -0.11,0.006 0.921,0.921 0 0 1 -0.119,-0.006 1.784,1.784 0 0 1 -1.184,-1.019 10.6,10.6 0 0 1 -0.821,-1.737 C 8.02,83.982 6.723,80.525 5.528,77.032 4.739,74.726 3.971,72.376 3.353,70.02 2.628,67.262 2.123,65.504 5.314,64.32 a 17.565,17.565 0 0 1 6.018,-0.945 h 0.283 a 17.56,17.56 0 0 1 6.018,0.945 c 3.191,1.182 2.686,2.939 1.962,5.7 -0.247,0.939 -0.52,1.872 -0.8,2.8 L 18.735,73 h -5.442 a 1.23,1.23 0 0 0 0,2.46 h 4.655 l -0.11,0.33 q -0.208,0.624 -0.421,1.247 -0.233,0.681 -0.471,1.361 l -0.059,0.168 h -3.594 a 1.23,1.23 0 0 0 0,2.46 h 2.715 l -0.123,0.336 q -0.472,1.29 -0.957,2.576 L 14.867,84.1 h -1.574 a 1.23,1.23 0 0 0 -0.135,2.452"
         transform="translate(-0.306,-38.526)"
         fill="#fff"
         fill-rule="evenodd"
         style="fill:#ff0000" />
      <path
         id="Trazado_23220"
         data-name="Trazado 23220"
         d="m 8.8,20.573 c 0.794,-0.042 1.59,-0.059 2.385,-0.058 0.74,0 1.48,0.017 2.22,0.052 a 35.684,35.684 0 0 1 3.862,-3.679 28.8,28.8 0 0 0 3.242,-2.981 c 2.431,-2.8 3.046,-5.824 3.108,-9.476 0.017,-1.019 0.115,-3.374 -0.765,-4.1 -0.831,-0.684 -2.683,-0.141 -3.58,0.128 a 12.211,12.211 0 0 0 -6.572,4.669 17,17 0 0 0 -2.279,6.8 l -0.1,0.648 -0.359,-0.548 C 8.1,9.175 5.208,8.082 1.9,8.087 0.266,8.09 -0.089,8.125 0.018,9.853 c 0.133,2.164 0.588,4.584 2.246,6.125 a 15.077,15.077 0 0 0 2.787,2.03 30.759,30.759 0 0 1 3.749,2.565 M 19.794,2.432 c 0.871,-0.289 1.684,-0.342 1.759,0.769 a 16.368,16.368 0 0 1 -0.68,5.744 9.957,9.957 0 0 1 -1.573,2.887 16.374,16.374 0 0 1 -1.94,2.078 c -1.622,1.487 -3.5,2.749 -5.046,4.3 l -0.476,0.478 0.048,-0.673 c 0.106,-1.472 0.223,-2.943 0.393,-4.409 a 17.23,17.23 0 0 1 2.15,-7.353 9.831,9.831 0 0 1 5.364,-3.822 M 9.7,18.425 C 8.21,17.515 6.7,16.651 5.229,15.703 3.119,14.34 2.578,13.463 2.3,10.945 A 0.753,0.753 0 0 1 2.436,10.329 0.878,0.878 0 0 1 3.225,10.18 c 4.385,0.669 6.28,3.88 6.861,8 l 0.074,0.525 z"
         fill="#fff"
         fill-rule="evenodd"
         style="fill:#ff0000" />
    </g>
  </g>
</svg>
