<?xml version="1.0" encoding="UTF-8" standalone="no"?>
<svg
   width="43.234001"
   height="40.469002"
   viewBox="0 0 43.234 40.469"
   version="1.1"
   id="svg2"
   sodipodi:docname="zanahorias_disponibles.svg"
   inkscape:version="1.4 (86a8ad7, 2024-10-11)"
   xmlns:inkscape="http://www.inkscape.org/namespaces/inkscape"
   xmlns:sodipodi="http://sodipodi.sourceforge.net/DTD/sodipodi-0.dtd"
   xmlns="http://www.w3.org/2000/svg"
   xmlns:svg="http://www.w3.org/2000/svg">
  <sodipodi:namedview
     id="namedview2"
     pagecolor="#505050"
     bordercolor="#eeeeee"
     borderopacity="1"
     inkscape:showpageshadow="0"
     inkscape:pageopacity="0"
     inkscape:pagecheckerboard="0"
     inkscape:deskcolor="#505050"
     inkscape:zoom="7.1753104"
     inkscape:cx="48.639011"
     inkscape:cy="56.234501"
     inkscape:window-width="1920"
     inkscape:window-height="1009"
     inkscape:window-x="1912"
     inkscape:window-y="370"
     inkscape:window-maximized="1"
     inkscape:current-layer="svg2" />
  <defs
     id="defs1">
    <clipPath
       id="clip-path">
      <rect
         id="Rectángulo_18823"
         data-name="Rectángulo 18823"
         width="45.548"
         height="104.524"
         fill="none"
         x="0"
         y="0" />
    </clipPath>
  </defs>
  <g
     id="Grupo_19998"
     data-name="Grupo 19998"
     transform="matrix(0.43525058,0,0,0.43000389,0.27873359,-5.3863161)">
    <g
       id="Elipse_385"
       data-name="Elipse 385"
       transform="translate(0,14.601)"
       fill="none"
       stroke="#691f32"
       stroke-width="2">
      <circle
         cx="44.821999"
         cy="44.821999"
         r="44.821999"
         stroke="none"
         id="circle1" />
      <circle
         cx="44.821999"
         cy="44.821999"
         r="43.821999"
         fill="none"
         id="circle2" />
    </g>
    <circle
       id="Elipse_386"
       data-name="Elipse 386"
       cx="39.887001"
       cy="39.887001"
       r="39.887001"
       transform="translate(4.935,19.536)"
       fill="#691f32" />
    <g
       id="Grupo_19997"
       data-name="Grupo 19997"
       transform="matrix(0.839,0.545,-0.545,0.839,59.034,0)">
      <g
         id="Grupo_19880"
         data-name="Grupo 19880"
         clip-path="url(#clip-path)">
        <path
           id="Trazado_22277"
           data-name="Trazado 22277"
           d="m 29.786,52.7 c 2.4,-6.994 4.858,-13.943 7.117,-20.988 1.177,-3.671 6.309,-19.6 5.342,-22.925 -3.493,-12 -40.193,-11.68 -42.173,0.776 -0.712,4.485 4.04,18.375 5.59,22.907 2.322,6.794 4.845,13.52 7.438,20.213 1.361,3.515 4.283,8.545 8.634,8.567 4.351,0.022 6.858,-5.067 8.052,-8.549"
           transform="translate(0.343,43.274)"
           fill="#ffffff"
           fill-rule="evenodd" />
        <path
           id="Trazado_22278"
           data-name="Trazado 22278"
           d="m 16.963,39.662 c 1.532,-0.08 3.065,-0.114 4.6,-0.111 1.427,0 2.854,0.032 4.279,0.1 a 68.859,68.859 0 0 1 7.445,-7.092 55.654,55.654 0 0 0 6.25,-5.748 c 4.686,-5.407 5.871,-11.226 5.991,-18.267 0.033,-1.965 0.222,-6.505 -1.475,-7.9 -1.6,-1.319 -5.172,-0.273 -6.9,0.247 -4.883,1.466 -9.855,4.7 -12.662,9 C 21.948,13.785 20.783,18.444 20.1,23 l -0.189,1.248 -0.692,-1.056 C 15.613,17.692 10.044,15.586 3.661,15.592 0.513,15.6 -0.172,15.664 0.034,19 c 0.258,4.168 1.134,8.832 4.332,11.8 a 29.04,29.04 0 0 0 5.373,3.915 59.183,59.183 0 0 1 7.225,4.945"
           fill="#ffffff"
           fill-rule="evenodd" />
        <path
           id="Trazado_22279"
           data-name="Trazado 22279"
           d="m 29.786,52.7 c 2.4,-6.994 4.858,-13.942 7.116,-20.988 1.177,-3.671 6.31,-19.6 5.343,-22.925 -3.493,-12 -40.194,-11.68 -42.173,0.776 -0.712,4.487 4.039,18.376 5.589,22.909 2.322,6.792 4.846,13.518 7.439,20.211 1.361,3.515 4.284,8.545 8.635,8.567 4.351,0.022 6.858,-5.067 8.052,-8.549 m -5.356,-3.391 0.258,0.006 c 0.177,0 0.355,0.01 0.533,0.013 L 25.915,49.34 25.27,51 A 20.332,20.332 0 0 1 23.695,54.334 3.456,3.456 0 0 1 21.4,56.315 1.669,1.669 0 0 1 21.187,56.326 1.78,1.78 0 0 1 20.958,56.315 3.439,3.439 0 0 1 18.676,54.351 20.442,20.442 0 0 1 17.1,51 C 14.529,44.363 12.029,37.7 9.727,30.964 8.207,26.519 6.727,21.988 5.533,17.446 4.133,12.129 3.161,8.741 9.313,6.462 a 33.862,33.862 0 0 1 11.6,-1.821 h 0.546 a 33.852,33.852 0 0 1 11.6,1.821 c 6.152,2.278 5.177,5.666 3.781,10.984 -0.476,1.81 -1,3.608 -1.55,5.4 l -0.1,0.341 H 24.692 a 2.371,2.371 0 0 0 0,4.742 h 8.974 l -0.211,0.635 q -0.4,1.2 -0.812,2.4 -0.449,1.314 -0.908,2.623 l -0.114,0.323 h -6.93 a 2.371,2.371 0 0 0 0,4.742 h 5.234 l -0.237,0.649 q -0.91,2.487 -1.845,4.966 l -0.117,0.312 h -3.034 a 2.371,2.371 0 0 0 -0.261,4.727"
           transform="translate(0.344,43.274)"
           fill="#e1251b"
           fill-rule="evenodd" />
        <path
           id="Trazado_22280"
           data-name="Trazado 22280"
           d="m 16.963,39.662 c 1.531,-0.08 3.065,-0.114 4.6,-0.111 1.427,0 2.854,0.032 4.28,0.1 a 68.79,68.79 0 0 1 7.444,-7.092 55.52,55.52 0 0 0 6.25,-5.747 C 44.22,21.4 45.406,15.585 45.525,8.544 c 0.033,-1.965 0.222,-6.5 -1.474,-7.9 -1.6,-1.319 -5.172,-0.273 -6.9,0.247 -4.883,1.466 -9.854,4.7 -12.661,9 C 21.947,13.785 20.782,18.444 20.1,23 l -0.189,1.249 -0.693,-1.056 C 15.613,17.693 10.043,15.587 3.66,15.593 0.513,15.6 -0.173,15.664 0.034,19 c 0.257,4.168 1.134,8.832 4.33,11.8 a 29.065,29.065 0 0 0 5.373,3.914 59.3,59.3 0 0 1 7.225,4.945 m 21.2,-34.973 c 1.68,-0.558 3.247,-0.66 3.391,1.483 a 31.553,31.553 0 0 1 -1.312,11.073 19.2,19.2 0 0 1 -3.031,5.567 31.566,31.566 0 0 1 -3.742,4.006 c -3.127,2.867 -6.755,5.3 -9.727,8.29 l -0.917,0.922 0.093,-1.3 c 0.2,-2.837 0.429,-5.674 0.757,-8.5 0.553,-4.766 1.483,-10.094 4.145,-14.175 C 30.256,8.317 34,6.07 38.158,4.689 M 18.7,35.521 C 15.827,33.767 12.912,32.102 10.08,30.273 6.011,27.646 4.97,25.954 4.423,21.1 a 1.452,1.452 0 0 1 0.262,-1.188 1.693,1.693 0 0 1 1.52,-0.288 c 8.454,1.289 12.107,7.48 13.227,15.418 l 0.143,1.011 z"
           transform="translate(0,-0.001)"
           fill="#e1251b"
           fill-rule="evenodd" />
      </g>
    </g>
  </g>
</svg>
