<?xml version="1.0" encoding="UTF-8" standalone="no"?>
<svg
   width="35.219"
   height="58.145"
   viewBox="0 0 35.219 58.145"
   version="1.1"
   id="svg1"
   sodipodi:docname="zanahoria.svg"
   inkscape:version="1.4 (86a8ad7, 2024-10-11)"
   xmlns:inkscape="http://www.inkscape.org/namespaces/inkscape"
   xmlns:sodipodi="http://sodipodi.sourceforge.net/DTD/sodipodi-0.dtd"
   xmlns="http://www.w3.org/2000/svg"
   xmlns:svg="http://www.w3.org/2000/svg">
  <sodipodi:namedview
     id="namedview1"
     pagecolor="#505050"
     bordercolor="#eeeeee"
     borderopacity="1"
     inkscape:showpageshadow="0"
     inkscape:pageopacity="0"
     inkscape:pagecheckerboard="0"
     inkscape:deskcolor="#505050"
     inkscape:zoom="13.879095"
     inkscape:cx="17.580397"
     inkscape:cy="29.0725"
     inkscape:window-width="1920"
     inkscape:window-height="1009"
     inkscape:window-x="1912"
     inkscape:window-y="370"
     inkscape:window-maximized="1"
     inkscape:current-layer="Grupo_19888" />
  <defs
     id="defs1">
    <clipPath
       id="clip-path">
      <rect
         id="Rectángulo_18827"
         data-name="Rectángulo 18827"
         width="23.628"
         height="54.22"
         fill="none" />
    </clipPath>
  </defs>
  <g
     id="Grupo_19888"
     data-name="Grupo 19888"
     transform="translate(0 5.314) rotate(-13)">
    <g
       id="Grupo_19887"
       data-name="Grupo 19887"
       clip-path="url(#clip-path)">
      <path
         id="Trazado_23219"
         data-name="Trazado 23219"
         d="M15.935,88.311c1.245-3.628,2.52-7.232,3.692-10.887.61-1.9,3.273-10.168,2.771-11.892-1.812-6.226-20.85-6.059-21.877.4-.37,2.327,2.1,9.532,2.9,11.883,1.2,3.524,2.513,7.012,3.858,10.484.706,1.823,2.222,4.433,4.479,4.444s3.558-2.629,4.177-4.435m-2.778-1.759.134,0,.276.007.359.006-.334.863a10.547,10.547,0,0,1-.817,1.73,1.793,1.793,0,0,1-1.188,1.026.863.863,0,0,1-.11.006.921.921,0,0,1-.119-.006,1.784,1.784,0,0,1-1.184-1.019,10.6,10.6,0,0,1-.821-1.737c-1.333-3.443-2.63-6.9-3.825-10.393-.789-2.306-1.557-4.656-2.175-7.012-.725-2.758-1.23-4.516,1.961-5.7a17.565,17.565,0,0,1,6.018-.945h.283a17.56,17.56,0,0,1,6.018.945c3.191,1.182,2.686,2.939,1.962,5.7-.247.939-.52,1.872-.8,2.8L18.735,73H13.293a1.23,1.23,0,0,0,0,2.46h4.655l-.11.33q-.208.624-.421,1.247-.233.681-.471,1.361l-.059.168H13.293a1.23,1.23,0,0,0,0,2.46h2.715l-.123.336q-.472,1.29-.957,2.576l-.061.162H13.293a1.23,1.23,0,0,0-.135,2.452"
         transform="translate(-0.306 -38.526)"
         fill="#fff"
         fill-rule="evenodd" />
      <path
         id="Trazado_23220"
         data-name="Trazado 23220"
         d="M8.8,20.573c.794-.042,1.59-.059,2.385-.058.74,0,1.48.017,2.22.052a35.684,35.684,0,0,1,3.862-3.679,28.8,28.8,0,0,0,3.242-2.981c2.431-2.8,3.046-5.824,3.108-9.476.017-1.019.115-3.374-.765-4.1-.831-.684-2.683-.141-3.58.128A12.211,12.211,0,0,0,12.7,5.128a17,17,0,0,0-2.279,6.8l-.1.648-.359-.548C8.1,9.175,5.208,8.082,1.9,8.087.266,8.09-.089,8.125.018,9.853c.133,2.164.588,4.584,2.246,6.125a15.077,15.077,0,0,0,2.787,2.03A30.759,30.759,0,0,1,8.8,20.573M19.794,2.432c.871-.289,1.684-.342,1.759.769a16.368,16.368,0,0,1-.68,5.744A9.957,9.957,0,0,1,19.3,11.832,16.374,16.374,0,0,1,17.36,13.91c-1.622,1.487-3.5,2.749-5.046,4.3l-.476.478.048-.673c.106-1.472.223-2.943.393-4.409a17.23,17.23,0,0,1,2.15-7.353,9.831,9.831,0,0,1,5.364-3.822M9.7,18.425c-1.49-.91-3-1.774-4.471-2.722C3.119,14.34,2.578,13.463,2.3,10.945a.753.753,0,0,1,.136-.616.878.878,0,0,1,.789-.149c4.385.669,6.28,3.88,6.861,8l.074.525Z"
         transform="translate(0 0)"
         fill="#fff"
         fill-rule="evenodd" />
    </g>
  </g>
</svg>
